<svg xmlns="http://www.w3.org/2000/svg" viewBox="0 0 708.86 800"><g id="Livello_2" data-name="Livello 2"><g id="Capa_1" data-name="Capa 1"><path d="M0,570.14A59.79,59.79,0,0,0,91.32,621L294.67,738.42c0,.59,0,1.17,0,1.75a59.83,59.83,0,0,0,119.66,0c0-.62,0-1.24-.05-1.86L617.54,621a59.81,59.81,0,1,0,59.77-103.55l0-234.78A59.87,59.87,0,0,0,708.86,230a.43.43,0,0,0,0-.05.43.43,0,0,1,0,0A59.81,59.81,0,0,0,617.5,179L414.26,61.65c0-.31,0-1.67,0-1.82a59.83,59.83,0,0,0-119.66,0c0,.15,0,1.49,0,1.81L91.29,179A59.79,59.79,0,0,0,0,229.86v.1a59.88,59.88,0,0,0,31.49,52.68l0,234.84A59.88,59.88,0,0,0,0,570.14ZM617.54,280.81c1,.64,2.07,1.26,3.14,1.83l0,234.84a59.88,59.88,0,0,0-31.45,52.66c0,.59,0,1.17,0,1.76L385.86,689.27c-1-.62-2-1.22-3.07-1.78V452.68A59.88,59.88,0,0,0,414.29,400c0-.62,0-1.24-.05-1.86ZM322.29,111.11a59.63,59.63,0,0,0,64.32,0l202.63,117c0,.57,0,1.14,0,1.71v.1c0,.59,0,1.18,0,1.76L385.86,349.1a59.68,59.68,0,0,0-62.9.06L119.62,231.71c0-.58,0-1.16,0-1.74v-.1c0-.6,0-1.2,0-1.79ZM88.15,282.65c1.08-.58,2.14-1.2,3.17-1.84L294.67,398.26c0,.58,0,1.16,0,1.74a59.87,59.87,0,0,0,31.49,52.68V687.49c-1.07.58-2.12,1.2-3.16,1.84L119.62,571.88c0-.58,0-1.16,0-1.74a59.87,59.87,0,0,0-31.55-52.71Z"/></g></g></svg>