<?xml version="1.0" encoding="utf-8"?>
<!-- Generator: Adobe Illustrator 26.3.1, SVG Export Plug-In . SVG Version: 6.00 Build 0)  -->
<svg version="1.1" id="svg2" xmlns:svg="http://www.w3.org/2000/svg"
	 xmlns="http://www.w3.org/2000/svg" xmlns:xlink="http://www.w3.org/1999/xlink" x="0px" y="0px" viewBox="0 0 749 127"
	 style="enable-background:new 0 0 749 127;" xml:space="preserve">
<style type="text/css">
	.st0{fill-rule:evenodd;clip-rule:evenodd;fill:#575756;}
</style>
<g id="g6" transform="matrix(0.9866372,0,0,0.9210123,6,6)">
	<path id="path8" class="st0" d="M442.9,15.5c14.2-2.6,29.9-1.7,44.6-3.5c-0.1,6.5-2.9,12.9-4.3,19.4l1.4,1l35.8-0.3l-4,16.2
		L479.4,49c-5.1,16.2-9,32.9-13.3,49.5c0.1,4.2,3.2,6.7,6.5,8.5c11.3,0,24.6,1.9,34.5-2.3l-4.7,18.5l-61.7,0.5
		c-8.4-1.4-17-9.7-18.7-18.1l0.4-11.9C429.5,67.9,436,41.5,442.9,15.5L442.9,15.5z M299.7,34.1c11.2,16.8,21.5,33.9,30.8,51.6
		c-17.4,13.3-35,25.9-52.6,38.5l0,1l28.9-0.5l32.7-23.6c4.9,7.4,9.6,15,12.3,23.4l55.6-0.6c-1.2-0.3-2.2-1.8-3.1-2.6l-27.1-47.4
		l54.9-40.1l-0.1-1L399,33.9c-8.2,10.9-20.8,16.3-31.2,24.3c-4.6-8-10.8-15.2-11.9-24.5L299.7,34.1L299.7,34.1z M658.9,31.7l0.7,4.6
		l-19.9,78.6l-4.8,7.8h52.5l-1.1-6.3l12.9-53.1c0.5-3.1,2.9-6.2,5.8-7.6c10.9,0.2,27.2-3.7,37.2,2.6l6.5-26.4
		c-16.4,2.7-38.7-8-48.1,10.6c-1.6-3.1-0.7-7.1-0.9-10.8L658.9,31.7L658.9,31.7z M140.5,0.1L34.7,0.6l0.2,8.8L7.7,112l-7.5,14.7
		l113.1-0.1c10.2,0.2,19-3.2,23.7-11.8c3.4-12.7,9.5-24.7,8.1-38.9c-1.6-5.5-5.5-10.6-10.4-14c4.8-1.4,9.6-3.3,13.3-7.2
		c8-10.9,10.5-24.5,10.8-37.9C156.9,8.6,148.8,1.5,140.5,0.1L140.5,0.1z M83.2,21l27.7,0.2c3.9,2.3,2.5,8,1.6,11.1
		c-2.4,6.2-2.3,14.4-7.9,18.6l-31.8,0.1L83.2,21L83.2,21z M67.2,71.9l29.5-0.1c4.1,1.9,3,7.8,1.9,11.1C94.8,90,99.1,101,91.2,105
		l-32.1,0C60.5,94,64.5,82.9,67.2,71.9L67.2,71.9z M265.6,34.7L172.8,35l-6.6,16.8c22.4-3.5,46.5-1.1,68.9-1.8c1.9,1,2.9,3,3.2,5.1
		c-0.9,2.9-0.6,6.7-3.9,8.3l-61.1,1.5l-10.6,5.3c-8.7,9.6-10.6,21.9-11.3,34.7c0.5,7.5,5.4,14.3,11.8,18.2c14.2,4.5,34.2,2.3,51,1.8
		c3.9-1,6.4-5.1,8.2-8.4c1.4,2.7,2.5,5.7,3.3,8.6l43.7,0.2l-1.4-6.3L281,68.2c2-6.6,4-15.8-0.4-21.7
		C277.6,40.6,271.5,36.9,265.6,34.7L265.6,34.7z M231.2,81.3l-6.5,24.6l-2.8,2.4l-22,0.4c-9.5-5.6-0.3-16.9,0.5-24.9l3.6-2.4
		L231.2,81.3L231.2,81.3z M628.6,32.6l-83.8-0.5c-6.3,1.2-12,5.2-15.9,11c-5.8,19.3-11.2,38.8-14.5,59.1c1.5,9.4,8.5,18.6,18.2,20.8
		l92-0.3l7.2-18.9l-4.6,2l-63,0.5l-3.3-1.7c-5.1-6.2,1-12.7,1.6-19l75.9-1.3c2.1-12.9,10.5-25.7,4.3-39.6
		C640,39.3,634.2,34.2,628.6,32.6L628.6,32.6z M575,49.2l20.3-0.3c1.9,0.5,4,2.4,4.7,4.5c-0.1,4.6-1,9-2.7,13.3l-29.9,0.5
		C570.1,61.2,569.1,53,575,49.2L575,49.2z"/>
</g>
</svg>
