<svg xmlns="http://www.w3.org/2000/svg" viewBox="0 0 70.78 63.87"><defs><style>.cls-1{fill:#1d1d1b;}</style></defs><g id="Livello_2" data-name="Livello 2"><g id="Livello_1-2" data-name="Livello 1"><path class="cls-1" d="M70.77,20.32A19.84,19.84,0,0,0,51,0C42.2,0,39.17,3.05,36.66,5.76a1.73,1.73,0,0,1-2.54,0C31.6,3.05,28.58,0,19.76,0A19.84,19.84,0,0,0,0,20.32,18.56,18.56,0,0,0,.15,23H5.56l4.31-7.79a3,3,0,0,1,2.67-1.55,3,3,0,0,1,2.62,1.63l7,13.43L26,21.29a3,3,0,0,1,5-.49L32.79,23h2.42a3,3,0,0,1,0,6H31.35a3,3,0,0,1-2.15-.91l-4.43,8.53a3,3,0,0,1-2.66,1.61h0a3,3,0,0,1-2.66-1.62l-7-13.59L10,27.49A3,3,0,0,1,7.33,29H1.9c.15.29.31.59.48.87,2.31,3.82,26.09,27.74,31.79,33.45a1.71,1.71,0,0,0,2.44,0c5.7-5.71,29.48-29.63,31.79-33.45A19.1,19.1,0,0,0,70.77,20.32Zm-11.7,9.81-15.72,15a.51.51,0,0,1-.83-.55l5.11-13.37a.51.51,0,0,0-.3-.66l-4.86-1.81a.51.51,0,0,1-.17-.85L57.85,13a.52.52,0,0,1,.83.58L52.69,27a.52.52,0,0,0,.34.71l5.82,1.53A.51.51,0,0,1,59.07,30.13Z"/></g></g></svg>