<svg xmlns="http://www.w3.org/2000/svg" viewBox="0 0 251.57 340.04"><g id="Livello_2" data-name="Livello 2"><g id="Livello_1-2" data-name="Livello 1"><g id="cv"><path d="M251.57,90.49a2.33,2.33,0,0,0-.06-.53s0,0,0-.07a3.73,3.73,0,0,0-.14-.44s-.05-.1-.07-.16a2.58,2.58,0,0,0-.18-.32,1,1,0,0,0-.08-.14,3.79,3.79,0,0,0-.32-.38l0,0L163.15.88l0,0a3,3,0,0,0-.39-.31l-.13-.09-.33-.18-.16-.07-.45-.14h0a2.47,2.47,0,0,0-.54,0H21.48A21.51,21.51,0,0,0,0,21.48V318.55A21.51,21.51,0,0,0,21.48,340H230.09a21.51,21.51,0,0,0,21.48-21.49V90.49ZM77.9,70.2A21.16,21.16,0,0,1,56.77,91.33H35.44A21.16,21.16,0,0,1,14.31,70.2V48.87A21.16,21.16,0,0,1,35.44,27.74H56.77A21.16,21.16,0,0,1,77.9,48.87ZM92.21,312.82a3,3,0,0,1-6,0V62.5a3,3,0,1,1,6,0ZM224,293.08H110.9a3,3,0,0,1,0-6H224a3,3,0,1,1,0,6Zm0-15H110.9a3,3,0,0,1,0-6H224a3,3,0,1,1,0,6Zm0-30H110.9a3,3,0,0,1,0-6H224a3,3,0,0,1,0,6Zm0-15H110.9a3,3,0,0,1,0-6H224a3,3,0,0,1,0,6Zm0-52.5H110.9a3,3,0,0,1,0-6H224a3,3,0,0,1,0,6Zm0-25H110.9a3,3,0,0,1,0-6H224a3,3,0,1,1,0,6Zm0-25H110.9a3,3,0,0,1,0-6H224a3,3,0,1,1,0,6Zm-44.53-43A15.5,15.5,0,0,1,164,72.07V10.24l77.31,77.31Z"/><rect x="20.31" y="33.74" width="51.59" height="51.59" rx="15.13"/></g></g></g></svg>