<svg xmlns="http://www.w3.org/2000/svg" viewBox="0 0 21.4 21.4"><defs><style>.cls-1{fill:#009fe3;}.cls-2{fill:#fff;}</style></defs><g id="Livello_2" data-name="Livello 2"><g id="Livello_1-2" data-name="Livello 1"><rect class="cls-1" width="21.4" height="21.4" rx="1.8"/><path class="cls-2" d="M5.41,14h1L7,7.39H5.92V6.47h2.4l2.17,5.15a5.5,5.5,0,0,1,.19.61h0a5.5,5.5,0,0,1,.19-.61l2.17-5.15h2.4v.92H14.39L14.93,14H16v.93H12.72V14h1l-.38-5.06a7,7,0,0,1,0-.7h0a5.67,5.67,0,0,1-.2.65l-1.94,4.45H10.17L8.22,8.89C8.13,8.65,8,8.24,8,8.24H8a7,7,0,0,1,0,.7L7.65,14h1v.93H5.41Z"/></g></g></svg>