<?xml version="1.0" encoding="utf-8"?>
<!-- Generator: Adobe Illustrator 26.3.1, SVG Export Plug-In . SVG Version: 6.00 Build 0)  -->
<svg version="1.1" id="Livello_1" xmlns="http://www.w3.org/2000/svg" xmlns:xlink="http://www.w3.org/1999/xlink" x="0px" y="0px"
	 viewBox="0 0 70.8 63.9" style="enable-background:new 0 0 70.8 63.9;" xml:space="preserve">
<style type="text/css">
	.st0{fill:#1D1D1B;}
</style>
<g>
	<path class="st0" d="M3.7,39.1c-0.2,0-0.3-0.1-0.3-0.3V25.6c0-0.2,0.1-0.3,0.3-0.3h2.9c0.2,0,0.3,0.1,0.3,0.3v5.1h4.8v-5.1
		c0-0.2,0.1-0.3,0.3-0.3h2.9c0.2,0,0.3,0.1,0.3,0.3v13.2c0,0.2-0.1,0.3-0.3,0.3H12c-0.2,0-0.3-0.1-0.3-0.3v-5.1H6.9v5.1
		c0,0.2-0.1,0.3-0.3,0.3H3.7z"/>
	<path class="st0" d="M16.5,39.1c-0.2,0-0.3-0.1-0.2-0.3l4.4-13.2c0.1-0.2,0.2-0.2,0.3-0.2h3.7c0.2,0,0.3,0.1,0.3,0.2l4.4,13.2
		c0.1,0.2,0,0.3-0.2,0.3h-3.1c-0.2,0-0.3-0.1-0.3-0.2l-2.1-7.6c-0.1-0.5-0.3-1-0.4-1.5c-0.1-0.5-0.2-1-0.4-1.5h0
		c-0.1,0.5-0.2,1-0.4,1.5c-0.1,0.5-0.3,1-0.4,1.5L20,38.9c0,0.2-0.2,0.3-0.3,0.3H16.5z M20.1,36.6l0.5-2.7H25l0.6,2.7H20.1z"/>
	<path class="st0" d="M36,39.4c-1.9,0-3.3-0.4-4.4-1.3S30,35.7,30,33.9v-3.2c0-1.9,0.5-3.3,1.6-4.2c1-0.9,2.5-1.3,4.4-1.3
		c1.4,0,2.5,0.2,3.4,0.6s1.6,1,2,1.8c0.4,0.8,0.6,1.7,0.4,2.7c0,0.1,0,0.2-0.1,0.2c0,0.1-0.1,0.1-0.2,0.1h-2.9
		c-0.2,0-0.3-0.1-0.3-0.3c0-0.6-0.2-1.1-0.5-1.5c-0.4-0.4-1-0.6-1.8-0.6c-0.8,0-1.4,0.2-1.8,0.6c-0.4,0.4-0.7,1.1-0.7,2v2.9
		c0,0.9,0.2,1.6,0.7,2c0.4,0.4,1.1,0.6,1.8,0.6c0.9,0,1.5-0.2,1.9-0.6s0.5-0.9,0.5-1.5c0-0.2,0.1-0.3,0.3-0.3h2.9
		c0.2,0,0.3,0.1,0.3,0.3c0.1,1-0.1,1.9-0.5,2.7c-0.4,0.8-1.1,1.4-2,1.8S37.3,39.4,36,39.4z"/>
	<path class="st0" d="M49.6,39.4c-1.9,0-3.3-0.4-4.4-1.3s-1.6-2.3-1.6-4.2v-3.2c0-1.9,0.5-3.3,1.6-4.2c1-0.9,2.5-1.3,4.4-1.3
		c1.4,0,2.5,0.2,3.4,0.6s1.6,1,2,1.8c0.4,0.8,0.6,1.7,0.4,2.7c0,0.1,0,0.2-0.1,0.2c0,0.1-0.1,0.1-0.2,0.1h-2.9
		c-0.2,0-0.3-0.1-0.3-0.3c0-0.6-0.2-1.1-0.5-1.5c-0.4-0.4-1-0.6-1.8-0.6c-0.8,0-1.4,0.2-1.8,0.6c-0.4,0.4-0.7,1.1-0.7,2v2.9
		c0,0.9,0.2,1.6,0.7,2c0.4,0.4,1.1,0.6,1.8,0.6c0.9,0,1.5-0.2,1.9-0.6s0.5-0.9,0.5-1.5c0-0.2,0.1-0.3,0.3-0.3h2.9
		c0.2,0,0.3,0.1,0.3,0.3c0.1,1-0.1,1.9-0.5,2.7c-0.4,0.8-1.1,1.4-2,1.8S51,39.4,49.6,39.4z"/>
	<path class="st0" d="M58.1,39.1c-0.2,0-0.3-0.1-0.3-0.3V25.6c0-0.2,0.1-0.3,0.3-0.3h4.4c2,0,3.4,0.4,4.3,1.2c0.9,0.8,1.3,2,1.3,3.5
		c0,1.5-0.5,2.6-1.4,3.5c-0.9,0.8-2.3,1.2-4.2,1.2h-1.3v4c0,0.2-0.1,0.3-0.3,0.3H58.1z M61.2,31.8h1.2c0.7,0,1.2-0.1,1.6-0.4
		c0.4-0.3,0.6-0.7,0.6-1.3c0-0.6-0.2-1.1-0.5-1.4c-0.4-0.3-0.9-0.4-1.6-0.4h-1.2V31.8z"/>
</g>
<g>
	<path class="st0" d="M24.7,18.7c-0.1,0-0.1,0-0.2,0c0,0.5-0.1,1-0.1,1.5c-0.1,1.3-0.2,2.6-0.2,3.9h0.6c0.1,0,0.1,0,0.2,0
		c-0.1-1.5-0.1-2.9-0.2-4.4C24.8,19.4,24.7,19,24.7,18.7z"/>
	<path class="st0" d="M27.3,27.8c-0.1-2.7-0.3-5.4-0.4-8.2c0-0.3-0.1-0.7-0.1-1c-0.1,0-0.1,0-0.2,0c0,0.5-0.1,1-0.1,1.6
		c-0.1,1.6-0.2,3.1-0.3,4.7c0,0.1,0.1,0.1,0.1,0.2l0,0l1.1,3.2C27.3,28.2,27.3,28,27.3,27.8z"/>
	<path class="st0" d="M56.5,33.4v-2.3c0,0.1-0.1,0.1-0.1,0.2c-0.3,0.3-0.7,0.5-1.1,0.5h-0.8c0,0.3,0,0.6,0,1h0.7
		C55.8,32.7,56.2,33,56.5,33.4z"/>
	<path class="st0" d="M14.8,24.1c0.6,0,1.2,0.3,1.4,0.9c0-3.3,0-6.6,0-9.9c0-0.2,0-0.5,0-0.7c2.1-0.5,4.1-0.9,6-1.5
		c4.5-1.4,8.5-3.7,12.4-6.4c0.6-0.4,0.9-0.4,1.5,0c4.2,2.9,8.6,5.4,13.6,6.8c1.6,0.4,3.2,0.7,4.8,1.1c0,0.2,0,0.5,0,0.7
		c0,3.3,0,6.7,0,10c0.7,0.5,1.3,1.1,1.7,1.8c0.1,0.2,0.2,0.5,0.3,0.7v-1.9c0-0.9,0.6-1.5,1.5-1.5h0.2c0-4.2,0-8.3,0-12.5
		c0-0.2,0-0.5,0-0.8c-0.6-0.1-1.1-0.1-1.6-0.2c-4.6-0.5-9-1.6-13-3.9c-2.7-1.6-5.2-3.4-7.8-5.1c-0.4-0.2-0.6-0.3-1,0
		c-0.9,0.7-1.8,1.3-2.7,1.9c-5.6,4.1-11.8,6.7-18.8,7.2c-0.9,0.1-0.9,0.1-0.9,1.1c0,4.1,0,8.2,0,12.3H14.8z"/>
	<path class="st0" d="M27.9,30.1l0.9,2.6v-2.1c0-1.4,0.3-2.6,0.7-3.5c0-0.2,0-0.4,0-0.6c-0.2-2.4-0.3-4.9-0.5-7.3
		c0-0.2,0-0.3-0.2-0.5c0,0.4-0.1,0.8-0.1,1.3c-0.2,3.2-0.4,6.5-0.5,9.7c0,0.1,0,0.2,0,0.3C28,30,28,30.1,27.9,30.1z"/>
	<path class="st0" d="M42.9,27.8c0.3-0.9,0.9-1.7,1.6-2.3c1.2-1,2.9-1.6,4.9-1.6c-0.6-1.4-1.6-2.7-2.8-3.8c-2.2-1.9-4.2-1.9-6.4,0
		c-1.2,1-2.1,2.4-2.8,3.8c1,0.1,1.8,0.3,2.5,0.7c1.2,0.5,2,1.3,2.6,2.3C42.7,27.2,42.8,27.5,42.9,27.8z"/>
	<path class="st0" d="M56.5,38.8v-2.1c-0.1,0.3-0.2,0.6-0.4,0.9c-0.6,1-1.4,1.8-2.6,2.3c-0.1,0-0.1,0-0.2,0.1
		c-0.5,1.3-1.2,2.5-2,3.7c-1.8,2.5-3.9,4.6-6.3,6.7c-0.1-0.9-0.2-1.8-0.2-2.6c-0.1-2.6-0.1-5.3-0.1-7.9c0-0.2,0-0.5,0.1-0.7
		c-0.1-0.1-0.2-0.1-0.3-0.2c-0.7-0.6-1.3-1.4-1.6-2.4c-0.1,0.4-0.3,0.7-0.5,1c-0.2,0.4-0.5,0.7-0.8,1c0.4,0.8,0.5,1.6,0.5,2.5
		c-0.1,3.3-0.3,6.6-0.5,9.9c0,0.5-0.2,1-0.1,1.5c0,0.6-0.3,1-0.7,1.3c-1.8,1.3-3.6,2.7-5.4,4c-1.5-1.1-2.9-2.2-4.4-3.2
		c-0.9-0.6-1.5-1.4-1.5-2.6c-0.1-3.5-0.4-7-0.6-10.5c0-0.4,0-0.8,0.1-1.3h-2.5c0.3,3.4-0.1,6.8-0.4,10.1c-0.1,0-0.2,0-0.2,0
		c-3-2.5-5.7-5.3-7.7-8.7c-0.3-0.5-0.5-1-0.8-1.5h-1c-0.4,0-0.6-0.1-0.9-0.2c0,0-0.1,0-0.1,0.1l-0.2,0.6v-0.5
		c-0.2,0.1-0.4,0.1-0.5,0.1h-1.4c1.2,3.5,3.4,6.5,5.9,9.2c4.7,5,10.2,8.8,15.7,12.8c0.1,0.1,0.5,0.1,0.7,0c3.4-2.5,6.9-5,10.2-7.7
		c3.3-2.6,6.3-5.6,8.7-9.1c1.1-1.7,2-3.5,2.6-5.3C56.8,39.9,56.5,39.4,56.5,38.8z"/>
	<path class="st0" d="M49.7,29.3c-0.5,0-0.8,0.1-1,0.3c-0.1,0.1-0.3,0.4-0.3,1.1v2.9c0,0.4,0.1,0.7,0.1,0.9c1.1-1.5,1.7-3.2,1.8-5.1
		C50.2,29.4,50,29.3,49.7,29.3z"/>
	<path class="st0" d="M42.5,31.4c-0.3,0.2-0.6,0.3-0.9,0.3h-2.9c-0.9,0-1.5-0.7-1.5-1.6c0-0.4-0.1-0.5-0.2-0.6
		c-0.1-0.1-0.3-0.2-0.6-0.2c0.1,1.3,0.4,2.7,1.1,4c0-0.1,0.1-0.1,0.2-0.2c0.3-0.3,0.7-0.4,1.1-0.4h2.9c0.4,0,0.7,0.1,0.9,0.3V31.4z"
		/>
	<path class="st0" d="M30.9,18.7c0,0.5-0.1,1-0.1,1.4c-0.1,1.9-0.2,3.8-0.2,5.7c0.1-0.1,0.2-0.2,0.3-0.3c0.2-0.2,0.4-0.3,0.7-0.5
		c-0.1-2-0.3-3.9-0.4-5.9C31.1,19,31,18.8,30.9,18.7z"/>
</g>
</svg>
