<?xml version="1.0" encoding="utf-8"?>
<!-- Generator: Adobe Illustrator 26.3.1, SVG Export Plug-In . SVG Version: 6.00 Build 0)  -->
<svg version="1.1" id="Livello_1" xmlns="http://www.w3.org/2000/svg" xmlns:xlink="http://www.w3.org/1999/xlink" x="0px" y="0px"
	 viewBox="0 0 198.4 82.4" style="enable-background:new 0 0 198.4 82.4;" xml:space="preserve">
<style type="text/css">
	.st0{fill:#575756;}
</style>
<g id="Livello_2_00000136398088707307844080000002404501432833733297_">
	<g id="Livello_1-2">
		<path class="st0" d="M83.6,65.9v-2h4.3V23.1h-4.4v-2h31.8l0.3,13.2h-1.7c-2.3-8.8-4.9-11.2-10.4-11.2h-6v18.7c5.6,0,6.8-2,7.9-8.1
			h1.9v19.1h-1.9c-0.8-6.5-2.3-8.6-7.9-8.6v19.8h7.5v2L83.6,65.9z"/>
		<path class="st0" d="M114.6,51.4h10.3l-5.1-16.5L114.6,51.4z M104.6,65.9v-2c1.4,0,3.9,0.1,4.5-2L122.6,20h2.2l14.2,43.9h6.1v2
			h-20.7v-2h4.4l-3.1-10.5h-11.7l-1.5,4.8c-0.5,1.5-0.9,3-1.1,4.6c0,1.7,4.3,1.2,5.1,1.2v2L104.6,65.9z"/>
		<path class="st0" d="M164.2,63.9c5.1,0,2.6-5.3,1-10.1c-2.7-8.1-3.8-10.3-11.9-10.3h-2.5l6.6,20.4H164.2z M150.1,41.5h2.4
			c6.1,0,7.1-0.9,4.1-9.9c-2.6-8-3-8.6-8.9-8.6h-3.8L150.1,41.5z M144.6,65.9l-0.6-2h3.9l-13.4-40.8h-4l-0.7-2H151
			c5,0,12.6,2.8,15.3,9.9c1.9,5.1,0.6,9.6-7.4,11.6l0.1,0.1c5.7,0.2,14.2,3.4,16.9,11.5c1.6,4.8-0.1,8.1-2.9,10.1
			c-2.3,1.7-6,1.8-9.1,1.8L144.6,65.9z"/>
		<polygon class="st0" points="179.8,65.9 179.1,63.9 183.4,63.9 170,23.1 165.8,23.1 165.1,21.1 183.8,21.1 184.4,23.1 179.6,23.1 
			193,63.9 197.8,63.9 198.4,65.9 		"/>
		<polygon class="st0" points="66.7,65.9 66.7,63.9 70.9,63.9 70.9,23.1 66.7,23.1 66.7,21.1 85.3,21.1 85.3,23.1 80.6,23.1 
			80.6,63.9 85.3,63.9 85.3,65.9 		"/>
		<path class="st0" d="M64,63.9h4.7v2h-19v-2h5.1V23.4h-0.1L43.5,65.9h-2l-11-42.7h-0.1v36.6c0,4.4,2.1,4,5.4,4v2H23.7v-2
			c3.1,0,5.1,0.4,5.1-4V23.1h-5.1v-2h16l6.6,27.1l6.9-27.1h15.5v2H64V63.9z"/>
		<polygon class="st0" points="7.1,65.9 7.1,63.9 11.3,63.9 11.3,23.1 7.1,23.1 7.1,21.1 25.7,21.1 25.7,23.1 20.9,23.1 20.9,63.9 
			25.7,63.9 25.7,65.9 		"/>
		<g>
			<path class="st0" d="M156.7,52.4l1.4,4.3c1.5-0.8,2.9-1.5,4.3-2.3c-0.6-1.7-1-3.1-1.5-4.2C159.5,50.9,158.1,51.6,156.7,52.4z"/>
			<path class="st0" d="M171.5,43.9c1.1,0.8,2.1,1.7,3,2.7c0.1,0,0.1-0.1,0.2-0.1l-1.3-3.8C172.8,43,172.1,43.5,171.5,43.9z"/>
			<path class="st0" d="M23.8,31.3v4.9c0.7-0.4,1.4-0.9,2.2-1.3v-5C25.2,30.4,24.5,30.9,23.8,31.3z"/>
			<path class="st0" d="M143.9,61l-0.8-2.6c-0.9,0.3-1.7,0.7-2.6,1L141,61H143.9z"/>
			<path class="st0" d="M43.8,25.9c1.9-0.8,3.9-1.7,5.9-2.5l1.3-5.2h12.9c11.7-3.9,24.5-7.3,37.7-9.9c52-10.1,91.5-3.5,88.4,14.7
				c-0.5,2.9-2,5.8-4.5,8.9l1.1,3.3c2.6-3.4,4.3-6.9,4.9-10.2c3.8-20.9-36-30.5-88.8-21.6c-22.1,3.8-43,10.2-60.1,17.9L43.8,25.9z"
				/>
			<path class="st0" d="M121.4,68.7v-2.5c-0.7,0.2-1.5,0.4-2.2,0.7v1.8l-6.5,0c-7.3,2-14.9,3.8-22.6,5.3c-41.7,8-75.4,5.5-85.5-5.2
				H4.3v-0.4c-2.2-2.6-3.2-5.6-2.6-9c0.6-3.7,3-7.6,6.8-11.5v-4.6C4,48.1,1.1,52.8,0.2,57.4C-3.5,78.3,36.2,88,89,79
				c14.3-2.4,28.1-6,40.7-10.3H121.4z"/>
		</g>
	</g>
</g>
</svg>
