<svg xmlns="http://www.w3.org/2000/svg" viewBox="0 0 810.77 348.7"><defs><style>.cls-1{fill:#575756;}.cls-2{fill:none;stroke:#575756;stroke-miterlimit:10;stroke-width:2px;}</style></defs><g id="Livello_2" data-name="Livello 2"><g id="Livello_1-2" data-name="Livello 1"><path class="cls-1" d="M656.05,279.58q0,28.51,0,57c0,3,.38,2.62-2.7,2.63q-11.28,0-22.56,0c-2.53,0-2.3.24-2.3-2.32l-.12-80.52q0-16.07-.09-32.12c0-.47,0-1,0-1.43a4.7,4.7,0,0,0-4-4.43,4.56,4.56,0,0,0-4.62,3.74c-.4,1.71-.65,3.45-1,5.17q-5.61,30.36-11.2,60.73c-1.11,6-2.15,11.94-3.32,17.88a26.26,26.26,0,0,1-7.32,14,19.65,19.65,0,0,1-28.5-.51c-4.1-4.32-6.13-9.61-7.28-15.35q-6.4-31.92-12.89-63.81-1.54-7.62-3.06-15.25c-.09-.47-.2-.94-.3-1.41-.51-2.23-1.8-3.46-3.43-3.27s-2.71,1.68-2.81,3.9c0,.56,0,1.12,0,1.67q0,28.53,0,57.05,0,26.83.11,53.68c0,2.9.22,2.58-2.55,2.59H525.8c-2.47,0-2.26.14-2.26-2.14v-.24q0-56.33,0-112.64a28.56,28.56,0,0,1,7.5-19.93c9.47-10.35,24.41-10.22,33.8.23a27.67,27.67,0,0,1,6.64,13.09q6.32,30.94,12.55,61.92c1.22,6,2.5,12,3.77,18a10.67,10.67,0,0,0,.54,1.83,1.68,1.68,0,0,0,1.71,1.07,1.87,1.87,0,0,0,1.7-1.14,6.63,6.63,0,0,0,.46-1.84q5.52-30,11-60c1.22-6.67,2.39-13.35,3.74-20a27.34,27.34,0,0,1,8.63-15.15c9.58-8.67,23.56-8.08,32.51,1.41a28.37,28.37,0,0,1,7.9,20c0,9.83,0,19.66,0,29.48Z"/><path class="cls-1" d="M374.24,338.88a58.28,58.28,0,0,0,10.93-13.4,1.74,1.74,0,0,1,1.75-1c1.2,0,2.4,0,3.6,0h29c9.12,0,15.24-4.42,18.14-13.08C442.19,298,435,284.93,421,281.17a57.32,57.32,0,0,1-13.82-5.3q-18.4-10.58-19.53-31.76a49.72,49.72,0,0,1,2.76-19.79c5.45-15,17.3-23.79,33.28-24.5q1.32-.06,2.64-.06h73.89c2.87,0,2.63-.28,2.63,2.52V337c0,2.25.31,2.24-2.16,2.24H483.42c-2.23,0-4.48,0-6.71,0-1.18,0-1.84-.24-1.65-1.58a13.27,13.27,0,0,0,0-1.67q0-59.09,0-118.16c0-3.21.43-2.83-2.76-2.83-14.23,0-28.47.17-42.7-.07a16.59,16.59,0,0,0-17,16.41A31.84,31.84,0,0,0,413,238a12.92,12.92,0,0,0,5.57,8.34A35.07,35.07,0,0,0,426.1,250a84.47,84.47,0,0,1,18.33,9.29c7.85,5.44,13.76,12.39,16.43,21.72,4.94,17.26.08,37.57-14.41,49.65a37.42,37.42,0,0,1-18.3,8.36,17.12,17.12,0,0,1-2.86.2q-24.84,0-49.67,0A1.74,1.74,0,0,1,374.24,338.88Z"/><path class="cls-1" d="M391.73,199.76a2.38,2.38,0,0,1-1,1.42A46.6,46.6,0,0,0,382,213.12a3,3,0,0,1-3.13,1.9c-10.16-.07-20.32.21-30.46-.11-9.44-.29-17.37,7-17.33,17.36a38.27,38.27,0,0,0,.29,4.53c.59,4.85,3.21,8.23,7.37,10.56a44.51,44.51,0,0,0,5.89,2.65c8,3.08,15.69,6.77,22.32,12.34a38.65,38.65,0,0,1,14.12,27.81c1,13.16-2.31,25-10.79,35.24A37.85,37.85,0,0,1,347.26,339a22.27,22.27,0,0,1-3.82.29H266.2a.75.75,0,0,1-.86-.87c0-.56,0-1.12,0-1.68V202.49c0-.39,0-.8,0-1.19-.1-1.08.22-1.57,1.45-1.56q12.47.06,24.94,0c1.23,0,1.54.49,1.45,1.57-.05.56,0,1.12,0,1.68q0,59.31,0,118.62c0,3.29-.48,2.92,2.92,2.92q20.87,0,41.74,0c10.19,0,17-5.55,19.16-15.54,3.23-15-6.52-24.76-17.09-27.77a70.26,70.26,0,0,1-10.21-3.4c-15.21-7-23.11-18.81-23.54-35.56a48.87,48.87,0,0,1,2.9-18.09c5.4-14.89,17.31-23.64,33.14-24.36,1,0,2.08-.06,3.12-.06h46.42Z"/><path class="cls-1" d="M147.92,215.3a8.08,8.08,0,0,1-2.89.23H109.54c-.56,0-1.12,0-1.68,0-.78,0-1.22.25-1.18,1.09,0,.47,0,.95,0,1.43v34.5c0,.4,0,.8,0,1.2.15,3.85,2,5.7,5.86,5.7q16.18,0,32.37,0a11.52,11.52,0,0,0,1.44,0c1.23-.17,1.72.38,1.86,1.56.47,3.72,1,7.43,1.52,11.15.39,3.11.36,3.12-2.79,3.12-11.11,0-22.23.15-33.33-.07a6.56,6.56,0,0,0-7,7.13c.23,6.3-.23,12.62.43,18.91a25.92,25.92,0,0,0,8.26,16.81,19.64,19.64,0,0,0,13.92,5.45c10.95-.06,21.9,0,32.86,0,2.11,0,2.1,0,2.65,2.08A64,64,0,0,0,169.1,338c.17.35.42.68.2,1.13a5.66,5.66,0,0,1-2.32.15q-29.37,0-58.76,0A30.53,30.53,0,0,1,99,338c-7.22-2.25-12.23-7-15.51-13.71A46.79,46.79,0,0,1,79.23,307c-.12-1.59-.12-3.19-.12-4.79V202.78c0-.4,0-.8,0-1.2,0-1.79,0-1.82,1.87-1.82h62.83c1.85,0,1.86,0,2.14,1.94C146.61,206.2,147.25,210.7,147.92,215.3Z"/><path class="cls-1" d="M161.29,200.1a3.13,3.13,0,0,1,2-.33h22.54c2,0,2.05,0,2.35,2q3.11,20.1,6.19,40.21,2.75,17.85,5.53,35.71,2.51,16.2,5,32.41c.27,1.73.57,3.46.94,5.17a7.81,7.81,0,0,0,2,3.74,5.14,5.14,0,0,0,8-.13,10.23,10.23,0,0,0,2.34-5.42c.7-4.33,1.36-8.67,2-13q2.81-18.21,5.6-36.43,2.52-16.44,5-32.89c1.48-9.78,2.93-19.57,4.46-29.34.37-2.36.23-2,2.38-2q5.16,0,10.32,0a3.12,3.12,0,0,1,2,.32c-.52,3.31-1,6.69-1.58,10.07q-3.28,20.19-6.59,40.39-3.24,19.71-6.52,39.43c-1.64,9.83-3.36,19.65-5,29.49a28.1,28.1,0,0,1-9.91,17.79c-11.38,9.37-27.79,7-36.5-5.14a32.24,32.24,0,0,1-5.37-14.43c-2.83-19.18-5.73-38.35-8.54-57.53-2.35-15.94-4.61-31.9-6.91-47.85C162.5,208.21,161.89,204.12,161.29,200.1Z"/><path class="cls-1" d="M27.3,347.39H25.88l-1.4-.05c-1-.26-2-.5-3-.78-8.39-2.38-14-7.93-17.65-15.62a42.77,42.77,0,0,1-3.38-11.4A10.46,10.46,0,0,0,0,315.69c0-.48,0-1,0-1.43,0-1,.06-2.08.06-3.11V179.74c0-3.25-.31-3,2.91-3l24.44-.08c.57.79.27,1.7.27,2.54q0,48.39,0,96.76c0,11.42-.07,22.83.15,34.24.17,9.15,4.35,16.18,12.25,20.89a20,20,0,0,0,10.29,2.74c6.24,0,12.47.05,18.7,0a3.16,3.16,0,0,1,3.28,1.7,41.53,41.53,0,0,0,10.21,11.3c-.75.91-1.78.52-2.69.52q-24.86,0-49.72,0C29.21,347.33,28.25,347.37,27.3,347.39Z"/><path class="cls-1" d="M384.16,0a2.33,2.33,0,0,0-1.25,1.11Q324.26,88.43,265.64,175.76s0,.15.05.22a.86.86,0,0,0,.13.21,4.8,4.8,0,0,0,.69.09c15.27,0,30.54,0,45.81.05,1.51,0,2.12-.8,2.81-1.79l51.2-74.41c3.9-5.66,7.78-11.32,11.69-17,3.65-5.29,8.15-5.26,11.84.07.5.72,1,1.43,1.52,2.16q30.56,44.4,61.08,88.84a4.1,4.1,0,0,0,3.85,2.12c14.55-.1,29.11-.05,43.66-.06a5.23,5.23,0,0,0,2.49-.32ZM412.4,57.81H410c-3.76,0-7.52-.06-11.28,0a3.1,3.1,0,0,1-3-1.55c-1.94-2.92-4-5.8-6-8.69a13.61,13.61,0,0,0-1.48-1.88c-2.86-2.84-6.8-2.59-9.38.68-1.34,1.69-2.48,3.52-3.71,5.3S373,55,371.83,56.65c-.41.59-.77,1.17-1.66,1.17-4.93,0-9.87,0-14.73,0-.31-.76.13-1.08.39-1.45L382.35,17.9c.14-.2.27-.4.41-.59,1.17-1.63,1.26-1.64,2.45.08q9,13,17.91,26.06,4.49,6.51,9,13A1.25,1.25,0,0,1,412.4,57.81Z"/><path class="cls-1" d="M775.85,345.89q-2.55-17.42-5.1-34.81c-2.79-19.19-5.53-38.38-8.35-57.56-2.34-16-4.77-31.88-7.16-47.82A36.43,36.43,0,0,0,749,189.57c-8.86-12.35-24.74-16.56-37.86-9.85-9.43,4.83-15,12.73-17.14,23-1.54,7.5-2.68,15.08-4,22.63q-3,18.18-6,36.36t-5.95,36.37q-2.77,17-5.52,34c-.78,4.88-1.74,9.73-2.27,14.65.65.86,1.59.57,2.42.58,4.82,0,9.65,0,14.47,0a6,6,0,0,0,.48-2.09q.79-5.44,1.63-10.88c1.69-11.12,3.42-22.23,5.07-33.35.55-3.75,2.21-6.35,7.15-6.25,9.18.2,18.38.06,27.57.07,1,0,1.91.08,2.87.13a4.56,4.56,0,0,1,4.08,2.87,11.36,11.36,0,0,1,1.05,3.17c1.77,11.59,3.51,23.18,5.33,34.76.61,3.86,1,7.75,1.9,11.56h31.59A13.58,13.58,0,0,0,775.85,345.89ZM728,278.84c-4.08.06-8.16,0-12.23,0-3.76,0-7.54-.21-11.28.06-3.58.26-6.46-2.44-5.76-6.6.76-4.49,1.39-9,2.08-13.49q2.31-15,4.63-30,1.38-8.86,2.82-17.73a10.52,10.52,0,0,1,2.88-5.93,6.07,6.07,0,0,1,9.14,0,10.56,10.56,0,0,1,2.89,5.93q2.67,16.91,5.29,33.82,2.05,13.25,4.09,26.5a19.16,19.16,0,0,1,.29,2.37A4.77,4.77,0,0,1,728,278.84Z"/><circle class="cls-2" cx="797.81" cy="335.75" r="11.96"/><path class="cls-1" d="M797.86,336.7h-2.3v6H793.7v-14h4.46a6.69,6.69,0,0,1,2.16.3,3.49,3.49,0,0,1,1.38.8,2.84,2.84,0,0,1,.75,1.18,4.94,4.94,0,0,1,.21,1.45,6,6,0,0,1-.11,1.2,3.33,3.33,0,0,1-.44,1.13,3.22,3.22,0,0,1-.89,1,4,4,0,0,1-1.5.66l3.21,6.27h-2Zm-.48-1.47a4.49,4.49,0,0,0,2.54-.56,2.35,2.35,0,0,0,.81-2.08,2.1,2.1,0,0,0-.72-1.79,3.72,3.72,0,0,0-2.25-.54h-2.2v5Z"/></g></g></svg>