<svg xmlns="http://www.w3.org/2000/svg" viewBox="0 0 243.32 97.62"><defs><style>.cls-1{fill:#585856;}</style></defs><g id="Livello_2" data-name="Livello 2"><g id="Livello_1-2" data-name="Livello 1"><g id="A_V_I_S" data-name="A V I S"><path class="cls-1" d="M179.63,52c0,.56.89,12.08,1.59,15.84a100.2,100.2,0,0,0,15.93,3.47s2.16.29,6,.39,7.43-.16,7.43-.16c15.13-.28,25.12-10.78,25.12-23.11,0-15.32-12.45-23.33-25.59-23.33H207c-.34,0-1.93-.45-1.93-1.79,0-1.92,4.5-1.78,5.81-1.78,4.57,0,11.74,1.53,16.24,2.88l2.72-19.28.37-2.67L210.49.29S207.33,0,204.4,0a26.76,26.76,0,0,0-3.64.13c-12.84,0-24.48,8.53-24.48,23.1a7.85,7.85,0,0,0,0,1,4.19,4.19,0,0,0,0,.65,7.42,7.42,0,0,0,.19,1.29c.43,1.92,2.18,10.29,10.21,15.5a30.8,30.8,0,0,0,16.5,4.7h2.85a2.28,2.28,0,0,1,1.15.34,1.89,1.89,0,0,1,.34,1v.19c0,2-4.55,1.79-5.58,1.79-7.21,0-15.38-3.1-23.19-5.34l.86,7.68"/><path class="cls-1" d="M18.18.64,41.55.58C33.21,11.48,25.64,23.52,25.64,35,25.64,43.48,31,49.38,39,49c.17,0,1.2-.06,2.59-.21a13.65,13.65,0,0,0,2-.45h0C36,64.71,39.41,71.25,25.07,71.25A23.13,23.13,0,0,1,21.65,71C6.92,69.26-.83,60.3.07,48.39c.64-8.48,4.49-16.63,4.42-16.66S18.38.85,18.18.64"/><path class="cls-1" d="M46.71.53h12.1L82.26,70.31H52.53L44.77,48l-.05-.11a21.21,21.21,0,0,0,3.61-2.79,13.38,13.38,0,0,0,3.24-8.8c0-10-11.14-11.2-11.14-21.72,0-2.87,2.9-14.1,6.28-14.09"/><path class="cls-1" d="M63.85.7H93.9l12.48,35.15c4.1-2.43,6.1-11.78,6.1-15.44,0-5.88-3.16-14.65-9-19.82h32.65c5.85,3.76,7.9,11.65,7.9,16.75a36.83,36.83,0,0,1-.23,4.33c-.38,3.86-2,7.87-3.81,11.61C135.18,43,117.46,70.35,113.5,70.34H88L63.85.7"/><path class="cls-1" d="M143.87.59a8.43,8.43,0,0,1,1.57,3.71V65.69a4.55,4.55,0,0,0,1.22,3.06c1.41,1.53,4.46,1.56,4.46,1.56h24.69c-2.91-1.71-2.35-4.74-2.36-7V26L174,9.39c0-3.74-.47-8.83-6.37-8.8H143.87"/><path class="cls-1" d="M43.67.77C40.4,7,39.07,9.85,39.07,15.08c0,11.28,10.69,12.3,10.69,21a11.2,11.2,0,0,1-11,11.48c-7.59,0-11.26-7-11.26-12.28,0-11,6.9-25.07,16.21-34.55"/><path class="cls-1" d="M243.32,6.46a4.7,4.7,0,1,1-4.68-4.57A4.59,4.59,0,0,1,243.32,6.46Zm-8.22,0a3.55,3.55,0,0,0,3.57,3.65,3.5,3.5,0,0,0,3.48-3.62,3.53,3.53,0,1,0-7.05,0Zm2.82,2.39h-1.06V4.28a9.52,9.52,0,0,1,1.75-.14,2.78,2.78,0,0,1,1.59.34,1.27,1.27,0,0,1,.45,1,1.18,1.18,0,0,1-1,1.06V6.6a1.35,1.35,0,0,1,.84,1.11,3.22,3.22,0,0,0,.33,1.14h-1.14a3.73,3.73,0,0,1-.37-1.11c-.08-.5-.36-.73-.94-.73h-.5Zm0-2.59h.51c.58,0,1.05-.19,1.05-.67s-.3-.69-1-.69a2.6,2.6,0,0,0-.59,0Z"/></g><g id="DEN_SOC" data-name="DEN SOC"><path class="cls-1" d="M.14,97.41l2.12-8.84H4.49l2,8.84H4.72l-.43-2.24H2.35l-.44,2.24Zm2.47-3.54H4l-.45-2.51c-.08-.41-.12-.81-.17-1.22a5.11,5.11,0,0,0-.06-.59h0c0,.18-.05.38-.06.59,0,.41-.08.81-.16,1.22Z"/><path class="cls-1" d="M10.55,91.26c0-.79-.06-1.57-1-1.57-.55,0-.9.22-.9.82s.42.93.94,1.26a16,16,0,0,1,2,1.46,2.29,2.29,0,0,1,.75,1.85,2.43,2.43,0,0,1-2.73,2.54A2.38,2.38,0,0,1,7,94.94v-.65H8.6v.52c0,.86.23,1.48,1,1.48a.91.91,0,0,0,1-1A1.34,1.34,0,0,0,10,94.09a13.37,13.37,0,0,1-2.61-2A2.5,2.5,0,0,1,7,90.69c0-1.51.85-2.34,2.59-2.34,2.63,0,2.56,2,2.57,2.91Z"/><path class="cls-1" d="M16.89,91.26c0-.79-.06-1.57-1-1.57-.55,0-.91.22-.91.82s.43.93,1,1.26a16,16,0,0,1,2,1.46,2.28,2.28,0,0,1,.74,1.85A2.42,2.42,0,0,1,16,97.62a2.38,2.38,0,0,1-2.69-2.68v-.65h1.65v.52c0,.86.23,1.48,1,1.48a.91.91,0,0,0,1-1,1.34,1.34,0,0,0-.66-1.16,13.08,13.08,0,0,1-2.61-2,2.51,2.51,0,0,1-.43-1.36c0-1.51.85-2.34,2.6-2.34,2.63,0,2.56,2,2.57,2.91Z"/><path class="cls-1" d="M19.77,92.28c.07-2.25.25-3.93,2.89-3.93s2.82,1.68,2.89,3.93v1.26c0,2.36-.18,4.08-2.89,4.08s-2.89-1.72-2.89-4.08Zm1.7,2.09c0,.73.06,1.92,1.19,1.92s1.19-1.21,1.19-2.06V92c0-.7,0-2.27-1.19-2.27s-1.19,1.54-1.19,2.23Z"/><path class="cls-1" d="M32.07,94.26l0,.51c-.08,1.62-.63,2.85-2.47,2.85-2.71,0-2.89-1.72-2.89-4.08V92.28c.07-2.25.25-3.93,2.89-3.93A2.22,2.22,0,0,1,32,90.64a5.12,5.12,0,0,1,0,.67H30.4c-.07-.56,0-1.62-.83-1.62-1.29,0-1.19,1.54-1.19,2.23v2.45c0,.73.06,1.92,1.19,1.92.91,0,.8-1.46.84-2Z"/><path class="cls-1" d="M33.19,97.41V88.57h1.65v8.84Z"/><path class="cls-1" d="M35.53,97.41l2.11-8.84h2.23l2,8.84H40.11l-.44-2.24H37.74l-.44,2.24ZM38,93.87h1.41L39,91.36c-.09-.41-.12-.81-.17-1.22a5.11,5.11,0,0,0-.06-.59h0a5.11,5.11,0,0,0-.06.59c0,.41-.08.81-.17,1.22Z"/><path class="cls-1" d="M42.15,96.09,45,90.61a4.19,4.19,0,0,1,.46-.78,4.64,4.64,0,0,1-.64,0H42.34V88.57h4.84v1.32l-2.85,5.48a4.19,4.19,0,0,1-.46.78,4.64,4.64,0,0,1,.64,0h2.77v1.29H42.15Z"/><path class="cls-1" d="M48.25,97.41V88.57H49.9v8.84Z"/><path class="cls-1" d="M51.22,92.28c.07-2.25.24-3.93,2.88-3.93S56.92,90,57,92.28v1.26c0,2.36-.17,4.08-2.89,4.08s-2.88-1.72-2.88-4.08Zm1.69,2.09c0,.73.06,1.92,1.19,1.92s1.2-1.21,1.2-2.06V92c0-.7,0-2.27-1.2-2.27s-1.19,1.54-1.19,2.23Z"/><path class="cls-1" d="M62.23,88.57h1.66v8.84H62.16l-1.28-3.15a29.27,29.27,0,0,1-1.18-3.51h0c0,.73.12,1.63.17,2.52s.08,1.77.08,2.48v1.66H58.28V88.57H60l1.29,3.22a29.76,29.76,0,0,1,1.18,3.51h0c-.06-.8-.12-1.66-.16-2.51s-.09-1.7-.09-2.49Z"/><path class="cls-1" d="M65.22,97.41V88.57h4.65v1.29h-3v2.23h2.76v1.3H66.87v2.73h3v1.29Z"/><path class="cls-1" d="M77.42,88.57h1.77l-1.91,8.84H75.07l-1.95-8.84h1.77l1,5.67a12.73,12.73,0,0,1,.2,1.51,5.82,5.82,0,0,1,.07.73h0c0-.25,0-.49.07-.73a15.21,15.21,0,0,1,.2-1.51Z"/><path class="cls-1" d="M79.92,92.28c.07-2.25.25-3.93,2.89-3.93S85.63,90,85.7,92.28v1.26c0,2.36-.17,4.08-2.89,4.08s-2.89-1.72-2.89-4.08Zm1.7,2.09c0,.73.06,1.92,1.19,1.92S84,95.08,84,94.23V92c0-.7,0-2.27-1.2-2.27s-1.19,1.54-1.19,2.23Z"/><path class="cls-1" d="M87,97.41V88.57h1.65v7.55h3.07v1.29Z"/><path class="cls-1" d="M92.59,92.28c.07-2.25.24-3.93,2.89-3.93s2.81,1.68,2.88,3.93v1.26c0,2.36-.17,4.08-2.88,4.08s-2.89-1.72-2.89-4.08Zm1.69,2.09c0,.73.06,1.92,1.2,1.92s1.19-1.21,1.19-2.06V92c0-.7,0-2.27-1.19-2.27s-1.2,1.54-1.2,2.23Z"/><path class="cls-1" d="M103.6,88.57h1.66v8.84h-1.73l-1.28-3.15a29.27,29.27,0,0,1-1.18-3.51h0c0,.73.13,1.63.17,2.52s.09,1.77.09,2.48v1.66H99.65V88.57h1.71l1.29,3.22a29.76,29.76,0,0,1,1.18,3.51h0c-.06-.8-.12-1.66-.16-2.51s-.09-1.7-.09-2.49Z"/><path class="cls-1" d="M106,88.57h5.51v1.29h-1.93v7.55H108V89.86H106Z"/><path class="cls-1" d="M111,97.41l2.11-8.84h2.23l2,8.84h-1.77l-.44-2.24h-1.93l-.44,2.24Zm2.47-3.54h1.41l-.45-2.51c-.08-.41-.12-.81-.16-1.22,0-.21,0-.41-.06-.59h0c0,.18,0,.38-.05.59,0,.41-.09.81-.17,1.22Z"/><path class="cls-1" d="M119.63,93.6v3.81H118V88.57h3.12c1.43,0,2.52.49,2.52,2.12,0,1-.25,2-1.36,2.13v0c1,.13,1.27.75,1.27,1.6,0,.37,0,2.54.36,2.8v.16h-1.82a9.29,9.29,0,0,1-.18-2.24c0-.54,0-1.28-.56-1.45a5,5,0,0,0-1.4-.12Zm0-1.29h1.3c.54,0,1-.39,1-1.28s-.41-1.15-1-1.17h-1.23Z"/><path class="cls-1" d="M125,97.41V88.57h1.65v8.84Z"/><path class="cls-1" d="M130.78,97.41V88.57h1.65v8.84Z"/><path class="cls-1" d="M133.22,88.57h5.51v1.29h-1.92v7.55h-1.65V89.86h-1.94Z"/><path class="cls-1" d="M138.16,97.41l2.11-8.84h2.23l2,8.84h-1.77l-.43-2.24h-1.94l-.43,2.24Zm2.46-3.54H142l-.45-2.51c-.08-.41-.12-.81-.17-1.22,0-.21,0-.41,0-.59h0c0,.18-.05.38-.06.59,0,.41-.08.81-.16,1.22Z"/><path class="cls-1" d="M145.19,97.41V88.57h1.65v7.55h3.07v1.29Z"/><path class="cls-1" d="M150.88,97.41V88.57h1.65v8.84Z"/><path class="cls-1" d="M153.23,97.41l2.11-8.84h2.23l2,8.84H157.8l-.43-2.24h-1.94L155,97.41Zm2.46-3.54h1.42l-.45-2.51c-.08-.41-.12-.81-.17-1.22a5.11,5.11,0,0,0-.06-.59h0c0,.18,0,.38-.06.59,0,.41-.08.81-.16,1.22Z"/><path class="cls-1" d="M164.21,88.57h1.65v8.84h-1.72l-1.29-3.15a31.16,31.16,0,0,1-1.18-3.51h0c.06.73.13,1.63.18,2.52s.08,1.77.08,2.48v1.66h-1.65V88.57H162l1.28,3.22a28,28,0,0,1,1.18,3.51h0c-.06-.8-.12-1.66-.17-2.51s-.08-1.7-.08-2.49Z"/><path class="cls-1" d="M167.26,97.41V88.57h1.65v8.84Z"/><path class="cls-1" d="M176.4,91.26c0-.79-.06-1.57-1-1.57-.55,0-.91.22-.91.82s.43.93.95,1.26a16,16,0,0,1,2,1.46,2.29,2.29,0,0,1,.75,1.85,2.43,2.43,0,0,1-2.73,2.54,2.38,2.38,0,0,1-2.69-2.68v-.65h1.65v.52c0,.86.23,1.48,1,1.48a.91.91,0,0,0,1-1,1.34,1.34,0,0,0-.66-1.16,13.37,13.37,0,0,1-2.61-2,2.5,2.5,0,0,1-.42-1.36c0-1.51.85-2.34,2.59-2.34,2.63,0,2.56,2,2.57,2.91Z"/><path class="cls-1" d="M178.67,97.41l2.11-8.84H183l2,8.84h-1.77l-.43-2.24h-1.94l-.43,2.24Zm2.46-3.54h1.42l-.45-2.51c-.08-.41-.12-.81-.17-1.22a5.11,5.11,0,0,0-.06-.59h0c0,.18,0,.38-.06.59,0,.41-.08.81-.16,1.22Z"/><path class="cls-1" d="M189.65,88.57h1.65v8.84h-1.72l-1.29-3.15a31.16,31.16,0,0,1-1.18-3.51h0c.06.73.13,1.63.18,2.52s.08,1.77.08,2.48v1.66H185.7V88.57h1.71l1.28,3.22a28,28,0,0,1,1.18,3.51h0c-.06-.8-.12-1.66-.17-2.51s-.08-1.7-.08-2.49Z"/><path class="cls-1" d="M192.53,92.28c.07-2.25.25-3.93,2.89-3.93,1.42,0,2.39.38,2.77,1.91a5.61,5.61,0,0,1,.08,1.08h-1.65c0-.9-.08-1.61-1.2-1.65-1.3,0-1.19,1.54-1.19,2.23v2.45c0,.73.06,1.92,1.19,1.92.94,0,1.25-1,1.22-2.33h-1.15v-1.3h2.75v4.75H197v-1h0a1.66,1.66,0,0,1-1.56,1.22c-2.71,0-2.89-1.72-2.89-4.08Z"/><path class="cls-1" d="M203.63,88.57h1.65v6.17c0,2-.63,2.88-2.79,2.88s-2.82-.93-2.82-2.88V88.57h1.65v6c0,.85.06,1.7,1.18,1.7s1.13-.85,1.13-1.7Z"/><path class="cls-1" d="M206.61,97.41V88.57h4.65v1.29h-3v2.23H211v1.3h-2.76v2.73h3v1.29Z"/><path class="cls-1" d="M215,92.28c.07-2.25.24-3.93,2.88-3.93s2.82,1.68,2.89,3.93v1.26c0,2.36-.17,4.08-2.89,4.08S215,95.9,215,93.54Zm1.69,2.09c0,.73.06,1.92,1.19,1.92s1.2-1.21,1.2-2.06V92c0-.7,0-2.27-1.2-2.27s-1.19,1.54-1.19,2.23Z"/><path class="cls-1" d="M222.09,97.41V88.57h3.44a2,2,0,0,1,1.71,1,6.12,6.12,0,0,1,.49,3.05c0,1.75,0,3.77-1.36,4.56a2.44,2.44,0,0,1-1.23.23Zm2.37-1.29c1.48,0,1.57-.78,1.57-3.34,0-2.09-.21-2.92-1.2-2.92h-1.09v6.26Z"/><path class="cls-1" d="M232.78,88.57h1.77l-1.91,8.84h-2.21l-2-8.84h1.77l1,5.67a15.21,15.21,0,0,1,.2,1.51,5.82,5.82,0,0,1,.07.73h0a5.82,5.82,0,0,1,.07-.73,12.73,12.73,0,0,1,.2-1.51Z"/></g></g></g></svg>