<svg xmlns="http://www.w3.org/2000/svg" viewBox="0 0 412 143.37"><defs><style>.cls-1{fill:#585857;}</style></defs><g id="Livello_2" data-name="Livello 2"><g id="Livello_1-2" data-name="Livello 1"><path class="cls-1" d="M74.24,139.84a2.12,2.12,0,0,0,2.29-2.27,2.17,2.17,0,0,0-2.31-2.29h-3v4.56Zm-.2-6.11a1.89,1.89,0,0,0,2-2,1.83,1.83,0,0,0-2-2H71.24v4Zm-4.67-5.61H74c2.24,0,3.87,1.25,3.87,3.4a3.13,3.13,0,0,1-1.66,2.88v0a3.23,3.23,0,0,1,2.19,3.23c0,2.52-2,3.8-4.29,3.8H69.37Z"/><path class="cls-1" d="M85.42,140.1a3.42,3.42,0,1,0-3.29-3.44,3.3,3.3,0,0,0,3.29,3.44m0-8.43a5,5,0,1,1-5.16,5,5,5,0,0,1,5.16-5"/><path class="cls-1" d="M92.74,131.9h1.78v1.66a6.47,6.47,0,0,1,0,.72h0a3.26,3.26,0,0,1,3-2.49,3.12,3.12,0,0,1,.47,0v1.81a2.44,2.44,0,0,0-.53-.06,2.9,2.9,0,0,0-2.68,2.25,5.81,5.81,0,0,0-.23,1.72v3.91H92.74Z"/><path class="cls-1" d="M99.82,131.9h1.78v1.27a6.32,6.32,0,0,1,0,.7h0a3.72,3.72,0,0,1,3.29-2.19,2.61,2.61,0,0,1,2.87,2.17h0a3.83,3.83,0,0,1,3.4-2.17c2.16,0,3.16,1.22,3.16,3.66v6.12h-1.83v-5.72c0-1.34-.27-2.4-1.7-2.4a3,3,0,0,0-2.69,2.43,6.06,6.06,0,0,0-.13,1.33v4.36h-1.83v-5.72c0-1.25-.19-2.4-1.66-2.4a3,3,0,0,0-2.74,2.51,5,5,0,0,0-.12,1.25v4.36H99.82Z"/><path class="cls-1" d="M117.08,141.46h1.83V131.9h-1.83Zm0-11.47h1.85v-1.87h-1.85Z"/><path class="cls-1" d="M126.24,140.1a3.42,3.42,0,1,0-3.29-3.44,3.3,3.3,0,0,0,3.29,3.44m0-8.43a5,5,0,1,1-5.16,5,5,5,0,0,1,5.16-5"/><polygon class="cls-1" points="133.81 139.48 132.63 143.37 134.09 143.37 135.68 139.48 133.81 139.48"/><path class="cls-1" d="M143.62,133.51h-1.24V132h1.3v-2.75h1.78V132h2.3v1.48h-2.3v4.25a1.9,1.9,0,0,0,2,2.15,2.11,2.11,0,0,0,.44,0v1.63a4.84,4.84,0,0,1-.64,0c-1.23,0-3.67-.38-3.67-3.58Z"/><path class="cls-1" d="M150,128.12h1.84V133a7.51,7.51,0,0,1,0,.79h0a3.84,3.84,0,0,1,3.53-2.13c2.25,0,3.29,1.22,3.29,3.66v6.12H156.8v-5.71c0-1.34-.28-2.39-1.81-2.39a3.15,3.15,0,0,0-3,2.36,4.23,4.23,0,0,0-.15,1.26v4.48H150Z"/><path class="cls-1" d="M167.75,135.57a2.25,2.25,0,0,0-2.3-2.44,2.75,2.75,0,0,0-2.8,2.44Zm-2.26-3.9c2.7,0,4.13,2,4.13,4.48,0,.25-.05.8-.05.8h-7a3.12,3.12,0,0,0,3.28,3.15,4.55,4.55,0,0,0,2.84-1.12l.75,1.35a5.67,5.67,0,0,1-3.7,1.36,4.87,4.87,0,0,1-5.06-5,4.69,4.69,0,0,1,4.78-5"/><path class="cls-1" d="M175.58,131.9h1.95l2,6.71c.15.49.23,1,.25,1h0a9.39,9.39,0,0,1,.24-1l2.08-6.69h1.68l2.06,6.69c.15.49.27,1,.27,1h0a8.19,8.19,0,0,1,.23-1l2-6.71h1.93l-3.08,9.56h-2l-2-6.14a10.57,10.57,0,0,1-.27-1h0s-.11.55-.26,1l-2,6.14h-2Z"/><path class="cls-1" d="M198.45,135.57a2.25,2.25,0,0,0-2.3-2.44,2.75,2.75,0,0,0-2.8,2.44Zm-2.26-3.9c2.7,0,4.13,2,4.13,4.48,0,.25,0,.8,0,.8h-7a3.12,3.12,0,0,0,3.28,3.15,4.59,4.59,0,0,0,2.84-1.12l.75,1.35a5.7,5.7,0,0,1-3.7,1.36,4.87,4.87,0,0,1-5.06-5,4.69,4.69,0,0,1,4.78-5"/><path class="cls-1" d="M202.43,128.12h1.83v10.41c0,1.15.46,1.36,1,1.36a2.73,2.73,0,0,0,.32,0v1.63a5,5,0,0,1-.61,0c-1,0-2.57-.29-2.57-2.69Z"/><path class="cls-1" d="M207.43,128.12h1.84v10.41c0,1.15.45,1.36,1,1.36a2.73,2.73,0,0,0,.32,0v1.63a5,5,0,0,1-.61,0c-1,0-2.57-.29-2.57-2.69Z"/><path class="cls-1" d="M212.55,131.9h1.78v1.27a6.32,6.32,0,0,1,0,.7h0a3.88,3.88,0,0,1,3.59-2.19c2.24,0,3.28,1.22,3.28,3.66v6.12h-1.83v-5.71c0-1.34-.28-2.39-1.81-2.39a3.13,3.13,0,0,0-3,2.34,4.64,4.64,0,0,0-.15,1.28v4.48h-1.83Z"/><path class="cls-1" d="M230.32,135.57a2.25,2.25,0,0,0-2.3-2.44,2.75,2.75,0,0,0-2.8,2.44Zm-2.27-3.9c2.71,0,4.14,2,4.14,4.48,0,.25-.06.8-.06.8h-7a3.13,3.13,0,0,0,3.29,3.15,4.59,4.59,0,0,0,2.84-1.12l.75,1.35a5.7,5.7,0,0,1-3.7,1.36,4.87,4.87,0,0,1-5.07-5,4.69,4.69,0,0,1,4.78-5"/><path class="cls-1" d="M234.53,139a4.09,4.09,0,0,0,2.74,1.11c.79,0,1.58-.42,1.58-1.19,0-1.76-4.91-1.4-4.91-4.51,0-1.74,1.55-2.72,3.46-2.72a4.31,4.31,0,0,1,3.08,1l-.74,1.38a3.5,3.5,0,0,0-2.36-.85c-.79,0-1.57.34-1.57,1.17,0,1.72,4.91,1.34,4.91,4.48,0,1.59-1.36,2.78-3.45,2.78a5.13,5.13,0,0,1-3.63-1.4Z"/><path class="cls-1" d="M243,139a4.12,4.12,0,0,0,2.74,1.11c.8,0,1.59-.42,1.59-1.19,0-1.76-4.91-1.4-4.91-4.51,0-1.74,1.55-2.72,3.46-2.72a4.3,4.3,0,0,1,3.07,1l-.73,1.38a3.5,3.5,0,0,0-2.36-.85c-.8,0-1.57.34-1.57,1.17,0,1.72,4.91,1.34,4.91,4.48,0,1.59-1.36,2.78-3.46,2.78a5.12,5.12,0,0,1-3.62-1.4Z"/><path class="cls-1" d="M256.18,131.9H258v1.27a6.32,6.32,0,0,1,0,.7h0a3.72,3.72,0,0,1,3.29-2.19,2.61,2.61,0,0,1,2.87,2.17h0a3.83,3.83,0,0,1,3.4-2.17c2.16,0,3.16,1.22,3.16,3.66v6.12h-1.83v-5.72c0-1.34-.27-2.4-1.7-2.4a3,3,0,0,0-2.69,2.43,6.06,6.06,0,0,0-.13,1.33v4.36h-1.83v-5.72c0-1.25-.19-2.4-1.66-2.4a3,3,0,0,0-2.74,2.51,5,5,0,0,0-.11,1.25v4.36h-1.84Z"/><path class="cls-1" d="M277.9,140.1a3.42,3.42,0,1,0-3.29-3.44,3.3,3.3,0,0,0,3.29,3.44m0-8.43a5,5,0,1,1-5.16,5,5,5,0,0,1,5.16-5"/><path class="cls-1" d="M285.09,131.9h1.83v5.71c0,1.32.26,2.38,1.79,2.38,2,0,3.1-1.72,3.1-3.61V131.9h1.83v9.56h-1.77v-1.27a6.09,6.09,0,0,1,0-.7h0a3.87,3.87,0,0,1-3.52,2.2c-2.15,0-3.26-1.14-3.26-3.67Z"/><path class="cls-1" d="M296.51,131.9h1.77v1.27c0,.38,0,.7,0,.7h0a3.91,3.91,0,0,1,3.59-2.19c2.25,0,3.29,1.22,3.29,3.66v6.12h-1.83v-5.71c0-1.34-.28-2.39-1.81-2.39a3.13,3.13,0,0,0-3,2.34,4.64,4.64,0,0,0-.15,1.28v4.48h-1.83Z"/><path class="cls-1" d="M308.29,133.51H307V132h1.31v-2.75h1.77V132h2.31v1.48h-2.31v4.25a1.9,1.9,0,0,0,2,2.15,2.11,2.11,0,0,0,.44,0v1.63a4.91,4.91,0,0,1-.65,0c-1.22,0-3.66-.38-3.66-3.58Z"/><path class="cls-1" d="M317.52,140.21c1.55,0,2.55-1.62,2.55-3v-.3h-.47c-1.38,0-3.87.09-3.87,1.81a1.59,1.59,0,0,0,1.79,1.53m2.12-4.72h.41v-.17a1.85,1.85,0,0,0-2.09-2.1,4.79,4.79,0,0,0-2.66.93l-.76-1.34a6,6,0,0,1,3.57-1.14c2.42,0,3.78,1.33,3.78,3.75v6h-1.7v-.91c0-.43,0-.75,0-.75h0a3.32,3.32,0,0,1-3.06,1.89,3,3,0,0,1-3.25-2.91c0-3.16,4.15-3.29,5.76-3.29"/><path class="cls-1" d="M324.62,141.46h1.83V131.9h-1.83Zm0-11.47h1.85v-1.87H324.6Z"/><path class="cls-1" d="M329.32,131.9h1.78v1.27a6.32,6.32,0,0,1,0,.7h0a3.89,3.89,0,0,1,3.59-2.19c2.24,0,3.28,1.22,3.28,3.66v6.12h-1.83v-5.71c0-1.34-.28-2.39-1.81-2.39a3.13,3.13,0,0,0-3,2.34,4.64,4.64,0,0,0-.15,1.28v4.48h-1.83Z"/><path class="cls-1" d="M200.41,16.35l0,0c.23-.09.15,0,0,0M313.87,58s-5.13-7.11-23.42-23.76C285.72,30,281.19,25.69,275,20.55c-3.32-2.29-6.69-2.47-10.37-1.57-4.74,2-4.18,2.28-6.49,3.5q-5,3-10.13,6.29l-2.6,1.64-.62.39Q240.12,27,235.2,23C228.26,17.52,221,11.88,213.51,6.22L210.7,4.1a21.83,21.83,0,0,0-4.52-2.85C201.64-1,195.31.11,192,2.34Q186.17,6,180.56,9.56c-7.48,4.78-14.63,9.48-21.4,14-6.19,4.15-14.49,9.8-17.79,12.22a5.3,5.3,0,0,1-1.72.3,38.54,38.54,0,0,1-4.3-1.8c-2-1.12-8.77-4.08-13-1.22C102.13,50.57,99.13,56.31,98.67,56.46c-.34.33,7.8-3.7,27-15.8,1.64-.24,1.47,0,5.08,2.29a38.2,38.2,0,0,0,4.18,2.36c5.56,2.59,10.86,0,15.91-2.41s10.13-5.32,15.07-8C173,31,180.3,27.4,188,23c3.68-2.09,8.14-4.16,11.9-6.36a9.52,9.52,0,0,1,.83.64l2.81,2.12c7.5,5.67,14.9,11.1,22.11,16.26q5.42,3.87,10.66,7.54a13.68,13.68,0,0,0,13.36,1.34c4.5-2.39,4.09-2.83,6.34-4.33,4.71-3.61,11.59-9,12.89-10.17,5.45,3.45,11.47,7.52,16.51,10.72C306.22,54.14,313.87,58,313.87,58"/><path class="cls-1" d="M345.67,84.59a1.37,1.37,0,0,0-1.51-1.51h-2.6V73.14H352c3.23,0,5,1.3,5,4.53v1.84a10.67,10.67,0,0,1-.13,1.79H357c1.51-4.8,6-8.78,11.24-8.78a8,8,0,0,1,1.38.14V84.31a12.5,12.5,0,0,0-2.4-.21c-2.82,0-7.41.9-9.12,6.18a16,16,0,0,0-.62,4.79v13.36H345.67Z"/><path class="cls-1" d="M169.36,59.07a7.57,7.57,0,1,1-7.56-7.56,7.56,7.56,0,0,1,7.56,7.56"/><path class="cls-1" d="M157.58,84.67a1.37,1.37,0,0,0-1.51-1.51h-2.61V73.22h11c3.49,0,5,1.51,5,5V97.07a1.37,1.37,0,0,0,1.51,1.5h2.6v9.94h-11c-3.5,0-5-1.51-5-5Z"/><path class="cls-1" d="M0,73H18.87v8.61H15.7l4.07,12.81a22,22,0,0,1,1,4.69H21a21.29,21.29,0,0,1,1-4.69L26,81.65H22.87V73H41.74v8.61h-4l-9.85,26.86h-14L4,81.65H0Z"/><path class="cls-1" d="M59.08,100.73c3,0,6.06-3.65,6.06-6.75v-.83H64c-3.92,0-8.12,1.24-8.12,4.41a3,3,0,0,0,3.17,3.17m3.78-14.26H65v-1c0-2.89-2.34-3.93-5-3.93-4.82,0-9.78,3.38-9.78,3.38l-4.13-8.06a26.74,26.74,0,0,1,15-4.61c10.34,0,15.84,5.16,15.84,14.46V98.39a1.38,1.38,0,0,0,1.52,1.51h2.62v8.61H70.78c-3.44,0-4.75-2-4.75-3.72v-.2a4.48,4.48,0,0,1,.14-1.11H66a11.71,11.71,0,0,1-10.47,5.86c-6.19,0-11.64-3.79-11.64-11,0-10.4,13.44-11.92,18.94-11.92"/><path class="cls-1" d="M86.54,67.88H81.72V59.27h10A6.7,6.7,0,0,1,98.46,66V94.74c0,3.37.62,4.54,3.3,4.54.76,0,1.45-.07,1.45-.07v9.44a31.8,31.8,0,0,1-3.58.21c-6.34,0-13.09-1.52-13.09-13.43Z"/><path class="cls-1" d="M126,99.49c3.58,0,7-2.68,7-8.4,0-4.69-2.27-8.82-6.82-8.82-3.92,0-7.09,3-7.09,8.54,0,5.17,2.82,8.68,6.89,8.68m-2.48-27.27c6.82,0,9.09,3.51,9.09,3.51h.14s-.07-1-.07-2.27V67.88h-4.82V59.27h11A5.76,5.76,0,0,1,144.59,65V98.39a1.38,1.38,0,0,0,1.52,1.51h2.62v8.61H138.46c-3.44,0-4.75-2-4.75-3.72v-.2a4.48,4.48,0,0,1,.14-1.11h-.14s-2.68,5.86-11,5.86c-9.43,0-15.63-7.58-15.63-18.53,0-11.29,6.61-18.59,16.39-18.59"/><path class="cls-1" d="M197.33,99.49c3.58,0,7-2.68,7-8.4,0-4.69-2.27-8.82-6.82-8.82-3.92,0-7.09,3-7.09,8.54,0,5.17,2.82,8.68,6.89,8.68m-2.48-27.27c6.81,0,9.09,3.51,9.09,3.51h.13s-.06-1-.06-2.27V67.88h-4.83V59.27h10.76a6,6,0,0,1,6,6V98.39a1.38,1.38,0,0,0,1.52,1.51h2.61v8.61H209.79c-3.44,0-4.75-2-4.75-3.72v-.2a4.48,4.48,0,0,1,.14-1.11H205s-2.69,5.86-10.95,5.86c-9.44,0-15.64-7.58-15.64-18.53,0-11.29,6.62-18.59,16.4-18.59"/><path class="cls-1" d="M246.62,86.4c0-2.82-1.86-5.23-4.48-5.23-3.44,0-5.09,2.48-5.71,5.23Zm-4.2-14.18C253,72.22,259,79.52,259,89.37c0,1.17-.28,3.58-.28,3.58H236.15c.9,4.54,4.48,6.54,8.27,6.54,5.23,0,10-3.37,10-3.37l4.34,8.26a24.66,24.66,0,0,1-15.29,5c-12.67,0-19.49-9.16-19.49-18.6,0-10.4,7-18.52,18.46-18.52"/><path class="cls-1" d="M268.3,99.9h0V83.17a1.52,1.52,0,0,0-1.51-1.52h-3.31V73h11.3c3.23,0,4.89,1.59,4.89,4v1.17a7.07,7.07,0,0,1-.07.82h.14s3.09-6.81,12.05-6.81c6.68,0,12,3.3,12,13.29V99.9h4.48v8.61H296a4.11,4.11,0,0,1-4.12-4.12V87.71c0-3.3-1.31-4.68-4-4.68-5.3,0-7.64,5.51-7.64,10.47v15H268.3Z"/><path class="cls-1" d="M315.33,81.65H310.5V73h5.17V63.47h11.57V73h7.44v8.61h-7.44V94.19c0,4.27,4.06,4.89,6.34,4.89a15.58,15.58,0,0,0,1.58-.07v9.64a22.61,22.61,0,0,1-3.24.21c-5.64,0-16.59-1.52-16.59-13.43Z"/><path class="cls-1" d="M391.89,99.42c4.34,0,8.06-3.24,8.06-8.54s-3.72-8.75-8.06-8.75-8.06,3.38-8.06,8.75,3.72,8.54,8.06,8.54m-.07-27.2c11.23,0,20.18,7.51,20.18,18.66s-8.95,18.46-20.11,18.46S371.78,102,371.78,90.88s9-18.66,20-18.66"/></g></g></svg>