<?xml version="1.0" encoding="utf-8"?>
<!-- Generator: Adobe Illustrator 26.3.1, SVG Export Plug-In . SVG Version: 6.00 Build 0)  -->
<svg version="1.1" id="Livello_1" xmlns="http://www.w3.org/2000/svg" xmlns:xlink="http://www.w3.org/1999/xlink" x="0px" y="0px"
	 viewBox="0 0 198.8 58.4" style="enable-background:new 0 0 198.8 58.4;" xml:space="preserve">
<style type="text/css">
	.st0{fill:none;stroke:#585857;stroke-width:0.48;stroke-miterlimit:10;}
	.st1{fill:#9BBDD5;}
	.st2{fill:none;stroke:#585857;stroke-width:0.28;stroke-linecap:round;stroke-linejoin:round;}
	.st3{fill:none;stroke:#585857;stroke-width:0.25;stroke-linecap:round;stroke-linejoin:round;}
	.st4{fill:#585857;}
</style>
<g id="Livello_2_00000003073885220924595550000001916538065595219593_">
	<g id="Livello_1-2">
		<path class="st0" d="M58.3,31.2L55.8,31 M58.2,32.5l-2.6-0.3 M58,33.9l-2.6-0.4 M57.8,35.2l-2.5-0.5 M57.4,36.6L55,35.9
			 M57.1,37.9l-2.5-0.8 M56.7,39.2l-2.4-0.9 M56.2,40.5l-2.4-1 M55.6,41.7l-2.3-1.1 M55,42.9l-2.3-1.2 M54.3,44.1l-2.2-1.3
			 M53.6,45.2l-2.2-1.4 M52.8,46.4l-2.1-1.5 M52,47.4l-2-1.6 M51.2,48.5l-2-1.7 M50.2,49.5l-1.9-1.8 M49.2,50.4l-1.8-1.9 M48.2,51.4
			l-1.7-2 M47.2,52.2l-1.6-2 M46.1,53l-1.5-2.1 M45,53.8l-1.4-2.2 M43.8,54.5l-1.3-2.2 M42.6,55.2l-1.2-2.3 M41.4,55.8l-1.1-2.4
			 M40.1,56.3l-1-2.4 M38.8,56.8L38,54.3 M37.5,57.2l-0.7-2.5 M36.2,57.5L35.6,55 M34.9,57.8l-0.5-2.5 M33.6,58l-0.4-2.6 M32.2,58.2
			L32,55.7 M30.9,58.4l-0.1-2.6 M29.5,58.4v-2.6 M28.2,58.4l0.1-2.6 M26.9,58.3l0.1-2.6 M25.4,58.2l0.3-2.6 M24.1,58l0.5-2.5
			 M22.8,57.7l0.6-2.5 M21.5,57.4l0.7-2.5 M20.1,57l0.9-2.5 M18.9,56.5l0.9-2.4 M17.6,56l1-2.4 M16.3,55.4l1.1-2.3 M15.1,54.8
			l1.2-2.3 M14,54.1l1.4-2.2 M12.9,53.4l1.5-2.1 M11.7,52.6l1.6-2.1 M10.7,51.8l1.6-2 M9.6,50.9l1.7-1.9 M8.6,50l1.8-1.8 M7.7,49
			l1.9-1.8 M6.8,48l2-1.7 M5.9,46.9L8,45.3 M5.1,45.8l2.1-1.5 M4.4,44.6l2.2-1.3 M3.7,43.5L6,42.2 M3.1,42.2l2.3-1.2 M2.5,41l2.4-1
			 M2,39.8l2.4-0.9 M1.5,38.5L4,37.7 M1.1,37.2l2.5-0.7 M0.8,35.8l2.5-0.6 M0.5,34.5L3,34 M0.3,33.2l2.6-0.3 M0.1,31.8l2.6-0.2
			 M0,30.5l2.6-0.1 M0,29.1h2.6 M0,27.7l2.6,0.1 M0.1,26.4l2.6,0.2 M0.3,25l2.6,0.4 M0.5,23.7l2.5,0.5 M0.8,22.4L3.3,23 M1.2,21
			l2.5,0.7 M1.6,19.8L4,20.6 M2,18.5l2.4,1 M2.6,17.2l2.4,1.1 M3.2,16l2.3,1.2 M3.8,14.8l2.3,1.3 M4.5,13.6L6.7,15 M5.3,12.5L7.4,14
			 M6.1,11.4l2,1.6 M6.9,10.3l2,1.7 M7.8,9.3l1.9,1.8 M8.8,8.3l1.8,1.8 M9.8,7.4l1.7,1.9 M10.8,6.5l1.6,2 M11.9,5.7l1.5,2.1 M13,4.9
			l1.4,2.2 M14.2,4.2l1.3,2.2 M15.3,3.5l1.2,2.3 M16.5,2.9l1.1,2.3 M17.8,2.3l1,2.4 M19,1.8l1,2.4 M20.4,1.4l0.8,2.5 M21.6,1
			l0.7,2.5 M23,0.7l0.5,2.5 M24.3,0.4L24.7,3 M25.6,0.2L26,2.8 M27,0.1l0.2,2.6 M28.4,0l0.1,2.6 M29.7,0v2.6 M31.1,0.1l-0.2,2.6
			 M32.5,0.2l-0.3,2.6 M33.8,0.4l-0.4,2.5 M35.1,0.6l-0.5,2.5 M36.5,0.9l-0.7,2.5 M37.8,1.3L37,3.8 M39,1.8l-0.9,2.4 M40.3,2.2
			l-1,2.4 M41.5,2.8l-1.1,2.3 M42.8,3.3l-1.2,2.3 M44,4l-1.3,2.2 M45.1,4.7l-1.4,2.2 M46.3,5.5l-1.5,2.1 M47.4,6.3l-1.6,2 M48.4,7.2
			l-1.7,2 M49.4,8.2L47.6,10 M50.4,9.1l-1.9,1.8 M51.3,10.1l-2,1.7 M52.1,11.2l-2,1.6 M53,12.2l-2.1,1.5 M53.8,13.3l-2.2,1.4
			 M54.5,14.5l-2.3,1.3 M55.1,15.7l-2.3,1.2 M55.7,16.9L53.4,18 M56.3,18.2l-2.4,1 M56.7,19.5l-2.4,0.9 M57.2,20.8l-2.5,0.8
			 M57.5,22.1L55,22.7 M57.8,23.4l-2.5,0.5 M58.1,24.7l-2.5,0.4 M58.2,26.1l-2.6,0.3 M58.4,27.4l-2.6,0.2 M58.4,28.8h-2.6
			 M58.4,30.1L55.8,30"/>
		<polyline class="st1" points="30.6,31.8 30.6,31.8 30.6,31.8 30.6,31.8 		"/>
		<path class="st1" d="M30.6,31.8"/>
		<path class="st1" d="M30.6,31.8"/>
		<path class="st2" d="M8.8,22.2c-0.9,0.7-1.3,1.9-1.2,3c0,2,0.3,4.7-0.5,6.1C7,31.4,7,31.6,6.9,31.6c0,0-0.6,0.7-0.1,0.8
			s0.8,0,1.1,0.3C8,32.8,8.1,32.9,8.2,33c0.4,0.1,0.7,0.1,1.1,0 M10.6,22.4C10,23,9.7,23.9,9.7,24.7c0,1.4,0.4,3.5,0.4,4
			c-0.1,0.6-0.2,1.2-0.3,1.8c-0.2,0.8-0.2,1.7,0.1,2.5 M7.3,20L7.3,20c-0.1,0.1-0.6,0.5,0.2,1.7 M14.5,19.8L14.3,20
			c-0.3,0.2-0.9,0.6-1.5,1c-0.9,0.6-1.6-0.2-2.1-0.5s-1.4,0-2.2,0.1c-0.5,0-0.9-0.2-1.2-0.5c-0.2-0.2-0.4-0.4-0.5-0.5
			s-0.4-1-0.1-1.2s0.9-1,0.9-1c1-1.8,2-2,2-2 M18.8,27.4c0,0-0.1,0.3-0.1,0.4c0,0.2-0.1,0.4-0.1,0.6c0,0.1,0,0.3-0.1,0.4
			C18.3,28.9,18.2,29,18,29c-0.2,0-0.4,0-0.5-0.1c-0.1-0.1-0.3-0.3-0.4-0.4l-0.1-0.1c-0.2-0.2-0.2-0.5-0.2-0.8
			c0.1-0.3,0.2-0.6,0.4-0.9c0-0.1-0.5-1.5-0.5-1.5s-0.8-1.1-0.9-1.3c-0.4-0.5-0.7-1.2-0.8-1.8c-0.1-0.5-0.2-0.9-0.2-1.4
			c-0.1-0.3-0.1-0.6-0.1-0.9c0-0.1,0-0.3,0-0.4c0.1-0.7,0.1-1.5,0.1-2.2c0-0.1,0-0.2,0-0.3c0.1-0.6,0.2-1.1,0.4-1.6
			c0.4-0.8,0.8-1.5,1.3-2.2 M18.8,27.4L18.8,27.4 M14.3,19.9l-1.2-0.4c-0.2-0.1-1.4-0.5-1.7-0.6c-0.4-0.1-0.8-0.2-1.1-0.4
			c-0.4-0.3-0.7-0.8-0.9-1.3c0-0.2,0.1-1.1,0.2-1.8c0-0.2,0-0.3,0.1-0.4c0.2-0.7,0.7-0.9,1.1-1.1s0.8-1.1,1.3-1.4
			c0.8-0.3,1.6-0.6,2.5-0.7c0.9-0.1,1.7-0.1,2.6,0h0.1c0.5,0,1,0.1,1.4,0.3c0.2,0.1,0.3,0.2,0.5,0.3c0.3,0.2,0.5,0.5,0.7,0.8
			c0.3,0.5,0.3,1.1,0.1,1.7c-0.1,0.3-0.3,0.6-0.5,0.9c-0.2,0.3-0.5,0.6-0.8,0.8c-0.3,0.1-0.6,0.2-0.8,0.7c-0.1,0.7-0.4,1.4-0.9,1.9
			c0,0-0.1,0,0,0.2c0,0.1,0.1,0.2,0.1,0.2c0.4,0.8,0.7,1.6,0.8,2.5c0,0.8,0.1,1.6,0.4,2.4c0.2,0.7,0.6,1.5,0.8,1.5
			c0.2,0,0.4,0.1,0.6,0.2c0.2,0.2,0.4,0.3,0.7,0.4c0.1,0,0.3,0.1,0.3,0.2s0,0.1-0.2,0.2c-0.3,0.1-0.5,0.1-0.8,0
			c-0.1-0.1-0.2-0.1-0.3-0.1c-0.1,0-0.2,0.1-0.2,0.1s-0.3,0.1-0.4,0.2l0,0l0,0 M14.6,16.9c-0.7,0.3-1.4-0.5-2.1-1.3
			s-0.2-1.6,0.8-2.6s3.4-1.2,4-1.2 M17.2,19.4l1.1-0.5l0.8-0.4c0,0,1.3-0.4,2-0.8c0.2-0.1,0.4-0.2,0.4-0.2c0-0.2,0-0.5,0-0.7
			 M21.8,15.5c0.1,0.4-0.1,0.9-0.3,1.3c-0.1,0.1-0.2,0.2-0.2,0.2l-0.7,0.5 M24.5,15.2c0,0,0.3,0.4,0.4-0.1c0.2-0.6,0.4-1.1,0.6-1.6
			c0-0.1,0.1-0.2,0.2-0.3 M19.7,15.9l2-0.5l0.1,0.1l0.8,0.4c0.2,0.1,0.5,0.2,0.7,0.2c0.2,0,0.2-0.1,0.2-0.2c0-0.1,0.1-0.2,0.2-0.2
			c0.1,0,0.2-0.2,0.2-0.2c0.1,0,0.2,0,0.3-0.1c0.1-0.1,0.2-0.1,0.2-0.2l0,0 M18.7,12.1c-0.1-0.3,0.2-0.6,0.4-0.7l0.2-0.1
			c0,0,0,0,0-0.1c0-0.5,1.4-0.7,1.4-0.7c0-0.9,2.2-0.5,2.2-0.5c0.7,0,1.4,0.2,2,0.6c0.8-0.1,1.2,0.8,1.2,0.8
			c0.8,0.2,0.4,1.3,0.4,1.4s0,0.3-0.4,0.3c-0.1,0-0.3,0-0.4-0.1c-0.3-0.1-0.6-0.2-0.8-0.4l-0.6-0.4c0,0.2,0,0.4-0.1,0.6
			c-0.2,0.2-0.3,0.2-0.4,0.2s-0.4,0.3-0.6,0.4c-0.2,0.2-0.6,0.4-0.9,0.4C21.9,14,21.5,14,21.2,14c-0.2-0.1-0.8,0.1-0.8-0.1
			c-0.1-0.2-0.2-0.4-0.4-0.5 M23.6,15.2l0.3,0.3 M18.3,18.9c-0.1,0.3-0.1,0.5,0,0.8c0.3,0.7,1,1.2,1.8,1.3l1.3,0.1 M21.3,17.8
			c0,0,0.8,0.6,0.9,0.9 M17,28.5L15.6,29c0,0-1.4,0.3-1.7,0.4s-1.6,0.3-1.6,1.1s-0.1,1,0.2,1.2c0.2,0.1,0.3,0.2,0.5,0.3 M14,31.5
			c-0.3,0.2-0.7,0.4-1,0.6c-0.2,0.1-0.4,0.3-0.6,0.5c-0.3,0.4-0.6,0.8-0.7,1.2c0,0.1,0,0.1,0,0.2c0,0.4,0.2,0.7,0.5,0.9 M11.7,33.8
			c-0.3-0.2-0.7-0.4-1.1-0.6l-0.6,0C9.8,33,9.5,33,9.3,33c-0.3,0-1.3,0.6-1.4,1.2s-0.5,2.2,0.9,2.1c0.3-0.2,0.6-0.3,0.8-0.5l0.1-0.1
			c0.4-0.4,0.9-0.7,1.5-0.8c0.1,0,0.6,0,1,0c0.2,0,0.4,0.1,0.6,0.2c0.2,0.2,0.3,1,0.4,1.1l1,0.8 M19.4,40.1L19.4,40.1L20,41l0.3,0.6
			c0,0,0.2,0.2,0.3,0.1s0.2-0.1,0.1-0.3s-0.3-0.7-0.3-0.7c-0.1-0.3-0.3-0.5-0.5-0.8l0.6,0.2l0.8,0.5c0.1,0,0.1,0,0.2-0.1
			c0-0.1,0-0.2-0.1-0.2l-0.7-0.8c-0.1-0.1-0.3-0.2-0.4-0.3c-0.1,0-0.1-0.1-0.2-0.2c-0.1-0.2-0.3-0.3-0.4-0.4
			c-0.2-0.2-0.5-0.3-0.8-0.4c-0.2,0-0.6-0.1-0.6-0.4c0.2-0.5,0.4-1.1,0.6-1.6l0.4-0.8l0.2-0.3c0.2-0.4,0.4-0.8,0.5-1.3
			c0,0,1-0.1,1-0.6s0.4-1.2-2.5-2.2c-0.5,0.4-1,0.9-1.3,1.5c-0.2,0.5-0.4,1-0.5,1.5c-0.2,0.7-0.2,1.3-0.2,2c0,0.6,0,1.2,0.1,1.8
			 M19,40.8L19,40.8l0.6,1.3c0,0,0.2,0.1,0.2,0S20,42,20,41.9s-0.1-0.5-0.1-0.5l-0.2-0.6l-0.1-0.3l-0.1-0.4 M16.7,37.8
			c0,0.7,0.2,1.4,0.6,2l0.5,0.4c0,0,0.4,0.3,0.5,0.4s0.1,0.4,0.1,0.4S18,41.2,18,41.2s-0.1,0.3,0,0.3c0,0,0.1,0.1,0.1,0
			c0.1-0.1,0.2-0.1,0.3-0.2c0.1,0,0.5-0.2,0.5-0.3c0-0.1,0-0.2,0-0.3 M13.8,31.2c0,0,0.1,0.1,0.3,0.3c0.8,0.9,1.7,1.7,2.6,2.5
			 M9.8,35.8c0,0.4,0.2,0.9,0.4,1.2l0.1,0.1c0.7,0.7,1.7,1.1,2.7,1.1c1.4,0.1,2.8,0.3,3.6-0.5l0,0 M10.3,37.2
			c-0.2,0.9,0.1,1.8,0.7,2.5l0.1,0.1c1,1,2.1,1.9,3.3,2.6c1.3,0.6,4.1,1.7,4.4,1.8l0.3,0.1c0.6,0.2,1.2,0.5,1.8,0.8 M11,39.8
			c-0.1,0.1-0.2,0.3-0.3,0.5c0,0.4-0.1,0.9-0.2,1.3c-0.3,0.6-0.5,1.2-0.6,1.9c0.2,0.5,0.4,0.9,0.6,1.4c0.1,0.1,0.1,0.2,0.2,0.2
			c0.1,0,0.2,0,0.4,0c0,0,0.2,0,0.3,0s0.2-0.1,0.2-0.2s0-0.2,0.1-0.2s0.4-0.4,0.3-0.5c-0.1,0-0.3-0.1-0.4-0.1c-0.1,0-0.2,0-0.3-0.2
			s-0.1-0.2-0.1-0.3c0.1-0.1,0.2-0.3,0.3-0.3c0.5-0.3,1-0.6,1.5-0.9c0.3,0,0.6,0.2,0.8,0.3c0.7,0.6,1.4,1.2,2.2,1.7
			c0.8,0.5,1.6,0.8,2.5,1.1c0.8,0.1,1.6,0.3,2.4,0.5c0.5,0.2,1.7,0.4,2.2-0.2s0.7-0.6,0.8-1c0.1-0.6,0.1-1.3-0.1-1.9
			c-0.2-0.3-0.4-0.6-0.6-0.8 M20.8,27c0.8,0.2,1.5,0.5,2.2,0.9l0,0c0.1,0,0.1,0.1,0.2,0.2 M21,35.8c0.3,0.5,0.5,1.1,0.6,1.6
			c0,0.3,0.4,1.3,0.6,2.2c0.2,0.5,0.3,1,0.4,1.1c0.3,0.4,0.4,0.8,0.3,1.3V42c0,0.1-0.1,0.2-0.1,0.4c-0.5,1-0.6,2.1-3.1,2h-0.6
			 M23.3,34.5c1.4-0.2,1.7-2,1.7-2.5c0-0.2-0.1-0.4-0.1-0.6c0,0-0.1-0.5-0.2-1c-0.5-0.8-1-1.6-1.6-2.4 M23,27.8c0,0-0.2-0.9,0.2-1.1
			l0.1,0c0.1-0.1,0.2-0.2,0.3-0.3s0.4-0.5,0.6-0.5c0.2-0.1,0.3-0.2,0.5-0.3c0.2-0.4,0.6-0.6,1.1-0.6c0.7,0,1.3,0.1,2,0.3
			c0.3,0.2,0.6,0.5,1,0.6c0.1,0,0.2,0,0.3,0c0.3,0,0.5,0.2,0.6,0.5c0.2,0.2,0.2,0.5,0,0.6c0,0,0.6,0.4,0.7,0.6s0.2,0.9-0.3,1
			c0,0-0.6,0.1-0.7,0.1s0-0.2-0.2-0.3c-0.1,0-0.3,0-0.4,0.1c-0.3,0.2-0.5,0.3-0.8,0.5c-0.1,0-0.4,0.1-0.4,0.2s-0.1,0.3-0.6,0.5
			l-1.9,0.4 M25.1,30.3c0.1,0.2,0.2,0.4,0.4,0.6c0.4,0.3,0.9,0.5,1.4,0.4c0.2,0,0.2-0.2,0.4-0.2s0.3-0.2,0.4-0.2s0.3-0.4,0.3-0.4
			s0.5,0.1,0.5-0.2s0-1,0-1c0.3-0.2,0.4-0.5,0.5-0.8 M27.5,31l-0.2-0.1 M28.1,30.7c0,0-0.4-0.1-0.4-0.2 M19.8,35.2
			c0.3,0.4,0.8,0.5,1.3,0.5l0,0c0.9-0.1,1.7-0.6,2.2-1.3c0.4-0.8,0.8-2-0.5-3.6 M29.6,21.1c-0.1,0.4,0.1,0.8,0.4,1l0.1,0.2
			c0.2,0,0.3,0,0.5-0.1c0.2-0.1,0.3-0.2,0.5-0.3c0.4-0.3,0.1-0.6,0.2-0.9c0-0.2,0-0.4-0.2-0.6c0,0,0.1,0,0.1-0.1s-0.3-0.3-0.3-0.4
			s0-0.2,0-0.3c-0.1-0.2-0.1-0.3-0.1-0.5c0-0.1,0-0.2-0.1-0.4c0-0.2-0.2-0.4-0.3-0.4c0-0.2-0.3-0.4-0.3-0.4c0.1-0.4-0.4-0.4-0.4-0.6
			s-0.4-0.4-0.4-0.4c-0.2-0.2-0.4-0.3-0.6-0.3c-0.3,0-0.6,0.1-0.9,0.2c-0.2,0-0.4,0-0.6,0.1c-0.4-0.1-0.8,0.2-1,0.5
			c-0.2,0.1-0.4,0.3-0.5,0.5c-0.2,0.7-0.4,1.4-0.6,2.1c-0.1,0.6,0,0.4-0.1,0.6s-1.2,1.2-0.6,1.6s0.7,0.5,0.8,0.7s1.7,0.5,2,0.3
			s0.5-1.2,0.5-1.2c0-0.3,0-0.6,0-0.8c0-0.1-0.1-0.3-0.1-0.4c-0.1-0.3-0.2-0.7-0.2-1c0-0.3-0.1-0.5-0.3-0.8
			c-0.2-0.2-0.3-0.5-0.3-0.8c0.1-0.4,0.2-0.7,0.5-1c0.4-0.2,1-0.3,1.4-0.2l0.4,0.3c0.1,0,0.3,0.2,0.5,0.4c0.1,0.1,0.2,0.2,0.2,0.4
			 M30.1,18.9c0,0.1,0.1,0.9,0.1,1s0.2,0.7,0.1,0.8c-0.2,0.1-0.4,0.3-0.7,0.4c-0.8,0-1.5-0.1-2.3-0.3 M24.2,22.5c0,0-2.3,1.3-1.8,5
			 M28.8,23.4l0.1,2.6 M24.4,39c0,0-0.2-3.2-0.1-3.6 M27.2,13.8c0,0,0-0.8,0.2-1c0.2-0.2,0.5-0.4,0.8-0.4c0.1,0,0.2,0,0.4,0
			c0.8,0.2,1.4,0.7,1.9,1.4c0.2,0.3,0.2,0.6,0,0.9c-0.1,0.1-0.1,0.2-0.2,0.2C30,14.9,29.7,15,29.5,15 M32.5,9.4L32.5,9.4 M28.2,12.2
			c-0.2-0.5-0.1-1.2,0.3-1.6c0.7-0.8,1-1,1.2-1l0.8-0.1c0.6-0.4,1.3-0.4,1.9-0.1 M30.6,19c0,0,0.5-1.1,0.5-1.2
			c0.5-1.1,0.5-2.4,0-3.5c-0.1-0.3-0.7,0.3-0.7,0.3l0,0 M35.8,16.2c0,0-0.1,0.7-0.2,0.6s-0.4-0.5-0.4-0.5l0.3-1l0.1-1.3l0,0l1-1.6
			c0-0.3-0.1-0.6-0.2-0.8c-0.2-0.2-0.4-0.4-0.5-0.6c0-0.1-0.1-0.6-0.1-0.6S35,10.9,34.9,11s-0.7,0-0.8,0s-0.5,0.1-0.5,0.2
			s-0.4,0.7-0.4,0.8c-0.1,0.3-0.2,0.6-0.2,0.9c0,0.1-0.1,0.2-0.1,0.3c-0.1,0.1-0.1,0.2-0.2,0.3c-0.1,0.2,0,0.4,0.1,0.6
			c0,0.3,0,0.6-0.1,0.9c0,0.1-0.3,0.1-0.3,0.1c-0.1,0-0.2,0.1-0.4,0.2c0,0,0.1-0.4,0.1-0.5c-0.1-0.3-0.2-0.6-0.3-0.9
			c-0.1-0.6-0.2-1.2-0.2-1.9c0.1-0.4,0.2-0.9,0.4-1.3c0.1-0.4,0.2-0.7,0.4-1.1c0.1-0.1,0.2-0.3,0.3-0.4l0,0c0.2-0.2,0.4-0.4,0.6-0.6
			c0.4-0.1,0.7-0.3,1.1-0.3c0.6-0.1,1.2,0.1,1.7,0.5c0,0,0.7,0,0.9,0.5c0.2,0.4,0.4,0.9,0.5,1.4c0,0.2-0.2,0.4-0.2,0.5
			c0,0.3,0,0.6-0.1,0.9c0,0,0,0,0,0.1c-0.1,0.1-0.1,0.3-0.1,0.4c0,0.2,0.2,0.7,0.1,0.8s-0.2,0.2-0.2,0.3s0,0.6-0.2,0.7
			c-0.1,0.1-0.2,0.2-0.2,0.4c0,0.1,0.1,0.7-0.1,0.9c-0.1,0.1-0.1,0.1-0.2,0.2l0,0c-0.1,0-0.2,0-0.2,0L35.8,16.2z M32.8,13.2
			c0,0,0.3,1.2,1,1.4c0.6,0,1.2-0.2,1.8-0.6 M40.7,16.3v-0.1 M37.2,12.3c1.3,0.5,2.3,1.4,3,2.6c0.2,0.4,0.4,0.7,0.4,1.1
			c0,0.1,0,0.2,0,0.2l0,0 M41.5,17.3c-0.2-0.4-0.6-0.7-0.9-0.9c-0.4-0.3-0.7-0.5-1.2-0.6 M36.2,16c0,0-0.3,1.3,1.4,2.5 M33.1,22.3
			l-1.8-0.9 M32.4,40c0.3-0.4,0.4-1,0.3-1.5c-0.3-1.1-0.2-1.4-0.1-1.7s1.5-1.9,2.5-3.7c0.1-0.2,0.2-0.4,0.3-0.6
			c0.4-0.7,0.6-1.5,0.6-2.3l0.9-1.9l0,0 M30.5,44l-0.3,1.4l0.6-1.4l1-2.6l1.2,3.4L32.3,40v-0.5c-0.3,0-0.6,0.2-0.7,0.4
			c-0.3,0.5-0.4,1-0.6,1.6c-0.1,0.2-0.1,0.4-0.2,0.6l0,0c-0.3,0-0.3-0.4-0.3-0.4l-0.1-1.8c-0.1-0.1-0.2-0.2-0.2-0.2
			C30,39.2,30,38.9,30,38.5c0.1-0.5,0.4-1,0.6-1.5c0.1-0.3,0.4-1,0.6-1.7s0.5-1.7,0.5-1.7c0.1-0.8,0.2-1.6,0.5-2.4
			c0.2-0.6,0.5-1.2,1-1.6c0.2-0.3,0.3-0.5,0.4-0.8 M30.8,42.1l-0.3,2 M33.8,25.1c-0.1,0.2-0.2,0.4-0.3,0.5c-0.2,0.1-0.8,1-0.7,1.6
			s0.4,1.6,0.4,1.6h0.3l2.7-0.3c0.1,0,0.3-0.1,0.4-0.1c0.3-0.1,0.5-0.2,0.8-0.4c0.4-0.6,0.9-1.3,1.2-1.9 M26,45.1l4.2,1.4l7.8-2.2
			l-4.5-0.9L30.8,44l-0.3,0.1L26,45.1L26,45.1 M26,45.1v1.1l4.3,1.4l7.8-2.3v-1.1 M30.2,46.4v1.1 M33.3,23.1
			c-0.1-0.1-0.2-0.2-0.2-0.4c0.1-0.2-0.2-0.7,0-0.8s0.2-0.4,0.3-0.7c0.1-0.1,0.2-0.2,0.4-0.3c0.5-0.1,0.3-0.6,0.7-0.7
			s0.7-0.4,0.9-0.4c0.3-0.1,0.5-0.1,0.8-0.2c0.1,0,0.3,0,0.4,0c0.2,0,0.3,0,0.5,0c0.2,0.1,0.4,0.2,0.6,0.3c0.1,0.1,0.3,0.1,0.4,0.1
			c0.2,0,0.8,0.3,0.9,0.3s0.5,0,0.5,0.2s-0.1,0.3,0,0.3s0.3,0.2,0.3,0.3s-0.2,0.3-0.1,0.4s0.3,0.5,0.3,0.6s0.1,0.3,0,0.4
			s-0.2,0.1-0.1,0.2s0,0.2,0,0.3s-0.2,0.2-0.2,0.3s-0.3,0.4-0.4,0.5s-0.4,0-0.5,0.2s-0.5,0.3-0.6,0.3s-0.6,0.3-0.7,0.1
			c-0.1-0.2-0.1-0.5,0-0.7c0-0.1,0.2-0.2,0.2-0.4c0-0.1,0-0.2,0-0.3c0,0-0.3-0.3-0.1-0.5c0.3-0.4,0.5-0.8,0.7-1.2
			c0.1-0.2,0.1-0.3,0-0.5c-0.2-0.1-0.4-0.3-0.7-0.4c-0.3-0.1-0.6-0.2-0.9-0.2c-0.3,0-0.5,0-0.8,0.1c-0.2,0.1-0.6,0.3-0.7,0.3
			s-0.4,0.4-0.4,0.4l-0.5,0.4c-0.4,0.5-0.7,1.1-0.7,1.8c0,0.3,0,0.6,0,0.9c0.1,0.4,0.2,0.7,0.4,1c0.1,0.1,0.8,0.7,0.8,0.7l0.4,0.1
			c0.2,0,0.3,0.1,0.4,0.3c0.1,0.2,0.3,1,0.7,0.8l0.3-0.3l0.5,0.2c0.1,0,0.8,0.4,1.7-0.8c0.1-0.1,0.2-0.3,0.3-0.4
			c0.2-0.5,0.4-0.9,0.6-1.4c0.1-0.1,0.3-0.2,0.4-0.2c0.6-0.3,1.1-0.9,1.3-1.6c0,0,0-0.2,0-0.4 M40.4,25c0,0.2-0.4,1.7-0.5,2
			c-0.1,0.3-0.1,0.7,0.1,1c0.2,0.5,0.3,1.1,0.3,1.7c-0.1,0.7-0.2,1.4-0.3,2c0,0.1,0,0.2-0.1,0.3l-0.1,0.3l-0.5,1.1
			c0,0-0.9,1.7-1,2.1c-0.6,1.1-0.6,2.4-0.1,3.6l0.3,1.1c0.5,1.5,0.7,1.7,1.2,1.8 M41.1,36.4c-0.1,1.1-0.3,2.2-0.6,3.3
			c-0.3,0.5-0.5,1.1-0.6,1.7c0,0.4-0.1,0.9-0.3,1.3c-0.1,0.2-0.2,0.4-0.2,0.6c0,0.1,0,0.3,0,0.4c0,0.4,0.1,0.7,0.4,0.8
			c0.2,0,0.5,0,0.7-0.1c0.2,0.1,0.4,0.1,0.6,0.2c0.2,0.1,0.4,0.1,0.6,0c0.2-0.1,0.5-0.2,0.6-0.3s0.5-0.4,0.5-0.7
			c-0.2-0.4-0.4-0.8-0.6-1.1l-0.1-0.3c-0.1-0.5-0.1-1,0-1.5c0.3-0.6,3.4-5,3.2-8.1 M47.2,32.1c-0.7-0.1-1.3,0.1-1.9,0.4l0,0
			c-0.2,0.1-0.3,0.3-0.4,0.4c-1.2,1.2-2.4,2.4-3.8,3.4c-0.4,0.4-0.8,0.6-1,0.8c-0.2,0.2-0.3,0.4-0.5,0.7C40.1,33,42,28.4,45,24.6
			 M36.7,19.5c0.3-0.4,0.7-0.7,1.1-0.9c0.2-0.1,3.4-1.8,6.4-1.3 M41.1,21c0-0.1,0.9-2.8,2.6-3.5c0.4-0.2,0.9-0.2,1.3,0
			c0.4,0.2,1.4-0.2,2.6,0.7l0.9-0.3c1.1-0.2,2.2,0.6,2.4,1.7c0,0.1,0,0.2,0,0.3c0,0.9-1.2,2-1.2,2l-1.2,1c-0.3,0.6-1.6,1.2-2,1.5
			c-0.5,0.4-1.2,0.5-1.8,0.3c-1.9-0.4-3.6-2.7-3.6-2.7 M43.2,40.8c0.6,0.7,1.3,1.2,2.1,1.6 M36.9,26.6l0.3-0.2 M30.7,29.6
			c0,0-0.1-1.4-0.1-2c0-0.3,0.4-1.9,0.6-3.2 M31.8,28.8c0,0-2.3,0.9-1.4,3.1 M30.6,31.9c-0.4,0.5-0.4,0.5-0.4,0.6
			c-0.1,0.3-0.2,0.7-0.2,1c0,0.1,0,0.3-0.1,0.4c-0.1,0-0.4,0.3-0.4,0.2s-0.3-0.5-0.5-0.5s-0.3,0-0.3,0.1s-0.5,0.1-0.1,0.5l0.4,0.4
			c0.2,0.2,0.4,0.3,0.6,0.4c0.3,0.1,0.6,0,0.8-0.3 M30.6,31.8L30.6,31.8 M32.2,31.2c-0.3-0.2-0.8-0.1-1,0.1l-0.5,0.5l0,0 M30.6,33.3
			c0,0.2-0.1,0.7,0.2,0.8c0.2,0,0.3-0.1,0.3-0.3c0,0,0,0,0,0c0-0.2,0.1-0.4,0.2-0.6 M30.7,34.2c0,0,0,0.2-0.1,0.5
			c0,0.2-0.1,0.4-0.1,0.5c-0.1,0.2-0.3,0.7-0.2,0.8s0.2,0.5,0.4,0.1l0.3-0.4l0.3-0.5 M33.8,14c0.1,0.1,0.3,0.2,0.4,0.2 M34.1,13.6
			c0,0,0,0.1,0.3,0.1 M29.3,19.8c0.2-0.1,0.5-0.1,0.7-0.3 M27.6,18.6c0,0,0.5-0.6,0.7-0.5 M28,18.4L28,18.4 M27.9,29.7l-0.1,0.1
			 M24.4,13.9l-0.1,0.2 M33.8,12.5v0.1 M35.5,13.1l0,0.2 M36.4,25.5l0.1,0.1 M35.9,25.5l1.1-0.2 M45.7,24.7l-1,4.1 M46.6,24.2
			c-6.5-1.7-2.3-6-1.6-6.7 M24.1,13.6l0.7,0.5 M33.5,12.2c0.3,0.1,0.5,0.2,0.8,0.2 M35.2,12.9c0.3,0.1,0.5,0.2,0.8,0.3 M28.2,29.8
			c0,0-0.5-0.1-0.6-0.3 M22.6,18.9h0.3l0.8,0.1c0.1,0,0.7,0.1,0.7,0.1c0.1,0.2-0.3,0.3-0.3,0.3l-0.7,0.1l0.2,0.3
			c0.2,0.3-0.2,0.6-0.2,0.6c0.1,0.6-0.3,0.8-0.3,0.8c-0.5,0.3-1.2,0.1-1.6-0.3c-0.1-0.1-0.2-0.1-0.3-0.2c-0.4-0.2-0.3-0.6-0.3-1
			c0-0.3,0.1-0.7,0.3-0.9c0.2-0.1,0.4-0.3,0.6-0.3l0.5,0.1L22.6,18.9L22.6,18.9c0,0,0.2,0.3,0.2,0.3s-0.5,0.2-0.6,0.1l-0.1,0
			 M30.8,12.9l0.4,1.6 M48.7,42.4c0,0-2.5-0.5-2.6-4.5 M23,37.8c0,0,2.3,2.5,3.1,2.5 M27.3,34.3c-0.1,1.2-0.2,2.1-0.2,2.1
			c-0.2,1.4-0.6,2.7-1.1,4c0.6,0,1.2-0.2,1.8-0.3c0.9-0.3,1.4-1,2.2-0.5 M35.4,32.5c1-0.2,2-0.4,3-0.5l0,0c0.9-0.1,1.5-0.1,1.5-0.1
			 M35.3,32.6c0,0,0,2.6,0,2.8c0.1,0.5,0,1-0.2,1.4c-0.3,0.4-0.4,0.8-0.5,1.2c0,0.3,0,0.6,0,0.8l-0.3,0.9c0,0-0.1,0.7,0.5,0.8
			c0.6,0.1,1.2,0.1,1.8-0.1c0.3-0.2,0.6-0.5,0.5-0.7s-0.3-0.4-0.5-0.6c-0.2-0.2-0.3-0.5-0.3-0.9c0-0.2,0.1-0.3,0.1-0.5
			c0-0.3,0-0.6,0.1-0.9c0.1-0.2,1.2-1.8,1.2-1.8c0.4-0.9,0.7-1.9,0.7-3 M28.9,14.6l-0.2-0.4l-0.1-0.2c0-0.1,0-0.2,0-0.3
			c0.1-0.1,0.3,0,0.3,0c0.1,0.1,0.2,0.2,0.3,0.3c0.2,0.1,0.1,0,0.3,0.6c0,0.1,0,0.2,0,0.3c0,0.3-0.4,0.3-0.8,0.5
			c-0.3,0.2-0.8,0.2-1.1,0c0,0-0.9-0.8-0.9-0.9s-0.1-0.1-0.2,0s0,0.1-0.4,0.1c-0.2,0-0.4-0.1-0.5-0.3c0-0.1,0.4-0.3,0.4-0.3
			c0.3-0.2,0.6-0.3,1-0.3h0.2c0.3-0.1,0.7,0,1,0.1l0.5,0.3 M6.5,32.3c0,0-1.3-0.3-1.4-0.5c0-0.1,0-0.1,0-0.2
			c0.1-0.1,0.3-0.3,0.4-0.5c0,0,0-0.1,0.2-0.4l0.5-1.1c0.3-0.7,0.2-0.9,0.2-0.9l0.3-4c0-1.1,0.4-2.1,1.1-2.8 M14.9,22.2
			c-1.4,0.2-2.9,0.3-4.3,0.2c-0.6,0-1.2-0.1-1.7-0.2C8.6,22.1,8.3,22,8,22c-0.2,0-0.3-0.1-0.4-0.2c0,0-0.9,0.3-1.2,2.7
			c0,1.1-0.2,2.2-0.4,3.3c-0.5,0.9-1.1,1.8-1.9,2.5c-0.2,0.2-0.2,0.5,0.1,0.7c0,0,0,0,0,0L5,31.7 M50.4,21.1c0.6,1.9,1,3.9,1.2,5.9
			c0.3,3.7-0.1,7.4-1.1,11c-0.4,1.7,0.2,4,1,4.2c0,0-2.8,0.3-4,0.3c-0.5,0-0.6,0-1.1,0c-1.4,0-2.8-0.1-4.1-0.3"/>
		<path class="st3" d="M39.9,37.2c0,0-1.3,1,0.6,1.6"/>
		<path class="st2" d="M50.2,25.3c0.2,1.2,0.2,2.5,0,3.7c-0.3,2,0.4,7.7,0.2,8.9"/>
		<line class="st2" x1="46.1" y1="20.3" x2="47.2" y2="19.2"/>
		<path class="st2" d="M30.6,28c0,0,1-3.1,1.6-3.3 M22.2,29c0,0,2.3,0.9,2.7,2 M15.4,23.5c-0.1,0.8,0,1.7,0.2,2.5
			c0.3,1.5,0.7,2.8,0.7,2.8 M27.3,23.2c0,0,2.2,0.5,2.8-1.1 M24.7,33.3c-0.1,0.8-0.3,1.5-0.6,2.2c0,0-0.2,0.6-0.5,1.1
			s-1.6,1.9-1.6,1.9 M18.6,31c0.5-0.5,1.2-0.7,1.9-0.7h1 M39.3,20.3c0.8-0.2,1.6,0.3,1.8,1.1c0,0.1,0,0.3,0,0.4 M29.6,19.2
			C30,19,30,18.7,30,18.7c-0.3-0.2-0.7-0.4-1-0.6c-0.4-0.1,0-0.4,0-0.4 M39.3,24c-0.1,0.5-0.2,1-0.3,1.5 M39.7,25l2.5-0.1
			c0.3,0,0.6-0.1,0.9-0.3 M44.7,36.1c1.5,1.7,3.1,3.4,3.1,3.4 M41.5,27.8c0,0.7,0,1.4,0.1,2.1"/>
		<line class="st2" x1="25.2" y1="30.7" x2="24.9" y2="31"/>
		<path class="st4" d="M148.4,44c0.7,0.9,1.8,1.3,2.9,1.3c2,0,3.2-1.2,3.2-2.7c-0.1-1.1-0.8-2-1.7-2.4v0c0.9-0.4,1.4-1.3,1.5-2.2
			c0-1.5-1.3-2.7-2.8-2.6c-0.1,0-0.1,0-0.2,0c-1,0.1-2,0.5-2.6,1.3c-0.1,0.1-0.1,0.3,0,0.4c0,0,0,0,0,0l0.5,0.5
			c0.1,0.1,0.2,0.1,0.4,0c0,0,0,0,0,0c0.4-0.5,1-0.8,1.7-0.8c0.9,0,1.6,0.6,1.6,1.5c0,0,0,0,0,0.1c0,0.8-0.7,1.5-2,1.5H150
			c-0.2,0-0.3,0.1-0.3,0.3v0.6c0,0.1,0.1,0.3,0.2,0.3c0,0,0,0,0,0h0.8c1.5,0,2.3,0.8,2.3,1.7c-0.1,0.9-0.8,1.6-1.8,1.5c0,0,0,0,0,0
			c-0.8,0-1.5-0.3-2-0.9c-0.1-0.1-0.3-0.1-0.4,0c0,0,0,0,0,0l-0.6,0.5C148.2,43.8,148.2,44,148.4,44 M144,44c-1.6,0-2.1-1.6-2-2.8
			c0.4-0.7,1.2-1.1,2-1.1c1.1,0.2,1.8,1.3,1.6,2.4C145.4,43.3,144.8,43.9,144,44 M140.7,41.3c0,2.2,1.1,4,3.4,4
			c1.8,0,3.3-1.5,3.3-3.3c0,0,0,0,0-0.1c0.1-1.7-1.2-3-2.9-3.1c0,0-0.1,0-0.1,0c-0.7,0-1.3,0.2-1.9,0.5c0.5-1.8,2.8-3,3.4-3.2
			c0.3-0.1,0.3-0.2,0.3-0.4l-0.2-0.6c0-0.1-0.2-0.2-0.3-0.2c0,0,0,0,0,0C144.1,35.6,140.7,37.3,140.7,41.3 M134.1,42.6
			c0-1,0.8-1.8,1.8-1.8c1,0,1.8,0.8,1.8,1.8c0,0.9-0.8,1.6-1.7,1.6c0,0-0.1,0-0.1,0C135,44.2,134.2,43.5,134.1,42.6
			C134.1,42.6,134.1,42.6,134.1,42.6 M136,39.5c-1.1-0.2-1.6-0.8-1.6-1.5c0-0.8,0.7-1.5,1.5-1.5c0,0,0,0,0,0
			c0.8-0.1,1.6,0.6,1.6,1.4c0,0,0,0.1,0,0.1C137.6,38.7,137.1,39.3,136,39.5 M132.7,42.6c0,1.6,1.3,2.8,3.3,2.8s3.3-1.2,3.3-2.8
			c-0.1-1.1-0.8-2-1.7-2.4v-0.1c0.9-0.4,1.4-1.3,1.5-2.2c0-1.6-1.3-2.6-3.1-2.6c-1.5-0.1-2.9,1-3,2.5c0,0,0,0.1,0,0.1
			c0.1,0.9,0.6,1.8,1.5,2.2l0,0C133.5,40.6,132.8,41.5,132.7,42.6 M125.9,45.1h5c0.1,0,0.3-0.1,0.3-0.2c0,0,0,0,0,0v-0.6
			c0-0.1-0.1-0.3-0.2-0.3c0,0,0,0,0,0h-1.6v-8.3c0-0.1-0.1-0.3-0.3-0.3h-0.7l-2.1,1.9c0,0.1,0,0.2,0,0.3l0.2,0.5
			c0,0.1,0.2,0.2,0.3,0.1c0,0,0,0,0,0l1.2-0.6V44h-2c-0.1,0-0.3,0.1-0.3,0.2c0,0,0,0,0,0v0.6C125.6,45,125.8,45.2,125.9,45.1
			C125.9,45.2,125.9,45.2,125.9,45.1 M112.9,40.1c-0.1-2.1,1.5-3.8,3.5-3.9c2.1-0.1,3.8,1.5,3.9,3.5c0,0.1,0,0.3,0,0.4
			c-0.1,2.1-1.9,3.6-3.9,3.5C114.5,43.6,113,42.1,112.9,40.1 M111.5,40.1c0,2.8,2.3,5.1,5.2,5.1c2.8,0,5.1-2.3,5.1-5.2
			s-2.3-5.1-5.2-5.1c-0.1,0-0.1,0-0.2,0c-2.8,0-5.1,2.3-5.1,5.1c0,0,0,0.1,0,0.1 M100.9,44.9c0,0.2,0.1,0.3,0.3,0.3h0.9
			c0.1,0,0.3-0.1,0.3-0.3c0,0,0,0,0,0v-7l0,0l6.2,7.4h0.4c0.1,0,0.3-0.1,0.3-0.3v-9.6c0-0.1-0.1-0.3-0.3-0.3h-0.9
			c-0.2,0-0.3,0.1-0.3,0.3v6.8l0,0l-6.2-7.2h-0.4c-0.1,0-0.3,0.1-0.3,0.2c0,0,0,0,0,0V44.9z M93,41.8l1.7-3.9h0.1l1.8,3.9H93z
			 M90.3,45.2h0.9c0.1,0,0.3-0.1,0.3-0.2c0.3-0.7,0.6-1.3,0.9-2h4.7l0.9,2c0.1,0.1,0.2,0.2,0.3,0.2h0.9c0.1,0,0.3-0.1,0.3-0.3
			c0,0,0-0.1,0-0.1l-4.4-9.6c-0.1-0.1-0.1-0.1-0.2-0.2h-0.1c-0.1,0-0.2,0.1-0.2,0.2l-4.4,9.6c-0.1,0.1,0,0.3,0.1,0.4
			C90.3,45.2,90.3,45.2,90.3,45.2 M83.6,44.9c0,0.1,0.1,0.3,0.3,0.3c0,0,0,0,0,0H89c0.2,0,0.3-0.1,0.3-0.3v-0.8
			c0-0.2-0.1-0.3-0.3-0.3h-3.9v-8.4c0-0.2-0.1-0.3-0.3-0.3h-0.9c-0.1,0-0.3,0.1-0.3,0.3L83.6,44.9z M79.3,44.9
			c0,0.2,0.1,0.3,0.3,0.3h1c0.2,0,0.3-0.1,0.3-0.3v-9.5c0-0.1-0.1-0.3-0.3-0.3h-1c-0.1,0-0.3,0.1-0.3,0.3V44.9z M66.2,44.9
			c0,0.1,0,0.3,0.2,0.3c0,0,0.1,0,0.1,0h0.9c0.1,0,0.2-0.1,0.3-0.2l1-6.4h0.1l2.6,6.6c0,0.1,0.1,0.2,0.2,0.2h0.3
			c0.1,0,0.2-0.1,0.2-0.2l2.6-6.6l0,0l1.1,6.4c0,0.1,0.2,0.2,0.3,0.2h1c0.1,0,0.3-0.1,0.3-0.2c0,0,0-0.1,0-0.1l-1.8-9.6
			c0-0.1-0.1-0.2-0.3-0.2H75c-0.1,0-0.2,0.1-0.2,0.2l-3,7.3h-0.1l-3-7.3c0-0.1-0.1-0.2-0.2-0.2h-0.2c-0.1,0-0.2,0.1-0.3,0.2
			L66.2,44.9z"/>
		<path class="st4" d="M186.8,21.2c0-2.6,2.1-4.7,4.7-4.7c2.6,0,4.7,2.1,4.7,4.7c0,2.6-2.1,4.7-4.7,4.7c0,0,0,0,0,0
			C188.9,25.9,186.8,23.8,186.8,21.2 M184.1,21.2c0,4.1,3.3,7.3,7.4,7.3c4.1,0,7.3-3.3,7.3-7.4c0-4.1-3.3-7.3-7.4-7.3
			c-4,0-7.3,3.2-7.4,7.2C184.1,21.1,184.1,21.2,184.1,21.2 M169.8,21.2c0,4,3.3,7.3,7.3,7.3c0,0,0,0,0.1,0c1.9,0,3.7-0.7,5-2
			c0.2-0.1,0.2-0.4,0-0.6c0,0,0,0,0,0l-1.2-1.3c-0.1-0.1-0.4-0.1-0.5,0c-0.9,0.7-2,1.1-3.1,1.2c-2.6,0-4.6-2.1-4.6-4.7c0,0,0,0,0,0
			c-0.1-2.6,1.9-4.7,4.5-4.8c0,0,0,0,0.1,0c1.2,0,2.3,0.4,3.1,1.2c0.1,0.1,0.3,0.2,0.5,0c0,0,0,0,0,0l1.2-1.3c0.2-0.1,0.2-0.4,0-0.5
			c0,0,0,0,0,0c-1.3-1.3-3.1-2-5-1.9C173.2,13.8,169.9,17.1,169.8,21.2C169.9,21.2,169.9,21.2,169.8,21.2 M164.5,28
			c0,0.2,0.2,0.4,0.4,0.4h1.9c0.2,0,0.4-0.2,0.4-0.4V14.4c0-0.2-0.2-0.4-0.4-0.4h-1.9c-0.2,0-0.4,0.2-0.4,0.4V28z M148.9,28
			c0,0.2,0.2,0.4,0.4,0.4h1.9c0.2,0,0.4-0.2,0.4-0.4v-8.8l0,0l8.6,9.4h0.5c0.2,0,0.4-0.2,0.4-0.4c0,0,0,0,0,0V14.4
			c0-0.2-0.2-0.4-0.4-0.4h-1.9c-0.2,0-0.4,0.2-0.4,0.4v8.4l0,0l-8.5-9h-0.5c-0.2,0-0.4,0.2-0.4,0.4L148.9,28z M133.8,21.2
			c0,4,3.3,7.3,7.3,7.3c0,0,0,0,0.1,0c1.9,0,3.7-0.7,5-2c0.2-0.1,0.2-0.4,0-0.6c0,0,0,0,0,0l-1.3-1.3c-0.1-0.1-0.4-0.1-0.5,0
			c0,0,0,0,0,0c-0.9,0.7-2,1.1-3.1,1.2c-2.6,0-4.6-2.1-4.6-4.7c0,0,0,0,0,0c-0.1-2.6,1.9-4.7,4.5-4.8c0,0,0,0,0.1,0
			c1.2,0,2.3,0.4,3.1,1.2c0.1,0.1,0.3,0.2,0.5,0c0,0,0,0,0,0l1.2-1.3c0.2-0.1,0.2-0.4,0-0.5c0,0,0,0,0,0c-1.3-1.3-3.1-2-4.9-1.9
			C137.1,13.8,133.8,17.1,133.8,21.2C133.8,21.2,133.8,21.2,133.8,21.2 M122.6,28c0,0.2,0.2,0.4,0.4,0.4h8.3c0.2,0,0.4-0.2,0.4-0.4
			v-1.7c0-0.2-0.2-0.4-0.4-0.4h-6.1v-3.6h5.1c0.2,0,0.4-0.2,0.4-0.4v-1.7c0-0.2-0.2-0.4-0.4-0.4h-5.1v-3.4h6.1
			c0.2,0,0.4-0.2,0.4-0.4c0,0,0,0,0,0v-1.7c0-0.2-0.2-0.4-0.4-0.4c0,0,0,0,0,0H123c-0.2,0-0.4,0.2-0.4,0.4c0,0,0,0,0,0L122.6,28z
			 M114.1,28c0,0.2,0.2,0.4,0.4,0.4h1.9c0.2,0,0.4-0.2,0.4-0.4V16.5h3.1c0.2,0,0.4-0.2,0.4-0.4v-1.7c0-0.2-0.2-0.4-0.4-0.4H111
			c-0.2,0-0.4,0.2-0.4,0.4c0,0,0,0,0,0v1.7c0,0.2,0.2,0.4,0.4,0.4c0,0,0,0,0,0h3.1L114.1,28z M105.3,28c0,0.2,0.2,0.4,0.4,0.4h1.9
			c0.2,0,0.4-0.2,0.4-0.4V14.4c0-0.2-0.2-0.4-0.4-0.4h-1.9c-0.2,0-0.4,0.2-0.4,0.4L105.3,28z M94.4,28c0,0.2,0.2,0.4,0.4,0.4h7.5
			c0.2,0,0.4-0.2,0.4-0.4v-1.7c0-0.2-0.2-0.4-0.4-0.4H97V14.4c0-0.2-0.2-0.4-0.4-0.4h-1.8c-0.2,0-0.4,0.2-0.4,0.4c0,0,0,0,0,0V28z
			 M80.2,21.2c0-2.6,2.1-4.7,4.7-4.7c2.6,0,4.7,2.1,4.7,4.7c0,2.6-2.1,4.7-4.7,4.7c0,0,0,0,0,0C82.3,25.9,80.2,23.8,80.2,21.2
			 M77.5,21.2c0,4.1,3.3,7.3,7.4,7.3c4.1,0,7.3-3.3,7.3-7.4c0-4-3.3-7.3-7.4-7.3c-4,0-7.3,3.2-7.3,7.2
			C77.5,21.1,77.5,21.2,77.5,21.2 M68.8,20.7v-4.1h2.4c1.1-0.1,2,0.8,2.1,1.9c0,0,0,0.1,0,0.1c0,1.2-0.9,2.1-2.1,2.1c0,0,0,0,0,0
			L68.8,20.7z M66.2,28c0,0.2,0.2,0.4,0.4,0.4h1.9c0.2,0,0.4-0.2,0.4-0.4v-4.8h2.6c2.5,0,4.6-2,4.6-4.6s-2-4.6-4.6-4.6c0,0,0,0,0,0
			h-4.8c-0.2,0-0.4,0.2-0.4,0.4V28z"/>
	</g>
</g>
</svg>
