<svg xmlns="http://www.w3.org/2000/svg" viewBox="0 0 646.29 651.97"><defs><style>.cls-1,.cls-4{fill:none;}.cls-2{font-size:48.5px;}.cls-2,.cls-3{font-family:Tahoma-Bold, Tahoma;font-weight:700;}.cls-3{font-size:27.4px;}.cls-4{stroke:#000;stroke-miterlimit:10;stroke-width:2px;}</style></defs><g id="Livello_2" data-name="Livello 2"><g id="Livello_1-2" data-name="Livello 1"><circle class="cls-1" cx="322.84" cy="326.29" r="259.31"/><text class="cls-2" transform="matrix(-0.5, -0.87, 0.87, -0.5, 164.66, 430.18)">I</text><text class="cls-2" transform="translate(153.27 410.94) rotate(-111.85)">S</text><text class="cls-2" transform="translate(142.25 383.6) rotate(-103.06)">T</text><text class="cls-2" transform="translate(135.92 355.71) rotate(-95.36)">I</text><text class="cls-2" transform="translate(133.55 333.44) rotate(-87.68)">T</text><text class="cls-2" transform="translate(134.34 305.04) rotate(-78.2)">U</text><text class="cls-2" transform="matrix(0.36, -0.93, 0.93, 0.36, 141.52, 271.33)">T</text><text class="cls-2" transform="matrix(0.52, -0.86, 0.86, 0.52, 151.44, 244.71)">O</text><text class="cls-2" transform="translate(170.76 214.07) rotate(-51.35)"> </text><text class="cls-2" transform="translate(178.79 203.61) rotate(-45.93)">T</text><text class="cls-2" transform="matrix(0.8, -0.59, 0.59, 0.8, 198.8, 183.11)">E</text><text class="cls-2" transform="translate(221.64 165.97) rotate(-27.38)">C</text><text class="cls-2" transform="translate(249.02 151.41) rotate(-17.19)">N</text><text class="cls-2" transform="matrix(0.99, -0.15, 0.15, 0.99, 283.64, 141.16)">I</text><text class="cls-2" transform="translate(305.68 137.53) rotate(-0.29)">C</text><text class="cls-2" transform="translate(336.7 137.03) rotate(9.79)">O</text><text class="cls-2" transform="translate(372.29 143.86) rotate(17.27)"> </text><text class="cls-2" transform="translate(385.15 147.35) rotate(23.68)">T</text><text class="cls-2" transform="matrix(0.84, 0.54, -0.54, 0.84, 411.27, 158.7)">E</text><text class="cls-2" transform="translate(435.52 173.85) rotate(41.42)">C</text><text class="cls-2" transform="matrix(0.62, 0.78, -0.78, 0.62, 459.01, 194.11)">N</text><text class="cls-2" transform="translate(481.5 222.09) rotate(62.33)">O</text><text class="cls-2" transform="matrix(0.31, 0.95, -0.95, 0.31, 497.96, 254.12)">L</text><text class="cls-2" transform="translate(506.68 279.11) rotate(81.3)">O</text><text class="cls-2" transform="translate(512.19 314.6) rotate(91.92)">G</text><text class="cls-2" transform="matrix(-0.18, 0.98, -0.98, -0.18, 510.64, 349.45)">I</text><text class="cls-2" transform="translate(506.95 371.48) rotate(108.65)">C</text><text class="cls-2" transform="translate(497.37 400.95) rotate(118.83)">O</text><text class="cls-2" transform="matrix(0.75, 0.66, -0.66, 0.75, 163.26, 484.6)">E</text><text class="cls-2" transform="matrix(0.85, 0.53, -0.53, 0.85, 188.34, 506.68)">N</text><text class="cls-2" transform="translate(223.38 527.86) rotate(22.51)">E</text><text class="cls-2" transform="translate(254.14 540.47) rotate(13.54)">A</text><text class="cls-2" transform="translate(289.01 548.14) rotate(6.81)"> </text><text class="cls-2" transform="translate(306.15 551) rotate(-1.31)">M</text><text class="cls-2" transform="translate(353.47 549.06) rotate(-12.05)">A</text><text class="cls-2" transform="translate(389.12 541.05) rotate(-20.89)">T</text><text class="cls-2" transform="translate(419.75 529.11) rotate(-29.28)">T</text><text class="cls-2" transform="matrix(0.79, -0.61, 0.61, 0.79, 448.33, 512.82)">E</text><text class="cls-2" transform="translate(473.92 492.49) rotate(-45.33)">I</text><polygon points="464.1 328.86 319.31 184.07 319.31 217.74 430.43 328.86 464.1 328.86"/><polygon points="317.23 184.07 250.15 251.16 407.77 408.79 407.77 375.12 283.81 251.16 317.23 217.74 317.23 184.07"/><polygon points="394.5 398.45 360.84 398.45 248.68 286.29 215.26 319.71 181.59 319.71 248.68 252.63 394.5 398.45"/><polygon points="181.59 321.79 215.25 321.79 326.38 432.91 326.38 466.58 181.59 321.79"/><text class="cls-3" transform="translate(184.75 370.63) rotate(45)">SONDRIO</text><path d="M443.51,205.62a170.65,170.65,0,1,0,0,241.34A170.64,170.64,0,0,0,443.51,205.62ZM213.45,435.68a154.71,154.71,0,1,1,218.79,0A154.7,154.7,0,0,1,213.45,435.68Z"/><path d="M507.78,141.35C405.64,39.21,240,39.21,137.9,141.35s-102.13,267.74,0,369.88,267.74,102.14,369.88,0S609.92,243.49,507.78,141.35ZM148.14,501c-96.49-96.48-96.49-252.92,0-349.41s252.92-96.48,349.41,0S594,404.51,497.55,501,244.63,597.48,148.14,501Z"/><circle class="cls-4" cx="322.84" cy="326.29" r="271.96"/></g></g></svg>