<?xml version="1.0" encoding="utf-8"?>
<!-- Generator: Adobe Illustrator 26.3.1, SVG Export Plug-In . SVG Version: 6.00 Build 0)  -->
<svg version="1.1" id="Livello_1" xmlns="http://www.w3.org/2000/svg" xmlns:xlink="http://www.w3.org/1999/xlink" x="0px" y="0px"
	 viewBox="0 0 1389.1 320.3" style="enable-background:new 0 0 1389.1 320.3;" xml:space="preserve">
<style type="text/css">
	.st0{fill:#585857;stroke:#1D1D1B;stroke-linejoin:round;}
	.st1{fill:#585857;}
	.st2{fill:none;stroke:#585857;stroke-width:4;stroke-linejoin:round;}
	.st3{fill:none;stroke:#585857;stroke-width:3;stroke-linejoin:round;}
	.st4{fill:none;stroke:#585857;stroke-width:9;stroke-linejoin:round;}
	.st5{fill:none;stroke:#585857;stroke-width:3;stroke-linecap:round;stroke-linejoin:round;}
	.st6{fill:none;stroke:#1D1D1B;stroke-width:4;stroke-linecap:round;stroke-linejoin:round;}
	.st7{fill:none;stroke:#585857;stroke-width:4;stroke-linecap:round;stroke-linejoin:round;}
	.st8{fill:none;stroke:#585857;stroke-width:2;stroke-linecap:round;stroke-linejoin:round;}
	.st9{fill:none;stroke:#1D1D1B;stroke-width:2;stroke-linejoin:round;}
	.st10{fill:none;stroke:#585857;stroke-width:5;stroke-linecap:round;stroke-linejoin:round;}
	.st11{fill:none;stroke:#585857;stroke-width:6;stroke-linecap:round;stroke-linejoin:round;}
</style>
<g id="Livello_2_00000035508264439103821560000018355377925532395394_">
	<g id="Livello_5">
		<path class="st0" d="M165.1,213.3c-5.6,0.6-22.7,2.2-21.4,6.5s19.5,18.2,19.5,18.2C163.5,231,165.1,213.3,165.1,213.3z"/>
		<path class="st0" d="M229,43.2c0,0,26.3-20,31.1-21.2c-1.7-5.3-8.2-11.8-12.5-11.3s-17.2,5.1-17.5,8C228.2,22.7,229,43.2,229,43.2
			z"/>
		<path class="st0" d="M110.9,56.5c4.8-0.6,50.2-2,53.3,14.7c2.1-7.4,0.2-35-3.1-35.9s-15.5,1.4-15.5,1.4L110.9,56.5z"/>
		<path class="st1" d="M29.5,90c2.9-0.1,5.8-0.1,8.7,0.1c2.7,0.2,5.3,0.2,8,0.2c1.1,0,2.2-0.2,3.3-0.5c0.2-0.1,0.4-0.1,0.6-0.2
			c0.1-0.1,0.3-0.2,0.5-0.2c0.1-0.1,0.2-0.2,0.3-0.2l0,0l0.1-0.1l0.3-0.2l0.6-0.4c2.5-1.8,4.8-3.3,7.2-4.9
			c9.6-6.3,19.2-12.3,29-18.1s19.9-11.4,30-16.8c5.1-2.7,10.2-5.2,15.3-7.7c2.6-1.2,5.2-2.5,7.9-3.6c0.7-0.3,1.3-0.6,2-0.8
			c0.7-0.3,1.4-0.5,2.1-0.7c0.8-0.2,1.6-0.2,2.4-0.1c0.4,0.1,0.9,0.2,1.3,0.3c0.5,0.2,0.9,0.4,1.3,0.8c-0.3,0.5-0.6,0.8-0.8,1.1
			c-0.2,0.3-0.5,0.6-0.8,0.9c-0.5,0.5-1,1-1.6,1.3c-1.2,0.7-2.5,1.2-3.7,1.8c-2.5,1.2-4.9,2.6-7.4,4c-4.9,2.8-9.8,5.7-14.6,8.6
			c-9.7,5.8-19.4,11.8-29,17.7S72.9,84.1,63.3,90c-2.4,1.5-4.8,3-7,4.5l-0.7,0.5c-0.5,0.3-1,0.7-1.5,0.9c-0.5,0.2-1,0.4-1.5,0.6
			s-1,0.3-1.4,0.4c-1.7,0.3-3.4,0.4-5.2,0.2c-3-0.4-6-1.1-8.8-2.3c-2.7-1.1-5.4-2.4-7.9-4L29.5,90z"/>
		<path class="st1" d="M41.2,57.3c1.8,0.4,3.5,0.8,5.3,1c1.8,0.3,3.7,0.5,5.6,0.7c3.7,0.4,7.5,0.7,11.2,0.9C65.1,60,67,60,68.8,60
			c1.7,0,3.4-0.2,5.1-0.5c0.3-0.1,0.7-0.2,1-0.3l1.2-0.5l2.6-1.1l5.2-2.2c13.9-6.2,27.9-12.3,42.2-17.9c3.6-1.4,7.2-2.8,10.9-4.1
			c0.9-0.3,1.9-0.6,2.9-0.9c0.5-0.1,1-0.3,1.6-0.4c0.7-0.2,1.3-0.2,2-0.2c1.8,0,3.7,0,5.6,0s3.8,0,5.8,0c1,0,2,0.1,3.1,0.2
			c0.5,0.1,1.1,0.1,1.6,0.2c0.3,0.1,0.5,0.1,0.8,0.2l0.4,0.1l0.6,0.2c0.9,0.2,1.6,0.8,2.1,1.5c0.4,0.5,0.8,1,1.1,1.6
			c0.5,1,0.9,2,1.2,3c0.6,1.9,1.1,3.9,1.5,5.9c1.3,7.7,2.2,15.4,2.5,23.2c0.2,3.9,0.3,7.7,0.3,11.6c0,1.9,0,3.9-0.1,5.9
			c0,1-0.1,2-0.2,3c-0.1,0.5-0.1,1.1-0.2,1.7c-0.1,0.3-0.1,0.6-0.2,1.1c-0.1,0.3-0.2,0.6-0.3,0.9c-0.1,0.1-0.1,0.3-0.2,0.4
			c-0.1,0.2-0.2,0.4-0.4,0.5c-0.1,0.1-0.2,0.3-0.4,0.4c-0.2,0.2-0.4,0.3-0.6,0.5c-0.3,0.2-0.6,0.4-1,0.5c-0.5,0.2-0.9,0.2-1.4,0.2
			l0.3-7.6c-0.4,0-0.9,0-1.3,0.2c-0.3,0.1-0.6,0.2-0.9,0.4c-0.2,0.1-0.3,0.3-0.5,0.4c-0.1,0.1-0.2,0.2-0.3,0.3
			c-0.1,0.1-0.2,0.3-0.3,0.4c0,0.1-0.1,0.1-0.1,0.2c0,0.1-0.1,0.1-0.1,0.2c0-0.1,0.1-0.2,0.1-0.3c0.1-0.3,0.1-0.7,0.2-1.2
			c0.1-0.8,0.2-1.7,0.3-2.7c0.2-1.8,0.3-3.7,0.4-5.6c0.2-3.7,0.3-7.5,0.3-11.3c0.1-7.5-0.4-15-1.3-22.4c-0.2-1.8-0.6-3.5-1.1-5.3
			c-0.2-0.8-0.5-1.5-0.8-2.3c-0.1-0.3-0.3-0.6-0.4-0.8c-0.1-0.2-0.2-0.2,0-0.3l0,0h-0.1h-0.3c-0.2,0-0.4,0-0.6-0.1
			c-0.4,0-0.8-0.1-1.2-0.1c-0.8,0-1.8,0-2.6,0.1c-1.8,0.2-3.7,0.4-5.6,0.5s-3.9,0.3-5.9,0.4c-0.3,0-0.5,0.1-0.8,0.1
			c-0.4,0.1-0.8,0.2-1.2,0.3c-0.8,0.3-1.7,0.6-2.6,0.9c-3.5,1.2-7,2.7-10.5,4.2c-14,5.9-27.8,12.3-41.9,18.2L81,63.5l-2.7,1.1
			c-0.5,0.2-1,0.3-1.5,0.5c-0.6,0.2-1.2,0.3-1.8,0.4C73,65.9,70.9,66,68.7,66c-2,0-4-0.2-5.9-0.4c-1.9-0.2-3.9-0.5-5.8-0.8
			s-3.8-0.7-5.7-1.1s-3.8-0.9-5.7-1.5c-1.9-0.6-3.8-1.3-5.6-2.1L41.2,57.3z"/>
		<path class="st1" d="M137.5,91l0.2,0.7v0.2v0.1v0.2c0.1,0.2,0.1,0.4,0,0.6c-0.1,0.2-0.3,0.2-0.4,0.3l-0.9,0.5l-1.9,1
			c-1.3,0.7-2.5,1.4-3.8,2c-2.5,1.3-5.1,2.7-7.7,3.9c-5.1,2.4-10.1,5.1-14.9,8c-1,0.6-2,1.4-2.8,2.3c-0.2,0.2-0.2,0.3-0.2,0.2
			s0-0.2,0,0s0,0.2,0,0.4c0,0.5,0,1.3,0,2.1c0,1.8-0.5,3.6-1.3,5.2c-0.8,1.4-1.7,2.8-2.8,4c-1,1.1-2.1,2.2-3.2,3.3
			c-1.1,1-2.3,2-3.3,2.9c-2.1,1.8-4.2,3.8-6.3,5.7c-8.2,7.8-16,16.1-23.2,24.9c-3.6,4.4-6.9,9-10,13.7c-3,4.8-5.8,9.8-7.1,15.4
			c0-2.9,0.4-5.9,1.2-8.7c0.8-2.8,1.8-5.6,3.1-8.2c0.6-1.3,1.3-2.6,2-3.9s1.5-2.6,2.2-3.8c1.5-2.5,3.2-4.9,4.9-7.3
			c6.9-9.4,14.7-18.1,23.4-25.9c2.2-2,4.3-3.9,6.6-5.8c1.2-1,2.2-1.8,3.2-2.7c1-0.9,2-1.8,2.9-2.8c0.9-0.9,1.6-1.9,2.2-3
			c0.5-0.9,0.8-1.9,0.8-3c0-0.6,0-1.3,0-2.2c0-0.2,0-0.5,0.1-0.7c0-0.4,0.1-0.7,0.2-1.1c0.2-0.6,0.6-1.1,1-1.6
			c1.1-1.2,2.4-2.3,3.8-3.2c2.5-1.7,5.1-3.1,7.6-4.5s5.1-2.8,7.7-4s5.2-2.6,7.8-3.8c1.3-0.6,2.6-1.2,3.9-1.8l2-0.9l1-0.4
			c0.2,0,0.3-0.2,0.5-0.2c0.2,0.1,0.3,0.2,0.5,0.3l0.1,0.1l0.1,0.1l0.1,0.1l0.4,0.5L137.5,91z"/>
		<path class="st1" d="M127,90.5c-1.8,0.7-3.5,1.4-5.2,2.3c-1.8,0.9-3.6,1.8-5.3,2.8c-3.5,2-7.1,4-10.6,6.1s-7,4.2-10.5,6.3
			s-7,4.3-10.4,6.5c-6.9,4.3-13.8,8.8-20.6,13.3c-3.4,2.3-6.8,4.5-10.1,6.9c-1.7,1.2-3.3,2.4-4.9,3.6c-0.8,0.6-1.6,1.3-2.3,2
			c-0.4,0.4-0.7,0.7-1,1.1c-0.3,0.4-0.5,0.9-0.5,1.4c-0.1-0.5,0-1.1,0.2-1.5c0.2-0.5,0.5-0.9,0.8-1.4c0.6-0.9,1.3-1.7,2-2.4
			c1.4-1.6,2.9-3,4.4-4.4c3-2.8,6.2-5.5,9.4-8.1c6.5-5.1,13.2-9.9,20-14.6c3.4-2.3,6.8-4.6,10.3-6.8c3.5-2.2,7-4.4,10.5-6.5
			s7.1-4.2,10.8-6.1c1.8-1,3.7-1.9,5.6-2.8c2-1,4-1.8,6.1-2.4L127,90.5z"/>
		<path class="st1" d="M50.1,121.6c4-2.9,8.3-5.3,12.8-7.2c4.4-1.9,8.9-3.6,13.3-5.2s8.9-3.3,13.4-4.8l13.4-4.8l0.4,0.9
			c-4.2,2.2-8.5,4.2-12.8,6.2c-4.3,2-8.7,3.9-13,5.9s-8.6,3.9-12.8,5.9c-4.2,1.8-8.2,4-12.1,6.5L50.1,121.6z"/>
		<path class="st1" d="M124.1,119.4c-0.4,1.2-0.9,2.3-1.7,3.2c-0.6,0.9-1.3,1.6-2.2,2.3c-1.6,1.3-3.1,2.7-4.6,4.2
			c-3,2.9-5.8,6.1-8.6,9.3c-5.5,6.5-10.6,13.3-15.5,20.3c-9.8,14-18.8,28.5-27,43.5c-2,3.7-4,7.5-5.8,11.4c-0.9,1.9-1.7,3.8-2.5,5.8
			l-2.2,6.1c-3.2,8.1-7,15.9-11.2,23.5c-4.1,7.6-8.6,15-13.4,22.2c-2.4,3.6-4.9,7.1-7.7,10.5s-5.5,6.8-9.1,9.3l-0.6-0.8
			c3.1-2.9,5.9-6.1,8.2-9.7c2.5-3.5,4.7-7.1,7-10.7c4.4-7.3,8.5-14.8,12.4-22.5c1.9-3.8,3.8-7.6,5.5-11.5s3.4-7.8,4.9-11.8l2.1-6.1
			c0.8-2.1,1.6-4.1,2.5-6.1c1.8-4,3.7-7.9,5.7-11.7c4-7.7,8.4-15.1,12.9-22.5c2.3-3.7,4.6-7.3,7-10.9c2.4-3.6,4.8-7.2,7.3-10.7
			c5-7,10.3-13.9,15.9-20.5c2.8-3.3,5.8-6.5,9-9.5c1.6-1.5,3.2-3,5-4.4c0.9-0.7,1.9-1.3,3-1.7C121.7,119.3,122.9,119.2,124.1,119.4z
			"/>
		<path class="st1" d="M150.2,103.9c-1.3,1.5-2.4,3.1-3.2,4.9c-0.9,1.7-1.7,3.5-2.5,5.3c-1.5,3.7-3.3,7.4-5.2,10.9
			c-0.5,0.9-1.1,1.8-1.8,2.7c-0.3,0.4-0.6,0.9-1,1.3l-0.6,0.6l-0.5,0.5c-1.3,1.4-2.7,2.9-4.1,4.4c-2.7,2.9-5.3,5.9-7.9,8.9
			c-5.1,6-10.3,12.1-14.9,18.4c-1.2,1.6-2.3,3.2-3.4,4.8c-1.1,1.6-2.2,3.2-3.2,4.9c-1,1.6-2,3.3-2.9,5c-0.4,0.9-0.8,1.7-1.3,2.6
			c-0.2,0.4-0.5,0.9-0.8,1.2c-0.3,0.5-0.6,0.9-1,1.3c-0.3-0.5-0.5-1.1-0.6-1.6c-0.1-0.5-0.1-1.1-0.1-1.7c0.1-0.5,0.1-1.1,0.3-1.6
			c0.1-0.5,0.3-1,0.5-1.5c0.7-2,1.5-3.9,2.5-5.7c1.9-3.6,4.1-7.1,6.5-10.4c2.4-3.3,4.9-6.5,7.4-9.6s5.2-6.1,7.9-9.1s5.5-5.9,8.3-8.7
			c1.4-1.4,2.8-2.8,4.3-4.2l0.6-0.5l0.4-0.5c0.3-0.3,0.6-0.6,0.9-1c0.6-0.7,1.1-1.5,1.6-2.3c1.9-3.3,3.5-7,5.5-10.5
			c1-1.8,2.1-3.5,3.4-5.1C146.5,105.8,148.2,104.5,150.2,103.9z"/>
		<path class="st1" d="M25.3,314.3c1.2-0.8,2.2-1.7,3.2-2.8c1-1,1.9-2.1,2.7-3.2c1.7-2.2,3.4-4.6,4.9-7c3.1-4.8,6.1-9.7,9-14.8
			c5.8-10,10.9-20.6,15.8-31.2c4.9-10.6,9.6-21.3,14-32.1c2.2-5.4,4.4-10.8,6.3-16.3c1-2.7,2-5.5,2.8-8.2c0.4-1.4,0.8-2.7,1.2-4.1
			c0.1-0.7,0.5-1.4,1-1.9c0.3-0.3,0.7-0.6,1.1-0.9c0.6-0.3,1.2-0.6,1.8-0.9c0.6,0.3,1.1,0.8,1.5,1.3c0.3,0.4,0.6,0.8,0.8,1.3
			c0.3,0.8,0.3,1.6,0.1,2.4c-0.3,1.5-0.7,3-1,4.5c-0.7,2.9-1.6,5.8-2.4,8.7c-1.8,5.7-3.7,11.3-5.8,16.9c-4.2,11.1-8.9,22-14,32.7
			c-5.2,10.7-10.9,21.2-17.2,31.3c-3.1,5.2-6.6,10-10.6,14.6c-2,2.3-4.2,4.4-6.7,6.3c-2.4,2-5.3,3.5-8.4,4.2L25.3,314.3z"/>
		<path class="st1" d="M128.5,161.5c0.3,0.9,0.4,1.5,0.6,2.1l0.2,0.8c0,0.2,0.1,0.5,0.1,0.7c0.1,0.8-0.2,1.6-0.6,2.2
			c-0.8,1.3-1.5,2.6-2.3,3.9s-1.5,2.6-2.2,4l-2.2,4.1l-9,16.1c-3,5.4-5.9,10.8-8.5,16.4c-1.3,2.7-2.4,5.4-3.4,8.3
			c-0.2,0.7-0.4,1.2-0.6,2l-0.5,2.3l-0.9,4.5C98,234.9,97,241,96,247.1c-1,6.1-2,12.2-2.8,18.3c-0.5,3.1-0.8,6.1-1.2,9.1
			c-0.2,1.5-0.3,3-0.4,4.5s-0.2,3.1-0.3,4.7c-0.1,1.6-0.4,3.3-0.8,4.9c-0.4,1.7-1.2,3.4-2.2,4.8c-1.1,1.3-2.3,2.5-3.7,3.4l-3.8,2.8
			l-0.7-0.7c0.9-1.4,1.9-2.6,2.9-3.7c1-1.1,1.8-2.2,2.6-3.5c1.2-2.3,1.3-5.2,1.4-8.2c0-1.5,0-3,0-4.6s0.1-3.2,0.2-4.8
			c0.2-3.1,0.5-6.3,0.8-9.4c1.4-12.4,3.4-24.7,5.5-37l0.8-4.6l0.4-2.3c0.2-0.8,0.4-1.7,0.6-2.5c1-3.2,2.1-6.2,3.3-9.1
			c2.4-5.9,4.9-11.6,7.6-17.3s5.5-11.3,8.6-16.7c1.6-2.7,3.2-5.4,4.9-8.1c0.8-1.3,1.8-2.6,2.7-4c0.5-0.7,1.2-1.3,2.1-1.6
			c0.2-0.1,0.5-0.2,0.7-0.2l0.9-0.1C127,161.2,127.8,161.3,128.5,161.5z"/>
		<path class="st1" d="M100.6,192c0.7,0.8,1.1,1.1,1.4,1.6c0.3,0.3,0.4,0.7,0.5,1.1c0,0.3,0,0.7-0.1,1c-0.1,0.3-0.1,0.6-0.2,1
			l-0.7,4l-1.4,8.2l-1.4,8.2c-0.5,2.7-1,5.5-1.3,8.2l-1,0.1c-0.8-2.8-1.3-5.7-1.4-8.6c-0.2-2.8-0.2-5.7,0-8.6
			c0.2-2.8,0.4-5.7,0.9-8.5c0.2-1.4,0.4-2.8,0.8-4.3c0.1-0.4,0.2-0.7,0.2-1.1c0.1-0.4,0.2-0.7,0.4-1.1c0.3-0.4,0.7-0.7,1.1-0.9
			C99,192.1,99.8,192,100.6,192z"/>
		<path class="st1" d="M120,214.3c0.3,0.5,0.5,1,0.7,1.6c0.2,0.4,0.3,0.8,0.3,1.3c0.1,0.8,0.1,1.5-0.1,2.3c-0.4,1.4-0.7,2.9-1,4.4
			c-0.6,3-1,6.1-1.4,9.2c-0.8,6.2-1.4,12.4-1.8,18.7c-0.2,3.1-0.4,6.2-0.6,9.4s-0.3,6.3-0.3,9.4s0,6.2,0.1,9.4
			c0.1,3.1,0.4,6.2,1,9.3l-1,0.3c-1.1-3-1.9-6.1-2.4-9.3c-0.5-3.2-0.9-6.3-1.2-9.5s-0.4-6.4-0.5-9.5s0-6.4,0-9.6s0.3-6.4,0.5-9.6
			s0.5-6.4,0.9-9.5s0.9-6.4,1.5-9.5c0.3-1.6,0.6-3.2,1.1-4.8c0.4-1.3,1.2-2.5,2.4-3.2C118.8,214.5,119.4,214.3,120,214.3z"/>
		<path class="st1" d="M165.4,111.3c-2.2,3.9-4,8-5.1,12.3c-0.7,2.2-1.3,4.5-2.1,6.8c-0.4,1.2-0.8,2.4-1.4,3.6
			c-0.3,0.6-0.6,1.2-1,1.9c-0.2,0.4-0.3,0.6-0.5,0.8l-0.5,0.8c-2.6,4.1-5,8-7.2,12.1c-1.1,2-2.1,4.1-3.1,6.1c-0.5,1-0.9,2.1-1.3,3.1
			c-0.2,0.5-0.4,1.1-0.5,1.5s-0.2,0.9-0.3,1.4c-0.4,2.2-0.6,4.4-0.7,6.7c-0.1,2.3-0.2,4.6-0.1,7c0,4.7,0.3,9.4,0.6,14.1
			s0.9,9.4,1.6,14.1c0.6,4.7,1.7,9.3,3.1,13.8l-0.9,0.4c-2.2-4.3-3.8-8.9-5-13.6c-1.2-4.7-2.2-9.4-3-14.2s-1.4-9.6-1.8-14.4
			c-0.5-5-0.5-10,0-14.9c0.1-0.7,0.2-1.4,0.4-2.1s0.4-1.2,0.5-1.9c0.4-1.2,0.8-2.4,1.3-3.6c0.9-2.3,1.9-4.6,3-6.8
			c2.2-4.4,4.6-8.6,7-12.7l0.8-1.5c0.2-0.4,0.5-0.9,0.6-1.3c0.4-0.9,0.8-2,1.2-3c0.8-2.2,1.6-4.4,2.6-6.7c1-2.3,2.2-4.6,3.6-6.7
			c1.4-2.2,3.3-4.1,5.4-5.7L165.4,111.3z"/>
		<path class="st1" d="M144.2,220.6c0.3,0.8,0.5,1.7,0.5,2.6c-0.1,0.8-0.2,1.5-0.4,2.3c-0.3,1.5-0.5,3.1-0.6,4.7
			c-0.3,3.2-0.5,6.4-0.6,9.6s-0.1,6.5,0,9.7c0,1.6,0.1,3.2,0.2,4.8c0.1,0.8,0.1,1.6,0.3,2.4c0.1,0.7,0.3,1.5,0.6,2.2l-0.8,0.5
			c-0.5-0.7-0.9-1.5-1.1-2.4c-0.3-0.8-0.5-1.6-0.7-2.4c-0.4-1.6-0.6-3.3-0.9-4.9c-0.4-3.3-0.7-6.6-0.8-9.9c-0.1-3.3,0-6.6,0.2-9.9
			c0.1-1.7,0.3-3.3,0.6-5c0.1-0.9,0.3-1.7,0.6-2.5c0.4-0.9,1.1-1.7,2.1-2.1L144.2,220.6z"/>
		<path class="st1" d="M435.2,25.4c-1.1-0.1-2.2,0.4-2.8,1.4c-0.3,0.6-0.1,0.2-0.2,0.3l0,0c0,0,0-0.1,0-0.1c0-0.2,0-0.4-0.1-0.6
			c-0.5-1.1-1.2-2.1-2.1-2.9c-2.4-2.1-5.2-3.8-8.1-5c-1.5-0.7-3.1-1.2-4.6-1.7c-0.8-0.2-1.6-0.4-2.4-0.6c-0.4-0.1-0.8-0.2-1.2-0.2
			l-1.2-0.2c-1.9-0.2-3.8-0.6-5.7-0.9c-2-0.4-3.9-0.9-5.8-1.6c-1.3-0.6-2.8-0.9-4.2-0.9c-2.1-0.1-3.8-0.2-5.7-0.3l-11-0.7
			c-7.3-0.4-14.5-0.8-21.8-0.8c-1.8,0-3.6,0-5.4,0.1c-1.7,0-3.4,0.1-5.1,0.4c-0.3,0.1-0.8,0.1-1,0.2s-0.3,0.1-0.4,0.1h-0.2
			c0.1,0,0.1-0.1,0.2-0.1c0.1-0.1,0.1-0.1-0.1,0l-0.6,0.4l-1.1,0.9c-1.6,1.3-3.4,2.3-5.2,3.3c-3.7,1.8-7.7,2.9-11.8,3.2
			c-0.5,0.1-1,0.1-1.5,0.1c-0.5,0-1,0-1.5,0c-0.5,0-1.1,0-1.6,0l-1.6-0.2c-2.1-0.4-4.1-1-6-1.8c-1.8-0.8-3.5-1.6-5.1-2.2
			c-1.5-0.7-3.1-1.2-4.7-1.7c-1.6-0.4-3.2-0.7-4.9-0.9c-0.8-0.1-1.7-0.2-2.5-0.2s-1.7-0.1-2.6-0.1c-7.5-0.1-14.8-0.7-22.1-1.1
			c-3.6-0.2-7.2-0.4-10.8-0.4c-3.4-0.1-6.8,0.2-10.1,0.9c-0.7,0.1-1.6,0.5-2.5,0.8s-1.8,0.6-2.6,0.9c-1.8,0.6-3.5,1.2-5.1,1.9
			s-3.3,1.3-4.7,2c-1.3,0.6-2.5,1.3-3.6,2.2l-0.5,0.5c-0.2,0.2-0.5,0.4-0.7,0.6c-0.5,0.4-1,0.7-1.5,1c-0.5,0.3-1,0.5-1.5,0.8
			c-0.5,0.2-1,0.4-1.5,0.6c-1.9,0.7-4,1.1-6,1.3c-3.8,0.4-7.7,0.4-11.6,0.2l-22-1.2C174.3,22,159.7,21.4,145,21
			c-7.3-0.2-14.6-0.3-21.9,0c-1.8,0.1-3.6,0.2-5.3,0.4c-0.4,0-0.8,0.1-1.2,0.2c-0.2,0-0.3,0.1-0.5,0.1l-0.6,0.2
			c-0.8,0.3-1.6,0.7-2.3,1.1c-3.1,1.9-6,4-8.8,6.2c-1.5,1.1-3,2.2-4.5,3.2c-1.6,1.1-3.2,2.1-4.9,2.9c-0.9,0.4-1.8,0.8-2.8,1.1
			c-0.5,0.1-1,0.3-1.5,0.3s-1,0.1-1.4,0.2c-1.9,0.2-3.8,0.1-5.8-0.1l-2.7-0.3c-0.7-0.1-1.5-0.1-2.2,0c-0.2,0-0.5,0.1-0.7,0.3
			c-0.3,0.2-0.5,0.5-0.7,0.7c-0.5,0.7-1,1.4-1.4,2.2c-1.8,3.1-3.5,6.8-6.8,9.5c-0.8,0.7-1.7,1.2-2.7,1.7c-0.9,0.4-1.8,0.8-2.7,1.2
			c-1.8,0.8-3.6,1.4-5.4,1.9c-1.6,0.5-3.2,1.1-4.8,1.8c-0.7,0.3-1.4,0.7-2,1.1c-0.8,0.6-1.7,1.1-2.6,1.6c-1.8,1-3.7,1.8-5.7,2.4
			c-1.1,0.3-2.1,0.5-3.2,0.6c-0.6,0.1-1.2,0.1-1.9,0c-0.1,0-0.3,0-0.4,0h-0.1c-0.1,0-0.2,0-0.4,0c-1.5,0.2-2.9,0.6-4.2,1.3
			c-1.3,0.6-2.5,1.5-3.4,2.5c-0.4,0.4-0.7,1-1,1.5c-0.1,0.3-0.2,0.5-0.2,0.8s-0.2,0.7-0.2,1.1c-0.2,1.7-0.3,3.3-0.2,5
			c0.1,3.4,0.6,6.7,1.5,10c0.4,1.4,1,2.8,1.8,4c0.1,0.1,0.2,0.2,0.2,0.3c0.1,0.1,0.1,0.2,0.2,0.2c0.1,0.2,0.3,0.3,0.4,0.5
			c0.4,0.6,0.8,1.3,1,2c0.4,1.1,0.6,2.2,0.7,3.4c0.2,2,0.4,3.9,0.4,5.9c0,1.9,0,3.7-0.1,5.5s0,3.6,0,5.3c0,1.6,0.2,3.3,0.5,4.9
			c0.1,0.6,0.3,1.3,0.5,1.9c0.1,0.1,0.1,0.2,0.2,0.3c0,0.1,0.1,0.1,0.1,0.2c0,0,0.1,0,0.1,0.1l0.2,0.1c1,0.4,2.1,0.6,3.2,0.3
			c1.5-0.2,3.1-0.6,5-1c0.5-0.1,1-0.2,1.6-0.3c0.3,0,0.6-0.1,1-0.1H47h0.7c0.2,0,0.6,0.1,0.9,0.1c0.4,0.1,0.8,0.2,1.2,0.4
			c0.6,0.3,1.2,0.7,1.7,1.1c0.6,0.6,1.1,1.4,1.4,2.2c0.2,0.7,0.4,1.4,0.3,2.2c0,0.5-0.1,0.9-0.2,1.4c-0.1,0.3-0.2,0.6-0.3,0.9
			c-0.1,0.2-0.2,0.5-0.3,0.7l-0.3,0.6l-0.2,0.4c-0.1,0.3-0.3,0.5-0.4,0.8c-0.3,0.5-0.6,1-0.8,1.4c-0.6,0.9-1.1,1.7-1.6,2.5
			c-1,1.6-2,3-2.8,4.4c-0.7,0.9-1.1,2-1.4,3.2c0,0.2,0.1,0.1,0.1-0.4c0-0.2-0.1-0.4-0.2-0.6c0-0.1-0.1-0.1-0.1-0.2H45
			c0.9,0.6,1.9,1.1,2.9,1.6c1.4,0.6,3,1.3,4.9,2.2c1.1,0.5,2.2,1.1,3.2,1.8c0.8,0.5,1.5,1.1,2.1,1.7c1.3,1.2,2.1,2.8,2.6,4.4
			c0.3,1.2,0.3,2.5,0.1,3.7c-0.1,0.5-0.3,1.1-0.5,1.6c-0.2,0.4-0.4,0.9-0.6,1.3c-0.2,0.3-0.4,0.7-0.7,1s-0.4,0.5-0.6,0.7l-0.6,0.6
			l-0.3,0.3l-0.2,0.1l-0.2,0.2l-0.8,0.9c-2.1,2.6-4.3,5.5-6.4,8.4c-4.2,5.8-8.4,11.7-12.3,17.7c-2,3-3.9,6-5.7,9.1
			c-1.8,2.9-3.4,6-4.8,9.1c-0.6,1.4-1.1,2.9-1.5,4.4c-0.4,1.6-0.7,3.2-0.9,5c-0.5,3.5-0.9,7.1-1.2,10.7c-0.6,7.2-1,14.6-1.7,21.9
			c-0.4,3.7-0.7,7.4-1.4,11.1c-0.3,1.9-0.7,3.8-1.2,5.7c-0.5,2.1-1.4,4.1-2.6,5.8c-2,2.4-3.5,5.8-4.8,9.1c-1.2,3.4-2.1,6.9-2.7,10.4
			c-0.3,1.8-0.4,3.6-0.5,5.4c0,1.8,0,3.6,0.1,5.4s0.4,3.5,0.6,5.2s0.5,3.3,0.9,4.6c0.1,0.3,0.2,0.7,0.3,0.9l0.1,0.4
			c0.1,0.1,0.1,0.2,0.1,0.2v0.1l0,0c0,0,0,0.1,0-0.1s-0.2-0.2-0.1-0.2s-0.1,0,0,0c0.3,0.2,0.5,0.3,0.8,0.4c0.6,0.2,1.2,0.4,1.8,0.5
			c3.2,0.6,6.4,0.8,9.6,0.8c3.5,0,7-0.2,10.4-0.7c3.4-0.5,6.7-1.4,9.9-2.9c3.1-1.6,6.1-3.5,9-5.5c3-2,6.2-4.3,10.1-5.7
			c2-0.7,4-1.1,6.1-1.3c1,0,2.1-0.1,2.9-0.1l2.7-0.1c3.6-0.1,7.2-0.4,10.8-0.7s7.2-0.7,10.8-1.2s7.1-1.1,10.6-1.9
			c1.7-0.4,3.4-0.8,5-1.4c0.8-0.2,1.5-0.5,2.2-0.9c0.5-0.2,1-0.5,1.5-0.9c2.9-2.8,6.2-5.1,9.8-6.8c1.8-0.9,3.6-1.6,5.5-2.1
			c0.9-0.3,1.9-0.6,2.8-0.8c0.2,0,0.5-0.1,0.7-0.2s0.1,0,0.1-0.1c0.1-0.1,0.3-0.2,0.4-0.3c0.9-1,1.6-2.1,2-3.4
			c0.6-1.5,1.1-3.2,1.6-4.9c1-3.4,1.9-7,3.1-10.7c0.3-0.9,0.7-1.8,1-2.8c0.4-1,0.8-1.9,1.4-2.8c1-1.8,2.3-3.4,3.6-4.9
			c2.6-2.9,5.5-5.4,7.9-7.9c0.6-0.6,1.2-1.2,1.7-1.8c0.4-0.5,0.8-1,1.1-1.6c0.1-0.1,0.1-0.3,0.1-0.4c0-0.1,0,0,0,0.1s0,0,0,0
			s0,0,0-0.1l-0.1-0.2c-0.2-0.3-0.4-0.5-0.6-0.8c-1.2-1.1-2.6-2.2-3.9-3.2l-4.4-3.2c-1.5-1.1-3-2.2-4.6-3.6
			c-0.8-0.7-1.6-1.5-2.3-2.3c-0.4-0.5-0.8-1-1.1-1.6c-0.4-0.8-0.7-1.6-0.8-2.5c-0.1-1.2,0.3-2.4,1-3.3c0.2-0.2,0.3-0.4,0.5-0.6
			c0.2-0.2,0.3-0.3,0.5-0.4c0.3-0.2,0.6-0.5,0.9-0.6c1-0.6,2.2-1,3.3-1.3c2-0.5,3.9-0.7,5.6-1c3.5-0.6,6.9-1.3,9.3-2.8
			c1.2-0.7,2.2-1.7,2.9-2.9c0.7-1.3,1.2-2.6,1.4-4.1c0.2-1.7,0.3-3.4,0.3-5.1c0-1.8,0-3.6,0-5.4c-0.1-7.3-0.4-14.6-0.7-21.9l-2-43.9
			c-0.3-7.3-0.6-14.7-0.7-22c-0.1-3.7,0-7.3-0.1-11.1l-0.1-2.9c-0.1-1.1-0.1-2.1,0-3.2c0-0.4,0.1-0.8,0.3-1.2
			c0.1-0.4,0.4-0.8,0.6-1.2c0.1-0.5,2-1.7,3.7-1.5c2.3-0.5,2.1,0.5,2.1,0.3l0.4,0.3l0.6,0.5c0.8,0.7,1.4,1.4,2.1,2
			c2.6,2.6,5.1,5.2,7.7,7.8s5.1,5,7.8,7.2c1.3,1.1,2.7,2.1,4.1,3c1.2,0.8,2.6,1.5,4,1.9c0.4,0.1,0.8,0.1,1.2,0.1
			c0.1,0,0.1,0,0.2-0.1s0,0,0,0c0.1,0,0.1-0.1,0.2-0.2c0.1-0.1,0.3-0.2,0.4-0.4c1.2-1.1,2.2-2.4,3.1-3.7c2-2.8,3.7-5.9,5.6-9.1
			c0.9-1.6,1.9-3.2,3.1-4.9c0.7-0.9,1.4-1.8,2.2-2.6c0.6-0.5,1.2-0.9,1.9-1.3l0.7-0.3l0.5-0.1c0.3-0.1,0.7-0.2,1-0.2
			c1.2-0.2,2.5-0.2,3.7,0c1.1,0.2,2.1,0.5,2.9,0.7c0.5,0.2,1,0.2,1.6,0.2c0.1,0,0.1,0,0.1,0c0,0,0.1,0,0.1,0c0,0,0.1,0,0.1-0.1
			l0.4-0.3c1.1-1.1,2.4-2.6,3.6-3.9s2.5-2.7,3.8-4.1c2.6-2.7,5.2-5.3,8.1-7.8c2.9-2.6,6.1-4.8,9.4-6.7c1.8-1,3.8-1.8,5.9-2.2
			c1.1-0.2,2.3-0.3,3.4-0.2l0.9,0.1c0.3,0,0.6,0.1,0.9,0.2l0.8,0.2l0.5,0.1c2.9,0.7,6.5,0.5,9.9,0c7.1-1.3,14-3.1,20.8-5.5
			c3.5-1.1,6.9-2.3,10.6-3.3c0.5-0.1,1-0.2,1.5-0.3c0.5-0.1,1.1-0.2,1.6-0.2c0.5-0.1,1-0.1,1.6-0.1c0.5,0,1,0,1.5,0
			c1.9,0.2,3.8,0.4,5.7,0.8c3.4,0.8,6.9,1.2,10.4,1.3c1.6,0,3.2-0.3,4.7-0.8c1.5-0.5,2.8-1.4,3.9-2.4c1.3-1.2,2.5-2.5,3.7-3.8
			c1.3-1.5,2.9-2.9,4.6-4c2-1.2,4.3-1.8,6.6-1.6c1.8,0.1,3.6,0.3,5.4,0.4c7.2,0.5,14.4,0.3,21.5-0.4c1.8-0.2,3.5-0.5,5.2-0.9
			c1.6-0.4,3.2-0.9,4.6-1.6c0.3-0.2,0.6-0.4,0.9-0.6l0.4-0.3l0.5-0.5c0.8-0.6,1.5-1.2,2.3-1.8l4.5-3.4c3-2.3,6.2-4.3,9.4-6.3
			c3.3-2.1,6.7-3.9,10.3-5.5c2-0.9,4.1-1.5,6.2-1.8c0.3-0.1,0.6-0.1,0.9-0.1c0.3,0,0.6-0.1,1,0c0.4,0,0.8,0,1.1,0l0.6,0.1
			c0.2,0,0.4,0.1,0.5,0.1c1.1,0.2,2.2,0.5,3.3,0.8c2.1,0.7,4,1.6,5.9,2.8c0.9,0.6,1.8,1.2,2.6,1.9c0.4,0.3,0.8,0.7,1.2,1.1
			c0.2,0.2,0.4,0.4,0.6,0.6l0.3,0.3C436.9,25.7,441.8,27.3,435.2,25.4z M436.2,34c-6.8-2.1-2-0.6-3.6-1.1l-0.2-0.1l-0.5-0.3l-1-0.5
			c-0.7-0.4-1.4-0.7-2.1-1c-1.4-0.6-2.8-1.2-4.2-1.6c-0.7-0.2-1.4-0.4-2-0.6c-0.1,0-0.1,0-0.1,0h0c0,0-0.2,0-0.2,0
			c-0.1,0-0.2,0-0.4,0h-0.4c-1.5,0.1-3,0.3-4.4,0.7c-3.4,0.7-6.7,1.7-10,2.9c-3.3,1.3-6.6,2.7-9.9,4.2c-1.6,0.8-3.1,1.6-4.6,2.6
			c-0.7,0.5-1.4,1-2.1,1.5l-0.5,0.4l-0.7,0.5c-0.4,0.3-0.9,0.6-1.4,0.9c-1.8,0.9-3.7,1.6-5.7,2c-1.9,0.4-3.7,0.8-5.6,1
			c-7.4,0.8-14.9,0.9-22.4,0.4c-1.9-0.1-3.7-0.2-5.5-0.4c-1.4-0.1-2.7,0.2-3.9,1c-1.3,0.9-2.5,2-3.6,3.2c-1.3,1.4-2.6,2.8-4,4.1
			c-1.6,1.4-3.4,2.6-5.4,3.3c-2,0.7-4,1.1-6.1,1.1c-3.8-0.1-7.6-0.5-11.4-1.3c-1.7-0.3-3.4-0.6-5.2-0.7c-0.4,0-0.8,0-1.2,0
			c-0.4,0-0.8,0-1.2,0.1c-0.4,0-0.7,0.1-1.1,0.2c-0.4,0.1-0.8,0.2-1.2,0.3c-3.3,0.9-6.8,2.2-10.3,3.3c-7,2.3-14,4.7-21.5,5.9
			c-1.9,0.3-3.8,0.5-5.8,0.6c-2.1,0.1-4.1-0.1-6.1-0.5l-0.8-0.2l-0.3-0.1h-0.2l-0.4-0.1h-0.5c-0.7,0-1.3,0-2,0.2
			c-1.5,0.3-3,0.9-4.3,1.7c-3,1.7-5.8,3.8-8.3,6.1c-2.6,2.3-5.1,4.9-7.6,7.6c-1.2,1.3-2.4,2.7-3.6,4s-2.4,2.7-3.8,4.2
			c-0.2,0.2-0.4,0.4-0.6,0.6c-0.3,0.3-0.6,0.5-1,0.7c-0.3,0.2-0.7,0.4-1.1,0.5c-0.4,0.1-0.8,0.3-1.2,0.3c-1.3,0.2-2.6,0.1-3.9-0.2
			c-2-0.5-3.2-0.8-4.2-0.6c-0.7,0.2-0.4,0-0.9,0.4c-0.5,0.5-0.9,1-1.3,1.6c-0.9,1.3-1.8,2.9-2.7,4.4c-1.8,3.2-3.5,6.5-5.8,9.7
			c-1.1,1.7-2.4,3.3-3.9,4.7c-0.2,0.2-0.4,0.4-0.6,0.6s-0.2,0.2-0.3,0.3l-0.5,0.4c-0.7,0.5-1.5,0.9-2.3,1.1c-1.4,0.3-2.8,0.3-4.2,0
			c-2.1-0.5-4.2-1.4-6.1-2.5c-1.7-1-3.4-2-5-3.2c-3.1-2.2-6-4.7-8.9-7.1s-5.5-5-8.1-7.5c-0.6-0.6-1.3-1.2-1.9-1.7l-0.4-0.4l-0.2-0.1
			c-0.1-0.4-0.5,0.4,1.6-0.1c1.6,0.2,3.1-0.9,3.1-1.2c0.1-0.2,0.3-0.4,0.3-0.6c0-0.1-0.1,0-0.1,0.1c-0.3,0.7-0.5,1.5-0.6,2.2
			c-0.2,0.8-0.3,1.7-0.4,2.6c-0.1,1.8-0.2,3.6-0.1,5.4l0.1,5.4c0.2,7.3,0.5,14.6,0.8,21.9l1,21.9l1.2,22c0.4,7.3,0.7,14.6,0.9,22
			c0.1,1.8,0.1,3.7,0.1,5.6c0,2,0,3.9-0.3,5.9c-0.3,2.2-1,4.3-2.1,6.3c-1.2,2-2.8,3.6-4.7,4.9c-1.8,1.1-3.7,2-5.8,2.5
			c-1.9,0.5-3.8,0.9-5.7,1.2c-1.8,0.3-3.6,0.6-5.1,1c-0.6,0.1-1.2,0.4-1.8,0.7c-0.1,0-0.1,0.1-0.2,0.1l0,0c0,0,0,0,0-0.1
			c0.2-0.2,0.3-0.5,0.2-0.8c0-0.2-0.1-0.1,0.1,0c0.1,0.2,0.3,0.4,0.5,0.6c0.5,0.6,1,1.1,1.6,1.6c1.2,1.1,2.7,2.1,4.1,3.2l4.5,3.2
			c1.6,1.1,3.2,2.4,4.6,3.7c0.4,0.4,0.8,0.8,1.2,1.3l0.3,0.4c0.1,0.2,0.2,0.3,0.4,0.5c0.7,1.2,1.1,2.6,0.9,4
			c-0.1,0.8-0.3,1.5-0.6,2.2c-0.5,1.1-1.1,2.1-1.9,3c-0.7,0.8-1.4,1.6-2,2.2c-2.7,2.7-5.4,5.1-7.6,7.7c-1.1,1.2-2,2.5-2.9,3.9
			c-0.4,0.7-0.7,1.4-1,2.1c-0.3,0.8-0.6,1.6-0.9,2.4c-1.1,3.3-2,6.8-3.1,10.4c-0.5,1.9-1.2,3.7-1.9,5.5c-0.4,1-0.9,1.9-1.4,2.9
			c-0.6,1.1-1.4,2.1-2.4,2.9c-0.6,0.5-1.2,0.9-1.9,1.2c-0.4,0.2-0.8,0.3-1.2,0.4l-0.7,0.2c-0.8,0.2-1.6,0.4-2.5,0.6
			c-1.6,0.5-3.2,1.1-4.7,1.7c-3,1.4-5.8,3.2-8.2,5.5c-0.9,0.8-2,1.5-3.2,2c-0.9,0.4-1.9,0.8-2.9,1.1c-1.9,0.6-3.8,1-5.6,1.4
			c-7.3,1.4-14.7,2.4-22.1,2.9c-3.7,0.3-7.4,0.5-11.1,0.7l-2.8,0.1c-1,0-1.8,0-2.6,0.1c-1.6,0.1-3.1,0.5-4.6,1
			c-3,1.1-5.8,3.1-8.8,5.2c-3.1,2.2-6.3,4.3-9.6,6.1c-3.5,1.8-7.1,3.3-10.8,4.5c-3.7,1.3-7.4,2.3-11.2,3.1c-4,0.9-8.2,1.1-12.3,0.6
			c-1.2-0.2-2.4-0.4-3.5-0.8c-1.4-0.5-2.8-1.2-4-2.1c-0.8-0.6-1.5-1.4-2.1-2.2c-0.3-0.4-0.5-0.8-0.7-1.3l-0.3-0.6L0.8,315
			c-0.1-0.4-0.2-0.7-0.3-1.1l-0.2-1c-0.1-0.6-0.2-1.2-0.3-1.8c-0.2-4.5,0.8-8.3,1.9-12c0.5-1.9,1.1-3.7,1.7-5.5s1.1-3.6,1.6-5.4
			l3.1-10.7c0.5-1.8,1.1-3.6,1.8-5.4c0.4-0.9,0.7-1.8,1.2-2.7c0.2-0.4,0.5-0.9,0.7-1.3c0.1-0.2,0.3-0.5,0.4-0.7l0.2-0.3
			c0.1-0.1,0.1-0.2,0.2-0.3c0.7-1.3,1.2-2.8,1.5-4.3c0.3-1.7,0.6-3.4,0.7-5.1c0.3-3.5,0.4-7.1,0.4-10.8c0.1-7.2-0.2-14.5-0.2-21.9
			c0-3.7,0-7.4,0.2-11.2c0.1-1.9,0.3-3.9,0.5-5.9c0.3-2.1,0.8-4.2,1.5-6.2c2.6-7.2,5.9-14.2,9.7-20.8c3.7-6.6,7.6-12.9,11.7-19.1
			c2.1-3.1,4.2-6.2,6.6-9.3l0.9-1.2l0.2-0.3l0.3-0.4l0.6-0.7l0.4-0.3c0.2-0.2,0.1-0.1,0-0.1c-0.1,0.1-0.1,0.1-0.2,0.2
			c-0.1,0.1-0.2,0.3-0.3,0.4c-0.1,0.2-0.2,0.4-0.3,0.6c-0.1,0.2-0.2,0.5-0.3,0.9c-0.1,0.4-0.1,0.8-0.1,1.2c0,0.4,0.1,0.8,0.2,1.2
			c0.2,0.8,0.6,1.6,1.1,2.2c0.2,0.2,0.2,0.1,0,0s-0.9-0.6-1.6-0.9c-1.4-0.7-3.1-1.6-5-2.6c-2.3-1.2-4.3-2.7-6.1-4.6
			c-0.3-0.3-0.6-0.7-0.8-1c-0.3-0.4-0.6-0.9-0.9-1.3c-0.6-1-1-2.1-1.2-3.2c-0.4-1.9-0.2-3.9,0.4-5.8c0.4-1.3,1-2.6,1.8-3.8
			c0.6-1,1.3-1.9,2-2.8c1.3-1.7,2.6-3.1,3.8-4.4c0.6-0.7,1.2-1.3,1.7-1.9c0.2-0.3,0.5-0.6,0.7-0.9l0.3-0.4l0.1-0.2l0,0
			c0,0,0,0,0,0.1c0,0.1,0,0.2-0.1,0.3c-0.1,0.2-0.1,0.5-0.1,0.7c0,0.5,0.1,1,0.2,1.5c0.2,0.6,0.6,1.2,1.1,1.6
			c0.3,0.3,0.7,0.6,1.1,0.8c0.2,0.1,0.4,0.1,0.6,0.2c0.1,0,0.1,0,0.2,0c0.1,0-0.2-0.1-0.5-0.1s-0.7-0.1-1.2-0.1
			c-1.8-0.1-3.8-0.1-6-0.3c-1.2-0.1-2.3-0.4-3.5-0.7c-1.3-0.4-2.6-1-3.7-1.8c-0.3-0.2-0.6-0.5-0.9-0.7c-0.3-0.3-0.6-0.6-0.9-1
			c-0.2-0.3-0.4-0.7-0.6-1l-0.5-1c-0.4-1.1-0.7-2.2-0.9-3.3c-0.3-2-0.4-4-0.4-6c0-1.9,0.1-3.8,0.2-5.6s0.2-3.7,0.2-5.4
			c0.1-1.7,0-3.4-0.1-5.1c-0.1-0.7-0.2-1.3-0.4-2c0-0.1-0.1-0.3-0.2-0.4l0,0c0,0-0.2-0.2-0.3-0.3l-0.6-0.8c-1.2-1.8-2.1-3.8-2.7-5.9
			c-1-3.8-1.6-7.7-1.7-11.6c-0.1-2,0-4,0.3-6c0.1-0.5,0.2-1.1,0.3-1.6c0.2-0.6,0.4-1.2,0.6-1.8c0.5-1.1,1.2-2.2,2-3.1
			c1.5-1.7,3.3-3,5.3-4c2-1,4.1-1.6,6.3-1.8c0.3,0,0.7,0,1,0h0.9c0.3,0,0.6,0,0.9,0c0.7-0.1,1.5-0.2,2.2-0.4c1.5-0.4,3-1,4.4-1.8
			c0.7-0.4,1.4-0.8,2.1-1.3c0.9-0.6,1.8-1.1,2.8-1.6c1.8-0.8,3.7-1.4,5.5-1.9c1.8-0.5,3.4-1,5-1.6c0.8-0.3,1.6-0.7,2.3-1
			c0.4-0.2,0.7-0.3,1-0.5s0.7-0.4,1-0.6c2.8-1.9,5.3-4.3,7.2-7.1c0.6-0.7,1.1-1.5,1.7-2.3c0.4-0.5,0.8-0.9,1.2-1.2
			c0.5-0.4,1.2-0.7,1.8-0.8c1.1-0.2,2.2-0.2,3.2,0l2.7,0.4c1.7,0.2,3.5,0.3,5.2,0.1c0.4,0,0.9-0.1,1.3-0.1c0.4,0,0.8-0.2,1.2-0.2
			c0.8-0.2,1.6-0.5,2.3-0.9c1.6-0.8,3.1-1.7,4.6-2.7c1.5-1,3-2.1,4.4-3.1c2.9-2.3,6-4.4,9.2-6.3c0.8-0.5,1.7-0.9,2.6-1.3l0.7-0.3
			c0.2-0.1,0.5-0.2,0.8-0.2c0.6-0.2,1-0.2,1.5-0.3c1.9-0.2,3.8-0.3,5.6-0.4c7.4-0.3,14.7-0.1,22,0c14.7,0.2,29.3,0.7,43.9,1.1
			c7.3,0.2,14.7,0.5,21.9,0.7c3.5,0,7-0.6,10.3-1.8c1.6-0.5,3.1-1.2,4.5-1.9c0.6-0.3,1.3-0.7,1.9-1.2c0.3-0.2,0.5-0.4,0.8-0.6
			l0.3-0.3l0.5-0.5c0.9-0.8,1.8-1.5,2.8-2.1c0.9-0.5,1.9-1,2.9-1.4c1.8-0.7,3.7-1.3,5.6-1.8c1.8-0.5,3.6-0.9,5.4-1.4
			c0.9-0.2,1.8-0.5,2.6-0.8c0.9-0.3,1.6-0.5,2.7-0.8c3.8-0.9,7.8-1.3,11.7-1.2c3.8-0.1,7.5,0.1,11.1,0.3c7.4,0.3,14.6,0.9,21.8,0.9
			c0.9,0,1.9,0,2.9,0.1s2,0.1,3,0.2c2,0.2,4,0.6,5.9,1.1c1.9,0.5,3.8,1.2,5.6,2c1.8,0.7,3.4,1.5,5,2.2c1.4,0.6,2.9,1.1,4.5,1.3
			l1.1,0.1c0.4,0,0.8,0,1.1,0c0.4,0,0.8,0,1.2-0.1c0.4,0,0.8,0,1.2-0.1c3.2-0.2,6.4-1.1,9.3-2.5c1.4-0.8,2.8-1.6,4-2.6l1-0.8
			l0.5-0.4c0.2-0.1,0.3-0.3,0.5-0.4c0.3-0.2,0.5-0.3,0.8-0.5c0.4-0.2,0.7-0.3,1.1-0.4c0.4-0.1,0.6-0.2,0.9-0.2
			c0.6-0.2,1.1-0.2,1.6-0.3c1.9-0.3,3.9-0.4,5.9-0.5c1.9-0.1,3.8-0.1,5.6-0.1c7.4,0,14.8,0.2,22.1,0.5l11,0.5
			c1.8,0.1,3.7,0.2,5.3,0.2c1.2,0,2.4,0.1,3.5,0.3c1,0.2,2,0.5,3,0.8c1.6,0.5,3.2,0.9,4.9,1.2c1.7,0.3,3.4,0.6,5.1,0.7l1.5,0.2
			c0.5,0.1,1,0.2,1.5,0.2c1,0.2,2,0.4,3,0.7c1.9,0.5,3.9,1.2,5.7,2c3.8,1.5,7.4,3.7,10.6,6.4c1.9,1.6,3.4,3.5,4.5,5.8
			c0.7,1.5,1,3.1,0.9,4.7c-0.1,0.9-0.2,1.7-0.5,2.6l-0.2,0.6c-0.1,0.3-0.3,0.6-0.5,0.9c-0.4,0.6-0.9,1.2-1.6,1.6
			C437.6,33.6,436.9,33.9,436.2,34L436.2,34z"/>
		<path class="st1" d="M232,18c-0.2,1.3-0.3,2.9-0.4,4.3l-0.3,4.5l-0.6,8.9c-0.2,3-0.4,6-0.7,9c-0.3,3-0.7,6.1-1.2,9.1
			c-0.2,0.8-0.4,1.7-0.7,2.5c-0.1,0.3-0.3,0.5-0.4,0.8l-0.3,0.4c0,0,0,0.1-0.1,0.1c-0.2,0.2-0.3,0.5-0.4,0.8c-0.6,1.3-1.2,2.6-1.6,4
			c-1,2.8-1.8,5.6-2.6,8.5s-1.4,5.7-2,8.6c-0.3,1.4-0.5,2.9-0.7,4.3c-0.1,0.7-0.1,1.4-0.1,2.1c0,0.6,0,1.2,0.1,1.8l-2.2,0.8
			c-0.2-0.8-0.4-1.7-0.3-2.6c0-0.8,0-1.6,0.1-2.3c0.1-1.5,0.3-3,0.6-4.5c0.5-3,1.1-5.9,1.8-8.9s1.5-5.8,2.4-8.7
			c0.5-1.5,1-2.9,1.7-4.4c0.2-0.4,0.4-0.8,0.7-1.2l0.3-0.4c0.1-0.1,0.1-0.1,0.1-0.1l0,0c0,0,0.1-0.1,0.1-0.2
			c0.2-0.6,0.4-1.2,0.5-1.8c0.5-2.8,0.8-5.8,1-8.7s0.4-5.9,0.6-8.9l0.4-8.9l0.2-4.5c0.1-1.5,0.1-2.9,0.3-4.6L232,18z"/>
		<path class="st1" d="M312.3,15c-7.6-0.2-15.3,0.4-22.8,1.8c-7.5,1.3-14.9,3.4-22,6.2c-3.6,1.4-7,3-10.4,4.8
			c-3.4,1.8-6.7,3.7-9.8,5.9c-1.6,1-3.1,2.2-4.7,3.3s-3,2.3-4.4,3.6c-2.9,2.5-5.6,5.2-9,7.4l-2.1-1.9c2.1-3.5,4.7-6.6,7.8-9.2
			c1.5-1.4,3-2.6,4.6-3.9c1.6-1.3,3.2-2.5,4.8-3.6c6.6-4.7,13.6-8.6,21.1-11.7c11.2-4.6,23.1-7.4,35.1-8.3c4-0.3,8.1-0.4,12.1-0.2
			L312.3,15z"/>
		<path class="st1" d="M310.4,56c-0.6-0.3-1-0.8-1.4-1.3c-0.3-0.5-0.5-1.1-0.6-1.7c-0.1-0.6-0.1-1.2-0.1-1.8s0.1-1.2,0.1-1.8
			c0.3-2.1,1.1-4.1,2.2-5.9c1.9-3,4.3-5.7,7.1-8c2.6-2.1,5.3-4.1,8.1-5.8c2.8-1.7,5.7-3.2,8.7-4.6l0,0l1.3,4.1
			c-7.1,1.3-14.3,2.6-21.4,4.2s-14.1,3.4-21,5.6c-6.9,2.1-13.6,5-19.8,8.7c-3.1,1.8-6,4-8.5,6.5l-1.8,2c-0.5,0.7-1,1.4-1.5,2.1
			s-0.9,1.5-1.3,2.2c-0.2,0.4-0.4,0.8-0.4,1.2c0,0.6,0.3,1.2,0.7,1.6l-5.1-1.7c0.7-0.1,1.3-0.5,1.8-1c0.3-0.4,0.5-0.8,0.7-1.3
			c0.5-0.8,0.9-1.7,1.5-2.5s1.1-1.6,1.7-2.3l1.9-2.1c2.7-2.7,5.6-5,8.8-7.1c3.1-2,6.4-3.9,9.8-5.5c3.4-1.6,6.8-3.1,10.2-4.4
			c6.9-2.6,14-4.8,21.2-6.6c7.2-1.8,14.5-3.1,21.9-4h0.1c1.2-0.1,2.3,0.8,2.4,2c0.1,0.9-0.4,1.7-1.2,2.1l0,0c-2.5,1.8-5,3.7-7.3,5.6
			c-2.3,1.9-4.6,4-6.7,6.1c-2,2-3.6,4.2-4.9,6.6c-0.5,0.9-0.8,2-0.9,3c0,0.2,0,0.4,0,0.6c0,0.2,0.1,0.4,0.1,0.5c0.1,0.2,0,0.4,0,0.6
			c-0.1,0.3-0.2,0.6-0.4,0.9L310.4,56z"/>
		<path class="st1" d="M404.3,12.5c-1.1,0.7-2.5,1.4-3.9,2s-2.8,1.3-4.2,1.9c-2.8,1.1-5.7,2.3-8.5,3.5s-5.6,2.5-8.4,3.7
			s-5.6,2.6-8.3,3.9c-5.5,2.7-10.8,5.6-15.9,8.9c-2.5,1.6-4.9,3.4-7.1,5.3l-1.6,1.5c-0.5,0.5-1,1-1.4,1.5c-0.9,1-1.4,2.2-2.4,3.1
			l-4.1-1.5c0.3-1.8,1.1-3.5,2.3-4.9c0.5-0.7,1.1-1.3,1.6-2s1.2-1.2,1.7-1.8c2.3-2.2,4.9-4.3,7.5-6.2c5.2-3.7,10.6-7,16.2-10
			c2.8-1.5,5.6-2.9,8.4-4.3s5.7-2.7,8.6-3.9s5.8-2.5,8.7-3.6c1.5-0.5,3-1,4.5-1.4c1.6-0.4,3.3-0.7,5-0.8L404.3,12.5z"/>
		<path class="st1" d="M228.7,39.4c0.1,0,0.2,0,0.3,0h0.2h0.1h-0.1l-0.2,0.1c-0.3,0.1-0.6,0.3-0.9,0.4c-0.6,0.3-1.3,0.7-2,1.2
			c-1.4,0.8-2.7,1.8-4.1,2.7c-2.7,1.9-5.4,3.9-8,6c-5.3,4.1-10.4,8.4-15.4,12.9c-5,4.5-9.9,9.1-14.4,14c-2.3,2.4-4.4,5-6.4,7.7
			c-1,1.3-1.8,2.7-2.6,4.1c-0.8,1.3-1.3,2.8-1.5,4.3h-2c0.1-1.8,0.6-3.6,1.4-5.3c0.8-1.6,1.6-3.1,2.6-4.6c1.9-2.9,4-5.6,6.2-8.2
			c4.4-5.2,9.1-10.2,13.9-15s9.8-9.4,15-13.8c2.6-2.2,5.2-4.4,7.9-6.5c1.3-1.1,2.7-2.1,4.1-3.1c0.7-0.5,1.5-1,2.3-1.5
			c0.4-0.2,0.8-0.5,1.4-0.7l0.4-0.2l0.5-0.2c0.2-0.1,0.4-0.1,0.7-0.2h0.2h0.3c0.2,0,0.4,0,0.6,0L228.7,39.4z"/>
		<path class="st1" d="M174.6,46.5c3.5,0.5,7.1,0.8,10.7,0.8c3.6,0.1,7.2,0.1,10.7-0.1c1.8-0.1,3.5-0.2,5.3-0.4s3.5-0.4,5.1-0.8
			c3.2-0.7,6.3-1.6,9.4-2.7l2.3,3c-1.4,1.5-3.2,2.7-5.2,3.3c-1.8,0.7-3.7,1.1-5.7,1.3c-3.7,0.4-7.4,0.6-11.2,0.4
			c-3.7-0.2-7.4-0.6-11-1.2c-1.8-0.3-3.6-0.7-5.4-1.1c-1.8-0.4-3.6-0.9-5.3-1.6L174.6,46.5z"/>
		<path class="st1" d="M212.2,50.3L212.2,50.3c0,0-0.1,0.2-0.1,0.2s-0.1,0.4-0.2,0.6c-0.1,0.4-0.2,0.9-0.3,1.3
			c-0.2,0.9-0.3,1.9-0.5,2.8c-0.3,1.9-0.6,3.8-0.8,5.7c-0.5,3.9-0.8,7.7-1.1,11.6s-0.5,7.8-0.6,11.6c0,1.9,0,3.9,0,5.8
			c0,1.9,0.3,3.8,0.8,5.6l-0.9,0.4c-0.6-1.9-1-3.9-1.2-5.9c-0.2-2-0.3-3.9-0.4-5.9c-0.1-3.9-0.1-7.8-0.1-11.8s0.2-7.8,0.4-11.7
			c0.1-2,0.3-3.9,0.5-5.9c0.1-1,0.2-2,0.4-3c0.1-0.5,0.2-1,0.3-1.5c0.1-0.3,0.1-0.5,0.2-0.8c0.1-0.2,0.1-0.3,0.1-0.5
			s0.2-0.4,0.3-0.7L212.2,50.3z"/>
		<path class="st1" d="M104.5,75.8c0.3-1.7,1.3-3.2,2.8-4c0.6-0.3,1.3-0.5,2-0.7c0.7-0.2,1.3-0.3,2-0.5c2.6-0.6,5.3-1.1,8-1.4
			c5.3-0.7,10.6-1,15.9-1c5.3,0,10.6,0.2,15.9,0.7c2.6,0.2,5.3,0.5,7.9,0.9c2.7,0.3,5.3,1,7.7,2.3l-0.4,0.9
			c-2.5-0.3-5.1-0.7-7.6-0.8s-5.2-0.2-7.8-0.2c-5.2,0.1-10.4,0.4-15.5,0.9S125.1,74,120,74.7c-2.5,0.4-5.1,0.8-7.5,1.3
			c-0.6,0.1-1.2,0.3-1.8,0.4c-0.6,0.2-1.2,0.3-1.8,0.4C107.4,76.8,105.8,76.5,104.5,75.8z"/>
		<path class="st2" d="M250.4,79.7c3.5,2,10,16.7,7.8,21.2s-9.6,14.5-6.6,21.7c-6.7-4.7-6.9-9.3-7-15.2S251.5,91.5,250.4,79.7z"/>
		<path class="st2" d="M258.6,94.7c0,0,28.7,1.3,28.8,5.3s-31.6,4.2-31.6,4.2"/>
		<circle class="st3" cx="294.8" cy="99.4" r="6.4"/>
		<line class="st4" x1="247.1" y1="97.8" x2="210.1" y2="94.7"/>
		<path class="st1" d="M163.7,92.6c-6.1-0.5-12.2-1.2-18.3-1.9l-9.1-1.2l-9.1-1.3c-6.1-0.9-12.2-1.8-18.2-2.9l-9.1-1.6
			c-3-0.4-6-1.1-8.8-4.1c3.3-2.2,6.4-2.2,9.5-2l9.2,0.5c6.1,0.4,12.2,0.9,18.4,1.3l9.2,0.8l9.2,0.9c6.1,0.7,12.2,1.3,18.3,2.3
			L163.7,92.6z"/>
		<path class="st5" d="M1358.4,187l-38.7-40.3c-4,7.7-15,25.9-21.3,29s-25.3,17-31.7,24s-14.7,16.3-18.7,16.7
			c5.3,6.3,34,46.3,34,46.3"/>
		<path class="st1" d="M1389.1,227.3c-0.6,0.9-1.5,1.5-2.6,1.7c-0.7,0.1-1.5,0-2.1-0.3c-1-0.6-1.9-1.4-2.8-2.1
			c-1.7-1.4-3.2-3-4.7-4.6c-2.9-3.1-5.5-6.4-8-9.9c-2.5-3.4-4.8-6.9-6.9-10.5c-2.2-3.6-4.2-7.2-6-11l4.9,0.3
			c-7.4,9.3-15.1,18.4-23.3,27c-4.1,4.3-8.3,8.6-12.7,12.6c-2.2,2-4.5,4-6.9,5.9c-2.5,2-5.2,3.7-8.1,5.2c-0.2,0.1-0.4,0.2-0.6,0.2
			l0,0c-1.7,0.5-3.2,1.3-4.5,2.4c-1.6,1.2-3.1,2.6-4.6,4c-3,3-5.7,6.2-8.3,9.5c-2.6,3.3-5,6.8-7.3,10.4c-0.6,0.9-1.1,1.8-1.5,2.6
			c-0.2,0.4-0.4,0.9-0.6,1.2l-0.1,0.2c0-0.1,0-0.1,0.1-0.2v-0.2c0-0.2,0-0.1,0,0c0.1,0.4,0.3,0.7,0.4,1.1c0.2,0.4,0.4,0.9,0.6,1.3
			c0.5,0.9,1,1.8,1.5,2.7c4.4,7.2,9.7,14.2,14.5,21.6c1.2,1.9,2.3,3.7,3.5,5.6s2.2,3.8,3.3,5.8s2,4,2.9,6.1c0.5,1,0.9,2.2,1.1,3.3
			c0.1,1.4-0.3,2.9-1.3,4c-0.2,0.3-0.6,0.4-0.9,0.3l0,0c-1.2-0.4-2.4-1.2-3.2-2.2c-0.6-0.8-1.1-1.7-1.5-2.7c-0.9-1.8-2-3.7-3.1-5.5
			s-2.2-3.7-3.3-5.5s-2.2-3.7-3.4-5.5l-6.9-11c-2.3-3.7-4.6-7.4-6.9-11.3c-0.6-1-1.1-2-1.7-3c-0.3-0.5-0.5-1.1-0.8-1.6
			c-0.3-0.6-0.5-1.3-0.7-2c-0.1-0.5-0.2-1.1-0.2-1.6c0-0.2,0-0.4,0.1-0.6c0-0.2,0.1-0.4,0.2-0.6c0.1-0.2,0.1-0.4,0.2-0.6
			c0.3-0.7,0.6-1.2,0.8-1.8c0.6-1,1.1-2,1.7-3c2.3-3.8,4.8-7.5,7.5-11c2.7-3.6,5.6-7,8.7-10.2c1.6-1.7,3.4-3.2,5.2-4.6
			c2.1-1.7,4.4-2.9,7-3.6l-0.6,0.2c2.4-1.2,4.7-2.7,6.8-4.4c2.2-1.7,4.4-3.6,6.6-5.5c4.3-3.9,8.4-8,12.5-12.2s8-8.6,11.8-13
			s7.7-8.9,11.4-13.4c1-1.3,2.9-1.4,4.2-0.4c0.2,0.1,0.3,0.3,0.4,0.5l0.2,0.3c2.6,3.2,4.9,6.6,7.3,9.9l7.1,10
			c2.4,3.3,4.7,6.6,7.2,9.7c1.2,1.6,2.5,3.1,3.8,4.4c0.6,0.6,1.2,1.2,1.9,1.8c0.3,0.4,0.5,0.8,0.5,1.3
			C1388.9,225.6,1388.9,226.5,1389.1,227.3z"/>
		<path class="st6" d="M1319.4,147.1c-1.3-0.8-2.9-1-4.3-0.5"/>
		<path class="st7" d="M1268.4,186.3c-2.5,4.8-20.3,26.7-28.8,30.8c4.6,12.1,32,54.1,40.3,59.1"/>
		<path class="st1" d="M1291.4,215.3l-0.5,0.3c-0.2,0.1-0.4,0.3-0.6,0.4c-0.4,0.2-0.8,0.6-1.1,0.9c-0.7,0.6-1.5,1.3-2.2,1.9
			c-1.5,1.3-2.9,2.7-4.2,4.2s-2.7,2.9-3.9,4.4l-0.9,1.1l-0.8,1.1l-0.3,0.5c-0.1,0.2-0.2,0.4-0.2,0.5c0,0.1-0.1,0.2-0.1,0.3
			c0.1-0.1,0.2-0.3,0.3-0.4c-0.7,2.5-3.4,4-5.9,3.2c-2.5-0.7-4-3.4-3.2-5.9c0.3-0.6,0.6-1.2,1-1.8l0.8-0.9c0.2-0.3,0.5-0.5,0.7-0.7
			l0.7-0.6l1.4-1.1l1.3-1c1.8-1.2,3.6-2.4,5.4-3.4s3.7-2.1,5.6-3c0.9-0.5,1.9-0.9,2.9-1.3c0.5-0.2,1-0.4,1.5-0.6
			c0.3-0.1,0.5-0.2,0.8-0.3l0.9-0.2c0.7-0.2,1.4,0.3,1.5,1c0.1,0.5-0.1,1.1-0.6,1.4L1291.4,215.3z"/>
		<path class="st1" d="M1271.8,193.9c-0.7-1.3-1.5-2.5-2.3-3.6c-0.9-1.2-1.8-2.5-2.7-3.7c-1.9-2.5-3.8-4.9-5.8-7.3
			c-2-2.3-4-4.6-6.2-6.7c-1-1-2-1.8-3.2-2.6c-0.1-0.1-0.3-0.2-0.4-0.2c0,0,0,0,0.3,0s0,0-0.1,0h-0.3h-2.4c-12.7,0-25.4-0.2-38.1-0.6
			c-6.4-0.2-12.7-0.4-19.1-0.8c-3.2-0.2-6.4-0.4-9.6-0.9c-1.7-0.2-3.4-0.5-5-1c-0.3-0.1-0.5-0.2-0.8-0.4c-0.2-0.1-0.4-0.3-0.7-0.4
			c-0.4-0.3-0.7-0.5-1.1-0.8c-0.7-0.6-1.3-1.2-1.8-1.8c-2.2-2.4-4.3-4.9-6.1-7.6c-1.9-2.6-3.6-5.3-5.3-8c-0.4-0.7-0.8-1.4-1.2-2.1
			c-0.2-0.4-0.4-0.7-0.6-1.1c-0.1-0.2-0.2-0.4-0.3-0.7c-0.1-0.2-0.1-0.5-0.2-0.7c-0.5-1.9-0.1-3.9,0.9-5.5c0.6-0.9,1.4-1.5,2.4-1.9
			c0.9-0.3,2-0.4,2.9-0.2c1.7,0.4,3.3,1.2,4.7,2.2l0,0c0.1,0,0.1,0.1,0.2,0.2l0,0c1,1.2,1.9,2.5,2.6,3.9c0.7,1.3,1.4,2.9,2.2,3.1
			c0.2,0.1,0.5,0.1,0.7,0.1h0.6h0.6h2.3h4.6c6.1,0,12.1,0,18.2-0.1c1.5,0,3-0.1,4.5-0.2c1.5-0.1,2.9-0.2,4.4-0.5l0.4-0.1l0,0l0,0
			l-0.1,0.1c0,0,0,0,0,0.1l0,0l0.1-0.1c0.3-0.4,0.5-0.7,0.8-1l1.6-1.6c1-1,1.9-2.1,2.6-3.4c0.3-0.5,0.5-1.1,0.5-1.7
			c0-0.5-0.2-1-0.6-1.3c-0.1-0.1-0.2-0.2-0.3-0.3l-0.5-0.3l-0.9-0.7l-1.8-1.4l-3.5-2.9c-0.6-0.5-1.2-0.9-1.7-1.3
			c-0.3-0.2-0.6-0.4-0.9-0.6c-0.2-0.1-0.4-0.2-0.7-0.3l0.2-2c0.5,0.1,1,0.2,1.4,0.5c0.4,0.2,0.7,0.4,1.1,0.7c0.7,0.5,1.3,1,1.9,1.4
			l3.5,2.9l1.8,1.4l0.9,0.7l0.4,0.3c0.2,0.1,0.4,0.3,0.5,0.5c0.4,0.4,0.6,0.8,0.9,1.2c0.2,0.5,0.3,1,0.3,1.5c0,0.9-0.3,1.8-0.8,2.6
			c-0.8,1.4-1.8,2.7-2.9,3.8l-1.6,1.6c-0.2,0.2-0.4,0.5-0.7,0.7l-0.1,0.2c-0.1,0.1-0.1,0.1-0.2,0.2l-0.1,0.1
			c-0.1,0.1-0.3,0.2-0.4,0.2c-0.2,0.1-0.5,0.1-0.7,0.2c-1.6,0.3-3.1,0.4-4.7,0.5c-1.5,0.1-3.1,0.1-4.6,0.2
			c-6.1,0.2-12.2,0.1-18.2,0.1h-4.5h-2.3h-0.6h-0.6c-0.5,0-1-0.1-1.5-0.2c-0.9-0.4-1.6-1.1-2.1-2c-0.4-0.7-0.8-1.4-1.1-2
			c-0.7-1.3-1.5-2.5-2.4-3.6l0,0l0.2,0.2c-1.2-0.8-2.5-1.4-3.9-1.8c-1.2-0.3-2.4,0.2-3,1.2c-0.6,1.1-0.8,2.4-0.4,3.6
			c0,0.1,0.1,0.3,0.1,0.4c0.1,0.1,0.1,0.2,0.2,0.4s0.4,0.6,0.6,1c0.4,0.6,0.8,1.3,1.2,2c1.7,2.6,3.6,5.2,5.5,7.6
			c1.9,2.5,3.9,4.8,6.1,7c0.5,0.5,1.1,1,1.7,1.5c0.4,0.4,0.9,0.7,1.5,0.9c1.4,0.3,2.9,0.6,4.3,0.7c3.1,0.3,6.2,0.4,9.4,0.5
			c6.3,0.2,12.6,0.2,19,0.2c12.7-0.1,25.3-0.3,38-0.7l2.3-0.1h0.3h0.5c0.5,0,1,0.1,1.4,0.2c0.6,0.2,1.2,0.4,1.7,0.7
			c1.5,0.9,3,2,4.3,3.3c2.5,2.2,4.7,4.6,6.9,7s4.3,4.9,6.3,7.4c1,1.3,2,2.5,3,3.9c1.1,1.4,2,2.8,2.9,4.3L1271.8,193.9z"/>
		<path class="st3" d="M1318.2,150.3c0,0-44.3-42.3-50.6-47.2"/>
		<path class="st8" d="M1168.8,138.4c0,0,99.4-35.5,102.5-36.4s5-2.9,3.6-5.9s-3.5-3.2-6.8-2.4s-109.4,38.5-109.4,38.5"/>
		<path class="st8" d="M1196.1,118.9c0,0-5.2-5.2-11.8-4.8s-18.5,0.6-21.2,0c-3.2,1.9-7.8,7.4-7.9,9.8c1.2,2.2,4,7.1,3.6,8.5
			c-0.3,0.9-0.7,1.7-1.4,2.4c0,0-2.2,1.6-2.6,1.5s-3.8,0.1-5.4-2.2s-5.2-9.1-5.1-10.5s0.6-10.2,3.2-13.4s11.5-12.6,22.4-14
			s42.1-1.2,49.6,0.5"/>
		<path class="st1" d="M1147,129.4c-0.4,0.7-0.8,1.3-1.3,1.9l-1.3,1.8c-0.9,1.2-1.8,2.4-2.6,3.6c-1.8,2.4-3.7,4.7-5.8,6.8
			c-0.3,0.3-0.6,0.5-0.9,0.8c-0.4,0.3-0.8,0.6-1.3,0.7c-0.8,0.2-1.5,0.3-2.3,0.4c-0.8,0.1-1.6,0.1-2.4,0c-1-0.1-1.9-0.5-2.6-1.1
			c-0.2-0.2-0.3-0.4-0.5-0.6c-0.1-0.2-0.2-0.5-0.3-0.7l-0.1-0.7c-0.1-0.2-0.3-0.5-0.3-0.7c0-0.8,0.2-1.6,0.3-2.4
			c0.3-1.5,0.8-3,1.3-4.4c0.5-1.4,1.1-2.8,1.8-4.1l0.5-1c0.2-0.3,0.6-0.6,0.9-0.8c0.2-0.3,0.4-0.6,0.6-0.9l0.5-1
			c1.3-2.7,2.7-5.3,4.1-7.9s3-5.1,4.7-7.6c1.7-2.5,3.5-4.8,5.4-7.1c2-2.3,4.1-4.4,6.4-6.3c2.4-1.9,4.9-3.4,7.7-4.8
			c5.4-2.5,11.1-4.4,17-5.4c5.8-1.1,11.7-1.7,17.7-1.8c5.9-0.1,11.9,0.4,17.7,1.4c0.5,0.1,0.9,0.6,0.8,1.2c-0.1,0.5-0.6,0.9-1.2,0.8
			l0,0c-5.7-1-11.5-1.5-17.3-1.5c-5.8,0-11.6,0.6-17.3,1.7c-5.7,1-11.2,2.8-16.5,5.3c-2.6,1.3-5,2.8-7.2,4.6
			c-2.2,1.9-4.2,3.9-6.1,6.1c-1.9,2.2-3.6,4.5-5.2,6.9c-1.6,2.4-3.1,4.9-4.5,7.4c-1.4,2.5-2.7,5.1-4,7.8l-0.5,1
			c-0.2,0.3-0.3,0.6-0.4,1c0,0.4,0,0.8-0.1,1.2l-0.5,1c-0.6,1.3-1.2,2.6-1.8,3.9s-1.1,2.6-1.6,3.9c-0.2,0.6-0.4,1.2-0.5,1.9
			c0,0.1-0.3,0.2-0.3,0.4s0,0.2,0,0.4c0,0.2,0.1,0.4,0.3,0.5c0.4,0.3,0.9,0.5,1.4,0.6c0.7,0.1,1.3,0.1,2,0c0.7-0.1,1.4-0.2,2.1-0.3
			c0.2-0.1,0.4-0.2,0.6-0.4c0.3-0.2,0.5-0.4,0.8-0.7c2-2.1,3.9-4.3,5.6-6.6c0.9-1.2,1.7-2.4,2.6-3.6c0.8-1.2,1.6-2.4,2.3-3.6v-0.1
			c0.3-0.5,0.9-0.7,1.4-0.4C1147.1,128.3,1147.3,128.9,1147,129.4L1147,129.4z"/>
		<path class="st1" d="M1167.9,120.4c-0.2,0.6-0.4,1.1-0.8,1.6c-0.3,0.4-0.7,0.9-1,1.3c-0.7,0.8-1.5,1.5-2.3,2.2
			c-0.8,0.7-1.6,1.4-2.5,2c-0.4,0.3-0.9,0.6-1.4,0.9c-0.3,0.1-0.5,0.3-0.8,0.4c-0.2,0.1-0.3,0.1-0.5,0.1c-0.3,0-0.5-0.2-0.7-0.4
			c-0.1-0.1-0.1-0.3,0-0.4l0.2-0.5c0.1-0.1,0.1-0.3,0.1-0.4c0-0.1,0.1-0.1,0.2-0.2c0.2-0.1,0.4-0.2,0.6-0.3c0.4-0.2,0.8-0.5,1.2-0.8
			c0.8-0.6,1.7-1.2,2.5-1.8s1.6-1.3,2.3-1.9c0.4-0.3,0.8-0.7,1.1-1c0.2-0.2,0.3-0.3,0.5-0.5l0.2-0.3l0.1-0.2l0.1-0.2
			c0.2-0.2,0.5-0.3,0.7-0.1C1167.9,120,1167.9,120.2,1167.9,120.4z"/>
		<path class="st1" d="M1157.7,118.4c1.2-0.3,2.3-0.6,3.5-0.7c1.2-0.1,2.3-0.2,3.5-0.2c1.2,0,2.3,0,3.5,0.1c1.2,0.1,2.4,0.2,3.5,0.5
			h-0.2c1,0.1,2.1,0.4,3.1,0.7c1,0.3,1.9,0.6,2.8,1c1,0.4,1.9,0.8,2.8,1.4c0.5,0.3,0.9,0.6,1.3,0.9c0.5,0.4,0.9,0.9,1.2,1.5
			c0.3,0.5,0.1,1.2-0.4,1.5c-0.5,0.3-1.1,0.1-1.4-0.4l-0.1-0.1c-0.2-0.3-0.4-0.5-0.7-0.7c-0.3-0.2-0.7-0.5-1.1-0.7
			c-0.8-0.4-1.7-0.8-2.5-1.1c-0.9-0.3-1.8-0.6-2.7-0.8c-0.8-0.2-1.7-0.4-2.6-0.5h-0.1l0,0c-1-0.2-2.1-0.3-3.2-0.4s-2.2-0.2-3.3-0.2
			c-2.2-0.1-4.3-0.1-6.5,0.2l0,0c-0.6,0.1-1.1-0.2-1.2-0.8S1157.2,118.5,1157.7,118.4L1157.7,118.4z"/>
		<path class="st1" d="M1142.9,138.6c-2,1.7-3.9,3.4-5.9,5.2l-2.9,2.7l-0.7,0.7c-0.2,0.2-0.3,0.6-0.5,0.9c-0.4,0.5-0.9,1-1.3,1.4
			l-0.8-1.8c0.6-0.1,1.3-0.1,1.9-0.1c0.3,0,0.7,0,1,0.1c0.3,0,0.6-0.1,1-0.1l3.9-0.5c2.6-0.4,5.1-0.8,7.7-1.2l-0.4,0.5
			c-0.6-0.4-0.5-0.8-0.5-1.2s0-0.8,0-1.1c0.1-0.7,0-1.5-0.2-2.2c-0.3-1-0.9-1.9-1.7-2.6c-0.1-0.1-0.3-0.2-0.4-0.3s-0.1-0.1-0.1-0.1
			C1142.9,138.8,1142.9,138.7,1142.9,138.6z M1142.7,137.6c0.2,0,0.3,0,0.5,0c0.2,0,0.3,0.1,0.5,0.2c0.2,0.1,0.4,0.2,0.6,0.4
			c0.4,0.3,0.7,0.6,1,1c0.5,0.7,0.9,1.5,1.2,2.4c0.2,0.8,0.5,1.6,0.7,2.5c0.1,0.4,0.1,0.8,0.1,1.3c0,0.4,0.1,0.8-0.5,1.2l-0.4,0.5
			c-2.6,0.3-5.2,0.7-7.7,1.1l-3.8,0.6c-0.3,0.1-0.6,0.1-1,0.2c-0.3,0.2-0.6,0.3-0.9,0.4c-0.6,0.2-1.3,0.3-1.9,0.5
			c-0.5,0.1-1.1-0.3-1.2-0.8c-0.1-0.3,0.1-0.7,0.3-0.9l0,0c0.5-0.4,1.1-0.9,1.7-1.2c0.3-0.2,0.7-0.2,1-0.4l0.8-0.7l3.1-2.6
			C1138.7,141.3,1140.7,139.5,1142.7,137.6L1142.7,137.6z"/>
		<path class="st1" d="M1149.8,135.7c0.1,0.1,0.3,0.2,0.5,0.2c0.1,0,0.2,0,0.2,0c0.1,0,0,0,0,0h-0.1l-0.2,0.1l-0.4,0.2l-0.9,0.4
			l-1.8,0.9c-0.6,0.3-1.2,0.6-1.8,0.9l-0.8,0.5l-0.4,0.2l-0.2,0.1c0,0-0.1-0.1-0.3-0.1l-0.6-0.4c-0.3-0.2-0.4-0.4-0.4-0.7
			c0-0.2,0-0.3,0.1-0.5l0.2-0.2c0.2-0.1,0.3-0.2,0.5-0.3l0.9-0.5c0.6-0.3,1.2-0.6,1.8-0.9l1.9-0.9l1-0.4l0.5-0.2l0.3-0.1l0.2-0.1
			h0.1c0.1,0,0.2,0,0.3,0c0.2,0,0.4,0.1,0.6,0.2c0.5,0.3,0.6,0.9,0.3,1.4c-0.3,0.5-0.9,0.6-1.4,0.3
			C1149.9,135.8,1149.9,135.8,1149.8,135.7L1149.8,135.7z"/>
		<path class="st1" d="M1158.5,142.9c0.1,0.1,0.2,0.2,0.4,0.2c0.1,0,0.2,0,0.2,0l-0.2,0.1l-0.4,0.1l-0.8,0.2l-1.6,0.5l-3.2,0.9
			l-3.2,1c-1.1,0.3-2.1,0.7-3.2,0.9c-0.5,0.1-1-0.2-1.1-0.7c-0.1-0.5,0.2-0.9,0.6-1.1c1-0.4,2.1-0.7,3.2-1l3.2-1l3.2-0.9l1.6-0.5
			l0.8-0.2l0.4-0.1l0.2-0.1c0.1,0,0.3,0,0.4,0c0.2,0,0.4,0.1,0.6,0.2c0.5,0.3,0.6,0.9,0.3,1.4c-0.3,0.5-0.9,0.6-1.4,0.3
			C1158.6,143.1,1158.6,143,1158.5,142.9L1158.5,142.9z"/>
		<path class="st8" d="M1164.1,92.4c0,0,5.6-10.2,11.3-10.4s22.4-1.1,30.7,1.2"/>
		<path class="st8" d="M1178.3,81.6c0,0,9.6-10,19.1-8.7s28.9,4.3,33.2,6.9s29.4,16.8,29.4,16.8"/>
		<path class="st8" d="M1187.2,132.2c1.6,2,15.6,13.5,15.6,13.5"/>
		<path class="st9" d="M1268,93.6c-1,1.2,1.5,7.8,3.4,8.1"/>
		<path class="st8" d="M1128.7,150.9c0,0,5.5,8.5,0,10.8s-14.2-5.5-14.2-13.2"/>
		<line class="st8" x1="1138.5" y1="174.2" x2="1126.7" y2="159.2"/>
		<path class="st8" d="M1154.6,190.2c6-6.2-12.5-26.2-19.3-20.1S1148.6,196.4,1154.6,190.2z"/>
		<path class="st8" d="M1151.4,186.3c1.5,1.6,7.9,14.6,9.1,22.1"/>
		<path class="st8" d="M1165.3,201.3c8.4,7.1-5.6,29.9-13.9,22.4S1156.9,194.2,1165.3,201.3z"/>
		<line class="st5" x1="1155.1" y1="221.2" x2="1144.3" y2="238"/>
		<path class="st5" d="M1147.2,235.7c7.8,10.3-15.5,33.3-25.5,19.8C1111.7,242,1139.4,225.3,1147.2,235.7z"/>
		<line class="st5" x1="1126.7" y1="250" x2="1102.7" y2="265.3"/>
		<path class="st7" d="M1070.1,276.2c8.3,18.1,49.3-1.6,42.7-16.5C1106.1,244.7,1061.7,258,1070.1,276.2z"/>
		<line class="st7" x1="1081.1" y1="271.7" x2="1044.7" y2="281"/>
		<path class="st7" d="M999.4,286c0.3,23.7,56,17.3,57.3-5S999.1,260,999.4,286z"/>
		<line class="st10" x1="1014.1" y1="285" x2="968.1" y2="287.7"/>
		<path class="st10" d="M926.7,290.3c-0.7,20,54.3,24.7,53.7-2.7S927.4,270.3,926.7,290.3z"/>
		<line class="st11" x1="940.4" y1="288.9" x2="891.4" y2="292.7"/>
		<path class="st11" d="M843.4,292.7c-1,34.3,68,23.7,67.7,1.3S844.1,269,843.4,292.7z"/>
		<path class="st1" d="M294.5,235.4v-10.7h9.3c2.3,0,3.4-1.6,3.4-4.8l-0.1-43.6c0-3.2-1.1-4.8-3.2-4.8h-9.4v-10.9h61.2
			c8,0,14.3,1.9,18.9,5.8c4.3,3.5,6.8,8.8,6.7,14.4c0,0.9-0.1,1.7-0.2,2.6c-0.1,0.5-0.2,0.9-0.2,1.4c-0.7,4.3-2.8,8.3-6,11.3
			c-3.2,2.9-7.7,4.9-13.5,6c-1.6,0.3-3.2,0.4-4.8,0.4h-24v17.3c-0.1,1.3,0.2,2.7,1,3.8c0.6,0.8,1.9,1.2,3.6,1.2h11.2v10.7
			L294.5,235.4z M343.6,191.5c7.7,0,12-3,12.8-9.1c0.1-0.5,0.1-1,0.1-1.4c0-3.9-2-6.9-6-9.1c-1.1-0.5-2.2-0.9-3.4-1
			c-2-0.2-3.9-0.3-5.9-0.3h-8.5v20.8L343.6,191.5z"/>
		<path class="st1" d="M412.9,79.7l2.1-5.9h12.6v28.9h-12.6c0-0.7-0.1-1.5-0.3-2.2c-0.2-0.7-0.4-1.2-0.5-1.7
			c-1.5-4.8-3.9-8.4-7.4-10.8c-3.5-2.3-7.8-3.5-13-3.5c-5-0.2-9.8,2-12.9,5.9c-3.5,4.3-5.2,10.2-5.2,17.8c0,10.1,1.8,17.9,5.4,23.4
			c3.4,5.1,8,7.7,13.9,7.7c1,0,2-0.1,3-0.3c0.9-0.2,1.8-0.5,2.6-0.9c1.6-0.6,3-1.6,4.2-2.8c0.8-0.9,1.3-2,1.3-3.2v-7.3l-0.2-1.2
			c-0.3-1.7-0.7-2.7-1.1-3.1c-0.9-0.5-2-0.8-3.1-0.6h-7.3V109l44.7,0.5v10.8l-4.4,0.1h-2.6c-0.7,0-1.3,0.4-1.7,0.9
			c-0.7,0.9-1,2.1-1,3.2l-0.1,0.6v23.5h-11l-2.9-7.5l-2.6,2.5c-2.8,2.4-6.1,4.3-9.6,5.5c-4,1.3-8.1,1.9-12.3,1.8
			c-3.2,0-6.4-0.2-9.6-0.7c-10.4-1.4-18.7-5.6-24.8-12.5c-6.1-6.9-9.2-15.3-9.2-25.3c0-3.8,0.4-7.5,1.3-11.2c1.1-4.3,3-8.4,5.6-12
			c3-4.1,6.6-7.5,10.9-10.2c1.9-1.3,4-2.4,6.1-3.3c2.4-0.9,4.8-1.7,7.3-2.2c3.8-0.8,7.6-1.2,11.4-1.2c4.4-0.1,8.8,0.6,12.9,1.9
			C406.6,75.4,410,77.3,412.9,79.7z"/>
		<path class="st1" d="M452.7,96.3v-8.6h40.1v8.6h-7.7c-0.5-0.1-1,0.1-1.4,0.5c-0.4,0.7-0.6,1.5-0.7,2.2l-0.1,1v34.2
			c-0.1,1,0.1,2,0.4,3c0.3,0.5,1,0.8,1.6,0.7h7.9v8.6h-40v-8.6h7.7c0.7,0,1.4-0.4,1.8-0.9c0.5-0.9,0.7-1.9,0.6-2.8V100
			c0-2.5-0.7-3.7-2-3.7H452.7L452.7,96.3z"/>
		<path class="st1" d="M507.2,116.7c0-9.3,2.9-16.8,8.8-22.4c6.1-5.9,14.5-8.9,25.1-8.9c2.4,0,4.8,0.2,7.2,0.5
			c7.8,1,14,3.5,18.9,7.5c4.7,3.7,7.8,9,8.9,14.9c0.5,2.9,0.8,5.8,0.8,8.7c0,9.3-3,16.9-9,22.6s-14.2,8.6-24.7,8.6
			c-2.5,0-4.9-0.2-7.4-0.5c-9.2-1.1-16.4-4.5-21.4-10.1C509.6,132,507.2,125.2,507.2,116.7z M545.1,139c3-0.9,5.5-2.8,7.1-5.5
			c2.2-3.3,3.3-7.5,3.3-12.6c0-8.9-1.2-15.7-3.7-20.2c-2.5-4.5-5.8-6.8-9.9-6.8c-1,0-2.1,0.2-3.1,0.4c-3.1,0.8-5.6,3-7.5,6.5
			c-2.1,4-3.1,9.3-3.1,15.8c0,7.5,1.3,13.2,4,17.2c2.4,3.7,5.6,5.6,9.6,5.6C542.9,139.5,544,139.3,545.1,139L545.1,139z"/>
		<path class="st1" d="M589.1,96.3v-8.6h36.5v8.6h-7.3c-0.7,0.1-1,0.6-1,1.3c0.1,0.8,0.3,1.7,0.6,2.4l9.9,28.7l10-28.7
			c0.3-0.8,0.5-1.7,0.6-2.5c0.1-0.6-0.4-1.2-1-1.2c0,0,0,0,0,0h-7.2v-8.6h28v8.6h-5c-0.8,0.2-1.4,0.8-1.6,1.5l-0.6,1.2l-0.4,1.1
			l-18,46.6h-18.2L596.8,100c-0.7-2-1.7-3.2-2.9-3.6L589.1,96.3L589.1,96.3z"/>
		<path class="st1" d="M669.3,96.3v-8.6h67.6v21.9h-10.1v-2.9c0.2-3.1-1.1-6-3.5-8c-2.3-1.9-5.9-2.8-10.8-2.8h-13.1v15.7h3.5
			c1.9,0.1,3.7-0.5,5.2-1.7c1.1-1.1,1.7-3,1.7-5.6v-0.9h9.2v25.1h-8.8v-1.7c0.2-3.6-2.7-6.7-6.3-6.9c-0.2,0-0.4,0-0.6,0h-3.8v17.9
			H711c6.1,0,10.2-0.9,12.4-2.7c2.2-1.8,3.3-5.1,3.3-9.9v-2.6h10.1v24.1h-67.5v-8.6h7.8c1.6,0,2.4-1.3,2.4-3.8v-34.2
			c0.1-1-0.1-2-0.5-2.8c-0.4-0.6-1-1-1.7-1L669.3,96.3L669.3,96.3z"/>
		<path class="st1" d="M751.3,96.3v-8.6h32l24.2,39.1v-26.7c0.1-0.9-0.1-1.9-0.6-2.7c-0.4-0.6-1.1-0.9-1.8-1h-7.7v-8.6h31.3v8.6
			h-7.9c-0.7,0.1-1.3,0.4-1.7,1c-0.4,0.9-0.6,1.8-0.5,2.8v46.6H799l-26.5-42.7l0.2,30.3c0,2.3,0.7,3.6,2,3.8h7.5v8.6h-31v-8.6h7.7
			c0.7,0,1.4-0.4,1.8-0.9c0.5-0.9,0.7-1.8,0.6-2.8v-34.2c0-2.3-0.7-3.6-2.2-3.8H751.3z"/>
		<path class="st1" d="M842,110.4V87.8h67v22.8h-9.8l-0.1-1.9V108l-0.2-1.6c-1-6.6-4.2-9.8-9.8-9.8h-3.3v37.8c-0.1,1,0.1,2,0.4,2.9
			c0.4,0.6,1,0.9,1.6,0.9h7.5v8.6h-40.3v-8.6h7.6c0.7,0,1.3-0.4,1.7-0.9c0.5-0.9,0.8-1.8,0.8-2.8l0.2-2.2V96.5h-3.8
			c-2.5-0.1-5,0.8-6.8,2.6c-1.7,1.7-2.8,4.4-3.3,7.9v3.4L842,110.4z"/>
		<path class="st1" d="M922.1,96.3v-8.6h38.7v8.6h-5.9c-1-0.1-1.9,0.2-2.7,0.8c-0.6,0.9-0.8,1.9-0.7,3v24.7l0.1,3.6
			c0,3.5,0.9,6.2,2.6,8s4.4,2.8,8,2.8c0.7,0,1.4,0,2.1-0.1c0.8-0.1,1.6-0.2,2.4-0.3c5.7-1,8.5-4,8.5-9v-29.7c0.1-1-0.1-1.9-0.3-2.9
			c-0.2-0.5-0.7-0.9-1.3-0.9h-7.2v-8.6h30.1v8.6h-7.5c-0.6,0.1-1.2,0.4-1.5,1c-0.4,0.9-0.5,1.8-0.5,2.8v25.5
			c0,6.8-1.4,11.9-4.3,15.3c-2.8,3.4-7.6,5.6-14.2,6.7c-2.9,0.3-5.7,0.5-8.6,0.5c-10.9,0-18.4-1.8-22.4-5.3c-4-3.6-6.1-9.8-6.1-18.8
			v-23.9c0-2.3-0.7-3.6-2-3.8H922.1z M948.5,73.2l6.1-7.2l13.3,13.4l-3.8,4.7L948.5,73.2z"/>
		<path class="st1" d="M396.8,185.9v-8.6h67.6v21.9h-10.1v-2.9c0.2-3.1-1.1-6-3.5-8c-2.3-1.9-5.9-2.8-10.8-2.8h-13v15.7h3.5
			c1.9,0.1,3.7-0.5,5.2-1.7c1.2-1.1,1.7-3,1.7-5.6v-0.9h9.2v25.1h-8.9v-1.7c0.2-3.6-2.6-6.7-6.3-6.9c-0.2,0-0.4,0-0.6,0H427v17.9
			h11.5c6.1,0,10.2-0.9,12.5-2.7c2.2-1.8,3.3-5.1,3.3-9.9v-2.6h10.1v24.1h-67.6v-8.6h7.8c1.6,0,2.4-1.3,2.4-3.8v-34.3
			c0.1-1-0.1-1.9-0.5-2.8c-0.4-0.6-1-0.9-1.7-0.9H396.8z"/>
		<path class="st1" d="M478.7,185.9v-8.6h37.4c12.5,0,21.9,2.4,28.3,7.2c6.4,4.8,9.7,11.7,9.7,20.6c0,2.8-0.3,5.6-0.9,8.4
			c-1.5,7.6-5.2,13.4-11.2,17.1c-6,3.8-14.6,5.7-25.9,5.7h-37.3v-8.6h7.8c1.6,0,2.4-1.3,2.4-3.8l0.1-34.1v-1c0.1-0.7,0-1.4-0.2-2.1
			c-0.2-0.4-0.8-0.6-1.8-0.6c-0.5-0.1-1.1-0.1-1.6-0.1c-0.6,0-1.2,0-1.8-0.1L478.7,185.9L478.7,185.9z M515.6,227.4
			c5.7,0,9.9-1.3,12.5-3.9c2.8-2.8,4.2-7.4,4.2-13.9v-3c0-1,0-2,0.1-3.1c0-6.9-1.2-11.5-3.6-13.9c-2.4-2.4-6.7-3.6-12.8-3.6h-7
			l0.2,41.3L515.6,227.4z"/>
		<path class="st1" d="M568.3,185.9v-8.6h67.6v21.9h-10.1v-2.9c0.2-3.1-1.1-6-3.5-8c-2.3-1.9-5.9-2.8-10.8-2.8h-13.1v15.7h3.5
			c1.9,0.1,3.7-0.5,5.2-1.7c1.1-1.1,1.7-3,1.7-5.6v-0.9h9.2v25.1h-8.8v-1.7c0.2-3.6-2.6-6.7-6.3-6.9c-0.2,0-0.4,0-0.6,0h-3.8v17.9
			H610c6.1,0,10.2-0.9,12.5-2.7c2.2-1.8,3.3-5.1,3.3-9.9v-2.6h10.1v24.1h-67.5v-8.6h7.8c1.6,0,2.4-1.3,2.4-3.8v-34.3
			c0.1-1-0.1-1.9-0.5-2.8c-0.4-0.6-1-0.9-1.7-0.9H568.3L568.3,185.9z"/>
		<path class="st1" d="M650.3,185.9v-8.6h32l24.2,39.1v-26.7c0.1-1-0.1-1.9-0.6-2.8c-0.4-0.6-1.1-1-1.8-1h-7.7v-8.6h31.3v8.6h-7.9
			c-0.7,0.1-1.3,0.4-1.7,1c-0.4,0.9-0.6,1.8-0.5,2.8v46.6h-19.6l-26.5-42.7l0.2,30.3c0,2.4,0.7,3.6,2,3.8h7.5v8.6h-31v-8.6h7.6
			c0.7,0,1.4-0.4,1.8-0.9c0.5-0.9,0.7-1.9,0.6-2.8v-34.3c0-2.4-0.7-3.6-2.2-3.8H650.3z"/>
		<path class="st1" d="M742.1,206.3c0-9.3,2.9-16.8,8.8-22.4c6.1-5.9,14.5-8.9,25.1-8.9c2.4,0,4.8,0.2,7.2,0.5
			c7.8,1,14.1,3.5,18.9,7.5c4.7,3.7,7.8,9,8.9,14.9c0.5,2.9,0.8,5.8,0.8,8.7c0,9.3-3,16.9-9,22.6s-14.2,8.6-24.7,8.6
			c-2.5,0-4.9-0.2-7.4-0.5c-9.2-1.2-16.3-4.5-21.4-10.2C744.5,221.6,742.1,214.7,742.1,206.3z M780,228.5c3-0.9,5.5-2.8,7.1-5.5
			c2.2-3.3,3.3-7.5,3.3-12.6c0-8.9-1.2-15.7-3.7-20.2c-2.5-4.5-5.8-6.8-9.9-6.8c-1.1,0-2.1,0.2-3.1,0.4c-3.1,0.8-5.6,3-7.5,6.5
			c-2.1,4-3.1,9.3-3.1,15.8c0,7.5,1.3,13.2,4,17.2c2.5,3.7,5.7,5.6,9.6,5.6C777.8,229,779,228.8,780,228.5z"/>
		<path class="st1" d="M874.4,181.2l2.1-3.9h8.8v20.6h-9.2l-0.4-1.5c-1.1-3.5-3.3-6.6-6.3-8.7c-3.4-2.2-7.4-3.4-11.5-3.2h-2.2
			c-1,0-2.1,0.1-3.1,0.3c-1.2,0.2-2.4,0.4-3.6,0.8c-1,0.3-1.9,0.9-2.7,1.6c-1,0.9-1.6,2.3-1.6,3.7c-0.1,1.3,0.5,2.5,1.4,3.4
			c0.3,0.3,0.7,0.5,1.1,0.7c1,0.5,2.1,0.9,3.3,1.1l5.1,1.1l6.3,1.1c9.1,1.6,15.6,3.9,19.6,6.7c3.7,2.7,5.9,6.9,6.2,11.4
			c0.1,0.7,0.1,1.4,0.1,2.1c0.2,5.6-2.7,10.8-7.5,13.6c-5.3,3.3-13.3,5-23.8,5c-3.2,0-6.3-0.5-9.3-1.4c-3-1-5.9-2.5-8.6-4.3
			l-2.2,4.9h-8.8v-22.9h9.7c0.3,1.7,1,3.4,1.9,4.9c1.1,1.7,2.4,3.2,3.9,4.5c1.4,1.1,2.9,2.1,4.5,2.9c1.8,0.9,3.7,1.6,5.7,2.1
			c1.9,0.5,3.8,0.8,5.7,0.8c3.9,0,6.8-0.6,8.6-1.9c1.7-1.1,2.8-3.1,2.7-5.2c0-3.1-2.4-5.1-7.3-6.1l-6.9-1.4l-0.6-0.1
			c-3.7-0.6-6.2-1-7.5-1.3s-2.7-0.6-4-0.9c-11.3-3.1-17-8.7-17-16.7c0-2.1,0.4-4.2,1.1-6.2c1.5-4,4.4-7.2,8.2-9.2
			c4.5-2.5,10.2-3.8,17-3.8c2.5,0,5.1,0.2,7.6,0.5l3.1,0.6c2,0.4,3.9,1,5.8,1.7C871.4,179.2,873,180.1,874.4,181.2z"/>
		<path class="st1" d="M950.2,181.2l2.1-3.9h8.8v20.6H952l-0.4-1.5c-1.1-3.5-3.3-6.6-6.3-8.7c-3.4-2.2-7.4-3.4-11.5-3.2h-2.2
			c-1,0-2.1,0.1-3.1,0.3c-1.2,0.2-2.4,0.4-3.6,0.8c-1,0.3-1.9,0.9-2.7,1.6c-1,0.9-1.6,2.3-1.6,3.7c-0.1,1.3,0.5,2.5,1.4,3.4
			c0.3,0.3,0.7,0.5,1.1,0.7c1,0.5,2.1,0.9,3.3,1.1l5.1,1.1l6.3,1.1c9.1,1.6,15.6,3.9,19.6,6.7c3.7,2.7,5.9,6.9,6.2,11.4
			c0,0.5,0.1,1.2,0.1,2.1c0.2,5.6-2.7,10.8-7.5,13.6c-5.3,3.3-13.3,5-23.8,5c-3.2,0-6.3-0.5-9.3-1.4c-3-1-5.9-2.5-8.6-4.3l-2.2,4.9
			h-8.8v-22.9h9.7c0.3,1.7,1,3.4,1.9,4.9c1.1,1.7,2.4,3.2,3.9,4.5c1.4,1.1,2.9,2.1,4.5,2.9c1.8,0.9,3.7,1.6,5.7,2.1
			c1.9,0.5,3.8,0.8,5.7,0.8c3.9,0,6.8-0.6,8.6-1.9c1.7-1.1,2.8-3.1,2.7-5.2c0-3.1-2.4-5.1-7.3-6.1l-6.9-1.4l-0.6-0.1
			c-3.7-0.6-6.2-1-7.5-1.3s-2.7-0.6-4-0.9c-11.3-3.1-17-8.7-17-16.7c0-2.1,0.4-4.2,1.2-6.2c1.5-4,4.4-7.2,8.2-9.2
			c4.5-2.5,10.2-3.8,17-3.8c2.5,0,5.1,0.2,7.6,0.5l3.1,0.6c2,0.4,3.9,1,5.8,1.7C947.3,179.2,948.8,180.1,950.2,181.2z"/>
		<path class="st1" d="M978.8,206.3c0-9.3,2.9-16.8,8.8-22.4c6.1-5.9,14.5-8.9,25.1-8.9c2.4,0,4.8,0.2,7.2,0.5
			c7.7,1,14,3.5,18.9,7.5c4.7,3.7,7.8,9,8.9,14.9c0.5,2.9,0.8,5.8,0.8,8.7c0,9.3-3,16.9-9,22.6s-14.2,8.6-24.7,8.6
			c-2.5,0-4.9-0.2-7.4-0.5c-9.2-1.2-16.3-4.6-21.3-10.2C981.2,221.6,978.8,214.7,978.8,206.3z M1016.7,228.5c3-0.9,5.5-2.8,7.1-5.5
			c2.2-3.3,3.3-7.5,3.3-12.6c0-8.9-1.2-15.7-3.7-20.2c-2.5-4.5-5.8-6.8-9.9-6.8c-1,0-2.1,0.2-3.1,0.4c-3.1,0.8-5.6,3-7.5,6.5
			c-2.1,4-3.1,9.3-3.1,15.8c0,7.5,1.3,13.2,4,17.2c2.5,3.7,5.7,5.6,9.6,5.6C1014.6,229,1015.7,228.9,1016.7,228.5L1016.7,228.5z"/>
	</g>
</g>
</svg>
