<?xml version="1.0" encoding="utf-8"?>
<!-- Generator: Adobe Illustrator 26.3.1, SVG Export Plug-In . SVG Version: 6.00 Build 0)  -->
<svg version="1.1" xmlns="http://www.w3.org/2000/svg" xmlns:xlink="http://www.w3.org/1999/xlink" x="0px" y="0px"
	 viewBox="0 0 148.8 80" style="enable-background:new 0 0 148.8 80;" xml:space="preserve">
<style type="text/css">
	.st0{fill:#585857;}
	.st1{fill:#585857;enable-background:new    ;}
	.st2{fill:none;}
	.st3{fill:#FFFFFF;stroke:#585857;stroke-width:1.5;stroke-miterlimit:10;}
</style>
<g id="Livello_2">
</g>
<g id="Livello_1">
	<g transform="translate(-765.014 -165.818)">
		<path class="st0" d="M855.5,186.4h4.2v1.4h-2.5v1.4h2.3v1.4h-2.3v3h-1.7L855.5,186.4z"/>
		<path class="st0" d="M860.6,186.4h4.2v1.4h-2.5v1.4h2.3v1.4h-2.3v1.7h2.6v1.4h-4.3L860.6,186.4z"/>
		<path class="st0" d="M865.8,186.4h2.5c1.7,0,2.4,0.9,2.4,3.4c0,2.6-0.3,3.9-2.6,3.9h-2.4L865.8,186.4z M867.5,192.3h0.5
			c0.8,0,1.1-0.3,1.1-2.5c0-1.8-0.1-2.2-1-2.2h-0.5V192.3z"/>
		<path class="st0" d="M871.9,186.4h4.2v1.4h-2.5v1.4h2.3v1.4h-2.3v1.7h2.6v1.4h-4.3L871.9,186.4z"/>
		<path class="st0" d="M877.1,186.4h2.9c1-0.1,1.8,0.6,1.9,1.5c0,0.1,0,0.3,0,0.4c0,1.1-0.4,1.6-1.2,1.8v0c1.1,0.2,1.1,0.8,1.2,1.8
			c0,1.4,0.1,1.6,0.3,1.7v0.1h-1.8c-0.2-0.5-0.2-1-0.2-1.5c0-1.3-0.2-1.5-0.7-1.5h-0.6v3h-1.7L877.1,186.4z M878.8,189.4h0.5
			c0.5,0,0.9-0.3,0.9-0.8c0-0.1,0-0.1,0-0.1c0-0.5-0.2-0.9-0.9-0.9h-0.5L878.8,189.4z"/>
		<path class="st0" d="M884.5,186.4h2.1l1.8,7.2h-1.8l-0.3-1.4h-1.7l-0.3,1.4h-1.8L884.5,186.4z M885.5,187.7L885.5,187.7l-0.6,3.2
			h1.2L885.5,187.7z"/>
		<path class="st0" d="M888.9,192.3l2.5-4.6h-2.3v-1.4h4.2v1.2l-2.5,4.7h2.5v1.4h-4.4V192.3z"/>
		<rect x="894.3" y="186.4" class="st0" width="1.7" height="7.2"/>
		<path class="st0" d="M899.6,193.7c-2.2,0-2.5-1.5-2.5-3.8s0.3-3.8,2.5-3.8c2.4,0,2.5,1.8,2.5,3.8S902,193.7,899.6,193.7
			 M899.6,192.6c0.7,0,0.8-0.6,0.8-2.6s-0.1-2.6-0.8-2.6c-0.7,0-0.8,0.6-0.8,2.6S899,192.6,899.6,192.6"/>
		<path class="st0" d="M903.3,186.4h2l1.4,4.7h0v-4.7h1.6v7.2h-1.9l-1.5-5h0v5h-1.5L903.3,186.4z"/>
		<path class="st0" d="M909.5,186.4h4.2v1.4h-2.5v1.4h2.3v1.4h-2.3v1.7h2.6v1.4h-4.3L909.5,186.4z"/>
		<rect x="855.5" y="196.6" class="st0" width="1.7" height="7.2"/>
		<path class="st0" d="M859.6,198h-1.5v-1.4h4.7v1.4h-1.5v5.9h-1.7L859.6,198z"/>
		<path class="st0" d="M864.4,196.6h2.1l1.8,7.2h-1.8l-0.3-1.4h-1.7l-0.3,1.4h-1.8L864.4,196.6z M865.4,197.9L865.4,197.9l-0.6,3.2
			h1.2L865.4,197.9z"/>
		<path class="st0" d="M869,196.6h1.7v5.9h2.5v1.4H869L869,196.6z"/>
		<rect x="874" y="196.6" class="st0" width="1.7" height="7.2"/>
		<path class="st0" d="M878.3,196.6h2.1l1.8,7.2h-1.8l-0.3-1.4h-1.7l-0.3,1.4h-1.8L878.3,196.6z M879.3,197.9L879.3,197.9l-0.6,3.2
			h1.2L879.3,197.9z"/>
		<path class="st0" d="M883,196.6h2l1.4,4.7h0v-4.7h1.6v7.2H886l-1.5-5h0v5H883V196.6z"/>
		<path class="st0" d="M890.5,196.6h2.1l1.8,7.2h-1.8l-0.3-1.4h-1.7l-0.3,1.4h-1.8L890.5,196.6z M891.6,197.9L891.6,197.9l-0.6,3.2
			h1.2L891.6,197.9z"/>
		<path class="st0" d="M856.9,211.9v0.3c0,0.5,0.2,1,0.7,1s0.8-0.4,0.8-0.9c0-1.6-3.1-0.7-3.1-3.4c0-1.2,0.6-2.1,2.4-2.1
			c1.7,0,2.3,0.9,2.3,2v0.2h-1.6c0-0.3,0-0.5-0.1-0.8c-0.1-0.2-0.3-0.3-0.5-0.3c-0.4,0-0.7,0.3-0.7,0.8c0,1.5,3.1,0.8,3.1,3.3
			c0,1.6-0.9,2.3-2.5,2.3c-1.2,0-2.4-0.4-2.4-1.9v-0.5L856.9,211.9z"/>
		<path class="st0" d="M861.1,206.8h2.6c1.1-0.1,2,0.7,2.1,1.8c0,0.1,0,0.3,0,0.4c0,1.3-0.6,2.2-2.3,2.2h-0.7v2.8h-1.7L861.1,206.8z
			 M862.8,210h0.5c0.7,0,0.8-0.4,0.8-0.9c0-0.6-0.2-1-0.9-1h-0.4L862.8,210z"/>
		<path class="st0" d="M869.4,214.2c-2.2,0-2.5-1.5-2.5-3.8s0.3-3.8,2.5-3.8c2.4,0,2.5,1.8,2.5,3.8S871.8,214.2,869.4,214.2
			 M869.4,213.1c0.7,0,0.8-0.6,0.8-2.6s-0.1-2.6-0.8-2.6c-0.7,0-0.8,0.6-0.8,2.6S868.7,213.1,869.4,213.1"/>
		<path class="st0" d="M873,206.8h2.9c1-0.1,1.8,0.6,1.9,1.5c0,0.1,0,0.3,0,0.4c0,1.1-0.4,1.6-1.2,1.8v0c1.1,0.2,1.1,0.8,1.2,1.8
			c0,1.4,0.1,1.6,0.3,1.7v0.1h-1.8c-0.2-0.5-0.2-1-0.2-1.5c0-1.3-0.2-1.5-0.7-1.5h-0.7v3H873L873,206.8z M874.7,209.9h0.5
			c0.5,0,0.9-0.3,0.9-0.8c0,0,0-0.1,0-0.1c0-0.5-0.2-0.9-0.9-0.9h-0.5L874.7,209.9z"/>
		<path class="st0" d="M879.9,208.2h-1.5v-1.4h4.7v1.4h-1.5v5.9h-1.7L879.9,208.2z"/>
		<rect x="855.5" y="217.1" class="st0" width="1.7" height="7.2"/>
		<path class="st0" d="M858.5,217.1h2l1.4,4.7h0v-4.7h1.6v7.2h-1.9l-1.5-5h0v5h-1.5L858.5,217.1z"/>
		<path class="st0" d="M864.2,217.1h1.8l0.9,5.6h0l0.9-5.6h1.8l-1.6,7.2h-2.2L864.2,217.1z"/>
		<path class="st0" d="M870.4,217.1h4.2v1.4h-2.5v1.4h2.3v1.4h-2.3v1.7h2.6v1.4h-4.3L870.4,217.1z"/>
		<path class="st0" d="M875.6,217.1h2.9c1-0.1,1.8,0.6,1.9,1.5c0,0.1,0,0.3,0,0.4c0,1.1-0.4,1.6-1.2,1.8v0c1.1,0.2,1.1,0.8,1.2,1.8
			c0,1.4,0.1,1.6,0.3,1.7v0.1h-1.8c-0.2-0.5-0.2-1-0.2-1.5c0-1.3-0.2-1.5-0.7-1.5h-0.6v3h-1.7L875.6,217.1z M877.3,220.1h0.5
			c0.5,0,0.9-0.3,0.9-0.8c0-0.1,0-0.1,0-0.1c0-0.5-0.2-0.9-0.9-0.9h-0.5L877.3,220.1z"/>
		<path class="st0" d="M881.7,217.1h2l1.4,4.7h0v-4.7h1.6v7.2h-1.9l-1.5-5h0v5h-1.5L881.7,217.1z"/>
		<path class="st0" d="M889.2,217.1h2.1l1.8,7.2h-1.8l-0.3-1.4h-1.7l-0.3,1.4h-1.8L889.2,217.1z M890.2,218.4L890.2,218.4l-0.6,3.2
			h1.2L890.2,218.4z"/>
		<path class="st0" d="M893.9,217.1h1.7v5.9h2.5v1.4h-4.2L893.9,217.1z"/>
		<rect x="898.8" y="217.1" class="st0" width="1.7" height="7.2"/>
		<rect x="843.9" y="167.3" class="st1" width="1.4" height="77"/>
		<path d="M799.7,228.2L799.7,228.2L780.3,217v-22.4l19.4-11.2l0,0l19.3,11.2V217l0,0L799.7,228.2z M780.5,216.9l19.2,11.1
			l19.2-11.1v-22.2l-19.2-11.1l-19.2,11.1V216.9z"/>
		<path class="st0" d="M778.9,182.9l8.5-4.9l1.1,1.9l-5.2,3l0.7,1.2l4.7-2.7l1.1,1.8l-4.7,2.7l1.6,2.7l-3.3,1.9L778.9,182.9z"/>
		
			<rect x="792" y="174.9" transform="matrix(0.8656 -0.5008 0.5008 0.8656 16.9232 421.6672)" class="st0" width="3.8" height="8.8"/>
		<path class="st0" d="M803.5,179c-1.5-1.2-1.7-2.4-1-3.5c1.1-2,3.6-1.3,6.3,0.3c3.7,2.1,4.7,3.9,3.9,5.6l-3.8-2.2
			c0.2-0.3,0.1-0.7-0.2-0.9c-0.3-0.3-0.6-0.6-0.9-0.8c-1-0.6-1.5-0.5-1.6-0.2c-0.1,0.2-0.1,0.4,0.2,0.6l3.6,2.8
			c1.5,1.2,2.2,2.5,1.4,3.8c-1.1,1.9-3.2,1.8-6.9-0.4c-2.5-1.5-5.1-3.4-3.9-5.6l4,2.3c-0.1,0.2-0.1,0.5,0,0.7c0.3,0.3,0.6,0.6,1,0.8
			c1,0.6,1.5,0.5,1.7,0.1c0.1-0.2,0.1-0.5-0.3-0.9L803.5,179z"/>
		<rect x="812.4" y="184" transform="matrix(0.5 -0.866 0.866 0.5 247.3914 800.2782)" class="st0" width="8.8" height="3.8"/>
		<path class="st0" d="M799.6,167.3l-33.4,19.3v38.5l33.4,19.3l33.4-19.3v-38.5L799.6,167.3z M799.6,242.5l-31.2-18l11.9-6.7
			l19.3,11.1l19.2-11.1l11.8,6.8L799.6,242.5z M790.9,216.5v-4.7l8-4.6v9.1l-4.2,2.4l0.8,1.4l3.4-2v8.6l-16.9-9.8l7.4-4.3v3.8
			L790.9,216.5z M800.4,218.1l3.3,1.9l0.8-1.4l-4.1-2.4v-9.2l7.9,4.6v4.7h1.6v-3.8l7.4,4.3l-16.9,9.8L800.4,218.1z M810.7,211.3
			l3.4-1.9l-0.8-1.3l-4.1,2.4l-7.9-4.6l8-4.6l4.1,2.4l0.8-1.3l-3.3-1.9l7.4-4.3v19.5L810.7,211.3z M809.9,199v-3.9h-1.6v4.8
			l-7.9,4.6v-9.2l4.1-2.4l-0.8-1.3l-3.3,1.9v-8.5l16.9,9.8L809.9,199z M798.9,193.5l-3.4-1.9l-0.8,1.3l4.2,2.4v9.2l-8-4.6v-4.8h-1.6
			v3.9l-7.4-4.3l16.9-9.8V193.5z M788.6,200.3l-3.3,1.9l0.8,1.3l4.1-2.4l8,4.6l-7.9,4.6L786,208l-0.8,1.3l3.4,2l-7.4,4.3v-19.5
			L788.6,200.3z M831.5,223.3l-11.8-6.8v-22.2l-20-11.6l-20,11.6v22.2l-11.8,6.7v-35.7l31.8-18.4l31.8,18.4L831.5,223.3z"/>
		<rect x="765" y="165.8" class="st2" width="148.8" height="80"/>
	</g>
	<line class="st3" x1="26.2" y1="57.3" x2="20.3" y2="69.3"/>
	<line class="st3" x1="43.1" y1="57.3" x2="49" y2="69.3"/>
</g>
</svg>
