<svg xmlns="http://www.w3.org/2000/svg" viewBox="0 0 798.84 800"><g id="Livello_2" data-name="Livello 2"><g id="Capa_1" data-name="Capa 1"><path d="M631.67,495.57c-16.38-17.05-36.13-26.17-57.07-26.17-20.77,0-40.69,9-57.74,26L463.5,548.59c-4.39-2.37-8.78-4.56-13-6.76-6.08-3-11.82-5.9-16.72-8.94-50-31.75-95.39-73.11-139-126.64-21.1-26.68-35.29-49.13-45.58-71.93,13.84-12.66,26.67-25.83,39.17-38.49,4.73-4.73,9.45-9.63,14.18-14.35,35.46-35.46,35.46-81.39,0-116.85L256.5,118.54c-5.24-5.23-10.64-10.64-15.71-16C230.66,92,220,81.22,209.05,71.09c-16.38-16.21-36-24.82-56.56-24.82S112,54.88,95.08,71.09l-.34.34L37.33,129.35C15.72,151,3.4,177.3.69,207.86c-4,49.3,10.47,95.23,21.62,125.28,27.35,73.79,68.21,142.17,129.16,215.45,74,88.3,162.94,158,264.58,207.17,38.84,18.41,90.67,40.19,148.59,43.9,3.54.17,7.26.34,10.64.34,39,0,71.76-14,97.42-41.87.17-.34.51-.51.68-.85,8.78-10.64,18.91-20.26,29.54-30.56,7.26-6.92,14.69-14.18,22-21.78,16.72-17.39,25.5-37.65,25.5-58.42,0-20.94-9-41-26-57.91Zm60.45,177.8c-.17,0-.17.16,0,0-6.59,7.09-13.34,13.5-20.6,20.59a444.71,444.71,0,0,0-32.59,33.77c-17,18.24-37.15,26.85-63.49,26.85-2.53,0-5.23,0-7.76-.17-50.15-3.21-96.75-22.79-131.7-39.51C340.41,668.64,256.5,603,186.76,519.72c-57.57-69.4-96.07-133.56-121.57-202.45-15.7-42-21.44-74.8-18.91-105.7,1.69-19.75,9.29-36.13,23.3-50.14l57.58-57.58c8.27-7.77,17.05-12,25.66-12,10.64,0,19.25,6.42,24.66,11.82l.5.51c10.3,9.62,20.1,19.58,30.39,30.22,5.24,5.4,10.64,10.81,16,16.38l46.09,46.09c17.9,17.9,17.9,34.45,0,52.35-4.9,4.89-9.62,9.79-14.52,14.52-14.18,14.52-27.69,28-42.38,41.19-.34.34-.68.51-.85.85-14.52,14.52-11.81,28.7-8.78,38.33l.51,1.52c12,29,28.87,56.39,54.54,89l.17.17c46.6,57.4,95.73,102.15,149.93,136.42a231.61,231.61,0,0,0,20.77,11.32c6.08,3,11.82,5.91,16.72,9,.67.33,1.35.84,2,1.18a36.63,36.63,0,0,0,16.72,4.22c14,0,22.79-8.78,25.66-11.65l57.75-57.75c5.74-5.74,14.86-12.66,25.49-12.66,10.47,0,19.08,6.58,24.32,12.33l.33.33,93,93C709.34,637.74,709.34,655.47,692.12,673.37Z"/><path d="M431.76,190.3c44.23,7.43,84.42,28.36,116.5,60.45a215.23,215.23,0,0,1,60.45,116.5,22.65,22.65,0,0,0,22.45,18.91,30,30,0,0,0,3.89-.34,22.81,22.81,0,0,0,18.74-26.34,262.76,262.76,0,0,0-214.1-214.09A22.91,22.91,0,0,0,413.35,164,22.56,22.56,0,0,0,431.76,190.3Z"/><path d="M798.49,352.9c-15-88.14-56.56-168.34-120.39-232.17S534.08,15.37,445.94.35a22.76,22.76,0,1,0-7.43,44.91C517.19,58.6,589,95.91,646,152.81c57.07,57.07,94.22,128.83,107.56,207.52A22.65,22.65,0,0,0,776,379.24a30,30,0,0,0,3.89-.34A22.38,22.38,0,0,0,798.49,352.9Z"/></g></g></svg>