<svg xmlns="http://www.w3.org/2000/svg" viewBox="0 0 131.5 89.23"><g id="Livello_2" data-name="Livello 2"><g id="Layer_1" data-name="Layer 1"><g id="g14"><g id="g20"><path id="path22" d="M119.76,84.54H82.6a32.8,32.8,0,0,0,0-56.36h44.2v49a7.2,7.2,0,0,1-7,7.32m-54-56.36A28.18,28.18,0,1,1,37.57,56.36,28.21,28.21,0,0,1,65.75,28.18m-54,56.36a7.2,7.2,0,0,1-7-7.32V39.92H21.13a2.35,2.35,0,0,0,0-4.7H4.7v-7H48.9a32.78,32.78,0,0,0,0,56.36Zm0-72.6H52.61a2.33,2.33,0,0,0,1.92-1L58.9,4.7h60.86a7.19,7.19,0,0,1,7,7.31V23.48H4.7V19.26a7.19,7.19,0,0,1,7-7.32m0-7.24H23.48V7H11.74Zm25.83,0h7V7h-7ZM119.76,0H57.68a2.34,2.34,0,0,0-1.92,1L51.39,7.25H49.31V2.35A2.35,2.35,0,0,0,47,0H35.22a2.35,2.35,0,0,0-2.35,2.35v4.9H28.18V2.35A2.35,2.35,0,0,0,25.83,0H9.39A2.35,2.35,0,0,0,7,2.35V8.27a12,12,0,0,0-7,11v58a11.89,11.89,0,0,0,11.74,12h108a11.89,11.89,0,0,0,11.74-12V12A11.89,11.89,0,0,0,119.76,0"/></g><g id="g24"><path id="path26" d="M65.75,42.27A14.09,14.09,0,1,1,51.66,56.36,14.1,14.1,0,0,1,65.75,42.27m0,32.87A18.79,18.79,0,1,0,47,56.36,18.81,18.81,0,0,0,65.75,75.14"/></g><g id="g28"><path id="path30" d="M121,32.87H109.1A1.08,1.08,0,0,0,108,34v7.22a1.08,1.08,0,0,0,1.08,1.09H121a1.09,1.09,0,0,0,1.09-1.09V34A1.09,1.09,0,0,0,121,32.87"/></g></g></g></g></svg>