<svg xmlns="http://www.w3.org/2000/svg" viewBox="0 0 53.48 10.31"><defs><style>.cls-1{fill:#575756;}.cls-2{fill:none;}</style></defs><g id="Livello_2" data-name="Livello 2"><g id="Livello_1-2" data-name="Livello 1"><path class="cls-1" d="M14.3.77a.31.31,0,0,1-.4.14h0a1.83,1.83,0,0,0-.42-.07.88.88,0,0,0-.38.09.57.57,0,0,0-.34.53c0,.42.44.54.85.63l.06,0h.13a2.06,2.06,0,0,1,1.38.7,1.34,1.34,0,0,1,.22.69,1.44,1.44,0,0,1-.25.78h0a1.68,1.68,0,0,1-1.39.65,2.27,2.27,0,0,1-.48,0A3.12,3.12,0,0,1,12,4.2h0c-.13-.1-.16-.24-.06-.34l.16-.18a.37.37,0,0,1,.47,0,1.88,1.88,0,0,0,1.26.57.67.67,0,0,0,.71-.73c0-.47-.59-.61-1.11-.71a3.34,3.34,0,0,1-.88-.29,1.25,1.25,0,0,1-.64-1,1.32,1.32,0,0,1,.23-.7,1.68,1.68,0,0,1,.59-.48,1.71,1.71,0,0,1,.75-.15,1.73,1.73,0,0,1,.41,0H14l.22.06a.25.25,0,0,1,.2.31Z"/><path class="cls-1" d="M19,.61a.28.28,0,0,1-.31.25h-.89V4.62a.29.29,0,0,1-.32.25h-.24a.29.29,0,0,1-.32-.25V.86H16A.29.29,0,0,1,15.7.61V.39A.29.29,0,0,1,16,.14h2.66A.28.28,0,0,1,19,.39Z"/><path class="cls-1" d="M19.93.86a.29.29,0,0,1-.32-.25V.39a.29.29,0,0,1,.32-.25h2.54c.19,0,.32.11.32.25V.61c0,.14-.13.25-.32.25Zm2.26.8a.29.29,0,0,1,.32.25v.22c0,.15-.14.25-.32.25h-1.7V4.15h2c.19,0,.32.11.32.25v.22c0,.14-.13.25-.32.25H19.93a.29.29,0,0,1-.32-.25V1.91a.29.29,0,0,1,.32-.25Z"/><path class="cls-1" d="M26.41,4.15a.29.29,0,0,1,.32.25v.22a.29.29,0,0,1-.32.25H23.67a.29.29,0,0,1-.32-.25V.39a.29.29,0,0,1,.32-.25h.24a.29.29,0,0,1,.32.25V4.15Z"/><path class="cls-1" d="M29.1,4.71a.37.37,0,0,1-.3.16h-.33a.37.37,0,0,1-.3-.16L26.57.47c-.1-.18.05-.33.29-.33h.26a.39.39,0,0,1,.29.16l1.23,3.24L29.87.3h0c0-.09.18-.17.29-.17h.25c.24,0,.37.16.3.34h0Z"/><path class="cls-1" d="M32.37,4.62a.28.28,0,0,1-.31.25h-.24a.29.29,0,0,1-.32-.25V.39a.29.29,0,0,1,.32-.25h.24a.28.28,0,0,1,.31.25Z"/><path class="cls-1" d="M34.49,4.75a2.28,2.28,0,0,1-.79-.53h0a2.46,2.46,0,0,1-.55-.79,2.39,2.39,0,0,1-.2-1,2.75,2.75,0,0,1,.2-1,2.75,2.75,0,0,1,.54-.78A2.41,2.41,0,0,1,34.5.21h0a2.7,2.7,0,0,1,2,0h0a2.77,2.77,0,0,1,.8.52,2.66,2.66,0,0,1,.55.78,2.49,2.49,0,0,1,.19,1,2.57,2.57,0,0,1-.19,1,2.83,2.83,0,0,1-.55.79,2.91,2.91,0,0,1-.8.52,2.57,2.57,0,0,1-1,.19A2.77,2.77,0,0,1,34.49,4.75Zm-.66-2.28a1.66,1.66,0,1,0,3.32,0,1.66,1.66,0,1,0-3.32,0Z"/><path class="cls-1" d="M13.87,6.74,12.64,9.92a.35.35,0,0,1-.29.16h-.26c-.23,0-.37-.16-.29-.33l1.63-4.23a.37.37,0,0,1,.29-.16H14a.37.37,0,0,1,.29.16L16,9.75h0c.08.18-.06.34-.29.34H15.4a.33.33,0,0,1-.29-.16Z"/><path class="cls-1" d="M19.67,5.36c.19,0,.32.11.32.24V8.34a1.94,1.94,0,0,1-.56,1.32,1.92,1.92,0,0,1-1.38.54,1.9,1.9,0,0,1-1.94-1.86V5.6c0-.13.14-.24.32-.24h.23c.19,0,.32.11.32.24V8.34a1.07,1.07,0,1,0,2.13,0V5.6c0-.13.14-.24.32-.24Z"/><path class="cls-1" d="M23.72,5.83c0,.13-.14.24-.32.24h-.88V9.84c0,.13-.15.24-.33.24H22a.28.28,0,0,1-.31-.24V6.07h-.89c-.18,0-.32-.11-.32-.24V5.6c0-.13.14-.24.32-.24H23.4c.18,0,.32.11.32.24Z"/><path class="cls-1" d="M25.29,10a2.28,2.28,0,0,1-.79-.53h0A2.59,2.59,0,0,1,24,8.65a2.46,2.46,0,0,1-.2-1,2.8,2.8,0,0,1,.2-1A2.58,2.58,0,0,1,24.49,6a2.71,2.71,0,0,1,.81-.53h0a2.81,2.81,0,0,1,1-.18,2.56,2.56,0,0,1,1,.18h0a2.48,2.48,0,0,1,.8.53,2.51,2.51,0,0,1,.55.77,2.55,2.55,0,0,1,0,1.93A2.59,2.59,0,0,1,27.28,10a2.76,2.76,0,0,1-1,.18A2.57,2.57,0,0,1,25.29,10Zm-.66-2.27a1.66,1.66,0,1,0,3.32,0,1.66,1.66,0,1,0-3.32,0Z"/><path class="cls-1" d="M33.71,9.84c0,.13-.13.24-.32.24h-.23c-.19,0-.33-.11-.33-.24V6.94l-1,1.43a.38.38,0,0,1-.56,0L30.2,7V9.84c0,.13-.15.24-.33.24h-.24a.28.28,0,0,1-.31-.24V5.6a.28.28,0,0,1,.31-.24h.24a.41.41,0,0,1,.26.1l1.38,1.89L32.9,5.46a.46.46,0,0,1,.26-.1h.23c.19,0,.32.11.32.24Z"/><path class="cls-1" d="M36.49,6.74,35.26,9.92a.35.35,0,0,1-.29.16h-.26c-.23,0-.37-.16-.29-.33l1.63-4.23a.36.36,0,0,1,.29-.16h.31a.34.34,0,0,1,.28.16l1.64,4.23h0c.08.18-.06.34-.29.34H38a.36.36,0,0,1-.3-.16Z"/><path class="cls-1" d="M41.73,5.83c0,.13-.14.24-.32.24h-.88V9.84c0,.13-.15.24-.33.24H40c-.17,0-.32-.11-.32-.24V6.07h-.89c-.17,0-.32-.11-.32-.24V5.6c0-.13.15-.24.32-.24h2.66c.18,0,.32.11.32.24Z"/><path class="cls-1" d="M43.45,9.84c0,.13-.14.24-.32.24h-.24c-.18,0-.32-.11-.32-.24V5.6c0-.13.14-.24.32-.24h.24c.18,0,.32.11.32.24Z"/><path class="cls-1" d="M45.56,10a2.28,2.28,0,0,1-.79-.53h0a2.59,2.59,0,0,1-.55-.78,2.46,2.46,0,0,1-.2-1,2.8,2.8,0,0,1,.2-1A2.58,2.58,0,0,1,44.76,6a2.71,2.71,0,0,1,.81-.53h0a2.77,2.77,0,0,1,1-.18,2.56,2.56,0,0,1,1,.18h0a2.6,2.6,0,0,1,.8.53,2.51,2.51,0,0,1,.55.77,2.55,2.55,0,0,1,0,1.93,2.59,2.59,0,0,1-.55.78,2.72,2.72,0,0,1-.8.53,2.76,2.76,0,0,1-1,.18A2.57,2.57,0,0,1,45.56,10ZM44.9,7.69a1.66,1.66,0,1,0,3.32,0,1.66,1.66,0,1,0-3.32,0Z"/><path class="cls-1" d="M50.66,7V9.84c0,.13-.15.24-.32.24H50.1c-.18,0-.32-.11-.32-.24V5.6c0-.13.14-.24.32-.24h.24a.42.42,0,0,1,.26.11l2,3V5.6c0-.13.13-.24.32-.24h.24a.28.28,0,0,1,.31.24V9.84a.28.28,0,0,1-.31.24h-.25a.51.51,0,0,1-.26-.1Z"/><path class="cls-1" d="M6.87,6.54l.62,1.53a.7.7,0,0,0,.2-.56C7.66,7.06,7.36,6.78,6.87,6.54Z"/><path class="cls-1" d="M2.91,8.69l1.26-3.1a1.78,1.78,0,0,1-1.1-2.22c.56-1.68,2.49-1.79,4.17-1.71L7,1.17A1.86,1.86,0,0,0,5.32,0h0A1.85,1.85,0,0,0,3.61,1.17L.6,8.55C1.47,8.62,2.23,8.67,2.91,8.69Z"/><path class="cls-1" d="M7.86,3.2h0a11.37,11.37,0,0,0-2.35,0l.6,1.48c1.29.37,3,.92,3.08,2.77a2.2,2.2,0,0,1-.7,1.72,2.64,2.64,0,0,1-.42.3l.19.49h2.36Z"/><path class="cls-1" d="M4.51,3.8c0,.15,0,.26.22.4l.37-.89A.81.81,0,0,0,4.51,3.8Z"/><path class="cls-2" d="M4.73,4.2,4.17,5.59a9.66,9.66,0,0,0,1.38.5,9.53,9.53,0,0,1,1.32.45L6.11,4.69,6,4.65A6.94,6.94,0,0,1,4.73,4.2Z"/><path class="cls-1" d="M6.2,4.65l0-.05h0l-.07,0L6,4.55a7.5,7.5,0,0,1-1.22-.43l-.1-.06,0,.09.08,0h0l.19.09h0l.23.09.11,0,.23.08L6,4.65l.26.07Z"/><path class="cls-1" d="M4,5.63l.08,0a8.63,8.63,0,0,0,1.41.5,9.62,9.62,0,0,1,1.29.45l.23.11,0-.13-.13-.07h0c-.17-.08-.37-.15-.58-.23h0l-.7-.21L5,5.9l-.12,0a5,5,0,0,1-.75-.32h0Z"/><path class="cls-1" d="M5.1,3.31h0L5,3.36l0,.12.21-.07a1.59,1.59,0,0,1,.39-.1l.13,0,0-.1-.1,0A3.52,3.52,0,0,0,5.1,3.31Z"/><path class="cls-1" d="M7.52,7.89l-.1.1h0c-.3.27-1.16.6-3.51.6-.93,0-2-.06-3.26-.16l0,.1.91.07h.28l.55,0H4.72l.6,0,.14,0,.41,0H6l.42-.07.08,0,.28-.07.07,0,.26-.1h0l.17-.09,0,0,.14-.11A.24.24,0,0,0,7.56,8Z"/><path class="cls-1" d="M8.16,9.45h0l-.08,0h0A3.93,3.93,0,0,1,7,9.91l-.07,0L6.55,10l-.21,0L6,10.09l-.31,0-.32,0-.44,0-.26,0H3.89c-1.08,0-2.36-.07-3.85-.2l0,.09c1.55.14,2.83.21,3.89.21a8.6,8.6,0,0,0,4.23-.74l.07,0Z"/></g></g></svg>