<svg xmlns="http://www.w3.org/2000/svg" viewBox="0 0 325.01 197.94"><g id="Livello_2" data-name="Livello 2"><g id="Livello_1-2" data-name="Livello 1"><path id="vcard" d="M310.64,0H14.37A14.37,14.37,0,0,0,0,14.37v169.2a14.37,14.37,0,0,0,14.37,14.37H53.79a3,3,0,0,0,3-3v-.07a4.89,4.89,0,0,0-5-4.8,4.88,4.88,0,0,1-4.77-4.87v-2a4.87,4.87,0,0,1,4.87-4.87H84.51a4.87,4.87,0,0,1,4.87,4.87v2a4.91,4.91,0,0,1-5,4.81,4.87,4.87,0,0,0-4.77,4.87,3,3,0,0,0,3,3h159.7a3,3,0,0,0,3-3v-1.36a4.89,4.89,0,0,0-5-4.8,4.88,4.88,0,0,1-4.77-4.87v-2a4.87,4.87,0,0,1,4.87-4.87h32.58a4.88,4.88,0,0,1,4.88,4.87v2a4.91,4.91,0,0,1-5,4.81,4.87,4.87,0,0,0-4.78,4.87v1.29a3,3,0,0,0,3,3h39.42A14.38,14.38,0,0,0,325,183.57V14.37A14.37,14.37,0,0,0,310.64,0ZM91,30A43.72,43.72,0,1,1,47.23,73.75,43.77,43.77,0,0,1,91,30ZM153.13,161a13.16,13.16,0,0,1-11.7,6.94h-101A13.17,13.17,0,0,1,28.76,161a13,13,0,0,1,.44-13.43C39.67,131.16,63.91,120.59,91,120.59s51.27,10.57,61.74,26.95A13,13,0,0,1,153.13,161Zm155.12-6.67H180.05a3,3,0,0,1,0-6h128.2a3,3,0,0,1,0,6Zm0-34.89H180.05a3,3,0,0,1,0-6h128.2a3,3,0,0,1,0,6Zm0-34.88H180.05a3,3,0,0,1,0-6h128.2a3,3,0,0,1,0,6Zm0-34.89H180.05a3,3,0,0,1,0-6h128.2a3,3,0,0,1,0,6Z"/></g></g></svg>