<svg xmlns="http://www.w3.org/2000/svg" viewBox="0 0 118.83 96.04"><defs><style>.cls-1{fill:none;stroke:#000;stroke-linecap:round;stroke-linejoin:round;stroke-width:7px;}</style></defs><g id="Livello_2" data-name="Livello 2"><g id="Livello_1-2" data-name="Livello 1"><path d="M39.35,53.16h0a3.39,3.39,0,0,1,3.39-3.39H76.09a3.39,3.39,0,0,1,3.39,3.39h0a3.4,3.4,0,0,0,3.4,3.39h33.53a2.42,2.42,0,0,0,2.42-2.42V27.79a6,6,0,0,0-6-6H6a6,6,0,0,0-6,6V54.13a2.42,2.42,0,0,0,2.42,2.42H36A3.4,3.4,0,0,0,39.35,53.16Z"/><path d="M79.48,64.69h0a3.39,3.39,0,0,1-3.39,3.39H42.74a3.39,3.39,0,0,1-3.39-3.39h0A3.4,3.4,0,0,0,36,61.3H2.42A2.42,2.42,0,0,0,0,63.72V90.05a6,6,0,0,0,6,6H112.85a6,6,0,0,0,6-6V63.72a2.42,2.42,0,0,0-2.42-2.42H82.88A3.4,3.4,0,0,0,79.48,64.69Z"/><path class="cls-1" d="M79.48,21.81V12.1a8.59,8.59,0,0,0-8.59-8.6h-23a8.59,8.59,0,0,0-8.59,8.6v9.71Z"/></g></g></svg>