<?xml version="1.0" encoding="utf-8"?>
<!-- Generator: Adobe Illustrator 25.0.1, SVG Export Plug-In . SVG Version: 6.00 Build 0)  -->
<svg version="1.1" id="Livello_1" xmlns="http://www.w3.org/2000/svg" xmlns:xlink="http://www.w3.org/1999/xlink" x="0px" y="0px"
	 viewBox="0 0 456 455.8" style="enable-background:new 0 0 456 455.8;" xml:space="preserve">
<style type="text/css">
	.st0{opacity:5.000000e-02;}
	.st1{fill:none;stroke:#000000;stroke-width:0.797;stroke-miterlimit:10;}
	.st2{fill:none;stroke:#000000;stroke-width:0.3985;stroke-miterlimit:10;}
</style>
<g id="surface1" class="st0">
	<path class="st1" d="M1.1,454.7h453.6V1.2H1.1V454.7z"/>
	<path class="st1" d="M1.1,398h453.6"/>
	<path class="st1" d="M1.1,341.3h453.6"/>
	<path class="st1" d="M1.1,284.6h453.6"/>
	<path class="st1" d="M1.1,227.9h453.6"/>
	<path class="st1" d="M1.1,171.3h453.6"/>
	<path class="st1" d="M1.1,114.6h453.6"/>
	<path class="st1" d="M1.1,57.9h453.6"/>
	<path class="st2" d="M1.1,449.1h453.6"/>
	<path class="st2" d="M1.1,443.4h453.6"/>
	<path class="st2" d="M1.1,437.7h453.6"/>
	<path class="st2" d="M1.1,432h453.6"/>
	<path class="st2" d="M1.1,426.4h453.6"/>
	<path class="st2" d="M1.1,420.7h453.6"/>
	<path class="st2" d="M1.1,415h453.6"/>
	<path class="st2" d="M1.1,409.4h453.6"/>
	<path class="st2" d="M1.1,403.7h453.6"/>
	<path class="st2" d="M1.1,392.4h453.6"/>
	<path class="st2" d="M1.1,386.7h453.6"/>
	<path class="st2" d="M1.1,381h453.6"/>
	<path class="st2" d="M1.1,375.4h453.6"/>
	<path class="st2" d="M1.1,369.7h453.6"/>
	<path class="st2" d="M1.1,364h453.6"/>
	<path class="st2" d="M1.1,358.3h453.6"/>
	<path class="st2" d="M1.1,352.7h453.6"/>
	<path class="st2" d="M1.1,347h453.6"/>
	<path class="st2" d="M1.1,335.7h453.6"/>
	<path class="st2" d="M1.1,330h453.6"/>
	<path class="st2" d="M1.1,324.3h453.6"/>
	<path class="st2" d="M1.1,318.7h453.6"/>
	<path class="st2" d="M1.1,313h453.6"/>
	<path class="st2" d="M1.1,307.3h453.6"/>
	<path class="st2" d="M1.1,301.7h453.6"/>
	<path class="st2" d="M1.1,296h453.6"/>
	<path class="st2" d="M1.1,290.3h453.6"/>
	<path class="st2" d="M1.1,279h453.6"/>
	<path class="st2" d="M1.1,273.3h453.6"/>
	<path class="st2" d="M1.1,267.6h453.6"/>
	<path class="st2" d="M1.1,262h453.6"/>
	<path class="st2" d="M1.1,256.3h453.6"/>
	<path class="st2" d="M1.1,250.6h453.6"/>
	<path class="st2" d="M1.1,245h453.6"/>
	<path class="st2" d="M1.1,239.3h453.6"/>
	<path class="st2" d="M1.1,233.6h453.6"/>
	<path class="st2" d="M1.1,222.3h453.6"/>
	<path class="st2" d="M1.1,216.6h453.6"/>
	<path class="st2" d="M1.1,210.9h453.6"/>
	<path class="st2" d="M1.1,205.3h453.6"/>
	<path class="st2" d="M1.1,199.6h453.6"/>
	<path class="st2" d="M1.1,193.9h453.6"/>
	<path class="st2" d="M1.1,188.3h453.6"/>
	<path class="st2" d="M1.1,182.6h453.6"/>
	<path class="st2" d="M1.1,176.9h453.6"/>
	<path class="st2" d="M1.1,165.6h453.6"/>
	<path class="st2" d="M1.1,159.9h453.6"/>
	<path class="st2" d="M1.1,154.2h453.6"/>
	<path class="st2" d="M1.1,148.6h453.6"/>
	<path class="st2" d="M1.1,142.9h453.6"/>
	<path class="st2" d="M1.1,137.2h453.6"/>
	<path class="st2" d="M1.1,131.6h453.6"/>
	<path class="st2" d="M1.1,125.9h453.6"/>
	<path class="st2" d="M1.1,120.2h453.6"/>
	<path class="st2" d="M1.1,108.9h453.6"/>
	<path class="st2" d="M1.1,103.2h453.6"/>
	<path class="st2" d="M1.1,97.6h453.6"/>
	<path class="st2" d="M1.1,91.9h453.6"/>
	<path class="st2" d="M1.1,86.2h453.6"/>
	<path class="st2" d="M1.1,80.6h453.6"/>
	<path class="st2" d="M1.1,74.9h453.6"/>
	<path class="st2" d="M1.1,69.2h453.6"/>
	<path class="st2" d="M1.1,63.5h453.6"/>
	<path class="st2" d="M1.1,52.2h453.6"/>
	<path class="st2" d="M1.1,46.5h453.6"/>
	<path class="st2" d="M1.1,40.9h453.6"/>
	<path class="st2" d="M1.1,35.2h453.6"/>
	<path class="st2" d="M1.1,29.5h453.6"/>
	<path class="st2" d="M1.1,23.9h453.6"/>
	<path class="st2" d="M1.1,18.2h453.6"/>
	<path class="st2" d="M1.1,12.5h453.6"/>
	<path class="st2" d="M1.1,6.8h453.6"/>
	<path class="st1" d="M57.8,454.7V1.2"/>
	<path class="st1" d="M114.5,454.7V1.2"/>
	<path class="st1" d="M171.2,454.7V1.2"/>
	<path class="st1" d="M227.9,454.7V1.2"/>
	<path class="st1" d="M284.6,454.7V1.2"/>
	<path class="st1" d="M341.3,454.7V1.2"/>
	<path class="st1" d="M398,454.7V1.2"/>
	<path class="st2" d="M6.8,454.7V1.2"/>
	<path class="st2" d="M12.5,454.7V1.2"/>
	<path class="st2" d="M18.1,454.7V1.2"/>
	<path class="st2" d="M23.8,454.7V1.2"/>
	<path class="st2" d="M29.5,454.7V1.2"/>
	<path class="st2" d="M35.1,454.7V1.2"/>
	<path class="st2" d="M40.8,454.7V1.2"/>
	<path class="st2" d="M46.5,454.7V1.2"/>
	<path class="st2" d="M52.2,454.7V1.2"/>
	<path class="st2" d="M63.5,454.7V1.2"/>
	<path class="st2" d="M69.2,454.7V1.2"/>
	<path class="st2" d="M74.8,454.7V1.2"/>
	<path class="st2" d="M80.5,454.7V1.2"/>
	<path class="st2" d="M86.2,454.7V1.2"/>
	<path class="st2" d="M91.8,454.7V1.2"/>
	<path class="st2" d="M97.5,454.7V1.2"/>
	<path class="st2" d="M103.2,454.7V1.2"/>
	<path class="st2" d="M108.8,454.7V1.2"/>
	<path class="st2" d="M120.2,454.7V1.2"/>
	<path class="st2" d="M125.9,454.7V1.2"/>
	<path class="st2" d="M131.5,454.7V1.2"/>
	<path class="st2" d="M137.2,454.7V1.2"/>
	<path class="st2" d="M142.9,454.7V1.2"/>
	<path class="st2" d="M148.5,454.7V1.2"/>
	<path class="st2" d="M154.2,454.7V1.2"/>
	<path class="st2" d="M159.9,454.7V1.2"/>
	<path class="st2" d="M165.5,454.7V1.2"/>
	<path class="st2" d="M176.9,454.7V1.2"/>
	<path class="st2" d="M182.6,454.7V1.2"/>
	<path class="st2" d="M188.2,454.7V1.2"/>
	<path class="st2" d="M193.9,454.7V1.2"/>
	<path class="st2" d="M199.6,454.7V1.2"/>
	<path class="st2" d="M205.2,454.7V1.2"/>
	<path class="st2" d="M210.9,454.7V1.2"/>
	<path class="st2" d="M216.6,454.7V1.2"/>
	<path class="st2" d="M222.2,454.7V1.2"/>
	<path class="st2" d="M233.6,454.7V1.2"/>
	<path class="st2" d="M239.2,454.7V1.2"/>
	<path class="st2" d="M244.9,454.7V1.2"/>
	<path class="st2" d="M250.6,454.7V1.2"/>
	<path class="st2" d="M256.3,454.7V1.2"/>
	<path class="st2" d="M261.9,454.7V1.2"/>
	<path class="st2" d="M267.6,454.7V1.2"/>
	<path class="st2" d="M273.3,454.7V1.2"/>
	<path class="st2" d="M278.9,454.7V1.2"/>
	<path class="st2" d="M290.3,454.7V1.2"/>
	<path class="st2" d="M295.9,454.7V1.2"/>
	<path class="st2" d="M301.6,454.7V1.2"/>
	<path class="st2" d="M307.3,454.7V1.2"/>
	<path class="st2" d="M312.9,454.7V1.2"/>
	<path class="st2" d="M318.6,454.7V1.2"/>
	<path class="st2" d="M324.3,454.7V1.2"/>
	<path class="st2" d="M330,454.7V1.2"/>
	<path class="st2" d="M335.6,454.7V1.2"/>
	<path class="st2" d="M347,454.7V1.2"/>
	<path class="st2" d="M352.6,454.7V1.2"/>
	<path class="st2" d="M358.3,454.7V1.2"/>
	<path class="st2" d="M364,454.7V1.2"/>
	<path class="st2" d="M369.6,454.7V1.2"/>
	<path class="st2" d="M375.3,454.7V1.2"/>
	<path class="st2" d="M381,454.7V1.2"/>
	<path class="st2" d="M386.6,454.7V1.2"/>
	<path class="st2" d="M392.3,454.7V1.2"/>
	<path class="st2" d="M403.7,454.7V1.2"/>
	<path class="st2" d="M409.3,454.7V1.2"/>
	<path class="st2" d="M415,454.7V1.2"/>
	<path class="st2" d="M420.7,454.7V1.2"/>
	<path class="st2" d="M426.3,454.7V1.2"/>
	<path class="st2" d="M432,454.7V1.2"/>
	<path class="st2" d="M437.7,454.7V1.2"/>
	<path class="st2" d="M443.3,454.7V1.2"/>
	<path class="st2" d="M449,454.7V1.2"/>
</g>
</svg>
