<svg xmlns="http://www.w3.org/2000/svg" viewBox="0 0 475.08 689.01"><defs><style>.cls-1,.cls-3,.cls-4,.cls-6{fill:#1d1d1b;}.cls-1,.cls-2,.cls-3,.cls-5,.cls-6{stroke:#1d1d1b;}.cls-1,.cls-5{stroke-miterlimit:10;}.cls-1,.cls-2,.cls-5,.cls-6{stroke-width:2px;}.cls-2,.cls-5{fill:none;}.cls-2,.cls-3,.cls-6{stroke-linecap:round;stroke-linejoin:round;}.cls-3{stroke-width:3px;}</style></defs><g id="Livello_2" data-name="Livello 2"><g id="Livello_5" data-name="Livello 5"><path class="cls-1" d="M316.66,129.07,245.23,5.34a8.69,8.69,0,0,0-15,0L158.75,129.07a8.68,8.68,0,0,0,7.52,13H309.14A8.68,8.68,0,0,0,316.66,129.07ZM244.31,121a4.89,4.89,0,0,1-4.89,4.89H236A4.89,4.89,0,0,1,231.1,121v-3.44a4.89,4.89,0,0,1,4.89-4.88h3.43a4.89,4.89,0,0,1,4.89,4.88Zm.16-21.25a4.9,4.9,0,0,1-4.89,4.73h-3.75A4.88,4.88,0,0,1,231,99.71l-1.82-55.37a4.89,4.89,0,0,1,4.89-5h7.37a4.88,4.88,0,0,1,4.89,5Z"/><g id="Tq4QXW.tif"><path d="M422,581.89c5.35,0,10.6,0,15.85,0,.83,0,1,.5,1.27,1q7.89,15.48,15.79,30.94l2.27,4.45a1.8,1.8,0,0,0,.86.9V582h14.2v60.4h-1.16c-4.8,0-9.6,0-14.41,0a1.48,1.48,0,0,1-1.54-1q-8.91-17.48-17.88-34.93a4,4,0,0,0-1.05-1.39v37.19H422Z"/><path d="M221.08,624.76l6.15,10.66c-1.34.84-2.59,1.72-3.92,2.45a41.33,41.33,0,0,1-15.64,4.75,47.24,47.24,0,0,1-13,.06c-10-1.64-16.46-7.42-19.41-17a44.43,44.43,0,0,1,.54-28.61c3.33-9.31,10.26-14.44,20-16a34.48,34.48,0,0,1,15,.9,20.25,20.25,0,0,1,13.69,12.21c2.9,6.88,3,14.12,2.83,21.61h-8.11l-27.23-.06c-1.54,0-1.54,0-1.49,1.57.25,7.49,5.77,12.79,13.5,12.81a28.23,28.23,0,0,0,16.24-4.82C220.41,625.18,220.69,625,221.08,624.76Zm-10.66-19a17.18,17.18,0,0,0-.79-7.24,7.72,7.72,0,0,0-6.35-5.37,16.62,16.62,0,0,0-4.11-.09c-6.33.54-9.16,7.25-8.6,12.63a3.17,3.17,0,0,0,.46.07Z"/><path d="M356.24,612a36.73,36.73,0,0,1,2.42-14.19c3.8-9.5,11-14.72,20.95-16.36a36.09,36.09,0,0,1,16.3.87c8.68,2.57,14.66,8.13,17.57,16.68a38.38,38.38,0,0,1-1.09,28.87c-3.89,8.68-10.94,13.48-20.24,15a35.46,35.46,0,0,1-17.93-1.33c-9.28-3.27-14.66-10.06-16.85-19.44-.77-3.3-1-6.73-1.44-10.1Zm15.17.08a26,26,0,0,0,2.3,11.36,13.22,13.22,0,0,0,15.35,7.48c5.1-1.15,8.08-4.58,9.8-9.28a28.12,28.12,0,0,0,1.46-12.11,22.25,22.25,0,0,0-3-9.93,13.29,13.29,0,0,0-23,.2A23.6,23.6,0,0,0,371.41,612Z"/><path d="M235.45,641.72V582c.35,0,.69-.08,1-.08,5.82,0,11.65-.08,17.47,0a43.77,43.77,0,0,1,15.62,2.86c9.29,3.71,14.32,10.72,15.83,20.42a40,40,0,0,1-.86,17.27c-2.71,9.53-9.22,15.2-18.61,17.63a47.55,47.55,0,0,1-10.2,1.54C249,641.89,242.31,641.72,235.45,641.72Zm14.37-47.81v36c7.68.61,13.78-.39,18.27-7.6,4.32-6.93,4.21-14.12-.13-21C263.75,594.54,257.23,593.11,249.82,593.91Z"/><path d="M347.91,596.26c-1.4-.55-2.7-1.12-4-1.57a23.63,23.63,0,0,0-11-1.38,5.92,5.92,0,0,0-5.43,5.88,3.63,3.63,0,0,0,1.87,3.47,59.44,59.44,0,0,0,6,2.9c3.5,1.44,7.06,2.71,10.19,4.91,5.54,3.9,7.55,9.37,7,15.91-.86,10.12-8.06,15-16.65,16.49-7.72,1.3-15.22.15-22.82-2.14.46-4.55.94-9.17,1.43-14l1.83,1a25.86,25.86,0,0,0,12.8,3.48,11,11,0,0,0,5.9-1.71c3.16-2.06,3.33-5.87.18-7.94a39.54,39.54,0,0,0-6.33-3.11c-3.82-1.61-7.73-3-11-5.71a15,15,0,0,1-5.53-11.12,20.13,20.13,0,0,1,1.89-10.67c2.7-5.23,7.24-8,12.81-9.24,7.25-1.58,14.38-.72,21.41,1.45a1,1,0,0,1,.8,1.21C348.77,588.28,348.35,592.23,347.91,596.26Z"/><path d="M16.22,579.8l2.05.13c.92-3.44-.59-7.36,2.59-10.42.43.87.83,1.55,1.12,2.28,2.71,6.67,6.28,12.82,11.9,17.45a15.55,15.55,0,0,0,12.64,3.49,82,82,0,0,1,8.95-1c4.09-.17,6.08,1.68,6.66,5.7a2.21,2.21,0,0,0,.11.59c1.43,3.06.27,5.62-1.58,8a25,25,0,0,1-8.7,7.14,22,22,0,0,1-5.38,1.46,52.18,52.18,0,0,1-7.79,1.32c-8.54.41-16.26-2.28-23.4-6.79A30.93,30.93,0,0,1,6.46,601a14.73,14.73,0,0,1-2.63-6.23,1.76,1.76,0,0,1,.08-.94c.93-2,1.89-4,2.84-6.06A5.9,5.9,0,0,1,11.09,584a1.85,1.85,0,0,1,1.3.44c.71.59,1.45.62,1.88-.23C15,582.82,15.53,581.37,16.22,579.8Z"/><path d="M76,581.92c-.89-.08-1.78-.16-2.67-.22a5.52,5.52,0,0,1-4.23-2.62c-1.33-1.81-3.22-3.18-4.82-4.79a25.29,25.29,0,0,1-2.54-2.93c-1.73-2.4-3.35-4.9-5.09-7.3a3.48,3.48,0,0,1-.54-2.5,7.89,7.89,0,0,0-.28-2.91A12.41,12.41,0,0,1,56,551c1.26-4.31,4-7.69,6.93-10.91a23.39,23.39,0,0,1,6.41-5.39c2.12-1.08,4.27-1.81,6.63-.7,2.13,1,4.27.58,6.41,0,3.75-1.07,7.49-2.2,11.27-3.16a15.82,15.82,0,0,1,4.29-.39c.44,0,1.11.73,1.21,1.22s-.5,1-1,1.31a22.9,22.9,0,0,1-2.69,1.15A5.86,5.86,0,0,0,92,537.4c-.26.69-1.06,1.19-1.29,1.88A41.5,41.5,0,0,0,89,545.22c-.31,1.83-.21,3.73-.34,5.59a1.74,1.74,0,0,0,.78,1.63,11.44,11.44,0,0,1,1.75,1.86,3.68,3.68,0,0,1,.57,3.87c-1.06,3.31-1.52,6.8-2.37,10.18A66.35,66.35,0,0,1,87,576.48c-1.17,2.95-3.28,4.86-6.76,4.89A26.53,26.53,0,0,0,76,582Z"/><path d="M22.42,643.21a16.37,16.37,0,0,0,7,3.13c5.83,1.12,11.4.08,16.83-2a25.26,25.26,0,0,0,12.43-10,8.93,8.93,0,0,0,.6-.91c1.49-3.2,4.11-5.07,7.25-6.45a5.38,5.38,0,0,1,6.66,2.14,25.35,25.35,0,0,1,2.25,8.55A45,45,0,0,1,75.21,650c-.68,4.64-3.28,8.22-6.22,11.65-1.83,2.14-3.83,3.93-6.71,4.59a9.83,9.83,0,0,0-2.78,1.48c-3,1.88-6.16,3-9.83,2.3-1.28-.25-2.67.19-4,.16a6.66,6.66,0,0,1-2.9-.52,9.91,9.91,0,0,0-6.16-.85c-1,.13-1.58,0-1.75-1.06-.14-.82-.64-1.06-1.42-.85A3.7,3.7,0,0,1,33,667c-2.49.22-2.52.23-3.52-2.11a5.13,5.13,0,0,0-2.55-2.81,2.42,2.42,0,0,1-1.22-2.41,39.05,39.05,0,0,0-.79-6.37C24.17,650,23.28,646.71,22.42,643.21Z"/><path d="M152.82,607.83c-.13,2.08-.14,2-2.23,2.63a17.32,17.32,0,0,1-9.73.29,11,11,0,0,0-3.45.12,1.65,1.65,0,0,1-.2-.51c-.58-3.83-3.15-6-6.36-7.63a32.29,32.29,0,0,0-10.79-2.85,110.34,110.34,0,0,0-18.89-.2l-.61,0c-2.28.26-2.9-.1-3.82-2.19-1.43-3.24-1-6,1.62-8.42a32.43,32.43,0,0,1,11.79-6.71,60.76,60.76,0,0,1,27-3.13c5.93.63,11.56,2.31,16.32,6.16a20.61,20.61,0,0,1,7.5,14,4.28,4.28,0,0,1-.41,1.7,17.27,17.27,0,0,0-.81,2.53,3.42,3.42,0,0,1-2.9,3.16C155.56,607.15,154.23,607.49,152.82,607.83Z"/><path d="M129.59,671a4,4,0,0,1-3.68-1.38,56.17,56.17,0,0,0-11.38-8.34c-.8-.43-1.77-.54-2.62-.89a10.11,10.11,0,0,1-2.58-1.31,1.45,1.45,0,0,1-.44-2c1.41-2,1.33-4.26,1-6.54,0-.24-.2-.49-.16-.71.52-2.92-1.34-5.14-2.33-7.59a14.12,14.12,0,0,0-1.95-2.87c-.48-.65-1.11-1.2-1.53-1.89a16.25,16.25,0,0,0-5.65-5.25,21.91,21.91,0,0,1-3.75-2.89c-1.8-1.72-1.76-2.79.17-4.45a9.29,9.29,0,0,1,8.23-2.42,60.83,60.83,0,0,1,33.22,17.77,34.8,34.8,0,0,1,9.48,16.89,10.8,10.8,0,0,1-1.25,7.8,2.66,2.66,0,0,1-1.75,1.29c-2.45.18-4.39,1.4-6.3,2.72A10.51,10.51,0,0,1,129.59,671Z"/><path d="M307.14,642.33H291.45V581.67h15.69Z"/><path d="M321.83,681.82l2.46,4.33a43.75,43.75,0,0,1-5,2.05,18.85,18.85,0,0,1-7.95.63c-4.5-.68-7.12-3.35-8.24-7.58a18.65,18.65,0,0,1,.1-9.64c1.63-6.16,6.89-8.2,11.87-7.59,6,.74,8.74,4,9.13,10.11.07,1.21,0,2.42,0,3.87H309.52a5.15,5.15,0,0,0,5.07,5.92A12.14,12.14,0,0,0,321.83,681.82ZM317.69,674c0-1.83-.11-3.48-1.63-4.61a4.45,4.45,0,0,0-4.63-.07c-1.62,1.09-2,2.74-2.08,4.68Z"/><path d="M328.27,688.69V664.28c4.35.15,8.64,0,12.84.53,4.65.59,7.78,4.14,8.27,8.83a22.78,22.78,0,0,1-.2,6.28,9.6,9.6,0,0,1-8.71,8.28C336.48,688.64,332.44,688.54,328.27,688.69Zm6.1-4.5h2.47c3.63-.07,5.49-1.56,6.2-5.09a14,14,0,0,0,.26-3c-.16-5.69-3.36-8.08-8.93-7.19Z"/><path d="M359.28,688.51H353v-24h15.12v4.38H359.3v5h7.86v4.27h-7.88Z"/><path d="M413,688.44a12.32,12.32,0,0,1-2.35,0c-.33-.07-.69-.62-.83-1-.84-2.33-1.6-4.68-2.41-7-.92-2.64-2.63-3.55-5.52-2.85v8.6c0,2.58,0,2.58-2.76,2.24V664.42c2.8,0,5.57-.2,8.29.06a5.3,5.3,0,0,1,4.52,5c.27,3.16-.89,5.24-3.5,6.28-.33.12-.64.27-1.34.56,2.36.53,2.7,2.28,3.25,3.88l2.73,7.82C413.14,688.14,413.09,688.22,413,688.44Zm-11-21.79a1.22,1.22,0,0,0-.11.34c0,1.63,0,3.26,0,4.88,0,3.66.17,3.8,3.82,3a3.71,3.71,0,0,0,.48-.1,4.22,4.22,0,0,0,2.9-4.32,3.6,3.6,0,0,0-3.09-3.81A24,24,0,0,0,402,666.65Z"/><path d="M434,676.33a17.33,17.33,0,0,1-1.26,7.26,7.8,7.8,0,0,1-7.63,5.06,7.51,7.51,0,0,1-7.41-4.8,18.78,18.78,0,0,1,.05-15.26c1.34-3.17,4.05-4.6,7.4-4.63a7.63,7.63,0,0,1,7.1,4.15A15.56,15.56,0,0,1,434,676.33Zm-3.07,0a16.53,16.53,0,0,0-1-6.49,4.69,4.69,0,0,0-4.59-3.54,5,5,0,0,0-5,3.52,18.16,18.16,0,0,0,0,13.08,5,5,0,0,0,9.51.11A16.14,16.14,0,0,0,430.94,676.3Z"/><path d="M386.65,677.58v-2.33h6.66v12.19a15.59,15.59,0,0,1-8.06,1,9.07,9.07,0,0,1-7-5,15.48,15.48,0,0,1-.19-14c2-4.22,5.91-5.75,10-5.58a30.07,30.07,0,0,1,3.49.54c1,.17,1.56.7,1.37,1.81a8.53,8.53,0,0,0,0,1.34,37.6,37.6,0,0,0-3.67-1.08c-4.56-.86-8.13,1.39-9.3,5.92a13.86,13.86,0,0,0,1,9.84,7.24,7.24,0,0,0,8.83,3.57,1.16,1.16,0,0,0,1-1.29c0-2,0-4,0-6,0-.78-.24-1.11-1.05-1.07C388.72,677.62,387.75,677.58,386.65,677.58Z"/><path d="M450.92,664.24h2.77c0,.29.08.52.08.75,0,5.45.07,10.9,0,16.34-.06,2.89-1.2,5.37-4,6.59a7.87,7.87,0,0,1-8.3-.85,7,7,0,0,1-2.66-5.79c-.11-5.64,0-11.28,0-17h2.83v1.32c0,4.88-.06,9.76,0,14.64a10.37,10.37,0,0,0,.9,3.85,3.81,3.81,0,0,0,3.84,2.29,3.88,3.88,0,0,0,3.72-2.31,8.71,8.71,0,0,0,.82-3.26c.08-5,0-10.08.05-15.12Z"/><path d="M459.54,664.42c2.64,0,5.28-.34,7.8.08,4,.66,5.42,4.37,4.92,7.64-.63,4.2-2.92,5.91-7.73,6.07-.68,0-1.37,0-2.17,0v10.15h-2.82Zm2.86,2.14v9.29c2.33,0,4.72.38,6.17-1.81a5,5,0,0,0,0-5.65C467.1,666.15,464.72,666.51,462.4,666.56Z"/></g><polyline class="cls-2" points="356.96 354.2 356.96 455.22 394.36 316.24"/><line class="cls-3" x1="237.54" y1="364.62" x2="237.54" y2="396.24"/><line class="cls-3" x1="277.54" y1="364.62" x2="277.54" y2="396.24"/><line class="cls-3" x1="317.55" y1="364.62" x2="317.55" y2="396.24"/><polyline class="cls-2" points="237.54 344.71 356.96 344.71 380.43 326.85"/><polyline class="cls-2" points="465.24 316.24 394.36 316.24 380.43 326.85"/><polyline class="cls-2" points="94.65 326.85 80.72 316.24 9.84 316.24"/><polyline class="cls-2" points="94.65 326.85 118.11 344.71 237.54 344.71"/><polyline class="cls-2" points="118.11 354.2 118.11 455.22 80.72 316.24"/><polygon class="cls-4" points="237.54 410.01 129.09 410.01 129.09 420.06 133.74 415.41 237.54 415.41 341.33 415.41 345.99 420.06 345.99 410.01 237.54 410.01"/><line class="cls-3" x1="197.53" y1="364.62" x2="197.53" y2="396.24"/><line class="cls-3" x1="157.53" y1="364.62" x2="157.53" y2="396.24"/><line class="cls-2" x1="474.08" y1="473.64" x2="435.05" y2="473.64"/><line class="cls-2" x1="1" y1="473.64" x2="40.03" y2="473.64"/><line class="cls-2" x1="414.65" y1="473.64" x2="60.43" y2="473.64"/><line class="cls-2" x1="335.94" y1="421.06" x2="335.94" y2="446.36"/><line class="cls-2" x1="316.03" y1="421.06" x2="316.03" y2="437.62"/><line class="cls-2" x1="296.68" y1="421.06" x2="296.68" y2="442.08"/><line class="cls-2" x1="286.64" y1="421.06" x2="286.64" y2="429.34"/><line class="cls-2" x1="277.54" y1="421.06" x2="277.54" y2="447.29"/><line class="cls-2" x1="257.06" y1="421.06" x2="257.06" y2="435.38"/><line class="cls-2" x1="237.54" y1="421.06" x2="237.54" y2="439.85"/><line class="cls-2" x1="216.87" y1="421.06" x2="216.87" y2="429.34"/><line class="cls-2" x1="207.38" y1="421.06" x2="207.38" y2="445.43"/><line class="cls-2" x1="187.85" y1="421.06" x2="187.85" y2="435.38"/><line class="cls-2" x1="168.13" y1="421.06" x2="168.13" y2="431.57"/><line class="cls-2" x1="157.53" y1="421.06" x2="157.53" y2="440.59"/><line class="cls-2" x1="138.36" y1="421.06" x2="138.36" y2="446.55"/><line class="cls-2" x1="72.5" y1="357.92" x2="52.24" y2="357.92"/><line class="cls-2" x1="20.51" y1="385.73" x2="49.8" y2="385.73"/><line class="cls-2" x1="82.92" y1="439.85" x2="94.65" y2="439.85"/><line class="cls-2" x1="414.65" y1="347.87" x2="430.45" y2="347.87"/><line class="cls-2" x1="421.15" y1="396.24" x2="452.03" y2="396.24"/><line class="cls-2" x1="390.64" y1="423.78" x2="407.75" y2="423.78"/><path class="cls-2" d="M119.55,470.13a8.22,8.22,0,0,1-.3-2.23,8.51,8.51,0,0,1,8.51-8.51,8.88,8.88,0,0,1,1.72.17"/><path class="cls-2" d="M134.73,470.18a13.15,13.15,0,0,1-.2-2.28A13.49,13.49,0,0,1,154.26,456"/><path class="cls-2" d="M162.94,455.22a23.77,23.77,0,0,1,38.3-2.63"/><path class="cls-2" d="M159.39,470.21c-.07-.76-.11-1.53-.11-2.31a23.93,23.93,0,0,1,1.32-7.84"/><path class="cls-2" d="M211.12,455.65a13.88,13.88,0,0,1,20.43,12.25,13.16,13.16,0,0,1-.19,2.28"/><path class="cls-2" d="M204,470.18a14.22,14.22,0,0,1-.19-2.28,13.84,13.84,0,0,1,3.09-8.73"/><path class="cls-2" d="M231.42,453.51a18.65,18.65,0,0,1,30.51,14.39c0,.64,0,1.28-.09,1.91"/><path class="cls-2" d="M266.73,454a13.83,13.83,0,0,1,9.13,3.42"/><path class="cls-2" d="M277.84,470.21a9.26,9.26,0,0,1-.3-2.31,9.1,9.1,0,1,1,18,1.83"/><path class="cls-2" d="M296,457.47a18.66,18.66,0,0,1,34.12,10.43c0,.64,0,1.28-.1,1.91"/><path class="cls-2" d="M334.68,456.23a13.43,13.43,0,0,1,20.08,11.67,13.15,13.15,0,0,1-.2,2.28"/><polyline class="cls-2" points="247.28 296.24 237.54 286.5 227.8 296.24"/><line class="cls-2" x1="237.54" y1="295.41" x2="237.54" y2="344.71"/><polyline class="cls-2" points="247.28 316.25 237.54 306.51 227.8 316.25"/><polyline class="cls-2" points="247.28 336.25 237.54 326.51 227.8 336.25"/><polyline class="cls-2" points="277.28 286.24 267.54 276.5 257.8 286.24"/><line class="cls-2" x1="267.54" y1="285.41" x2="267.54" y2="344.71"/><polyline class="cls-2" points="277.28 306.25 267.54 296.51 257.8 306.25"/><polyline class="cls-2" points="277.28 326.25 267.54 316.51 257.8 326.25"/><polyline class="cls-2" points="187.27 276.24 177.53 266.5 167.79 276.24"/><line class="cls-2" x1="177.53" y1="275.4" x2="177.53" y2="344.71"/><polyline class="cls-2" points="187.27 296.24 177.53 286.5 167.79 296.24"/><polyline class="cls-2" points="187.27 316.25 177.53 306.51 167.79 316.25"/><polygon class="cls-2" points="90.3 267.27 68.14 267.27 29.61 276.89 128.82 276.89 90.3 267.27"/><line class="cls-2" x1="128.82" y1="276.89" x2="128.82" y2="282.62"/><line class="cls-2" x1="29.61" y1="276.89" x2="29.61" y2="282.62"/><polyline class="cls-2" points="64.56 310.24 68.27 276.89 90.17 276.89 95.05 320.8"/><rect class="cls-5" x="68.14" y="237.21" width="22.16" height="30.05"/><polygon class="cls-2" points="90.3 227.59 68.14 227.59 29.61 237.21 128.82 237.21 90.3 227.59"/><line class="cls-2" x1="128.82" y1="237.21" x2="128.82" y2="242.93"/><line class="cls-2" x1="29.61" y1="237.21" x2="29.61" y2="242.93"/><polygon class="cls-2" points="90.3 187.89 68.14 187.89 39.56 197.44 118.88 197.44 90.3 187.89"/><line class="cls-2" x1="118.88" y1="197.44" x2="118.88" y2="203.3"/><line class="cls-2" x1="39.56" y1="197.44" x2="39.56" y2="203.3"/><polyline class="cls-2" points="68.14 237.21 90.3 247.28 68.14 257.2 90.3 267.27"/><line class="cls-2" x1="68.14" y1="276.89" x2="90.3" y2="286.96"/><line class="cls-2" x1="65.8" y1="299.04" x2="94.06" y2="311.87"/><line class="cls-2" x1="91.34" y1="287.44" x2="65.8" y2="299.04"/><rect class="cls-5" x="68.14" y="197.52" width="22.16" height="30.05"/><polyline class="cls-2" points="68.14 197.52 90.3 207.59 68.14 217.51 90.3 227.58"/><polygon class="cls-2" points="79.22 158.29 68.14 187.89 90.3 187.89 79.22 158.29"/><line class="cls-2" x1="68.14" y1="158.29" x2="90.3" y2="158.29"/><polyline class="cls-2" points="455.47 247.03 296.68 247.03 296.68 266.5 445.43 266.5"/><line class="cls-2" x1="306.17" y1="266.5" x2="306.17" y2="341.08"/><rect class="cls-2" x="326.64" y="286.52" width="19.72" height="19.72"/><polygon class="cls-6" points="306.17 271.78 306.17 266.5 445.43 266.5 306.17 271.78"/><polygon class="cls-6" points="346.36 286.52 329.19 286.52 326.64 286.52 326.64 289.08 326.64 306.25 329.19 306.25 329.19 289.08 346.36 289.08 346.36 286.52"/><rect class="cls-2" x="366.64" y="286.52" width="19.72" height="19.72"/><polygon class="cls-6" points="386.36 286.52 369.2 286.52 366.64 286.52 366.64 289.08 366.64 306.25 369.2 306.25 369.2 289.08 386.36 289.08 386.36 286.52"/><rect class="cls-2" x="406.65" y="286.52" width="19.72" height="19.72"/><polygon class="cls-6" points="426.37 286.52 409.2 286.52 406.64 286.52 406.64 289.08 406.64 306.25 409.2 306.25 409.2 289.08 426.37 289.08 426.37 286.52"/><polyline class="cls-2" points="151.01 252.06 229.57 192.96 249.52 212.45"/><polyline class="cls-2" points="267.48 227.39 346.03 168.29 385.94 207.73"/><polyline class="cls-2" points="207.59 266.16 243.09 239.46 258.39 254.56"/></g></g></svg>