<svg xmlns="http://www.w3.org/2000/svg" viewBox="0 0 321.15 538.73"><defs><style>.cls-1,.cls-16,.cls-4,.cls-7,.cls-9{fill:#1d1d1b;}.cls-2,.cls-3{fill:none;}.cls-16,.cls-2,.cls-3{stroke:#1d1d1b;stroke-miterlimit:10;}.cls-16,.cls-2{stroke-width:0.5px;}.cls-3{stroke-width:0.25px;}.cls-4,.cls-7{font-size:15px;font-family:MyriadPro-Bold, Myriad Pro;}.cls-4,.cls-7,.cls-9{font-weight:700;}.cls-5{letter-spacing:0.01em;}.cls-6{letter-spacing:-0.01em;}.cls-7{letter-spacing:0.01em;}.cls-8{letter-spacing:0em;}.cls-9{font-size:16.47px;font-family:MyriadPro-BoldSemiCn, Myriad Pro;}.cls-10{letter-spacing:0.01em;}.cls-11{letter-spacing:-0.02em;}.cls-12{letter-spacing:-0.01em;}.cls-13{letter-spacing:0em;}.cls-14{letter-spacing:-0.01em;}.cls-15{letter-spacing:-0.01em;}</style></defs><g id="Livello_2" data-name="Livello 2"><g id="Livello_2-2" data-name="Livello 2"><rect class="cls-1" x="149.23" y="348.34" width="22.7" height="71.66" rx="2.78"/><circle class="cls-2" cx="160.58" cy="278.19" r="22.47"/><path class="cls-2" d="M215.18,177.63v45h10.6V177.72a12.17,12.17,0,0,0-1.49-.09Z"/><path class="cls-2" d="M220.48,236.16a5.31,5.31,0,0,0,5.12-4H215.36a5.33,5.33,0,0,0,5.12,4Z"/><path class="cls-2" d="M243.12,420H78v89a11.79,11.79,0,0,1-.57,3.63H243.69a11.79,11.79,0,0,1-.57-3.63Z"/><path class="cls-2" d="M95.37,177.72v44.95H106v-45H96.86A12.29,12.29,0,0,0,95.37,177.72Z"/><path class="cls-2" d="M100.67,236.16a5.33,5.33,0,0,0,5.12-4H95.55a5.32,5.32,0,0,0,5.12,4Z"/><path class="cls-2" d="M243.12,420H78v89a11.79,11.79,0,0,1-.57,3.63H243.69a11.79,11.79,0,0,1-.57-3.63Z"/><rect class="cls-2" x="21.1" y="17.74" width="56.93" height="503.25" rx="12"/><rect class="cls-2" x="243.12" y="17.74" width="56.93" height="503.25" rx="12"/><rect class="cls-2" x="0.25" y="0.25" width="320.65" height="17.49" rx="8.74"/><rect class="cls-2" x="0.25" y="520.99" width="320.65" height="17.49" rx="8.74"/><path class="cls-2" d="M243.12,509V420H78v89a11.79,11.79,0,0,1-.57,3.63H243.69A11.79,11.79,0,0,1,243.12,509Z"/><path class="cls-2" d="M78,29.74V232.5a11.68,11.68,0,0,0,5.66-10v-31.7a13.2,13.2,0,0,1,13.17-13.16H224.29a13.2,13.2,0,0,1,13.17,13.16v31.7a11.68,11.68,0,0,0,5.66,10V29.74a12,12,0,0,1,12-12H66A12,12,0,0,1,78,29.74Z"/><path class="cls-2" d="M145.18,232.16v1.54a4.76,4.76,0,0,0,4.75,4.74h21.29A4.76,4.76,0,0,0,176,233.7v-1.54Z"/><path class="cls-2" d="M78.52,232.16H242.63a11.63,11.63,0,0,1-5.16-9.49H83.68A11.63,11.63,0,0,1,78.52,232.16Z"/><rect class="cls-1" x="149.23" y="314.66" width="22.7" height="33.69" rx="2.78"/><rect class="cls-3" x="107.87" y="180.25" width="105.4" height="41.01" rx="3.6"/><line class="cls-3" x1="110.48" y1="182.95" x2="210.67" y2="182.95"/><line class="cls-3" x1="110.48" y1="185.35" x2="210.67" y2="185.35"/><line class="cls-3" x1="110.48" y1="187.75" x2="210.67" y2="187.75"/><line class="cls-3" x1="110.48" y1="190.15" x2="210.67" y2="190.15"/><line class="cls-3" x1="110.48" y1="192.55" x2="210.67" y2="192.55"/><line class="cls-3" x1="110.48" y1="194.95" x2="210.67" y2="194.95"/><line class="cls-3" x1="110.48" y1="197.35" x2="210.67" y2="197.35"/><line class="cls-3" x1="110.48" y1="199.75" x2="210.67" y2="199.75"/><line class="cls-3" x1="110.48" y1="202.15" x2="210.67" y2="202.15"/><line class="cls-3" x1="110.48" y1="204.55" x2="210.67" y2="204.55"/><line class="cls-3" x1="110.48" y1="206.95" x2="210.67" y2="206.95"/><line class="cls-3" x1="110.48" y1="209.35" x2="210.67" y2="209.35"/><line class="cls-3" x1="110.48" y1="211.75" x2="210.67" y2="211.75"/><line class="cls-3" x1="110.48" y1="214.15" x2="210.67" y2="214.15"/><line class="cls-3" x1="110.48" y1="216.55" x2="210.67" y2="216.55"/><line class="cls-3" x1="110.48" y1="218.95" x2="210.67" y2="218.95"/><text class="cls-4" transform="translate(95.32 495.57)"><tspan class="cls-5">O</tspan><tspan class="cls-6" x="10.9" y="0">ff</tspan><tspan x="20.56" y="0">set</tspan></text><text class="cls-7" transform="translate(189.99 495.57)">G<tspan class="cls-8" x="10.35" y="0">ain</tspan></text><circle class="cls-2" cx="115.57" cy="473.92" r="6.14"/><circle class="cls-2" cx="115.57" cy="473.92" r="2.51"/><path class="cls-2" d="M113.31,475a1.85,1.85,0,0,0,.21.33l4.44-2.13a1.63,1.63,0,0,0-.13-.37,3.79,3.79,0,0,0-.2-.34l-4.45,2.14A1.63,1.63,0,0,0,113.31,475Z"/><circle class="cls-2" cx="205.58" cy="473.92" r="6.14"/><circle class="cls-2" cx="205.58" cy="473.92" r="2.51"/><path class="cls-2" d="M203.25,473a2.38,2.38,0,0,0-.11.38l4.58,1.84a3,3,0,0,0,.19-.35,2.72,2.72,0,0,0,.11-.38l-4.59-1.84A2.86,2.86,0,0,0,203.25,473Z"/><path class="cls-2" d="M166.26,95.7A19.54,19.54,0,0,1,165,94.19a10.32,10.32,0,1,1,1.55-.91c.33.39.67.79,1,1.19s.65.66,1,1a13,13,0,1,0-1.53,1C166.75,96.2,166.5,96,166.26,95.7Z"/><path class="cls-2" d="M172.11,91.28a11.62,11.62,0,0,1-1,1.56c2,2.4,3.15,4.65,2.49,5.28s-3.44-.93-6-3.65c-.37-.4-.71-.8-1-1.19h0c-1.91-2.3-2.91-4.42-2.27-5s2.64.49,4.79,2.47a10.38,10.38,0,0,0,.89-1.6c-2.87-2.41-5.78-3.43-7-2.27s-.33,4.27,2.05,7.33h0c.18.24.38.48.59.73l0,0c.21.25.44.49.67.74s.49.5.74.74c3.13,3,6.55,4.37,7.91,3.08S175,94.62,172.11,91.28Z"/><text class="cls-9" transform="translate(99.24 116.95) scale(0.91 1)"><tspan class="cls-10">Q</tspan><tspan x="10.75" y="0">uanser </tspan><tspan class="cls-11" x="60.58" y="0">C</tspan><tspan x="69.14" y="0">olsu</tspan><tspan class="cls-12" x="97.76" y="0">n</tspan><tspan x="106.68" y="0">ting</tspan><tspan class="cls-13" x="-1.05" y="19.76">M</tspan><tspan x="11.9" y="19.76">agnetic </tspan><tspan class="cls-14" x="66.08" y="19.76">L</tspan><tspan class="cls-15" x="73.71" y="19.76">e</tspan><tspan x="81.76" y="19.76">vit</tspan><tspan class="cls-14" x="99.86" y="19.76">a</tspan><tspan x="107.89" y="19.76">tion</tspan></text><line class="cls-16" x1="72.56" y1="19.74" x2="248.59" y2="19.74"/></g></g></svg>