<?xml version="1.0" encoding="utf-8"?>
<!-- Generator: Adobe Illustrator 25.0.1, SVG Export Plug-In . SVG Version: 6.00 Build 0)  -->
<svg version="1.1" id="Livello_1" xmlns="http://www.w3.org/2000/svg" xmlns:xlink="http://www.w3.org/1999/xlink" x="0px" y="0px"
	 viewBox="0 0 126 93" style="enable-background:new 0 0 126 93;" xml:space="preserve">
<style type="text/css">
	.st0{fill:#738FA5;}
	.st1{fill:none;stroke:#FFFFFF;stroke-width:0.463;stroke-miterlimit:10;}
	.st2{fill:#C4D0DC;}
	.st3{fill:#FFFFFF;}
	.st4{fill:#97BDDC;}
	.st5{fill:none;stroke:#1D1D1B;stroke-width:0.263;stroke-linecap:round;stroke-linejoin:round;}
	.st6{fill:none;stroke:#1D1D1B;stroke-width:0.238;stroke-linecap:round;stroke-linejoin:round;}
</style>
<g>
	<path class="st0" d="M89.8,30.2C88.9,45,76.2,56.2,61.5,55.3C46.8,54.4,35.6,41.8,36.4,27C37.3,12.3,50,1.1,64.7,2
		c14.5,0.9,25.7,13.2,25.1,27.7"/>
</g>
<path class="st1" d="M90.8,30.6l-2.5-0.2 M90.7,31.7l-2.5-0.3 M90.5,33l-2.4-0.4 M90.3,34.3l-2.4-0.5 M90,35.6l-2.4-0.6 M89.6,36.8
	l-2.4-0.7 M89.2,38l-2.3-0.8 M88.8,39.2l-2.3-0.9 M88.2,40.4L86,39.4 M87.6,41.6l-2.2-1.2 M87,42.7l-2.1-1.3 M86.3,43.9l-2.1-1.4
	 M85.6,44.9l-2-1.4 M84.8,45.9l-1.9-1.5 M83.9,46.9l-1.9-1.6 M83.1,47.9l-1.8-1.7 M82.1,48.8L80.4,47 M81.2,49.7l-1.6-1.9
	 M80.2,50.5l-1.5-2 M79.1,51.3l-1.4-2 M78,52l-1.3-2.1 M76.9,52.7l-1.2-2.1 M75.8,53.3l-1.1-2.2 M74.6,53.9l-1-2.2 M73.4,54.4
	l-0.9-2.3 M72.2,54.9l-0.8-2.3 M71,55.3l-0.7-2.4 M69.7,55.6l-0.6-2.4 M68.4,55.9l-0.5-2.4 M67.1,56.1l-0.4-2.4 M65.8,56.3l-0.2-2.5
	 M64.6,56.4l-0.1-2.5 M63.3,56.4l0-2.5 M61.9,56.4l0.1-2.5 M60.7,56.3l0.2-2.5 M59.4,56.2l0.3-2.5 M58.1,56l0.4-2.4 M56.8,55.8
	l0.5-2.4 M55.5,55.4l0.7-2.4 M54.3,55.1l0.8-2.4 M53,54.6l0.9-2.3 M51.9,54.1l1-2.3 M50.7,53.6l1.1-2.2 M49.5,53l1.2-2.2 M48.4,52.3
	l1.3-2.1 M47.3,51.6l1.4-2 M46.2,50.9l1.5-2 M45.2,50.1l1.6-1.9 M44.2,49.2l1.7-1.8 M43.3,48.3l1.7-1.8 M42.4,47.4l1.8-1.7
	 M41.5,46.4l1.9-1.6 M40.7,45.4l2-1.5 M39.9,44.3l2-1.4 M39.2,43.2l2.1-1.3 M38.6,42.1l2.2-1.2 M38,41l2.2-1.1 M37.4,39.8l2.3-1
	 M36.9,38.6l2.3-0.9 M36.5,37.4l2.3-0.8 M36.1,36.1l2.4-0.7 M35.7,34.9l2.4-0.5 M35.5,33.6l2.4-0.5 M35.3,32.3l2.5-0.3 M35.1,31
	l2.5-0.2 M35,29.7l2.5-0.1 M35,28.4l2.5,0 M35.1,27.1l2.5,0.1 M35.1,25.8l2.5,0.2 M35.3,24.5l2.4,0.4 M35.5,23.2l2.4,0.5 M35.8,22
	l2.4,0.6 M36.1,20.7l2.4,0.7 M36.5,19.5l2.3,0.8 M37,18.2l2.3,0.9 M37.5,17l2.2,1 M38,15.9l2.2,1.1 M38.7,14.7l2.2,1.2 M39.3,13.6
	l2.1,1.3 M40,12.5l2,1.4 M40.8,11.5l2,1.5 M41.6,10.4l1.9,1.6 M42.5,9.5l1.8,1.7 M43.4,8.5l1.7,1.8 M44.4,7.7L46,9.5 M45.4,6.8
	l1.6,1.9 M46.4,6l1.5,2 M47.4,5.3l1.4,2.1 M48.5,4.6l1.3,2.1 M49.7,3.9l1.2,2.2 M50.8,3.3l1.1,2.2 M52,2.8l1,2.3 M53.2,2.3l0.9,2.3
	 M54.5,1.9l0.8,2.4 M55.7,1.5l0.6,2.4 M57,1.2l0.5,2.4 M58.3,1l0.4,2.4 M59.5,0.8l0.3,2.5 M60.8,0.6L61,3.1 M62.2,0.6L62.2,3
	 M63.4,0.6l0,2.5 M64.8,0.6l-0.2,2.5 M66.1,0.7l-0.3,2.5 M67.3,0.9L67,3.3 M68.6,1.1l-0.5,2.4 M69.9,1.4l-0.6,2.4 M71.1,1.8
	l-0.7,2.4 M72.4,2.2l-0.8,2.3 M73.6,2.7l-0.9,2.3 M74.8,3.2l-1,2.2 M76,3.8l-1.2,2.2 M77.1,4.4l-1.3,2.1 M78.2,5.1l-1.4,2.1
	 M79.3,5.8l-1.5,2 M80.3,6.6l-1.5,1.9 M81.3,7.4l-1.6,1.9 M82.3,8.3l-1.7,1.8 M83.2,9.2l-1.8,1.7 M84.1,10.2l-1.9,1.6 M84.9,11.2
	L83,12.7 M85.7,12.2l-2,1.4 M86.4,13.3l-2.1,1.3 M87.1,14.4L85,15.7 M87.7,15.6l-2.2,1.1 M88.3,16.7l-2.2,1 M88.8,17.9l-2.3,0.9
	 M89.3,19.2L87,20 M89.7,20.4l-2.4,0.7 M90.1,21.6l-2.4,0.6 M90.3,22.9l-2.4,0.5 M90.6,24.2l-2.4,0.4 M90.7,25.5l-2.5,0.3
	 M90.8,26.8l-2.5,0.2 M90.9,28.1l-2.5,0 M90.9,29.4l-2.5-0.1"/>
<g>
	<path class="st2" d="M58.6,29.4c0,0,0.3,0.1,0.3,0.1l0.7,0.9c0,0,1,0.6,1.2,0.5c0.2-0.1,0.3-0.4,0.4-0.4c0.1,0,0.3-0.2,0.4-0.2
		c0.1,0,0.3-0.3,0.3-0.3s0.5,0.1,0.5-0.2c0-0.3,0-0.9,0-0.9s0.4-0.2,0.4-0.7c0.1,0,0.7-0.1,0.7-0.1c0.5-0.2,0.4-0.7,0.3-1
		c-0.1-0.3-0.7-0.6-0.7-0.6c0.3-0.4,0-0.6,0-0.6c-0.1-0.3-0.4-0.4-0.6-0.4l-0.3,0l-1.2-0.7L59,24.6l-1.9,2.6l-0.7-0.3v-1.7l0.8-2.3
		l0.9-0.9l0.9,0.7l2.9,0.1c0,0,1.1,0.1,1.2-0.1c0.3-0.4,0.6-1,0.6-1l0,0.1c0.1,0.1,0.2,0.1,0.2,0.1s0.3,0,0.3,0.1
		c0,0,0.1-0.2,0.4-0.4c0.4-0.3,0.1-0.5,0.2-0.8c0.1-0.3-0.2-0.5-0.2-0.5l2.3,0.7l0,0c-0.1,0.2-0.2,0.6-0.3,0.6
		c-0.2,0.1,0.1,0.5,0,0.8c-0.1,0.2,0.2,0.4,0.2,0.4l0.1,0c0,0.3,0,0.6,0,0.9c0,0,0.1,0.5,0.4,0.9h0l-0.1,0c0,0-0.1,0.4-0.3,0.5
		c-0.1,0.1-0.8,1-0.7,1.5c0.1,0.6,0.4,1.6,0.4,1.6l0.3,0l0,0.1c0,0-0.2,0.7-0.4,0.8c-0.1,0.1-0.5,0.4-0.9,1.5l0,0c0,0-0.4-0.4-1,0.1
		c-0.4,0.4-0.5,0.4-0.5,0.4c0,0,0,0,0,0l0,0l0,0c0,0,0,0,0,0c-0.4,0.5-0.4,0.5-0.4,0.6c0,0.1-0.2,0.9-0.2,1c0,0.1,0,0.3-0.1,0.4
		c-0.1,0-0.4,0.3-0.4,0.2c0,0-0.3-0.4-0.4-0.5c-0.1,0-0.3,0-0.2,0.1c0.1,0.2-0.5,0.1-0.1,0.4l0.4,0.3c0,0,0.4,0.3,0.6,0.4
		c0.2,0.1,0.6,0,0.8-0.3l0.1,0c0,0.2-0.1,0.4-0.1,0.5c-0.1,0.1-0.2,0.6-0.2,0.7c0,0,0.2,0.5,0.4,0.1l0.3-0.3l0.3-0.4l0,0
		c-0.2,0.7-0.4,1.4-0.5,1.6c-0.3,0.6-0.6,1-0.6,1.4c0,0.3-0.1,0.7,0.1,1h0l0,0c-0.8-0.5-1.3,0.2-2.1,0.5c-0.8,0.3-1.7,0.3-1.7,0.3
		l0-0.1C59.2,39,58.3,38,58.3,38l-1.4-1.4c0.4-1.9,1.3-2,1.3-2l0,0c0.4-1,0.7-2.8,0.8-3.3c0,0-0.1-0.5-0.1-0.7"/>
	<path class="st3" d="M59.3,24.5c0,0-0.3,0.1-0.5,0.2c-0.1,0.1-0.7,0.5-0.8,0.6s-1,0.8-1,0.9c-0.1,0.1-0.1,0.4-0.1,0.6
		s0.4,1.1,0.5,1.2c0,0.1,0.4,0.2,0.4,0.3c0,0.1,0.1,0.4,0.6,0.7l-0.1,0.9l0.3-0.2c0,0,1.2,0.1,1.4-0.2c0.1-0.2,0.6-0.7,0.9-0.8
		c0.3-0.2,1.1-0.7,1.3-0.8s0.7,0.2,0.9,0.2c0.2,0,1.3-0.2,0.8-0.9c-0.5-0.6-0.7-1-0.7-1.1c0-0.2-0.2-0.7-0.9-0.8
		c-0.7-0.1-1-0.6-1-0.6L59.3,24.5z"/>
	<path class="st3" d="M72,19.9c0,0-1.2-0.5-1.5-0.5c-0.3-0.1-1.7,0.2-2.1,0.5c-0.4,0.2-0.7,0.4-0.7,0.6c-0.1,0.2-0.7,0.4-0.7,0.5
		s-0.2,0.7-0.3,0.8c0,0.1,0,0.8,0.1,0.9s0.1,0.7,0.2,0.9c0.1,0.1,0.3,1,0.7,1.3c0.4,0.3,1,0.4,1.1,0.6c0.1,0.2,0.5,1.1,0.7,1
		c0.2-0.1,0.4-0.4,0.6-0.3c0.3,0.1,0.9,0.3,1.3-0.1c0.4-0.4,0.8-1.2,1.3-1.5c0.5-0.2,1-0.6,1.3-1.3c0.2-0.6,0.6-1.7,0.4-2.3
		c-0.2-0.6-0.8-0.9-1-0.9C73.1,20.1,72,19.9,72,19.9"/>
	<path class="st2" d="M72.8,36.7c0,0,0.4-7.1,5.1-12.6l0,0c0.6,0.1,1.2,0.1,1.7-0.3l0,0c-6.2-1.7-2.2-5.8-1.5-6.4l0-0.1
		c0.4,0.2,0.9-0.2,2.6,0.7c0.1,0.1,0.9-0.4,1.2-0.4c0.5,0,1.7,1.1,1.8,1.4c0.1,0.1,0.1,0.7,0,1.1c-0.2,0.4-0.6,0.6-0.5,0.8
		c0.5,1,0.7,2,1,3.7c0,0,0.3,1.5,0.4,3.2c0.1,1.3-0.1,2.6,0,3.6c0.1,1.7-1.3,4.7-1.3,6.5c0,0.5,0.3,2.9,1.1,3.1c0,0-2.7,0.3-3.9,0.2
		c-0.5,0-0.5,0-1.1,0c-1.9-0.1-3.8-0.2-3.9-0.3l-0.1,0c-0.1-0.4-0.2-1.1,0-1.5c0.3-0.5,3.3-4.7,3.1-7.7l0,0h0
		c-0.2,0.1-0.3,0.2-0.4,0.4c-0.5,0.7-2.4,2.2-3.6,3.2c-0.4,0.3-0.8,0.6-1,0.8C73.2,36.1,72.8,36.7,72.8,36.7"/>
	<path class="st3" d="M72.7,41.9c0.1-0.2,0.2-0.5,0.2-0.6c0.1-0.2,0.3-1,0.3-1.2c0-0.3,0.2-0.9,0.5-1.6c0.3-0.7,0.6-3.2,0.6-3.2
		l0-0.1c1.3-1,3.2-2.6,3.6-3.2c0.1-0.2,0.3-0.3,0.4-0.4h0l0,0c0.2,3-2.8,7.2-3.1,7.7c-0.2,0.4-0.1,1.1,0,1.5c0,0.2,0.1,0.3,0.1,0.3
		s0.6,0.8,0.6,1.1c0,0.2-0.4,0.6-0.5,0.7c-0.1,0.1-0.4,0.2-0.6,0.3c-0.1,0.1-0.4,0.1-0.6,0c-0.2,0-0.6-0.2-0.6-0.2s-0.4,0.1-0.7,0.1
		c-0.3,0-0.3-0.4-0.3-0.7C72.6,42.2,72.7,42.1,72.7,41.9"/>
	<path class="st2" d="M70,19.2c0,0,0.4-0.6,1.1-0.8c0.2-0.1,0.3-0.1,0.5-0.2c0.7-0.4,2.1-1,3.4-1c0.5-0.1,1.4-0.1,1.9,0l0,0.1l0,0
		c-1.6,0.7-2.5,3.3-2.5,3.4l0,0c-0.1-0.5-0.3-0.5-0.7-0.6c-0.9-0.2-1.8-0.2-2.7-0.5l0,0c-0.2-0.1-0.5-0.2-0.5-0.2
		c-0.1,0-0.3,0-0.5,0L70,19.2L70,19.2z"/>
	<path class="st2" d="M74.3,20.7c0-0.1,0.8-2.7,2.5-3.4c0.3-0.1,0.7-0.2,1.1-0.1c0,0,0.1,0,0.2,0.1l0,0.1c-0.6,0.6-4.7,4.7,1.5,6.4
		l0,0c-0.5,0.4-1.1,0.4-1.7,0.3c-1.8-0.4-3.4-2.5-3.4-2.5l0,0C74.4,21.3,74.4,21,74.3,20.7L74.3,20.7z"/>
	<path class="st2" d="M68.8,31.7c0.4-0.8,0.6-1.6,0.6-2.2l0.8-1.8L70,27.7c0.2-0.1,0.5-0.2,0.7-0.4c0.3-0.4,1.2-1.8,1.2-1.8l0,0
		c0.1-0.1,0.2-0.3,0.3-0.4c0,0-0.1-0.2,0.4-0.6l0.1-0.1l0.1-0.1l0.1-0.1c0,0,0.8,0.2,0.7,0.4c0,0.2-0.4,1.6-0.4,1.9
		c0,0.3-0.1,0.6,0.1,0.9c0.1,0.4,0.3,1.2,0.3,1.6c0,0.4-0.2,1.4-0.3,2c0,0.1,0,0.2-0.1,0.3l0,0c0,0-0.5,0-1.4,0.1v0
		C71,31.3,70,31.4,68.8,31.7L68.8,31.7z"/>
	<path class="st2" d="M71.3,37.4c-0.7-1.8,0.6-3.4,0.7-3.7c0.1-0.4,0.6-1,0.6-1l0.5-1.3l0.1-0.3c0-0.1,0-0.2,0.1-0.3
		c0.1-0.6,0.3-1.6,0.3-2c0-0.4-0.2-1.3-0.3-1.6c-0.1-0.3-0.1-0.6-0.1-0.9c0-0.3,0.4-1.6,0.4-1.9c0-0.2-1-0.1-1-0.1l-0.1-0.1l0.1-0.2
		l0.2-0.4c0.1,0,0.5-0.3,0.6-0.3c0.9-0.3,1.1-1.4,1.1-1.4s0-0.2,0-0.4l0,0c0,0,1.7,2.2,3.4,2.5l0,0c-4.6,5.5-5.1,12.6-5.1,12.6
		s0.4-0.6,0.5-0.6c0.2-0.2,0.6-0.4,1-0.8l0,0.1c0,0-0.2,2.5-0.6,3.2s-0.5,1.3-0.5,1.6c0,0.3-0.2,1-0.3,1.2c-0.1,0.1-0.2,0.3-0.2,0.6
		l0.4-1.3c0,0-0.8,0.3-1.1-0.7L71.3,37.4z"/>
</g>
<polygon class="st3" points="71.4,43.9 63.9,46.1 63.9,45.5 63.9,45.5 63.9,45 71.5,42.9 "/>
<g>
	<path class="st2" d="M66.4,26.6c-0.1-0.6,0.5-1.4,0.7-1.5c0.1-0.1,0.3-0.5,0.3-0.5l0.1,0h0c0.1,0.1,0.2,0.2,0.3,0.3l0.4,0.4
		c0,0,0.3,0.1,0.3,0.1c0.1,0,0.3,0.1,0.3,0.3c0.1,0.2,0.3,0.9,0.7,0.8l0.3-0.3c0,0,0.4,0.2,0.5,0.2c0.1,0,0.8,0.4,1.6-0.8l0,0
		c0,0-0.9,1.5-1.2,1.8c-0.2,0.2-0.5,0.3-0.7,0.4c-0.2,0.1-0.4,0.1-0.4,0.1l-2.6,0.3l-0.3,0C66.8,28.1,66.5,27.1,66.4,26.6"/>
	<path class="st2" d="M69.6,15.9L69.6,15.9c0.1,0,0.1-0.1,0.2-0.2c0.2-0.2,0.1-0.8,0.1-0.9c0-0.1,0.1-0.2,0.2-0.4
		c0.1-0.1,0.1-0.6,0.1-0.7c0-0.1,0.2-0.2,0.2-0.3c0.1-0.1-0.1-0.6-0.1-0.7c0-0.1,0-0.2,0.1-0.4l0.1,0c0,0,1.8,0.6,2.9,2.5
		c0,0,0.4,0.7,0.4,1.1c0,0.1,0,0.2,0,0.2v0l0,0c0.7,0.5,1,0.9,1,0.9l-0.3,0.1c-1.3,0.2-2.3,0.6-3,1c-0.2,0-0.4,0.1-0.5,0.2l0,0
		C69.3,17.1,69.6,15.9,69.6,15.9L69.6,15.9L69.6,15.9z"/>
	<path class="st3" d="M68.3,39.4c-0.6-0.1-0.5-0.7-0.5-0.7s0.2-0.8,0.3-0.9c0-0.1,0-0.5,0-0.8c0-0.2,0.2-0.8,0.5-1.2
		c0.2-0.3,0.2-1.2,0.2-1.4c0-0.2,0-2.3,0-2.3l0,0h0c0.1-0.2,0.2-0.3,0.3-0.5l0.1,0c1.1-0.2,2-0.4,2.7-0.4l0,0.1
		c-0.2,2.1-0.7,2.8-0.7,2.8s-1,1.5-1.2,1.7c-0.1,0.2-0.1,0.8-0.1,0.9c0,0.1-0.1,0.5-0.1,0.5c-0.1,0.2,0.1,0.6,0.3,0.8
		c0.2,0.2,0.4,0.3,0.5,0.6c0.1,0.2-0.2,0.5-0.5,0.7C69.7,39.5,68.9,39.5,68.3,39.4"/>
	<path class="st3" d="M65.1,12.2c0-0.3,0.3-1.1,0.3-1.2c0-0.1,0.2-0.8,0.4-1c0.1-0.1,0.2-0.2,0.3-0.4C66.3,9.3,66.6,9,66.7,9
		c0.1-0.1,1-0.3,1-0.3s1.1-0.1,1.7,0.5c0,0,0.7,0,0.8,0.4c0.2,0.4,0.6,1.1,0.5,1.3c0,0.2-0.2,0.4-0.1,0.5c0,0.1,0,0.7-0.1,0.9
		c0,0,0,0,0,0.1c-0.1,0.1-0.1,0.3-0.1,0.4c0,0.1,0.2,0.6,0.1,0.7c-0.1,0.1-0.2,0.2-0.2,0.3c0,0.1,0,0.5-0.1,0.6
		c-0.1,0.1-0.2,0.3-0.2,0.4c0,0.1,0.1,0.7-0.1,0.9c-0.1,0.1-0.1,0.1-0.2,0.2c-0.1,0.1-0.2,0.1-0.2,0.1c0-0.1-0.2,0.2-0.2,0.2
		l-0.1,0.2c0,0,0,0.4-0.1,0.4c-0.1,0-0.2-0.5-0.2-0.5l0.2-1l0.1-1.2l0-0.1l0.9-1.5c0-0.1-0.1-0.7-0.2-0.8c-0.1-0.1-0.4-0.5-0.5-0.6
		c0-0.1-0.1-0.6-0.1-0.6s-0.7,0.6-0.8,0.6c-0.2,0.1-0.7,0-0.8,0c-0.1,0-0.4,0.1-0.5,0.2c-0.1,0.2-0.3,0.6-0.4,0.7
		c-0.1,0.1-0.2,0.6-0.2,0.9c0,0.1-0.1,0.2-0.1,0.3c-0.1,0.1-0.1,0.2-0.2,0.3c-0.1,0.2,0,0.3,0.1,0.6c0,0.3,0,0.7-0.1,0.9
		c0,0.1-0.3,0.1-0.3,0.1c-0.1,0-0.3,0.2-0.3,0.2s0.1-0.4,0.1-0.5c0-0.1-0.2-0.6-0.3-0.8C65.3,13.8,65.1,12.5,65.1,12.2"/>
	<path class="st3" d="M64.4,42.6l-0.3,0.1l0.3-1.9l0,0c0,0,0.2-0.3,0.2-0.6c0.1-0.3,0.3-1.1,0.5-1.5c0.2-0.4,0.7-0.4,0.7-0.4l0,0.5
		l0.5,3.4l-0.1,0.2l-0.9-2.3L64.4,42.6z"/>
	<path class="st3" d="M66.5,12.9c0-0.2,0.1-0.7,0.2-0.9c0.1-0.1,0.3-0.6,0.4-0.7c0.1-0.2,0.4-0.2,0.5-0.2c0.1,0,0.6,0.1,0.8,0
		c0.2-0.1,0.8-0.6,0.8-0.6s0.1,0.5,0.1,0.6c0,0.1,0.3,0.5,0.5,0.6c0.1,0.1,0.2,0.7,0.2,0.8l-0.9,1.5l0,0.1L69,14
		c-0.8,0.6-1.7,0.5-1.7,0.5c-0.6-0.2-0.9-1.3-0.9-1.3l-0.1,0h0C66.4,13.1,66.5,13,66.5,12.9"/>
</g>
<polygon class="st3" points="59.9,43.7 64.2,42.7 64.4,42.6 66,42.3 66.2,42.2 67.2,42 71.5,42.9 63.9,45 "/>
<g>
	<path class="st3" d="M63.7,37.4c0-0.4,0.4-0.9,0.6-1.4c0.1-0.3,0.3-1,0.5-1.6c0.2-0.8,0.5-1.6,0.5-1.6c0.1-1,0.3-1.7,0.5-2.3
		c0.4-1.1,0.8-1.4,0.9-1.5c0.1-0.1,0.4-0.8,0.4-0.8l0-0.1l2.6-0.3c0,0,0.2,0,0.4-0.1l0.1,0.1l-0.8,1.8c0.1,0.6-0.2,1.4-0.6,2.2
		c-0.1,0.2-0.2,0.4-0.3,0.5c-0.9,1.7-2.3,3.3-2.4,3.5c-0.1,0.3-0.1,0.6,0.1,1.6c0.2,0.7-0.1,1.2-0.3,1.4l-0.1,0l0-0.5
		c0,0-0.5,0-0.7,0.4c-0.2,0.4-0.5,1.2-0.5,1.5c-0.1,0.3-0.2,0.5-0.2,0.6l0,0c-0.3,0-0.3-0.4-0.3-0.4L64,38.7
		c-0.1-0.1-0.2-0.2-0.2-0.2C63.6,38.1,63.7,37.7,63.7,37.4"/>
	<polyline class="st4" points="64.3,31 64.3,31 64.3,31 64.3,31 	"/>
	<path class="st4" d="M64.3,31C64.3,31,64.3,31,64.3,31L64.3,31z"/>
	<path class="st3" d="M62.4,33.3C62,33,62.6,33,62.5,32.9c-0.1-0.2,0.1-0.2,0.2-0.1c0.1,0,0.4,0.4,0.4,0.5c0,0,0.4-0.2,0.4-0.2
		c0.1,0,0.1-0.3,0.1-0.4c0-0.1,0.2-0.9,0.2-1c0.1-0.1,0-0.1,0.4-0.6c0,0,0,0,0,0h0c0,0,0.1-0.1,0.5-0.4c0.6-0.5,1-0.1,1-0.1l0,0
		c-0.2,0.5-0.4,1.3-0.5,2.3c0,0-0.2,0.8-0.5,1.6l0,0l-0.3,0.4l-0.3,0.3c-0.3,0.3-0.4-0.1-0.4-0.1c-0.1-0.1,0.1-0.6,0.2-0.7
		c0-0.1,0.1-0.3,0.1-0.5l-0.1,0C64,34,63.6,34,63.4,34c-0.2,0-0.6-0.4-0.6-0.4L62.4,33.3z"/>
	<path class="st4" d="M64.3,31C64.3,31,64.3,31,64.3,31L64.3,31z"/>
	<path class="st2" d="M64.6,20.2c0,0,0-0.2,0-0.3c0-0.1-0.3-0.3-0.3-0.3c0,0,0-0.2,0-0.3c-0.1-0.1-0.1-0.5-0.1-0.5c0,0,0-0.1,0-0.1
		l0,0c0,0,0.6-1,0.6-1c0,0,0.8-1.2,0-3.3c-0.1-0.3-0.6,0.3-0.7,0.3l0,0c0.1-0.2,0.2-0.4,0-0.8c-0.3-0.6-1.4-1.2-1.8-1.3
		c-0.1,0-0.2,0-0.3,0l0-0.1c0,0-0.4-0.7,0.3-1.5c0.7-0.8,0.9-0.9,1.2-0.9c0.3,0,0.8-0.1,0.8-0.1s0.9-0.7,1.8-0.1v0
		c-0.1,0.1-0.2,0.3-0.3,0.3c-0.1,0.3-0.4,0.9-0.4,1c0,0.1-0.3,1-0.3,1.2c0,0.3,0.2,1.6,0.2,1.8c0.1,0.2,0.3,0.7,0.3,0.8
		c0,0.1-0.1,0.5-0.1,0.5s0.3-0.2,0.3-0.2c0.1,0,0.3,0,0.3-0.1c0-0.1,0.1-0.6,0.1-0.9c0-0.3-0.1-0.4-0.1-0.6c0-0.1,0.1-0.2,0.2-0.3
		l0.1,0c0,0,0.3,1.1,0.9,1.3c0,0,0.9,0,1.7-0.5l0.1,0L69,15.2l-0.2,1c0,0,0.1,0.4,0.2,0.5c0.1,0,0.2-0.4,0.2-0.4l0.1-0.2
		c0,0,0.1-0.2,0.2-0.1c0,0,0.1,0,0.2-0.1l0,0c0,0-0.3,1.2,1.4,2.4l0,0c-0.7,0.3-1.1,0.8-1.1,0.8l0,0.1c-0.2,0-0.3,0-0.4,0.1
		c-0.1,0-0.6,0.2-0.7,0.2c-0.1,0-0.5,0.3-0.8,0.4c-0.4,0.1-0.2,0.6-0.7,0.7c-0.2,0-0.3,0.1-0.3,0.3"/>
	<path class="st3" d="M60.4,18.1c0.1-0.4,0.4-0.9,0.5-1c0.2-0.1,0.6-0.3,1.4-0.1c0,0,0.3,0.3,0.4,0.3c0.1,0,0.3,0.1,0.5,0.3
		c0.2,0.1,0.2,0.3,0.2,0.3c0,0.1,0.2,0.3,0.2,0.4c0,0,0.2,0.6,0.2,0.7c0,0.1,0.1,0.5,0.1,0.6c0,0.1,0.2,0.6,0,0.7
		c-0.2,0.2,0,1.4-0.1,1.5c-0.2,0.3-0.4,0.9-0.7,1c-0.8,0.2-1.8,0-1.8,0l0.2-1.7c0-0.1-0.1-0.3-0.1-0.4c-0.2-0.4-0.2-0.8-0.2-1
		c0-0.2-0.1-0.5-0.3-0.7C60.5,18.7,60.3,18.5,60.4,18.1"/>
	<path class="st3" d="M59.2,30.1l-0.4,0.1l-0.3-0.7c0.1-0.2,1-0.1,1.1-0.1c0.1-0.1,0.4,0,0.4-0.1c0-0.1,0.2-0.1,0.4-0.2
		c0.2-0.1,0.2-0.3,0.3-0.3c0.1,0,0.3-0.2,0.3-0.2c0-0.1,0.3-0.1,0.4-0.2c0.1,0,0.6-0.3,0.8-0.4c0.1-0.1,0.3-0.1,0.4-0.1
		c0.1,0,0.2,0.3,0.2,0.3c-0.1,0.5-0.4,0.7-0.4,0.7s0,0.7,0,0.9c0,0.3-0.5,0.2-0.5,0.2s-0.2,0.3-0.3,0.3c-0.1,0-0.3,0.2-0.4,0.2
		c-0.1,0-0.3,0.2-0.5,0.3c-0.2,0.1-1-0.2-1-0.2L59.2,30.1z"/>
	<path class="st3" d="M60,14.7c-0.3,0-0.5-0.2-0.5-0.3c0-0.1,0.4-0.3,0.4-0.3s0.5-0.3,1-0.3c0.1,0,0.2,0,0.2,0
		c0.4,0,0.6-0.1,0.9,0.1l0.4,0.2l0.1,0h0c-0.1-0.1-0.1-0.2-0.1-0.2c0-0.1-0.1-0.1,0-0.3c0.1-0.1,0.3,0,0.3,0c0,0,0.1,0.2,0.3,0.3
		c0.2,0.1,0.1,0,0.3,0.6c0,0.1,0,0.2,0,0.3c0,0.3-0.4,0.3-0.8,0.5c-0.5,0.3-1.1,0-1.1,0s-0.8-0.8-0.9-0.8c-0.1-0.1-0.1-0.1-0.2,0
		C60.2,14.7,60.3,14.7,60,14.7"/>
	<path class="st2" d="M61.1,13.8c0,0,0-0.8,0.2-1c0.2-0.1,0.4-0.4,0.7-0.4c0.1,0,0.2,0,0.3,0c0.4,0.2,1.5,0.7,1.8,1.3
		c0.2,0.4,0.1,0.7,0,0.8c-0.1,0.1-0.2,0.2-0.2,0.2c-0.2,0.1-0.7,0.2-0.7,0.2l0,0c0-0.1,0-0.2,0-0.3c-0.1-0.6-0.1-0.5-0.3-0.6
		c-0.2-0.1-0.3-0.3-0.3-0.3c0,0-0.2-0.1-0.3,0c-0.1,0.1,0,0.2,0,0.3c0,0,0.1,0.1,0.1,0.2h0l-0.1,0L62,14
		C61.6,13.8,61.4,13.8,61.1,13.8L61.1,13.8L61.1,13.8z"/>
</g>
<polygon class="st3" points="59.9,43.7 63.9,45 63.9,45.5 63.9,45.6 63.9,45.7 63.9,46.1 59.9,44.7 59.9,43.7 "/>
<g>
	<path class="st3" d="M60,22.9c-0.2-0.1-1,0.1-1.1-0.2c-0.1-0.2-0.2-0.3-0.8-0.7c-0.5-0.4,0-0.8,0.2-0.9c0.1,0,0.1-0.1,0.1-0.1
		c0-0.1,0.1-0.2,0.3-0.4c0.2-0.2,0.1-0.2,0.1-0.7c0-0.5,0.3-0.7,0.3-0.7c-0.1-0.6,0.2-1.1,0.2-1.1c0-0.4,0.6-0.7,0.6-0.7
		c0.3-0.7,1-0.4,1-0.4c0.3-0.1,0.5-0.2,0.5-0.2s0.3,0,0.4,0c0.1,0,0.4-0.1,0.5-0.1c0,0,0.2,0,0.4,0.2c0,0,0.3,0,0.4,0.2
		c0,0.2,0.5,0.1,0.4,0.5c0,0,0.2,0.3,0.3,0.5c0,0.2,0.3,0.1,0.4,0.5c0,0,0,0.1,0,0.1c0,0,0.1,0.4,0.1,0.5c0.1,0.1,0,0.3,0,0.3
		c0,0,0.3,0.2,0.3,0.3c0,0.1-0.1,0.3-0.1,0.3s0.3,0.3,0.2,0.5c-0.1,0.3,0.2,0.5-0.2,0.8c-0.3,0.2-0.4,0.4-0.4,0.4
		c-0.1-0.1-0.4-0.1-0.4-0.1s-0.1,0-0.2-0.1c-0.1-0.1-0.2-0.1-0.2-0.2c0-0.1-0.2-0.1-0.1-0.8l-0.1-0.1c0.2-0.1,0.4-0.2,0.6-0.4
		c0.2-0.1,0-0.7,0-0.7c0-0.1-0.1-0.5-0.1-0.6c0-0.1-0.1-0.3-0.2-0.5c0-0.1,0-0.1-0.1-0.1c0,0-0.2-0.3-0.2-0.4c0-0.1,0-0.2-0.2-0.3
		c-0.2-0.1-0.4-0.2-0.5-0.3c-0.1,0-0.4-0.3-0.4-0.3c-0.8-0.2-1.2,0.1-1.4,0.1c-0.2,0.1-0.5,0.6-0.5,1c-0.1,0.4,0.2,0.6,0.3,0.8
		c0.1,0.2,0.3,0.5,0.3,0.7c0,0.2,0.1,0.6,0.2,1c0,0.1,0.1,0.2,0.1,0.4c0.1,0.3,0.1,0.7,0.1,0.8c-0.1,0.2-0.1,0.6-0.1,0.8
		c0,0.2-0.3,0.4-0.4,0.4C60.8,22.9,60.2,23,60,22.9"/>
	<path class="st3" d="M53,12.1c-0.1-0.4,0.6-0.8,0.6-0.8c0-0.4,0.6-0.4,0.6-0.4c0-0.4,0.8-0.2,0.8-0.2c0.3-0.4,0.3-0.4,0.3-0.4
		c0.4-0.2,1.7-0.1,1.7-0.1c1-0.2,1,0.2,1,0.2c0.7,0.1,0.9,0.3,0.9,0.3c0.2-0.2,0.5,0.1,0.5,0.1C60,11,60,11.5,60,11.5
		c0.7,0.2,0.4,0.7,0.4,0.7c0.4,0.4,0,0.6,0,0.7c0,0.1,0,0.3-0.4,0.3c-0.1,0-0.3,0-0.4-0.1c-0.3-0.1-0.6-0.4-0.8-0.4
		c-0.3-0.1-0.2-0.2-0.2-0.2c-0.2,0-0.1,0.1-0.2-0.1l-0.1,0c0,0,0,0.4-0.1,0.6c-0.2,0.2-0.3,0.2-0.4,0.2c-0.1,0-0.4,0.3-0.6,0.4
		c-0.2,0.1-0.2,0.1-0.3,0.1c-0.1,0-0.3,0.4-0.5,0.3c0,0-0.2-0.2-0.3-0.1c-0.1,0.1-0.5,0.2-0.7,0.1c-0.2-0.1-0.6-0.2-0.6-0.4
		c0-0.1-0.4-0.2-0.6-0.4l-0.1,0c-0.1-0.3-0.4-0.6-0.7-0.8C53.2,12.3,53.1,12.2,53,12.1L53,12.1L53,12.1z"/>
	<path class="st3" d="M54.9,19.6c0-0.4,0.2-0.7,0.3-0.9c0.2-0.3,0.6-0.3,0.6-0.3l0.4,0.1l0.4,0.1l0.3,0c0,0,0.7,0.1,0.7,0.1
		c0.1,0,0.7,0.1,0.7,0.1c0.1,0.2-0.3,0.3-0.3,0.3l-0.6,0.1l0.2,0.3c0.2,0.3-0.2,0.6-0.2,0.6c0.1,0.6-0.3,0.8-0.3,0.8
		c-0.6,0.4-1.2,0.1-1.6-0.2c-0.1-0.1-0.2-0.1-0.3-0.1C54.8,20.4,54.9,20,54.9,19.6"/>
	<path class="st2" d="M55.2,34.7L55.2,34.7c0.4,0,0.9-0.2,1.4-0.5c0,0,0.4-0.3,0.7-0.8h0l0,0c1.4-0.2,1.6-1.8,1.7-2.4l-0.1,0.8
		c0,0-0.3,1.1-0.3,1.1c-0.1,0.5-0.1,0.5-0.5,1.6c-0.1,0.3-0.6,1.4-0.7,1.5l-1.3,1.3l-0.1-0.1c-0.3-0.8-0.2-0.7-0.3-0.9
		C55.7,35.9,55.2,34.8,55.2,34.7L55.2,34.7z"/>
	<path class="st2" d="M52.6,19.4c-0.2-0.2,0-0.7,0-0.7l0-0.1l0.8-0.4c0,0,1.2-0.4,1.9-0.7h0l0.2,0.1c0,0,0.8,0.6,0.9,0.8v0l0,0.1
		l-0.4-0.1c0,0-0.5,0.2-0.6,0.3c-0.1,0.1-0.3,0.5-0.3,0.9c0,0.4-0.1,0.8,0.3,0.9c0.1,0,0.2,0.1,0.3,0.1l0,0c0,0-1.1,0-1.3-0.1
		C53,20.6,52.6,19.4,52.6,19.4"/>
	<path class="st3" d="M53.7,15.7c0.2-0.3,0.3-0.5,0.4-0.9c0.2-0.5,0.1-1.1-0.1-1.6l0.1,0c0.2,0.2,0.6,0.3,0.6,0.4
		c0.1,0.2,0.4,0.2,0.6,0.4c0.2,0.1,0.6,0,0.7-0.1c0.1-0.1,0.3,0.1,0.3,0.1c0.2,0.2,0.4-0.3,0.5-0.3c0.1,0,0.2,0,0.3-0.1
		c0.2-0.1,0.4-0.4,0.6-0.4c0.1,0,0.2,0,0.4-0.2c0.2-0.2,0.1-0.6,0.1-0.6l0.1-0.1c0,0,0.1,0.2,0.2,0.2c0,0-0.1,0.1,0.2,0.2
		c0.2,0,0.5,0.3,0.8,0.4l0,0c0,0-0.1,0.1-0.2,0.3c-0.1,0.2-0.5,1.1-0.6,1.6c-0.1,0.4-0.4,0.1-0.4,0.1c0,0-0.1,0.2-0.2,0.2
		c-0.1,0.1-0.3,0.1-0.3,0.1s-0.1,0.2-0.2,0.2c-0.1,0-0.2,0.2-0.2,0.2c0,0.1,0,0.2-0.2,0.2c-0.2,0-0.7-0.2-0.7-0.2l-0.8-0.4l-0.1-0.1
		l-2,0.5L53.7,15.7z"/>
	<path class="st2" d="M47,30.9c-0.3-0.2-0.1-0.5-0.2-1.2c0-0.7,1.2-1,1.5-1c0.3,0,1.6-0.4,1.6-0.4l1.3-0.5l0,0c0,0,0.1,0.1,0.1,0.1
		c0.1,0.1,0.3,0.3,0.4,0.4c0.1,0.1,0.4,0.1,0.5,0.1c0.1,0,0.4-0.2,0.4-0.2c0.1-0.1,0.1-0.2,0.1-0.4c0-0.1,0.1-0.5,0.1-0.6
		c0-0.1,0.1-0.4,0.1-0.4v0c0.1-0.1,0.3-0.2,0.4-0.2c0.1,0,0.2-0.1,0.2-0.1c0.1,0,0.3,0.1,0.3,0.1s0.4,0.1,0.8,0
		c0.2-0.1,0.2-0.1,0.2-0.2l0,0c0,0,1.4,0.4,2.1,0.8c0,0,0,0,0,0v0l0,0c0,0,0.4,0.2,0.6,0.8c0,0.1,0.1,0.2,0.2,0.2
		c0.1,0.1,0,0.1,0.1,0.2c0.2,0.2,0.4,0.4,0.5,0.5c0.1,0.2,0.2,0.5,0.2,0.5l0,0c0.1,0.5,0.2,1,0.2,1l0.1,0.5c0,0,0,0,0,0
		c0,0.5-0.3,2.2-1.7,2.4l0,0h0c-0.3,0.5-0.7,0.8-0.7,0.8c-0.6,0.3-1,0.5-1.4,0.5v0c-0.8,0-1.2-0.5-1.2-0.5l-0.2,0
		c0.2-0.4,0.5-1,0.5-1.2c0,0,0.9-0.1,1-0.6c0-0.5,0.4-1.1-2.4-2.1c0,0-0.8,0.5-1.2,1.4c-0.2,0.4-0.4,0.9-0.6,1.5l-0.1,0
		c-0.6-0.4-1.9-1.7-2.5-2.4v0l0,0c0,0-0.5,0.2-1,0.5l0,0C47.5,31.3,47.2,31.1,47,30.9"/>
	<path class="st3" d="M50.9,35c0-0.7,0.1-1.4,0.2-1.9c0.1-0.6,0.4-1.1,0.6-1.5c0.4-0.8,1.2-1.4,1.2-1.4c2.7,1,2.4,1.7,2.4,2.1
		c0,0.5-1,0.6-1,0.6c0,0.3-0.3,0.9-0.5,1.2c-0.1,0.2-0.2,0.3-0.2,0.3l-0.4,0.8c0,0-0.5,1.3-0.6,1.5c0,0.3,0.4,0.3,0.6,0.4
		c0.2,0,0.7,0.4,0.7,0.4c0.1,0.1,0.4,0.3,0.4,0.4c0,0.1,0.2,0.2,0.2,0.2c0.1,0.1,0.4,0.2,0.4,0.2s0.6,0.7,0.6,0.8
		c0.1,0.1,0.1,0.2,0.1,0.2c0,0.1-0.2,0.1-0.2,0.1L54.6,39l-0.6-0.2c0.3,0.2,0.5,0.7,0.5,0.7s0.2,0.4,0.3,0.7c0.1,0.2,0,0.3-0.1,0.3
		c-0.1,0-0.3-0.1-0.3-0.1l-0.3-0.5L53.5,39l0.1,0.4l0.1,0.3l0.2,0.5c0,0,0.1,0.4,0.1,0.5c0,0.1,0,0.1-0.1,0.2c-0.1,0-0.2,0-0.2,0
		l-0.6-1.3c0,0,0,0.1,0,0.3c0,0.2-0.4,0.3-0.5,0.3c-0.1,0-0.2,0.1-0.3,0.1c-0.1,0.1-0.1,0-0.1,0c-0.1-0.1-0.1-0.3-0.1-0.3
		c0,0,0.2-0.2,0.3-0.2c0.1-0.1-0.1-0.3-0.1-0.4c0-0.1-0.4-0.3-0.5-0.4c0,0-0.5-0.4-0.5-0.4c-0.3-0.3-0.5-1-0.6-1.9
		C50.9,36.2,50.9,35.6,50.9,35"/>
	<path class="st2" d="M51.4,19.2c0-0.2,0-0.2,0-0.2c0.5-0.4,0.7-1.4,0.8-1.8c0.1-0.4,0.4-0.5,0.7-0.6c0.2-0.1,0.5-0.4,0.7-0.7
		l0.1,0.1l2-0.5l0.1,0.1l0,0c0,0,0.1,0.7-0.3,1.2h0l0.1,0c0,0,0,0.5,0,0.7c0,0-0.2,0.1-0.4,0.2c-0.7,0.3-1.9,0.7-1.9,0.7l-0.8,0.4
		L51.4,19.2L51.4,19.2z"/>
	<path class="st3" d="M47,15.5c-0.6-0.8-0.2-1.5,0.8-2.5c0.8-0.9,3.3-1.1,3.8-1.2l0,0c0.2,0,0.8,0.1,1.3,0.3
		c0.1,0.1,0.3,0.2,0.4,0.3c0.3,0.2,0.5,0.5,0.7,0.8c0.3,0.5,0.3,1.1,0.1,1.6c-0.1,0.3-0.3,0.6-0.4,0.9c-0.3,0.4-0.5,0.6-0.7,0.7
		c-0.3,0.1-0.6,0.2-0.7,0.6c-0.1,0.4-0.4,1.4-0.8,1.8c0,0-0.1,0,0,0.2c0,0.1,0,0.1,0.1,0.2c0.2,0.4,0.8,1.5,0.7,2.4
		c0,0.8,0.1,1.7,0.3,2.3s0.6,1.4,0.8,1.5c0.2,0,0.5,0.1,0.6,0.2c0.1,0.1,0.5,0.3,0.7,0.4c0.1,0,0.2,0.1,0.3,0.2c0,0.1,0,0.1-0.2,0.2
		c-0.4,0.1-0.8,0-0.8,0s-0.2-0.1-0.3-0.1c-0.1,0-0.2,0.1-0.2,0.1c-0.1,0-0.3,0.1-0.4,0.2c0,0,0,0,0,0c0,0-0.1,0.3-0.1,0.4
		c0,0.1-0.1,0.4-0.1,0.6c0,0.1,0,0.3-0.1,0.4c0,0-0.3,0.2-0.4,0.2c-0.1,0-0.4,0-0.5-0.1c-0.1-0.1-0.3-0.3-0.4-0.4
		c0,0-0.1-0.1-0.1-0.1c-0.1-0.1-0.2-0.4-0.2-0.8c0.1-0.4,0.3-0.8,0.3-0.9c0-0.1-0.5-1.4-0.5-1.4s-0.7-1-0.9-1.3
		c-0.1-0.2-0.5-0.6-0.8-1.7c-0.1-0.4-0.2-0.8-0.2-1.3c0,0-0.1-0.3-0.1-0.9c0-0.1,0-0.3,0-0.4c0.1-0.8,0.1-1.9,0.1-2.1
		c0,0,0-0.1,0-0.3l-0.1,0C48.4,17,47.7,16.3,47,15.5"/>
	<path class="st2" d="M44.2,30.7c0-0.1,0.1-0.4,0.1-0.9c0.1-0.7,0.4-1.6,0.4-1.9c0-0.5-0.4-2.5-0.4-3.8c0-1.4,0.8-2.2,0.8-2.2l0,0
		c2.1,0.1,4.1-0.2,4.1-0.2l0,0c0.3,1.1,0.7,1.5,0.8,1.7c0.1,0.3,0.9,1.3,0.9,1.3s0.5,1.3,0.5,1.4c0,0.1-0.3,0.4-0.3,0.9
		c-0.1,0.3,0.1,0.6,0.2,0.8l0,0L50,28.3c0,0-1.3,0.3-1.6,0.4c-0.3,0-1.6,0.3-1.5,1c0,0.7-0.1,1,0.2,1.2c0.3,0.2,0.5,0.3,0.5,0.3l0,0
		c-0.2,0.1-0.4,0.3-0.6,0.4c-0.3,0.4-0.6,0.8-0.7,1.2l-0.1,0c0,0-0.9-0.6-1-0.6c-0.1,0-0.3,0-0.6-0.1l0-0.1v0
		C44.2,31.6,44.2,30.9,44.2,30.7"/>
	<path class="st2" d="M42.2,21.4c-0.7-1.1-0.3-1.6-0.2-1.7c0.3,0.3,0.7,0.6,1.2,0.5c0.8-0.1,1.7-0.4,2.1-0.1c0.4,0.3,1.1,1.1,2,0.5
		c0.6-0.4,1.2-0.8,1.4-1c0.1-0.1,0.2-0.1,0.2-0.1l0.1,0c0,0.6,0.1,0.9,0.1,0.9c0,0.5,0.1,1,0.2,1.3l0,0c0,0-2,0.3-4.1,0.2
		c-0.5,0-1.1-0.1-1.6-0.2c-0.3-0.1-0.6-0.1-0.9-0.2v0C42.5,21.5,42.3,21.5,42.2,21.4"/>
	<path class="st2" d="M41.5,19.3c-0.2-0.2-0.3-0.9-0.1-1.1c0.2-0.2,0.8-0.9,0.8-0.9c1-1.7,1.9-1.9,1.9-1.9l0.1,0
		C44.1,16,44,16.9,44,17c0,0.2,0.5,1,0.8,1.2c0.3,0.2,0.9,0.4,1.1,0.4c0.2,0,1.4,0.5,1.6,0.5l1.2,0.4l0,0.1c-0.3,0.2-0.8,0.6-1.4,1
		c-0.8,0.6-1.6-0.2-2-0.5c-0.4-0.3-1.3,0-2.1,0.1c-0.5,0.1-0.9-0.2-1.2-0.5C41.8,19.5,41.6,19.3,41.5,19.3"/>
	<path class="st2" d="M43.5,35.3c-1.4,0-1-1.5-0.9-2c0.1-0.6,1-1.1,1.3-1.1c0.2,0,0.5,0,0.7,0.1c0.3,0,0.5,0.1,0.6,0.1
		c0.1,0,1,0.6,1,0.6l0.1,0c0,0.1,0,0.1,0,0.2c0,0.4,0.3,0.7,0.5,0.9l0,0c-0.4,0-0.9,0-1,0c-0.2,0-1.2,0.6-1.4,0.8
		c0,0-0.1,0.1-0.1,0.1C44,35,43.5,35.3,43.5,35.3"/>
	<path class="st3" d="M45,43.4c0-0.1-0.6-1.1-0.6-1.3c0-0.2,0.4-1.3,0.6-1.8c0.2-0.5,0.2-1,0.2-1.3c0-0.3,0.2-0.5,0.2-0.5l0-0.1
		c0,0,0,0,0.1,0.1c1.1,0.9,2,1.9,3.2,2.5c1.2,0.6,3.9,1.7,4.2,1.8c0.1,0,0.2,0.1,0.3,0.1l0,0l0.6,0.1c2.4,0.1,2.5-1,3-1.9
		c0.1-0.1,0.1-0.2,0.1-0.3l0.1,0c0,0,0.3,0.3,0.6,0.8c0.3,0.5,0.1,1.5,0.1,1.8c0,0.3-0.2,0.4-0.7,0.9c-0.5,0.5-1.6,0.3-2.1,0.2
		c-0.5-0.1-1.7-0.4-2.4-0.5c-0.7-0.1-2-0.9-2.4-1c-0.3-0.2-1.9-1.5-2.1-1.6c-0.2-0.2-0.6-0.3-0.8-0.3c-0.2,0-1.3,0.8-1.4,0.8
		c-0.1,0.1-0.2,0.2-0.3,0.3c0,0.1,0,0.2,0.1,0.3c0.1,0.1,0.2,0.1,0.3,0.2c0.1,0,0.3,0.1,0.4,0.1c0.1,0-0.2,0.4-0.3,0.4
		c-0.1,0,0,0.1-0.1,0.2c0,0.1-0.2,0.1-0.2,0.1c-0.1,0-0.2,0-0.3,0c-0.1,0-0.3,0-0.3,0C45.2,43.6,45,43.5,45,43.4"/>
	<path class="st2" d="M44,17c0-0.2,0.1-1.1,0.2-1.8c0-0.2,0.1-0.3,0.1-0.4c0.2-0.6,0.7-0.8,1.1-1.1c0.4-0.2,0.8-1,1.2-1.3
		c0.4-0.3,1.5-0.5,2.4-0.7c0.9-0.2,2.5,0,2.5,0s0.1,0,0.1,0l0,0c-0.5,0-3,0.3-3.8,1.2c-0.9,1-1.4,1.7-0.8,2.5c0.6,0.8,1.3,1.5,2,1.2
		l0.1,0c0,0.1,0,0.2,0,0.3c0,0.2,0,1.3-0.1,2.1c0,0.1,0,0.3,0,0.4l-0.1,0c0,0-0.1,0-0.2,0.1l0-0.1l-1.2-0.4
		c-0.2-0.1-1.3-0.5-1.6-0.5c-0.2,0-0.8-0.2-1.1-0.4C44.6,18.1,44,17.2,44,17"/>
	<path class="st2" d="M44.9,36.1c0.4,0.4,1.4,1,2.6,1.1c1.3,0.1,2.7,0.3,3.5-0.5c0.1,0.9,0.2,1.6,0.6,1.9c0,0,0.4,0.3,0.5,0.4
		c0,0,0.4,0.3,0.5,0.4c0,0.1,0.1,0.4,0.1,0.4c-0.1,0.1-0.3,0.2-0.3,0.2c0,0-0.1,0.3,0.1,0.3c0,0,0.1,0.1,0.1,0
		c0.1-0.1,0.2-0.1,0.3-0.1c0.1,0,0.4-0.2,0.5-0.3c0-0.2,0-0.3,0-0.3l0.6,1.3c0,0,0.2,0.1,0.2,0c0.1,0,0.1-0.1,0.1-0.2
		c0-0.1-0.1-0.5-0.1-0.5l-0.2-0.5l-0.1-0.3L53.5,39l0.6,0.8l0.3,0.5c0,0,0.2,0.2,0.3,0.1c0.1,0,0.2-0.1,0.1-0.3
		c-0.1-0.2-0.3-0.7-0.3-0.7s-0.3-0.5-0.5-0.7l0.6,0.2l0.8,0.5c0,0,0.1,0,0.2-0.1c0-0.1,0-0.2-0.1-0.2c-0.1-0.1-0.6-0.8-0.6-0.8
		s-0.3-0.2-0.4-0.2c0,0-0.1-0.1-0.2-0.2c0-0.1-0.3-0.4-0.4-0.4c-0.1-0.1-0.6-0.4-0.7-0.4c-0.2,0-0.6-0.1-0.6-0.4
		c0-0.3,0.6-1.5,0.6-1.5l0.4-0.8c0,0,0.1-0.1,0.2-0.3l0.2,0c0,0,0.4,0.5,1.2,0.5l0,0.1c0,0,0.6,1.2,0.6,1.6c0,0.2,0.4,1.3,0.6,2.1
		c0.2,0.5,0.3,0.9,0.3,1c0.1,0.2,0.4,0.6,0.3,1.2c0,0,0,0.1,0,0.1c0,0.1-0.1,0.2-0.1,0.3c-0.5,0.9-0.6,2-3,1.9L53.3,43l0,0
		c-0.1-0.1-0.3-0.1-0.3-0.1c-0.3-0.1-3-1.2-4.2-1.8c-1.2-0.6-2.1-1.6-3.2-2.5c0,0,0,0-0.1-0.1C44.5,37.6,44.9,36.2,44.9,36.1
		L44.9,36.1L44.9,36.1z"/>
	<path class="st2" d="M41.6,31.5c-0.5,0-0.3-0.3-0.3-0.3c0.1-0.1,0.2-0.4,0.2-0.5c1-1.4,0.8-3.9,0.8-5.8c0-2,1.2-3.1,1.2-3.1l0,0
		c0.5,0.1,1.1,0.2,1.6,0.2l0,0c0,0-0.8,0.9-0.8,2.2c0,1.3,0.4,3.3,0.4,3.8c0,0.3-0.2,1.2-0.4,1.9l-0.2,0.8l0.2,1.1
		c0,0,0.2,0.4-0.6,0.4c-0.4,0.2-1,0-1.2-0.3C42.3,31.6,42.1,31.5,41.6,31.5"/>
	<path class="st2" d="M44.8,36c-0.3-0.4-0.4-1.2-0.4-1.2l-0.2,0h0c0,0,0.1-0.1,0.1-0.1c0.2-0.2,1.2-0.8,1.4-0.8c0.1,0,0.6,0,1,0l0,0
		c-0.2-0.1-0.5-0.5-0.5-0.9c0-0.1,0-0.1,0-0.2c0.1-0.4,0.3-0.8,0.7-1.2c0.1-0.1,0.3-0.3,0.6-0.5c0.4-0.3,1-0.5,1-0.5l0,0v0
		c0.6,0.6,1.9,2,2.5,2.4l0.1,0c-0.1,0.6-0.2,1.2-0.2,1.9c0,0.6,0,1.2,0.1,1.7l0,0c-0.8,0.7-2.2,0.5-3.5,0.5
		c-1.2-0.1-2.2-0.7-2.6-1.1C44.9,36.1,44.8,36,44.8,36"/>
	<path class="st2" d="M40.1,31.1c0,0-0.3,0-0.2-0.1c0.1-0.1,0.4-0.7,0.5-0.8c0-0.1,0.2-0.5,0.3-0.7c0.2-0.4,0.3-0.9,0.3-0.9
		c0.3-0.7,0.3-1,0.3-1l0.2-3c0-1.7,1.1-3,1.1-3l0,0c0.3,0.1,0.6,0.2,0.9,0.2l0,0c0,0-1.2,1.1-1.2,3.1c0,1.9,0.5,3.6-0.3,5l-0.3,0.6
		c0,0-0.4,1-0.4,1c0,0-0.3-0.2-0.5-0.1C40.5,31.4,40.2,31.3,40.1,31.1"/>
	<path class="st2" d="M38.9,30.2c-0.6-0.3,0.4-1.1,0.4-1.1l0.7-1c0,0,0.5-0.7,0.7-1.5c0.2-0.3,0.3-2.3,0.3-2.3
		c0.3-2.3,1.2-2.9,1.2-2.9c0.1,0.1,0.3,0.1,0.4,0.1v0l0,0c0,0-1,1.3-1.1,3l-0.2,3c0,0,0,0.3-0.3,1c0,0-0.1,0.5-0.3,0.9L39.9,31
		c0,0-0.3-0.3-0.6-0.4C39.1,30.6,38.9,30.2,38.9,30.2"/>
	<path class="st5" d="M43.5,21.8c0,0-1.2,0.8-1.2,2.9c0,1.9,0.3,4.5-0.5,5.9c-0.1,0.1-0.1,0.2-0.2,0.3c0,0-0.6,0.7-0.1,0.7
		c0.5,0,0.8,0,1,0.3c0.1,0.1,0.2,0.2,0.3,0.3c0,0,0.5,0.1,1.1,0 M45.1,22c0,0-0.8,0.9-0.8,2.2c0,1.3,0.4,3.4,0.4,3.8
		c0,0.3-0.1,1-0.3,1.7c-0.1,0.4-0.3,1.4,0.1,2.4 M42,19.7C42,19.7,42,19.7,42,19.7c-0.1,0.1-0.6,0.5,0.2,1.7 M48.9,19.5
		c0,0-0.1,0-0.2,0.1c-0.3,0.2-0.8,0.6-1.4,1c-0.8,0.6-1.6-0.2-2-0.5c-0.4-0.3-1.3,0-2.1,0.1c-0.5,0.1-0.9-0.2-1.2-0.5
		c-0.2-0.2-0.4-0.4-0.4-0.5c-0.2-0.2-0.3-1-0.1-1.1c0.2-0.2,0.8-0.9,0.8-0.9c1-1.7,1.9-1.9,1.9-1.9 M53,26.8c0,0-0.1,0.3-0.1,0.4
		c0,0.1-0.1,0.4-0.1,0.6c0,0.1,0,0.3-0.1,0.4c0,0-0.3,0.2-0.4,0.2c-0.1,0-0.4,0-0.5-0.1c-0.1-0.1-0.3-0.3-0.4-0.4
		c0,0-0.1-0.1-0.1-0.1c-0.1-0.1-0.2-0.4-0.2-0.8c0.1-0.4,0.3-0.8,0.3-0.9c0-0.1-0.5-1.4-0.5-1.4s-0.7-1-0.9-1.3
		c-0.1-0.2-0.5-0.7-0.8-1.7c-0.1-0.4-0.2-0.8-0.2-1.3c0,0-0.1-0.3-0.1-0.9c0-0.1,0-0.3,0-0.4c0.1-0.8,0.1-1.9,0.1-2.1
		c0,0,0-0.1,0-0.3c0.1-0.4,0.2-1.1,0.3-1.6c0.2-0.6,1.2-2.2,1.2-2.2 M53,26.8C53,26.8,53,26.8,53,26.8 M48.7,19.6l-1.2-0.4
		c-0.2-0.1-1.3-0.5-1.6-0.5c-0.2,0-0.8-0.2-1.1-0.4c-0.3-0.2-0.8-1-0.8-1.2c0-0.2,0.1-1.1,0.2-1.8c0-0.2,0.1-0.3,0.1-0.4
		c0.2-0.6,0.7-0.8,1.1-1.1c0.4-0.2,0.8-1,1.2-1.3c0.4-0.3,1.5-0.5,2.4-0.7c0.9-0.2,2.5,0,2.5,0s0.1,0,0.1,0c0.2,0,0.8,0.1,1.3,0.3
		c0.1,0.1,0.3,0.2,0.4,0.3c0.3,0.2,0.5,0.5,0.7,0.8c0.3,0.5,0.3,1.1,0.1,1.6c-0.1,0.3-0.3,0.6-0.4,0.9c-0.3,0.4-0.5,0.6-0.7,0.7
		c-0.3,0.1-0.6,0.2-0.7,0.6c-0.1,0.4-0.4,1.4-0.8,1.8c0,0-0.1,0,0,0.2c0,0.1,0,0.1,0.1,0.2c0.2,0.4,0.8,1.5,0.7,2.4
		c0,0.8,0.1,1.7,0.3,2.3c0.2,0.7,0.6,1.5,0.8,1.5c0.2,0,0.5,0.1,0.6,0.2c0.1,0.1,0.5,0.3,0.7,0.4c0.1,0,0.2,0.1,0.3,0.2
		c0,0.1,0,0.1-0.2,0.2c-0.4,0.1-0.8,0-0.8,0s-0.2-0.1-0.3-0.1c-0.1,0-0.2,0.1-0.2,0.1c-0.1,0-0.3,0.1-0.4,0.2c0,0,0,0,0,0
		c0,0,0,0,0,0 M49,16.8c-0.7,0.2-1.3-0.4-2-1.2c-0.6-0.8-0.2-1.5,0.8-2.5c0.8-0.9,3.3-1.1,3.8-1.2 M51.5,19.2l1-0.5l0.8-0.4
		c0,0,1.2-0.4,1.9-0.7c0.2-0.1,0.4-0.2,0.4-0.2c0-0.2,0-0.7,0-0.7 M55.9,15.4c0,0,0.1,0.7-0.3,1.2c-0.1,0.1-0.1,0.2-0.2,0.2
		l-0.7,0.4 M58.5,15.1c0,0,0.3,0.3,0.4-0.1c0.1-0.4,0.5-1.4,0.6-1.6c0.1-0.2,0.2-0.3,0.2-0.3 M53.8,15.8l2-0.5l0.1,0.1l0.8,0.4
		c0,0,0.5,0.3,0.7,0.2c0.2,0,0.2-0.1,0.2-0.2c0-0.1,0.1-0.2,0.2-0.2c0.1,0,0.2-0.2,0.2-0.2s0.2,0,0.3-0.1c0.1-0.1,0.2-0.2,0.2-0.2
		 M53,12.1c-0.1-0.3,0.2-0.6,0.3-0.7c0,0,0.2-0.1,0.2-0.1c0,0,0,0,0-0.1c0-0.4,1.3-0.7,1.3-0.7c0-0.9,2.1-0.5,2.1-0.5
		c1-0.2,1.9,0.6,1.9,0.6c0.8-0.1,1.2,0.8,1.2,0.8c0.7,0.2,0.4,1.3,0.4,1.4c0,0.1,0,0.3-0.4,0.3c-0.1,0-0.3,0-0.4-0.1
		c-0.3-0.1-0.3-0.1-0.8-0.3l-0.5-0.4c0,0,0,0.4-0.1,0.6c-0.2,0.2-0.3,0.2-0.4,0.2c-0.1,0-0.4,0.3-0.6,0.4c-0.2,0.1-0.4,0.4-0.9,0.4
		c0,0-0.8,0.2-1,0c-0.2-0.1-0.7,0.1-0.8-0.1c0-0.1-0.2-0.3-0.4-0.5 M57.7,15.1l0.3,0.3 M52.6,18.6c0,0-0.1,0.5,0,0.8
		c0,0,0.4,1.2,1.7,1.2c0.1,0,1.3,0.1,1.3,0.1 M55.4,17.6c0,0,0.8,0.6,0.9,0.8 M51.2,27.8L50,28.3c0,0-1.3,0.3-1.6,0.4
		c-0.3,0-1.6,0.3-1.5,1c0,0.7-0.1,1,0.2,1.2c0.3,0.2,0.5,0.3,0.5,0.3 M48.4,30.7c0,0-0.5,0.2-1,0.5c-0.2,0.1-0.4,0.3-0.6,0.5
		c-0.3,0.4-0.6,0.8-0.7,1.2c0,0.1,0,0.1,0,0.2c0,0.4,0.3,0.7,0.5,0.9 M46.2,32.9c0,0-0.9-0.6-1-0.6c-0.1,0-0.3,0-0.6-0.1
		c-0.3,0-0.6-0.1-0.7-0.1c-0.3,0-1.2,0.6-1.3,1.1c-0.1,0.6-0.5,2.1,0.9,2c0,0,0.5-0.3,0.8-0.5c0,0,0.1-0.1,0.1-0.1
		c0.2-0.2,1.2-0.8,1.4-0.8c0.1,0,0.6,0,1,0c0.3,0,0.5,0.1,0.6,0.2c0.2,0.2,0.3,1,0.4,1.1c0.1,0.1,0.9,0.8,0.9,0.8 M53.5,39L53.5,39
		l0.6,0.8l0.3,0.5c0,0,0.2,0.2,0.3,0.1c0.1,0,0.2-0.1,0.1-0.3c-0.1-0.2-0.3-0.7-0.3-0.7s-0.3-0.5-0.5-0.7l0.6,0.2l0.8,0.5
		c0,0,0.1,0,0.2-0.1c0-0.1,0-0.2-0.1-0.2c-0.1-0.1-0.6-0.8-0.6-0.8s-0.3-0.2-0.4-0.2c0,0-0.1-0.1-0.2-0.2c0-0.1-0.3-0.4-0.4-0.4
		c-0.1-0.1-0.6-0.4-0.7-0.4c-0.2,0-0.6-0.1-0.6-0.4c0-0.3,0.6-1.5,0.6-1.5l0.4-0.8c0,0,0.1-0.1,0.2-0.3c0.2-0.4,0.5-1,0.5-1.2
		c0,0,0.9-0.1,1-0.6c0-0.5,0.4-1.1-2.4-2.1c0,0-0.8,0.5-1.2,1.4c-0.2,0.4-0.4,0.9-0.6,1.5c-0.1,0.6-0.2,1.2-0.2,1.9
		c0,0.6,0,1.2,0.1,1.7 M53.1,39.6L53.1,39.6l0.6,1.3c0,0,0.2,0.1,0.2,0c0.1,0,0.1-0.1,0.1-0.2c0-0.1-0.1-0.5-0.1-0.5l-0.2-0.5
		l-0.1-0.3L53.5,39 M50.9,36.8c0.1,0.9,0.2,1.6,0.6,1.9c0,0,0.4,0.3,0.5,0.4c0,0,0.4,0.3,0.5,0.4c0,0.1,0.1,0.4,0.1,0.4
		c-0.1,0.1-0.3,0.2-0.3,0.2c0,0-0.1,0.3,0.1,0.3c0,0,0.1,0.1,0.1,0c0.1-0.1,0.2-0.1,0.3-0.1c0.1,0,0.4-0.2,0.5-0.3
		c0-0.2,0-0.3,0-0.3 M48.2,30.4c0,0,0.1,0.1,0.3,0.3c0.6,0.6,1.9,2,2.5,2.4 M44.4,34.8c0,0,0.1,0.8,0.4,1.2c0,0,0.1,0.1,0.1,0.1
		c0.4,0.4,1.4,1,2.6,1.1c1.3,0.1,2.7,0.3,3.5-0.5v0c0,0,0,0,0,0 M44.9,36.2c0,0-0.3,1.5,0.6,2.4c0,0,0,0,0.1,0.1
		c1.1,0.9,2,1.9,3.2,2.5c1.2,0.6,3.9,1.7,4.2,1.8c0.1,0,0.2,0.1,0.3,0.1c0.5,0.2,1.5,0.6,1.7,0.8 M45.5,38.6c0,0-0.2,0.2-0.2,0.5
		c0,0.3,0,0.8-0.2,1.3c-0.2,0.5-0.7,1.5-0.6,1.8c0,0.2,0.6,1.3,0.6,1.3c0,0.1,0.2,0.2,0.2,0.2c0,0,0.3,0,0.3,0c0.1,0,0.2,0,0.3,0
		c0.1,0,0.2-0.1,0.2-0.1c0-0.1,0-0.2,0.1-0.2c0.1,0,0.4-0.4,0.3-0.4c-0.1,0-0.3-0.1-0.4-0.1c-0.1,0-0.2,0-0.3-0.2
		c-0.1-0.1-0.1-0.2-0.1-0.3c0-0.1,0.2-0.2,0.3-0.3c0.1-0.1,1.2-0.9,1.4-0.8c0.2,0,0.6,0.1,0.8,0.3c0.2,0.2,1.7,1.5,2.1,1.6
		c0.3,0.2,1.7,1,2.4,1c0.7,0.1,1.9,0.3,2.4,0.5c0.5,0.1,1.6,0.3,2.1-0.2c0.5-0.5,0.7-0.6,0.7-0.9c0-0.3,0.2-1.3-0.1-1.8
		c-0.3-0.5-0.6-0.8-0.6-0.8 M54.9,26.3c0,0,1.4,0.4,2.1,0.8c0,0,0,0,0,0c0.1,0.1,0.1,0.1,0.2,0.2 M55.2,34.8c0,0,0.6,1.2,0.6,1.6
		c0,0.2,0.4,1.3,0.6,2.1c0.2,0.5,0.3,0.9,0.3,1c0.1,0.2,0.4,0.6,0.3,1.2c0,0,0,0.1,0,0.1c0,0.1-0.1,0.2-0.1,0.3
		c-0.5,0.9-0.6,2-3,1.9L53.3,43 M57.3,33.5c1.4-0.2,1.6-1.9,1.7-2.4c0-0.1-0.1-0.5-0.1-0.5s-0.1-0.5-0.2-1c-0.1-0.3-1.5-2.2-1.5-2.2
		 M57,27.1c0,0-0.2-0.9,0.2-1c0,0,0,0,0.1,0c0.1-0.1,0.2-0.2,0.3-0.3c0.1-0.1,0.4-0.4,0.5-0.5c0.2,0,0.3-0.2,0.4-0.3
		c0.1-0.1,0.5-0.6,1-0.5c0.5,0.1,1.7,0.1,1.9,0.2c0.2,0.1,0.9,0.6,1,0.6c0,0,0.1,0,0.3,0c0.2,0,0.5,0.1,0.6,0.4c0,0,0.3,0.2,0,0.6
		c0,0,0.6,0.3,0.7,0.6c0.1,0.3,0.2,0.8-0.3,1c0,0-0.6,0.1-0.7,0.1c0,0,0-0.2-0.2-0.3c-0.1,0-0.3,0-0.4,0.1c-0.1,0.1-0.6,0.4-0.8,0.4
		c-0.1,0-0.4,0.1-0.4,0.2c0,0.1-0.1,0.3-0.6,0.5c0,0-1.8,0.4-1.8,0.4 M59.1,29.7c0,0,0.2,0.4,0.4,0.6s0.9,0.5,1.3,0.4
		c0.2-0.1,0.2-0.2,0.3-0.2c0.1,0,0.3-0.2,0.4-0.2c0.1,0,0.3-0.3,0.3-0.3s0.5,0.1,0.5-0.2c0-0.3,0-0.9,0-0.9s0.4-0.2,0.4-0.7
		 M61.3,30.2l-0.2-0.1 M61.9,29.9c0,0-0.3-0.1-0.3-0.2 M53.9,34.2c0,0,0.4,0.5,1.2,0.5v0c1-0.2,1.8-0.8,2.1-1.2
		c0.4-0.8,0.7-1.9-0.5-3.5 M63.4,20.7c0,0.7,0.3,0.8,0.4,0.9c0.1,0.1,0.1,0.2,0.1,0.2s0.2,0,0.5-0.1s0.5-0.3,0.5-0.3
		c0.4-0.3,0.1-0.5,0.2-0.8c0.1-0.3-0.2-0.5-0.2-0.5s0.1,0,0.1-0.1c0-0.1-0.3-0.3-0.3-0.3c0,0,0-0.2,0-0.3c-0.1-0.1-0.1-0.5-0.1-0.5
		c0,0-0.1-0.3-0.1-0.3c-0.1-0.3-0.3-0.4-0.3-0.4c0-0.2-0.2-0.3-0.2-0.3c0.1-0.4-0.4-0.4-0.4-0.6c0-0.2-0.4-0.4-0.4-0.4
		c-0.2-0.3-0.6-0.3-0.6-0.3c-0.1,0-0.8,0.2-0.8,0.2s-0.3-0.1-0.6,0.1c0,0-0.6-0.1-1,0.5c0,0-0.3,0.2-0.5,0.5c0,0-0.5,1.5-0.6,2
		c-0.1,0.5,0,0.4-0.1,0.6c-0.1,0.2-1.1,1.2-0.6,1.5c0.5,0.4,0.7,0.4,0.8,0.7c0.1,0.2,1.6,0.4,1.9,0.3c0.3-0.1,0.5-1.2,0.5-1.2
		c0-0.2,0-0.5-0.1-0.8c0-0.1-0.1-0.3-0.1-0.4c-0.2-0.4-0.2-0.8-0.2-1c0-0.2-0.1-0.5-0.3-0.7c-0.1-0.2-0.4-0.4-0.3-0.8
		c0.1-0.4,0.4-0.9,0.5-1c0.2-0.1,0.6-0.3,1.4-0.1c0,0,0.3,0.3,0.4,0.3c0.1,0,0.3,0.2,0.5,0.3c0.2,0.1,0.2,0.3,0.2,0.4 M63.7,18.6
		c0,0.1,0.1,0.9,0.1,1c0,0.1,0.2,0.7,0.1,0.8c-0.2,0.1-0.4,0.3-0.6,0.4c-1.4,0-2.2-0.3-2.2-0.3 M58.1,22c0,0-2.2,1.3-1.8,4.8
		 M62.5,22.9l0.1,2.5 M58.3,37.9c0,0-0.2-3-0.1-3.5 M61.1,13.8c0,0,0-0.8,0.2-1c0.2-0.1,0.4-0.4,0.7-0.4c0.1,0,0.2,0,0.3,0
		c0.4,0.2,1.5,0.7,1.8,1.3c0.2,0.4,0.1,0.7,0,0.8c-0.1,0.1-0.2,0.2-0.2,0.2c-0.2,0.1-0.7,0.2-0.7,0.2 M66.1,9.6
		C66.1,9.6,66.1,9.6,66.1,9.6 M62,12.3c0,0-0.4-0.7,0.3-1.5c0.7-0.8,0.9-0.9,1.2-0.9c0.3,0,0.8-0.1,0.8-0.1s0.9-0.7,1.8-0.1
		 M64.3,18.7c0,0,0.5-1.1,0.5-1.2c0,0,0.8-1.2,0-3.3c-0.1-0.3-0.6,0.3-0.7,0.3c0,0,0,0,0,0 M69.3,16c0,0-0.1,0.6-0.2,0.6
		c-0.1,0-0.4-0.5-0.4-0.5l0.3-1l0.1-1.2l0-0.1l0.9-1.5c0-0.1-0.1-0.7-0.2-0.8c-0.1-0.1-0.4-0.5-0.5-0.6c0-0.1-0.1-0.6-0.1-0.6
		s-0.7,0.6-0.8,0.7c-0.2,0.1-0.7,0-0.8,0c-0.1,0-0.4,0.1-0.5,0.2c-0.1,0.2-0.3,0.6-0.4,0.7c-0.1,0.1-0.2,0.6-0.2,0.9
		c0,0.1-0.1,0.2-0.1,0.3c-0.1,0.1-0.1,0.2-0.2,0.3c-0.1,0.2,0,0.3,0.1,0.6c0,0.3,0,0.7-0.1,0.9c0,0.1-0.3,0.1-0.3,0.1
		c-0.1,0-0.3,0.2-0.3,0.2s0.1-0.4,0.1-0.5c0-0.1-0.2-0.6-0.3-0.8c-0.1-0.2-0.2-1.5-0.2-1.8c0-0.3,0.3-1.1,0.3-1.2
		c0-0.1,0.2-0.8,0.4-1c0.1-0.1,0.2-0.2,0.3-0.4v0C66.3,9.3,66.6,9,66.7,9c0.1-0.1,1-0.3,1-0.3s1.1-0.1,1.7,0.5c0,0,0.7,0,0.8,0.4
		c0.2,0.4,0.6,1.1,0.5,1.3c0,0.2-0.2,0.4-0.1,0.5c0,0.1,0,0.7-0.1,0.9c0,0,0,0,0,0.1c-0.1,0.1-0.1,0.3-0.1,0.4
		c0,0.2,0.2,0.6,0.1,0.7c-0.1,0.1-0.2,0.2-0.2,0.3c0,0.1,0,0.5-0.1,0.7c-0.1,0.1-0.2,0.3-0.2,0.4c0,0.1,0.1,0.7-0.1,0.9
		c-0.1,0.1-0.1,0.1-0.2,0.2v0c-0.1,0-0.1,0-0.2,0.1L69.3,16z M66.4,13.2c0,0,0.3,1.1,0.9,1.3c0,0,0.9,0,1.7-0.5 M73.9,16.1
		c0,0,0-0.1,0-0.1 M70.6,12.4c0,0,1.8,0.6,2.9,2.5c0,0,0.4,0.7,0.4,1.1c0,0.1,0,0.2,0,0.2 M74.8,17.1c0,0-0.2-0.4-0.9-0.9
		c-0.3-0.2-0.7-0.5-1.1-0.6 M69.6,15.9c0,0-0.3,1.2,1.4,2.4 M66.7,21.9l-1.7-0.8 M66,38.8c0.2-0.3,0.5-0.8,0.3-1.4
		c-0.3-1.1-0.2-1.3-0.1-1.6c0.1-0.2,1.4-1.8,2.4-3.5c0.1-0.2,0.2-0.4,0.3-0.5c0.4-0.8,0.6-1.6,0.6-2.2l0.8-1.8l0,0 M64.2,42.7
		L63.9,44l0.5-1.4l1-2.5l1.2,3.2l-0.7-4.6l0-0.5c0,0-0.5,0-0.7,0.4c-0.2,0.4-0.5,1.2-0.5,1.5c-0.1,0.3-0.2,0.5-0.2,0.6l0,0
		c-0.3,0-0.3-0.4-0.3-0.4L64,38.7c-0.1-0.1-0.2-0.2-0.2-0.2c-0.2-0.3-0.1-0.7-0.1-1c0-0.4,0.4-0.9,0.6-1.4c0.1-0.3,0.3-1,0.5-1.6
		c0.2-0.8,0.5-1.6,0.5-1.6c0.1-1,0.3-1.7,0.5-2.3c0.4-1.1,0.8-1.4,0.9-1.5c0.1-0.1,0.4-0.8,0.4-0.8 M64.4,40.8l-0.3,1.9 M67.3,24.5
		c0,0-0.1,0.4-0.3,0.5c-0.1,0.1-0.8,1-0.7,1.5s0.4,1.6,0.4,1.6l0.3,0l2.6-0.3c0,0,0.2,0,0.4-0.1c0.2-0.1,0.6-0.2,0.7-0.4
		c0.3-0.4,1.2-1.8,1.2-1.8 M59.9,43.7l4,1.3l7.5-2.1L67.2,42l-2.7,0.6l-0.3,0.1L59.9,43.7L59.9,43.7 M59.9,43.7l0,1.1l4.1,1.4
		l7.4-2.2v-1.1 M63.9,45l0,1 M66.9,22.7c0,0-0.2-0.2-0.2-0.4c0.1-0.2-0.2-0.7,0-0.8c0.1-0.1,0.1-0.4,0.3-0.6
		c0.1-0.1,0.2-0.2,0.3-0.3c0.5-0.1,0.3-0.6,0.7-0.7c0.4-0.1,0.7-0.4,0.8-0.4c0.1,0,0.6-0.2,0.7-0.2c0.1,0,0.2,0,0.4-0.1
		c0.2,0,0.4,0,0.5,0c0.1,0,0.3,0.2,0.5,0.2c0.2,0.1,0.3,0.1,0.4,0.1c0.2,0,0.8,0.3,0.9,0.3c0.1,0,0.5,0,0.4,0.2
		c0,0.1-0.1,0.3-0.1,0.3c0.1,0,0.3,0.2,0.3,0.2c0,0.1-0.1,0.3-0.1,0.4c0,0.1,0.3,0.4,0.3,0.6c0,0.1,0.1,0.3,0,0.4
		C73,22.1,73,22.1,73,22.2c0.1,0.1,0,0.2-0.1,0.3c-0.1,0.1-0.2,0.2-0.2,0.3c-0.1,0.1-0.3,0.4-0.4,0.5c-0.1,0.1-0.4,0-0.4,0.2
		c0,0.1-0.4,0.3-0.5,0.2c-0.1,0-0.6,0.3-0.7,0.1c-0.1-0.2-0.1-0.5,0-0.7c0-0.1,0.2-0.2,0.2-0.3c0-0.1,0-0.2,0-0.3
		c0-0.1-0.3-0.3-0.1-0.5c0.2-0.2,0.6-1,0.7-1.2c0.1-0.2,0-0.4,0-0.5c0-0.1-0.6-0.3-0.7-0.4c-0.1,0-0.7-0.2-0.9-0.2
		c-0.1,0-0.6,0-0.7,0.1c-0.2,0.1-0.6,0.3-0.7,0.3c-0.1,0.1-0.4,0.4-0.4,0.4L67.6,21c0,0-0.6,0.5-0.6,1.7c0,0.3,0,0.6,0,0.9
		c0,0,0.1,0.5,0.4,0.9c0.1,0.1,0.8,0.6,0.8,0.6s0.3,0.1,0.3,0.1c0.1,0,0.3,0.1,0.3,0.3c0.1,0.2,0.3,0.9,0.7,0.8l0.3-0.3
		c0,0,0.4,0.2,0.5,0.2c0.1,0,0.8,0.4,1.6-0.8c0.1-0.1,0.2-0.3,0.3-0.4c0,0,0.3-0.7,0.6-1.3c0.1,0,0.3-0.2,0.4-0.2
		c0.9-0.3,1.2-1.5,1.2-1.5s0-0.2,0-0.4 M73.7,24.5c0,0.2-0.4,1.6-0.4,1.9c0,0.3-0.1,0.6,0.1,0.9c0.1,0.4,0.3,1.2,0.3,1.6
		c0,0.4-0.2,1.4-0.3,2c0,0.1,0,0.2-0.1,0.3l-0.1,0.3l-0.5,1.1c0,0-0.8,1.6-1,2c-0.1,0.4-0.8,1.6-0.1,3.4l0.3,1
		c0.5,1.5,0.6,1.6,1.2,1.7 M74.3,35.3c0,0-0.2,2.5-0.6,3.2c-0.3,0.7-0.5,1.3-0.5,1.6c0,0.3-0.2,1-0.3,1.2c-0.1,0.1-0.2,0.3-0.2,0.6
		c0,0.1-0.1,0.3,0,0.4c0,0.4,0.1,0.7,0.3,0.7c0.3,0,0.7-0.1,0.7-0.1s0.4,0.1,0.6,0.2c0.2,0,0.4,0,0.6,0c0.1-0.1,0.4-0.2,0.6-0.3
		c0.1-0.1,0.5-0.4,0.5-0.7c0-0.2-0.6-1.1-0.6-1.1s0-0.1-0.1-0.3c-0.1-0.4-0.2-1.1,0-1.5c0.3-0.5,3.3-4.8,3.1-7.7 M80.1,31.2
		c0,0-1-0.1-1.8,0.4v0c-0.2,0.1-0.3,0.2-0.4,0.4c-0.5,0.7-2.4,2.2-3.6,3.3c-0.4,0.3-0.8,0.6-1,0.8c-0.1,0.1-0.5,0.6-0.5,0.6
		s0.4-7.1,5.1-12.6 M70,19.2c0,0,0.4-0.6,1.1-0.8c0.2-0.1,3.3-1.7,6.1-1.2 M74.4,20.7c0-0.1,0.8-2.7,2.5-3.4
		c0.6-0.3,1.3-0.1,1.3-0.1c0.3,0.1,1.3-0.2,2.4,0.6l0.9-0.3c1.5-0.2,2.3,1.1,2.3,1.9c0,0.8-1.1,1.9-1.1,1.9l-1.1,0.9
		c-0.3,0.6-1.5,1.2-1.9,1.4c-0.5,0.4-1.1,0.4-1.7,0.3c-1.8-0.4-3.4-2.5-3.4-2.5 M76.4,39.6c0,0,1.1,1.3,2.1,1.5 M70.3,26l0.3-0.2
		 M64.4,28.8c0,0-0.1-1.4-0.1-1.9c0-0.3,0.3-1.8,0.6-3 M65.5,28.1c0,0-2.2,0.9-1.3,2.9 M64.3,31c-0.4,0.5-0.4,0.5-0.4,0.6
		c0,0.1-0.2,0.9-0.2,1c0,0.1,0,0.3-0.1,0.4c-0.1,0-0.4,0.3-0.4,0.2c0,0-0.3-0.4-0.4-0.5c-0.1,0-0.3,0-0.2,0.1
		c0.1,0.2-0.5,0.1-0.1,0.4l0.4,0.3c0,0,0.4,0.3,0.6,0.4c0.2,0.1,0.6,0,0.8-0.3 M64.3,31C64.3,31,64.3,31,64.3,31 M65.8,30.4
		c0,0-0.4-0.4-1,0.1c-0.4,0.4-0.5,0.4-0.5,0.4c0,0,0,0,0,0c0,0,0,0,0,0l0,0l0,0v0 M64.2,32.5c0,0.1-0.1,0.7,0.2,0.7
		c0,0,0.3,0,0.3-0.3c0-0.3,0.2-0.5,0.2-0.6 M64.3,33.2c0,0,0,0.2-0.1,0.5c0,0.2-0.1,0.4-0.1,0.5c-0.1,0.1-0.2,0.6-0.2,0.7
		c0,0,0.2,0.5,0.4,0.1l0.3-0.3l0.3-0.4 M67.4,13.9c0,0,0.2,0.1,0.4,0.2 M67.6,13.6c0,0,0,0.1,0.2,0.1 M63,19.5c0,0,0.4-0.1,0.7-0.3
		 M61.4,18.4c0,0,0.5-0.6,0.7-0.4 M61.8,18.2L61.8,18.2 M61.7,29l-0.1,0.1 M58.3,13.9L58.2,14 M67.4,12.5l0,0.1 M68.9,13.1l0,0.2
		 M69.8,24.9l0.1,0.1 M69.3,25l1.1-0.2 M78.8,24.1l-1,3.9 M79.6,23.7c-6.2-1.7-2.2-5.8-1.5-6.4 M58,13.6l0.7,0.4 M67,12.2
		c0,0,0.4,0.2,0.8,0.2 M68.7,12.9c0,0,0.4,0.2,0.8,0.2 M62,29.1c0,0-0.5-0.1-0.6-0.3 M56.7,18.6l0.3,0c0,0,0.7,0.1,0.7,0.1
		c0.1,0,0.7,0.1,0.7,0.1c0.1,0.2-0.3,0.3-0.3,0.3l-0.6,0.1l0.2,0.3c0.2,0.3-0.2,0.6-0.2,0.6c0.1,0.6-0.3,0.8-0.3,0.8
		c-0.6,0.4-1.2,0.1-1.6-0.2c-0.1-0.1-0.2-0.1-0.3-0.1c-0.4-0.2-0.3-0.6-0.3-0.9c0-0.4,0.2-0.7,0.3-0.9c0.1-0.1,0.6-0.3,0.6-0.3
		l0.4,0.1L56.7,18.6L56.7,18.6c0,0,0.2,0.3,0.1,0.4c-0.1,0.1-0.4,0.2-0.6,0.1L56.1,19 M64.5,12.9l0.4,1.5 M81.6,41.1
		c0,0-2.4-0.5-2.5-4.3 M57,36.7c0,0,2.2,2.3,2.9,2.4 M61.2,33.3c-0.1,1.2-0.2,2-0.2,2c-0.2,1.6-1,3.8-1,3.8s0.9,0,1.7-0.3
		c0.8-0.3,1.3-0.9,2.1-0.5 M68.9,31.7c1.1-0.3,2.1-0.4,2.9-0.5v0c0.9-0.1,1.4-0.1,1.4-0.1 M68.8,31.8c0,0,0,2.5,0,2.7
		c0,0.2,0.1,1-0.2,1.4c-0.2,0.3-0.5,0.9-0.5,1.2c0,0.2,0,0.7,0,0.8c0,0.1-0.3,0.9-0.3,0.9s-0.1,0.6,0.5,0.7c0.6,0.1,1.4,0.1,1.7-0.1
		c0.3-0.2,0.6-0.5,0.5-0.7c-0.1-0.2-0.3-0.4-0.5-0.6c-0.2-0.2-0.3-0.6-0.3-0.8c0,0,0.1-0.3,0.1-0.5c0-0.1,0-0.7,0.1-0.9
		c0.1-0.2,1.2-1.7,1.2-1.7s0.5-0.7,0.7-2.8 M62.6,14.5c0,0-0.1-0.2-0.2-0.3c-0.1-0.1-0.1-0.2-0.1-0.2c0-0.1-0.1-0.1,0-0.3
		c0.1-0.1,0.3,0,0.3,0c0,0,0.1,0.2,0.3,0.3c0.2,0.1,0.1,0,0.3,0.6c0,0.1,0,0.2,0,0.3c0,0.3-0.4,0.2-0.8,0.5c-0.5,0.3-1.1,0-1.1,0
		s-0.8-0.8-0.9-0.8c-0.1-0.1-0.1-0.1-0.2,0c-0.1,0.1,0,0.1-0.3,0.1c-0.3,0-0.5-0.2-0.5-0.3c0-0.1,0.4-0.3,0.4-0.3s0.5-0.3,1-0.3
		c0.1,0,0.2,0,0.2,0c0.4,0,0.6-0.1,0.9,0.1l0.5,0.3 M41.3,31.5c0,0-1.3-0.3-1.4-0.5c0,0,0-0.1,0-0.2c0.1-0.1,0.3-0.3,0.4-0.4
		c0-0.1,0-0.1,0.2-0.4C40.7,29.7,41,29,41,29c0.3-0.7,0.2-0.8,0.2-0.8l0.3-3.8c0-1.7,1.1-2.7,1.1-2.7 M49.3,21.8c0,0-2,0.3-4.1,0.2
		c-0.5,0-1.1-0.1-1.6-0.2c-0.3-0.1-0.6-0.1-0.9-0.2c-0.1,0-0.3-0.1-0.4-0.1c0,0-0.9,0.3-1.2,2.6c0,0-0.1,2.2-0.4,3.1
		c-0.6,1.2-1.8,2.4-1.8,2.4s-0.3,0.4,0.1,0.7l0.9,0.6 M83.2,20.8c0.5,1.3,0.9,3.1,1.1,5.6c0.6,4.7-0.7,9-1.1,10.6s0.2,3.8,0.9,4
		c0,0-2.7,0.3-3.9,0.3c-0.5,0-0.5,0-1.1,0c-1.9-0.1-3.8-0.2-3.9-0.3"/>
	<path class="st6" d="M73.2,36.1c0,0-1.2,1,0.6,1.5"/>
	<path class="st5" d="M83.1,24.8c0,0,0.3,1.7,0,3.6c-0.3,1.9,0.4,7.4,0.2,8.5"/>
</g>
<line class="st5" x1="79.1" y1="19.9" x2="80.2" y2="18.9"/>
<g>
	<path class="st5" d="M64.3,27.3c0,0,0.9-2.9,1.5-3.2 M56.2,28.3c0,0,2.2,0.9,2.6,1.9 M49.7,23c0,0-0.1,1,0.2,2.4
		c0.3,1.4,0.7,2.7,0.7,2.7 M61.1,22.8c0,0,2.2,0.5,2.6-1.1 M58.7,32.4c-0.1,0.5-0.1,1.1-0.5,2.1c0,0-0.2,0.6-0.4,1
		c-0.2,0.6-1.6,1.8-1.6,1.8 M52.8,30.2c0,0,0.5-0.7,1.8-0.7c0,0,0.5,0,1,0 M72.6,20c0,0,1.7-0.3,1.8,1.5 M63.3,18.9
		c0.4-0.2,0.5-0.4,0.5-0.4s-0.6-0.4-0.9-0.5c-0.3-0.1,0-0.4,0-0.4 M72.6,23.5c0,0-0.1,0.9-0.3,1.4 M73,24.5l2.4-0.1
		c0,0,0.5-0.1,0.9-0.3 M77.7,35.1c1.4,1.6,3,3.2,3,3.2 M74.7,27.2c0,0,0,0.8,0.1,2"/>
</g>
<line class="st5" x1="59.1" y1="30" x2="58.8" y2="30.2"/>
<g>
	<path class="st3" d="M98.9,90.9c0.3,0.4,1.1,1.2,2.8,1.2c1.9,0,3-1.1,3-2.6c0-1.2-1-2-1.6-2.2v0c0.6-0.3,1.4-1.1,1.4-2.1
		c0-1.5-1.2-2.5-2.8-2.5c-1.5,0-2.5,1.2-2.5,1.2c-0.1,0.1-0.1,0.3,0,0.3l0.5,0.4c0.1,0.1,0.3,0.1,0.3,0c0.3-0.3,0.8-0.8,1.6-0.8
		c0.8,0,1.5,0.6,1.5,1.5c0,0.8-0.6,1.4-1.9,1.4h-0.8c-0.2,0-0.3,0.1-0.3,0.3v0.6c0,0.2,0.1,0.3,0.3,0.3h0.8c1.4,0,2.1,0.8,2.1,1.6
		c0,0.9-0.8,1.5-1.7,1.5c-1,0-1.7-0.7-1.8-0.8c-0.1-0.1-0.2-0.1-0.4,0l-0.5,0.5C98.8,90.7,98.8,90.8,98.9,90.9 M94.8,90.9
		c-1.5,0-2-1.5-1.9-2.7c0.1-0.2,0.8-1,1.8-1c1,0,1.8,0.8,1.8,1.8S95.8,90.9,94.8,90.9 M91.7,88.4c0,2.1,1,3.8,3.2,3.8
		c1.6,0,3-1.4,3-3.1c0-1.9-1.4-2.9-2.8-2.9c-0.9,0-1.7,0.4-1.8,0.5c0.4-1.7,2.6-2.8,3.2-3c0.3-0.1,0.3-0.2,0.2-0.4l-0.2-0.6
		c-0.1-0.1-0.2-0.2-0.3-0.2C94.9,83,91.7,84.6,91.7,88.4 M85.5,89.6c0-0.7,0.6-1.5,1.7-1.6c1.1,0.2,1.7,0.9,1.7,1.6
		c0,0.9-0.8,1.5-1.7,1.5C86.3,91,85.5,90.5,85.5,89.6 M87.2,86.7c-1-0.2-1.5-0.7-1.5-1.4c0-0.8,0.7-1.4,1.5-1.4
		c0.9,0,1.5,0.6,1.5,1.4C88.7,85.9,88.2,86.5,87.2,86.7 M84.1,89.5c0,1.5,1.2,2.6,3.1,2.6c1.9,0,3.1-1.1,3.1-2.6c0-1.2-1-2-1.6-2.2
		v-0.1c0.6-0.3,1.4-1,1.4-2.1c0-1.5-1.2-2.5-2.9-2.5c-1.6,0-2.8,1-2.8,2.5c0,1,0.8,1.8,1.4,2.1v0C85.2,87.5,84.1,88.4,84.1,89.5
		 M77.6,92h4.7c0.1,0,0.3-0.1,0.3-0.2v-0.6c0-0.1-0.1-0.3-0.3-0.3h-1.5v-7.8c0-0.1-0.1-0.3-0.2-0.3h-0.7l-2,1.8
		c-0.1,0.1-0.1,0.2,0,0.3l0.2,0.5c0,0.1,0.2,0.1,0.3,0.1l1.2-0.6v6h-1.9c-0.1,0-0.3,0.1-0.3,0.3v0.6C77.4,91.9,77.5,92,77.6,92
		 M65.4,87.3c0-1.9,1.6-3.5,3.5-3.5c1.9,0,3.5,1.6,3.5,3.5c0,1.9-1.6,3.5-3.5,3.5C67,90.8,65.4,89.2,65.4,87.3 M64,87.3
		c0,2.7,2.1,4.8,4.8,4.8c2.7,0,4.8-2.1,4.8-4.8c0-2.7-2.1-4.8-4.8-4.8C66.2,82.4,64,84.6,64,87.3 M54.3,91.7c0,0.1,0.1,0.3,0.3,0.3
		h0.8c0.1,0,0.3-0.1,0.3-0.3v-6.5h0l5.8,6.9h0.4c0.1,0,0.3-0.1,0.3-0.2v-9c0-0.1-0.1-0.3-0.3-0.3H61c-0.1,0-0.3,0.1-0.3,0.3v6.4h0
		l-5.8-6.7h-0.3c-0.1,0-0.3,0.1-0.3,0.2V91.7z M46.9,88.8l1.6-3.7h0.1l1.7,3.7H46.9z M44.4,92h0.8c0.2,0,0.3-0.1,0.3-0.2
		c0.3-0.6,0.6-1.2,0.8-1.8h4.4l0.8,1.8c0.1,0.1,0.1,0.2,0.3,0.2h0.8c0.2,0,0.3-0.2,0.2-0.3l-4.1-9c0-0.1-0.2-0.1-0.2-0.1h-0.1
		c-0.1,0-0.2,0.1-0.2,0.1l-4.1,9C44.1,91.8,44.2,92,44.4,92 M38,91.7c0,0.1,0.1,0.3,0.3,0.3h4.8c0.1,0,0.3-0.1,0.3-0.3V91
		c0-0.1-0.1-0.3-0.3-0.3h-3.6v-7.9c0-0.1-0.1-0.3-0.3-0.3h-0.9c-0.1,0-0.3,0.1-0.3,0.3V91.7z M34,91.7c0,0.1,0.1,0.3,0.3,0.3h0.9
		c0.1,0,0.3-0.1,0.3-0.3v-8.9c0-0.1-0.1-0.3-0.3-0.3h-0.9c-0.1,0-0.3,0.1-0.3,0.3V91.7z M21.7,91.7c0,0.2,0.1,0.3,0.3,0.3h0.9
		c0.1,0,0.2-0.1,0.2-0.2l1-6h0.1l2.4,6.2c0,0.1,0.1,0.1,0.2,0.1H27c0.1,0,0.2-0.1,0.2-0.1l2.4-6.2h0l1,6c0,0.1,0.1,0.2,0.3,0.2h0.9
		c0.2,0,0.3-0.1,0.2-0.3l-1.7-9c0-0.1-0.1-0.2-0.2-0.2H30c-0.1,0-0.2,0.1-0.2,0.1l-2.8,6.9h-0.1l-2.8-6.9c0-0.1-0.1-0.1-0.2-0.1
		h-0.2c-0.1,0-0.2,0.1-0.2,0.2L21.7,91.7z"/>
	<path class="st3" d="M114,69.5c0-2.4,2-4.4,4.4-4.4c2.4,0,4.4,2,4.4,4.4c0,2.4-2,4.4-4.4,4.4C116,73.9,114,71.9,114,69.5
		 M111.5,69.5c0,3.8,3.1,6.9,6.9,6.9c3.8,0,6.9-3.1,6.9-6.9c0-3.8-3.1-6.9-6.9-6.9C114.5,62.6,111.5,65.7,111.5,69.5 M98.1,69.5
		c0,3.8,3.1,6.9,6.9,6.9c1.7,0,3.4-0.6,4.7-1.9c0.1-0.1,0.2-0.4,0-0.5l-1.2-1.2c-0.1-0.1-0.3-0.1-0.5,0c-0.8,0.7-1.8,1.1-2.9,1.1
		c-2.5,0-4.3-2-4.3-4.4c0-2.4,1.8-4.5,4.3-4.5c1.1,0,2.1,0.4,3,1.1c0.2,0.2,0.3,0.2,0.5,0l1.2-1.2c0.2-0.2,0.2-0.4,0-0.5
		c-1.3-1.2-2.7-1.8-4.6-1.8C101.2,62.6,98.1,65.7,98.1,69.5 M93.1,75.8c0,0.2,0.2,0.4,0.4,0.4h1.8c0.2,0,0.4-0.2,0.4-0.4V63.1
		c0-0.2-0.2-0.4-0.4-0.4h-1.8c-0.2,0-0.4,0.2-0.4,0.4V75.8z M78.4,75.8c0,0.2,0.2,0.4,0.4,0.4h1.7c0.2,0,0.4-0.2,0.4-0.4v-8.3h0
		l8,8.8h0.5c0.2,0,0.4-0.2,0.4-0.3V63.1c0-0.2-0.2-0.4-0.4-0.4h-1.8c-0.2,0-0.4,0.2-0.4,0.4v7.9h0l-8-8.5h-0.5
		c-0.2,0-0.4,0.2-0.4,0.3V75.8z M64.3,69.5c0,3.8,3.1,6.9,6.9,6.9c1.7,0,3.4-0.6,4.7-1.9c0.1-0.1,0.2-0.4,0-0.5l-1.2-1.2
		c-0.1-0.1-0.3-0.1-0.5,0c-0.8,0.7-1.8,1.1-2.9,1.1c-2.5,0-4.3-2-4.3-4.4c0-2.4,1.8-4.5,4.3-4.5c1.1,0,2.1,0.4,3,1.1
		c0.2,0.2,0.3,0.2,0.5,0l1.2-1.2c0.2-0.2,0.2-0.4,0-0.5c-1.3-1.2-2.7-1.8-4.6-1.8C67.4,62.6,64.3,65.7,64.3,69.5 M53.8,75.8
		c0,0.2,0.2,0.4,0.4,0.4H62c0.2,0,0.4-0.2,0.4-0.4v-1.6c0-0.2-0.2-0.4-0.4-0.4h-5.7v-3.4H61c0.2,0,0.4-0.2,0.4-0.4v-1.6
		c0-0.2-0.2-0.4-0.4-0.4h-4.7v-3.1H62c0.2,0,0.4-0.2,0.4-0.4v-1.6c0-0.2-0.2-0.4-0.4-0.4h-7.8c-0.2,0-0.4,0.2-0.4,0.4V75.8z
		 M45.8,75.8c0,0.2,0.2,0.4,0.4,0.4h1.8c0.2,0,0.4-0.2,0.4-0.4V65.1h2.9c0.2,0,0.4-0.2,0.4-0.4v-1.6c0-0.2-0.2-0.4-0.4-0.4h-8.4
		c-0.2,0-0.4,0.2-0.4,0.4v1.6c0,0.2,0.2,0.4,0.4,0.4h2.9V75.8z M37.6,75.8c0,0.2,0.2,0.4,0.4,0.4h1.8c0.2,0,0.4-0.2,0.4-0.4V63.1
		c0-0.2-0.2-0.4-0.4-0.4h-1.8c-0.2,0-0.4,0.2-0.4,0.4V75.8z M27.3,75.8c0,0.2,0.2,0.4,0.4,0.4h7c0.2,0,0.4-0.2,0.4-0.4v-1.6
		c0-0.2-0.2-0.4-0.4-0.4h-4.9V63.1c0-0.2-0.2-0.4-0.4-0.4h-1.8c-0.2,0-0.4,0.2-0.4,0.4V75.8z M14,69.5c0-2.4,2-4.4,4.4-4.4
		c2.4,0,4.4,2,4.4,4.4c0,2.4-2,4.4-4.4,4.4C15.9,73.9,14,71.9,14,69.5 M11.5,69.5c0,3.8,3.1,6.9,6.9,6.9c3.8,0,6.9-3.1,6.9-6.9
		c0-3.8-3.1-6.9-6.9-6.9C14.5,62.6,11.5,65.7,11.5,69.5 M3.3,69v-3.9h2.2c1.1,0,2,0.8,2,1.9c0,1.1-0.9,2-2,2H3.3z M0.8,75.8
		c0,0.2,0.2,0.4,0.4,0.4H3c0.2,0,0.4-0.2,0.4-0.4v-4.5h2.4c2.3,0,4.3-1.9,4.3-4.3c0-2.3-1.9-4.2-4.3-4.2H1.2c-0.2,0-0.4,0.2-0.4,0.4
		V75.8z"/>
</g>
</svg>
