<?xml version="1.0" encoding="utf-8"?>
<!-- Generator: Adobe Illustrator 25.0.1, SVG Export Plug-In . SVG Version: 6.00 Build 0)  -->
<svg version="1.1" id="Livello_1" xmlns="http://www.w3.org/2000/svg" xmlns:xlink="http://www.w3.org/1999/xlink" x="0px" y="0px"
	 viewBox="0 0 39.6 39.6" style="enable-background:new 0 0 39.6 39.6;" xml:space="preserve">
<style type="text/css">
	.st0{opacity:0.5;fill:#FFFFFF;stroke:#222221;stroke-width:1.5;stroke-miterlimit:10;}
	.st1{fill:none;stroke:#222221;stroke-width:1.5;stroke-miterlimit:10;}
	.st2{fill:#222221;}
</style>
<g id="Livello_2_1_">
	<g id="Capa_1">
		<path class="st0" d="M19.8,0.7L19.8,0.7c10.5,0,19,8.5,19,19l0,0c0,10.5-8.5,19-19,19l0,0c-10.5,0-19-8.5-19-19l0,0
			C0.8,9.3,9.3,0.7,19.8,0.7z"/>
		<path class="st1" d="M19.8,0.7L19.8,0.7c10.5,0,19,8.5,19,19l0,0c0,10.5-8.5,19-19,19l0,0c-10.5,0-19-8.5-19-19l0,0
			C0.8,9.3,9.3,0.7,19.8,0.7z"/>
		<path class="st2" d="M16.9,31.3h4.6V19.7h3.2l0.3-3.9h-3.6v-2.2c0-0.9,0.2-1.3,1.1-1.3h2.5v-4h-3.2c-3.4,0-5,1.5-5,4.4v3.1h-2.4
			v3.9h2.4L16.9,31.3z"/>
	</g>
</g>
</svg>
