<?xml version="1.0" encoding="utf-8"?>
<!-- Generator: Adobe Illustrator 25.0.1, SVG Export Plug-In . SVG Version: 6.00 Build 0)  -->
<svg version="1.1" id="Livello_1" xmlns="http://www.w3.org/2000/svg" xmlns:xlink="http://www.w3.org/1999/xlink" x="0px" y="0px"
	 viewBox="0 0 39.6 39.6" style="enable-background:new 0 0 39.6 39.6;" xml:space="preserve">
<style type="text/css">
	.st0{opacity:0.5;fill:#FFFFFF;stroke:#222221;stroke-width:1.5;stroke-miterlimit:10;}
	.st1{fill:none;stroke:#222221;stroke-width:1.5;stroke-miterlimit:10;}
	.st2{fill:#222221;}
</style>
<g id="Livello_2_1_">
	<g id="Capa_1">
		<path class="st0" d="M19.8,38.8L19.8,38.8c-10.5,0-19-8.5-19-19l0,0c0-10.5,8.5-19,19-19l0,0c10.5,0,19,8.5,19,19l0,0
			C38.8,30.3,30.3,38.8,19.8,38.8z"/>
		<path class="st1" d="M19.8,38.8L19.8,38.8c-10.5,0-19-8.5-19-19l0,0c0-10.5,8.5-19,19-19l0,0c10.5,0,19,8.5,19,19l0,0
			C38.8,30.3,30.3,38.8,19.8,38.8z"/>
		<path class="st2" d="M19.8,11.2c2.8,0,3.1,0,4.2,0.1c0.7,0,1.3,0.1,1.9,0.4c0.5,0.2,0.9,0.4,1.2,0.8c0.4,0.3,0.6,0.7,0.8,1.2
			c0.2,0.6,0.4,1.3,0.4,1.9c0,1.1,0.1,1.4,0.1,4.2s0,3.1-0.1,4.2c0,0.7-0.1,1.3-0.4,1.9c-0.4,0.9-1.1,1.6-2,2
			c-0.6,0.2-1.3,0.4-1.9,0.4c-1.1,0-1.4,0.1-4.2,0.1s-3.1,0-4.2-0.1c-0.7,0-1.3-0.1-1.9-0.4c-0.5-0.2-0.9-0.4-1.2-0.8
			c-0.3-0.3-0.6-0.7-0.8-1.2c-0.2-0.6-0.3-1.3-0.3-1.9c0-1.1-0.1-1.4-0.1-4.2s0-3.1,0.1-4.2c0-0.7,0.1-1.3,0.4-1.9
			c0.4-0.9,1.1-1.6,2-2c0.6-0.2,1.3-0.4,1.9-0.4C16.7,11.3,17,11.2,19.8,11.2 M19.8,9.3c-2.8,0-3.2,0-4.3,0.1
			c-0.9,0-1.7,0.2-2.5,0.5c-1.4,0.5-2.6,1.7-3.1,3.1c-0.3,0.8-0.5,1.7-0.5,2.5c-0.1,1.1-0.1,1.5-0.1,4.3s0,3.2,0.1,4.3
			c0,0.9,0.2,1.7,0.5,2.5c0.6,1.4,1.7,2.5,3.1,3c0.8,0.3,1.7,0.5,2.5,0.5c1.1,0,1.5,0.1,4.3,0.1s3.2,0,4.3-0.1
			c0.9,0,1.7-0.2,2.5-0.5c1.4-0.6,2.5-1.7,3-3c0.3-0.8,0.5-1.7,0.5-2.5c0-1.1,0.1-1.5,0.1-4.3s0-3.2-0.1-4.3c0-0.8-0.2-1.7-0.5-2.5
			c-0.5-1.4-1.7-2.5-3-3.1c-0.8-0.3-1.7-0.5-2.5-0.5C23,9.4,22.6,9.4,19.8,9.3"/>
		<path class="st2" d="M19.8,14.4c-3,0-5.4,2.4-5.4,5.4s2.4,5.4,5.4,5.4s5.4-2.4,5.4-5.4S22.7,14.4,19.8,14.4
			C19.8,14.4,19.8,14.4,19.8,14.4 M19.8,23.3c-1.9,0-3.5-1.6-3.5-3.5c0-1.9,1.6-3.5,3.5-3.5c1.9,0,3.5,1.6,3.5,3.5c0,0,0,0,0,0
			C23.3,21.7,21.7,23.3,19.8,23.3"/>
		<path class="st2" d="M26.6,14.2c0,0.7-0.5,1.3-1.2,1.3c-0.7,0-1.3-0.5-1.3-1.2s0.5-1.3,1.2-1.3c0,0,0,0,0,0
			C26,13,26.6,13.6,26.6,14.2"/>
	</g>
</g>
</svg>
