<?xml version="1.0" encoding="utf-8"?>
<!-- Generator: Adobe Illustrator 25.0.1, SVG Export Plug-In . SVG Version: 6.00 Build 0)  -->
<svg version="1.1" id="Livello_1" xmlns="http://www.w3.org/2000/svg" xmlns:xlink="http://www.w3.org/1999/xlink" x="0px" y="0px"
	 viewBox="0 0 39.6 39.6" style="enable-background:new 0 0 39.6 39.6;" xml:space="preserve">
<style type="text/css">
	.st0{opacity:0.5;fill:#FFFFFF;stroke:#222221;stroke-width:1.5;stroke-miterlimit:10;}
	.st1{fill:none;stroke:#222221;stroke-width:1.5;stroke-miterlimit:10;}
	.st2{fill:#222221;}
</style>
<g id="Livello_2_1_">
	<g id="Capa_1">
		<path class="st0" d="M19.8,0.7L19.8,0.7c10.5,0,19,8.5,19,19l0,0c0,10.5-8.5,19-19,19l0,0c-10.5,0-19-8.5-19-19l0,0
			C0.8,9.3,9.3,0.7,19.8,0.7z"/>
		<path class="st1" d="M19.8,0.7L19.8,0.7c10.5,0,19,8.5,19,19l0,0c0,10.5-8.5,19-19,19l0,0c-10.5,0-19-8.5-19-19l0,0
			C0.8,9.3,9.3,0.7,19.8,0.7z"/>
		<rect x="11.1" y="15.5" class="st2" width="3.9" height="12.7"/>
		<path class="st2" d="M13.1,13.9c1.3,0,2.4-1,2.4-2.3s-1-2.4-2.3-2.4c-1.3,0-2.4,1-2.4,2.3c0,0,0,0,0,0
			C10.8,12.8,11.8,13.9,13.1,13.9C13.1,13.9,13.1,13.9,13.1,13.9z"/>
		<path class="st2" d="M21.4,21.6c0-1.8,0.8-2.9,2.4-2.9s2.1,1,2.1,2.9v6.7h3.9v-8c0-3.4-1.9-5.1-4.6-5.1c-1.6,0-3,0.8-3.8,2.1v-1.8
			h-3.8v12.7h3.8L21.4,21.6z"/>
	</g>
</g>
</svg>
