<?xml version="1.0" encoding="utf-8"?>
<!-- Generator: Adobe Illustrator 25.0.1, SVG Export Plug-In . SVG Version: 6.00 Build 0)  -->
<svg version="1.1" id="Livello_1" xmlns="http://www.w3.org/2000/svg" xmlns:xlink="http://www.w3.org/1999/xlink" x="0px" y="0px"
	 viewBox="0 0 39.6 39.6" style="enable-background:new 0 0 39.6 39.6;" xml:space="preserve">
<style type="text/css">
	.st0{opacity:0.5;fill:#FFFFFF;stroke:#222221;stroke-width:1.5;stroke-miterlimit:10;}
	.st1{fill:none;stroke:#222221;stroke-width:1.5;stroke-miterlimit:10;}
	.st2{fill:none;stroke:#1D1D1B;stroke-width:1.8;stroke-miterlimit:10;}
</style>
<g id="Livello_2_1_">
	<g id="Capa_1">
		<path class="st0" d="M19.8,38.8L19.8,38.8c-10.5,0-19-8.5-19-19l0,0c0-10.5,8.5-19,19-19l0,0c10.5,0,19,8.5,19,19l0,0
			C38.8,30.3,30.3,38.8,19.8,38.8z"/>
		<path class="st1" d="M19.8,38.8L19.8,38.8c-10.5,0-19-8.5-19-19l0,0c0-10.5,8.5-19,19-19l0,0c10.5,0,19,8.5,19,19l0,0
			C38.8,30.3,30.3,38.8,19.8,38.8z"/>
		<path class="st2" d="M10.4,12.1h18.7c1.2,0,2.3,1,2.3,2.3v10.8c0,1.2-1,2.3-2.3,2.3H10.4c-1.2,0-2.3-1-2.3-2.3V14.4
			C8.2,13.2,9.2,12.1,10.4,12.1z"/>
		<path class="st2" d="M31.2,13.8L21,19.2c-0.8,0.5-1.8,0.5-2.5,0L8.4,13.8"/>
	</g>
</g>
</svg>
