<?xml version="1.0" encoding="utf-8"?>
<!-- Generator: Adobe Illustrator 25.0.1, SVG Export Plug-In . SVG Version: 6.00 Build 0)  -->
<svg version="1.1" id="Livello_1" xmlns="http://www.w3.org/2000/svg" xmlns:xlink="http://www.w3.org/1999/xlink" x="0px" y="0px"
	 viewBox="0 0 39.6 39.6" style="enable-background:new 0 0 39.6 39.6;" xml:space="preserve">
<style type="text/css">
	.st0{opacity:0.5;fill:#FFFFFF;stroke:#222221;stroke-width:1.5;stroke-miterlimit:10;}
	.st1{fill:none;stroke:#222221;stroke-width:1.5;stroke-miterlimit:10;}
	.st2{fill:#222221;}
</style>
<g id="Livello_2_1_">
	<g id="Capa_1">
		<path class="st0" d="M19.8,38.8L19.8,38.8c-10.5,0-19-8.5-19-19l0,0c0-10.5,8.5-19,19-19l0,0c10.5,0,19,8.5,19,19l0,0
			C38.8,30.3,30.3,38.8,19.8,38.8z"/>
		<path class="st1" d="M19.8,38.8L19.8,38.8c-10.5,0-19-8.5-19-19l0,0c0-10.5,8.5-19,19-19l0,0c10.5,0,19,8.5,19,19l0,0
			C38.8,30.3,30.3,38.8,19.8,38.8z"/>
		<path class="st2" d="M9.6,26.1c5.5,3.5,12.8,1.9,16.3-3.6c1.3-2.1,2-4.5,1.9-6.9c0.8-0.6,1.5-1.3,2.1-2.1
			c-0.8,0.3-1.6,0.6-2.4,0.7c0.9-0.5,1.5-1.3,1.8-2.3c-0.8,0.5-1.7,0.8-2.6,1c-1.6-1.7-4.2-1.7-5.9-0.2c-1.1,1-1.5,2.5-1.2,4
			c-3.3-0.2-6.5-1.7-8.6-4.3c-1.1,1.9-0.5,4.3,1.3,5.6c-0.7,0-1.3-0.2-1.9-0.5c0,2,1.4,3.7,3.3,4.1c-0.6,0.2-1.3,0.2-1.9,0.1
			c0.5,1.7,2.1,2.9,3.9,2.9C14.1,25.8,11.8,26.4,9.6,26.1z"/>
	</g>
</g>
</svg>
