<?xml version="1.0" encoding="utf-8"?>
<!-- Generator: Adobe Illustrator 25.0.1, SVG Export Plug-In . SVG Version: 6.00 Build 0)  -->
<svg version="1.1" id="Livello_1" xmlns="http://www.w3.org/2000/svg" xmlns:xlink="http://www.w3.org/1999/xlink" x="0px" y="0px"
	 viewBox="0 0 39.6 39.6" style="enable-background:new 0 0 39.6 39.6;" xml:space="preserve">
<style type="text/css">
	.st0{opacity:0.5;fill:#FFFFFF;stroke:#222221;stroke-width:1.5;stroke-miterlimit:10;}
	.st1{fill:none;stroke:#222221;stroke-width:1.5;stroke-miterlimit:10;}
	.st2{fill-rule:evenodd;clip-rule:evenodd;fill:#222221;}
</style>
<g id="Livello_2_1_">
	<g id="Capa_1">
		<path class="st0" d="M19.8,38.8L19.8,38.8c-10.5,0-19-8.5-19-19l0,0c0-10.5,8.5-19,19-19l0,0c10.5,0,19,8.5,19,19l0,0
			C38.8,30.3,30.3,38.8,19.8,38.8z"/>
		<path class="st1" d="M19.8,38.8L19.8,38.8c-10.5,0-19-8.5-19-19l0,0c0-10.5,8.5-19,19-19l0,0c10.5,0,19,8.5,19,19l0,0
			C38.8,30.3,30.3,38.8,19.8,38.8z"/>
		<path class="st2" d="M30.2,19.2C30,13.6,25.3,9.2,19.6,9.4c-5.3,0.2-9.6,4.4-9.9,9.7c0,0.1,0,0.3,0,0.4c0,1.9,0.5,3.7,1.5,5.3
			l-1.9,5.4l5.7-1.8c1.5,0.8,3.3,1.3,5,1.3c5.6,0,10.2-4.5,10.2-10.2C30.2,19.4,30.2,19.3,30.2,19.2z M20,28.1
			c-1.7,0-3.3-0.5-4.7-1.4l-3.3,1.1l1.1-3.2c-1.1-1.5-1.6-3.2-1.6-5c0-0.3,0-0.6,0.1-0.8c0.5-4.7,4.7-8.2,9.5-7.7
			c4.1,0.4,7.3,3.7,7.7,7.8c0,0.2,0,0.5,0,0.7C28.5,24.2,24.7,28,20,28.1z"/>
		<path class="st2" d="M24.7,21.6c-0.3-0.1-1.5-0.7-1.7-0.8s-0.4-0.1-0.6,0.1s-0.6,0.8-0.8,1s-0.3,0.2-0.5,0.1
			c-0.7-0.3-1.4-0.7-2-1.2c-0.5-0.5-1-1.1-1.4-1.7c-0.1-0.2-0.1-0.4,0.1-0.5c0.1-0.1,0.2-0.3,0.4-0.4c0,0,0.1-0.1,0.1-0.1
			c0.1-0.1,0.1-0.2,0.2-0.3c0.1-0.1,0.1-0.3,0-0.4c-0.1-0.1-0.6-1.4-0.8-1.9s-0.4-0.4-0.6-0.4h-0.5c-0.3,0-0.5,0.1-0.7,0.3
			c-0.6,0.5-0.9,1.3-0.9,2c0,0.3,0,0.6,0.1,0.9c0.2,0.6,0.5,1.2,0.9,1.7c1,1.6,2.5,2.9,4.3,3.8c2.5,1,2.5,0.7,3,0.6
			c0.7-0.1,1.3-0.6,1.7-1.2c0.2-0.4,0.2-0.8,0.1-1.2C25.1,21.7,24.9,21.7,24.7,21.6z"/>
	</g>
</g>
</svg>
