<?xml version="1.0" encoding="utf-8"?>
<!-- Generator: Adobe Illustrator 25.0.1, SVG Export Plug-In . SVG Version: 6.00 Build 0)  -->
<svg version="1.1" id="Livello_1" xmlns="http://www.w3.org/2000/svg" xmlns:xlink="http://www.w3.org/1999/xlink" x="0px" y="0px"
	 viewBox="0 0 124.1 67" style="enable-background:new 0 0 124.1 67;" xml:space="preserve">
<style type="text/css">
	.st0{fill:#D0D0D0;}
	.st1{fill:#E42313;}
	.st2{fill:#040603;}
</style>
<g>
	<path class="st0" d="M63.7,8.5C63.7,8.5,63.7,8.5,63.7,8.5C63.9,8.5,63.8,8.5,63.7,8.5 M121.6,30.6c0,0-5.3-5.3-14.1-13.4
		c-2.3-2.1-4.5-4.1-7.5-6.6c-1.6-1.1-3.3-1.2-5-0.8c-2.3,1-2,1.1-3.2,1.7c-1.6,1-3.2,2-4.9,3.1l-1.3,0.8l-0.3,0.2
		c-1.5-1.2-3.1-2.5-4.7-3.8c-3.4-2.7-6.9-5.4-10.5-8.2l-1.4-1c-0.5-0.3-0.6-0.6-2.2-1.4c-2.2-1.1-5.3-0.6-6.9,0.5
		c-1.9,1.2-3.7,2.3-5.6,3.5c-3.6,2.3-7.1,4.6-10.4,6.8c-3,2-7,4.8-8.6,5.9c-0.2,0.1-0.8,0.2-0.8,0.1c-0.4-0.1-1.4-0.6-2.1-0.9
		c-1-0.5-4.3-2-6.3-0.6C16,25.2,11.5,30.3,11.3,30.4c-0.2,0.2,6.8-4.1,16.1-10c0.8-0.1,0.7,0,2.5,1.1c0.8,0.5,1.2,0.8,2.4,1.4
		c1.5,0.7,2.8,0.6,4.3,0.4c4.7-2,6.9-3.5,10.7-5.4c3.5-1.9,7.1-3.9,10.9-6c1.8-1,3.6-2.1,5.4-3.1c0.1,0.1,0.3,0.2,0.4,0.3l1.4,1
		c3.6,2.8,7.2,5.4,10.7,7.9c1.8,1.3,3.5,2.5,5.2,3.7c2.2,1.4,4.3,1.5,6.5,0.6c2.2-1.2,2-1.4,3.1-2.1c2.3-1.8,5.6-4.4,6.3-4.9
		c2.6,1.7,5.6,3.7,8,5.2C115.1,26.9,121.6,30.6,121.6,30.6"/>
	<path class="st1" d="M100.5,27.2c0,2-1.6,3.7-3.7,3.7c-2,0-3.7-1.6-3.7-3.7c0-2,1.6-3.7,3.7-3.7C98.8,23.5,100.5,25.2,100.5,27.2"
		/>
	<path class="st1" d="M2,33c0-0.5-0.3-0.7-0.7-0.7H0v-4.8h5.3c1.7,0,2.4,0.7,2.4,2.4v4c0,0.9-0.1,1.5-0.1,1.5h0.1
		c0,0,1.6-1.7,4.6-1.7c4.7,0,7.7,3.7,7.7,9c0,5.4-3.4,9-8,9c-3.2,0-4.7-1.8-4.7-1.8H7.4c0,0,0,0.4,0,1v0.4H2V33z M11,46.9
		c1.8,0,3.4-1.5,3.4-4.1c0-2.6-1.4-4.2-3.4-4.2c-1.7,0-3.4,1.3-3.4,4.2C7.6,44.9,8.7,46.9,11,46.9"/>
	<path class="st1" d="M32.3,33.7c5.4,0,9.7,3.6,9.7,9c0,5.4-4.3,8.9-9.7,8.9c-5.4,0-9.7-3.6-9.7-8.9C22.6,37.3,26.9,33.7,32.3,33.7
		 M32.3,46.9c2.1,0,3.9-1.6,3.9-4.1c0-2.6-1.8-4.2-3.9-4.2c-2.1,0-3.9,1.6-3.9,4.2C28.4,45.3,30.2,46.9,32.3,46.9"/>
	<path class="st1" d="M46,39.7c0-0.5-0.3-0.7-0.7-0.7H44v-4.8h5.1c1.6,0,2.4,0.6,2.4,2.2v0.9c0,0.5-0.1,0.9-0.1,0.9h0.1
		c0.7-2.3,2.9-4.3,5.5-4.3c0.3,0,0.7,0.1,0.7,0.1v5.7c0,0-0.5-0.1-1.2-0.1c-1.4,0-3.6,0.4-4.4,3c-0.2,0.6-0.3,1.4-0.3,2.3v6.5H46
		V39.7z"/>
	<path class="st1" d="M62.1,39.7c0-0.5-0.3-0.7-0.7-0.7h-1.3v-4.8h5.2c1.6,0,2.4,0.8,2.4,1.9v0.2c0,0.2,0,0.4,0,0.4h0.1
		c0.8-1.2,2.3-3,5-3c2.2,0,3.9,1,4.8,2.9h0.1c0.9-1.4,2.9-2.9,5.5-2.9c3.1,0,5.6,1.7,5.6,6.4v5.6c0,0.5,0.3,0.7,0.7,0.7h1.3v4.8
		h-5.3c-1.7,0-2.4-0.7-2.4-2.4v-7.7c0-1.3-0.2-2.2-1.3-2.2c-1.7,0-2.7,1.4-3.1,3.3c-0.1,0.6-0.2,1.2-0.2,1.9v7.1h-5.8V41.1
		c0-1.3-0.2-2.2-1.3-2.2c-1.7,0-2.7,1.3-3.1,3.2c-0.1,0.6-0.2,1.3-0.2,2.1v7.1h-5.8V39.7z"/>
	<path class="st1" d="M94.7,39.7c0-0.5-0.3-0.7-0.7-0.7h-1.3v-4.8h5.3c1.7,0,2.4,0.7,2.4,2.4v9.2c0,0.5,0.3,0.7,0.7,0.7h1.3v4.8
		h-5.3c-1.7,0-2.4-0.7-2.4-2.4V39.7z"/>
	<path class="st1" d="M114.2,33.7c5.4,0,9.7,3.6,9.7,9c0,5.4-4.3,8.9-9.7,8.9c-5.4,0-9.7-3.6-9.7-8.9
		C104.5,37.3,108.8,33.7,114.2,33.7 M114.2,46.9c2.1,0,3.9-1.6,3.9-4.1c0-2.6-1.8-4.2-3.9-4.2c-2.1,0-3.9,1.6-3.9,4.2
		C110.3,45.3,112.1,46.9,114.2,46.9"/>
	<path class="st2" d="M14,62.1h-0.6v-0.7h0.6V60H15v1.4h1.1v0.7H15v2.1c0,0.9,0.7,1.1,1,1.1c0.1,0,0.2,0,0.2,0V66c0,0-0.1,0-0.3,0
		c-0.6,0-1.8-0.2-1.8-1.8V62.1z"/>
	<path class="st2" d="M17.2,59.4h0.9v2.4c0,0.2,0,0.4,0,0.4h0c0.2-0.5,0.8-1.1,1.8-1.1c1.1,0,1.6,0.6,1.6,1.8v3h-0.9v-2.8
		c0-0.7-0.1-1.2-0.9-1.2c-0.7,0-1.3,0.5-1.5,1.2c-0.1,0.2-0.1,0.4-0.1,0.6V66h-0.9V59.4z"/>
	<path class="st2" d="M26,63.1c0-0.8-0.5-1.2-1.1-1.2c-0.7,0-1.3,0.4-1.4,1.2H26z M24.9,61.2c1.3,0,2.1,1,2.1,2.2c0,0.1,0,0.4,0,0.4
		h-3.5c0,1,0.8,1.6,1.6,1.6c0.8,0,1.4-0.6,1.4-0.6l0.4,0.7c0,0-0.7,0.7-1.8,0.7c-1.5,0-2.5-1.1-2.5-2.5
		C22.5,62.1,23.6,61.2,24.9,61.2"/>
	<path class="st2" d="M29.9,61.3h1l1,3.3c0.1,0.2,0.1,0.5,0.1,0.5h0c0,0,0-0.3,0.1-0.5l1-3.3H34l1,3.3c0.1,0.2,0.1,0.5,0.1,0.5h0
		c0,0,0-0.3,0.1-0.5l1-3.3h1L35.7,66h-1l-1-3c-0.1-0.2-0.1-0.5-0.1-0.5h0c0,0-0.1,0.3-0.1,0.5l-1,3h-1L29.9,61.3z"/>
	<path class="st2" d="M41.3,63.1c0-0.8-0.5-1.2-1.1-1.2c-0.7,0-1.3,0.4-1.4,1.2H41.3z M40.1,61.2c1.3,0,2.1,1,2.1,2.2
		c0,0.1,0,0.4,0,0.4h-3.5c0,1,0.8,1.6,1.6,1.6c0.8,0,1.4-0.6,1.4-0.6l0.4,0.7c0,0-0.7,0.7-1.8,0.7c-1.5,0-2.5-1.1-2.5-2.5
		C37.8,62.1,38.8,61.2,40.1,61.2"/>
	<path class="st2" d="M43.2,59.4h0.9v5.2c0,0.6,0.2,0.7,0.5,0.7c0.1,0,0.2,0,0.2,0V66c0,0-0.1,0-0.3,0c-0.5,0-1.3-0.1-1.3-1.3V59.4z
		"/>
	<path class="st2" d="M45.7,59.4h0.9v5.2c0,0.6,0.2,0.7,0.5,0.7c0.1,0,0.2,0,0.2,0V66c0,0-0.1,0-0.3,0c-0.5,0-1.3-0.1-1.3-1.3V59.4z
		"/>
	<path class="st2" d="M48.3,61.3h0.9v0.6c0,0.2,0,0.3,0,0.3h0c0.2-0.4,0.8-1.1,1.8-1.1c1.1,0,1.6,0.6,1.6,1.8v3h-0.9v-2.8
		c0-0.7-0.1-1.2-0.9-1.2c-0.7,0-1.3,0.5-1.5,1.2c-0.1,0.2-0.1,0.4-0.1,0.6V66h-0.9V61.3z"/>
	<path class="st2" d="M57.1,63.1c0-0.8-0.5-1.2-1.1-1.2c-0.7,0-1.3,0.4-1.4,1.2H57.1z M56,61.2c1.3,0,2.1,1,2.1,2.2
		c0,0.1,0,0.4,0,0.4h-3.5c0,1,0.8,1.6,1.6,1.6c0.8,0,1.4-0.6,1.4-0.6l0.4,0.7c0,0-0.7,0.7-1.8,0.7c-1.5,0-2.5-1.1-2.5-2.5
		C53.6,62.1,54.6,61.2,56,61.2"/>
	<path class="st2" d="M59.2,64.8c0,0,0.5,0.6,1.4,0.6c0.4,0,0.8-0.2,0.8-0.6c0-0.9-2.4-0.7-2.4-2.2c0-0.9,0.8-1.4,1.7-1.4
		c1,0,1.5,0.5,1.5,0.5l-0.4,0.7c0,0-0.4-0.4-1.2-0.4c-0.4,0-0.8,0.2-0.8,0.6c0,0.9,2.4,0.7,2.4,2.2c0,0.8-0.7,1.4-1.7,1.4
		c-1.2,0-1.8-0.7-1.8-0.7L59.2,64.8z"/>
	<path class="st2" d="M63.4,64.8c0,0,0.5,0.6,1.4,0.6c0.4,0,0.8-0.2,0.8-0.6c0-0.9-2.4-0.7-2.4-2.2c0-0.9,0.8-1.4,1.7-1.4
		c1,0,1.5,0.5,1.5,0.5l-0.4,0.7c0,0-0.4-0.4-1.2-0.4c-0.4,0-0.8,0.2-0.8,0.6c0,0.9,2.4,0.7,2.4,2.2c0,0.8-0.7,1.4-1.7,1.4
		c-1.2,0-1.8-0.7-1.8-0.7L63.4,64.8z"/>
	<path class="st2" d="M69.9,61.3h0.9v0.6c0,0.2,0,0.3,0,0.3h0c0.2-0.6,0.9-1.1,1.6-1.1c0.8,0,1.3,0.4,1.4,1.1h0
		c0.3-0.6,0.9-1.1,1.7-1.1c1.1,0,1.6,0.6,1.6,1.8v3h-0.9v-2.8c0-0.7-0.1-1.2-0.8-1.2c-0.7,0-1.2,0.6-1.3,1.2c0,0.2-0.1,0.4-0.1,0.7
		V66h-0.9v-2.8c0-0.6-0.1-1.2-0.8-1.2c-0.7,0-1.2,0.6-1.4,1.2c0,0.2-0.1,0.4-0.1,0.6V66h-0.9V61.3z"/>
	<path class="st2" d="M80.7,65.4c0.9,0,1.6-0.7,1.6-1.7c0-1-0.7-1.7-1.6-1.7c-0.9,0-1.6,0.7-1.6,1.7C79.1,64.6,79.8,65.4,80.7,65.4
		 M80.7,61.2c1.4,0,2.6,1,2.6,2.5c0,1.4-1.1,2.5-2.6,2.5c-1.4,0-2.6-1.1-2.6-2.5C78.1,62.2,79.3,61.2,80.7,61.2"/>
	<path class="st2" d="M84.3,61.3h0.9v2.8c0,0.7,0.1,1.2,0.9,1.2c1,0,1.5-0.9,1.5-1.8v-2.2h0.9V66h-0.9v-0.6c0-0.2,0-0.3,0-0.3h0
		c-0.2,0.5-0.8,1.1-1.7,1.1c-1.1,0-1.6-0.6-1.6-1.8V61.3z"/>
	<path class="st2" d="M89.9,61.3h0.9v0.6c0,0.2,0,0.3,0,0.3h0c0.2-0.4,0.8-1.1,1.8-1.1c1.1,0,1.6,0.6,1.6,1.8v3h-0.9v-2.8
		c0-0.7-0.1-1.2-0.9-1.2c-0.7,0-1.3,0.5-1.5,1.2c-0.1,0.2-0.1,0.4-0.1,0.6V66h-0.9V61.3z"/>
	<path class="st2" d="M95.8,62.1h-0.6v-0.7h0.6V60h0.9v1.4h1.1v0.7h-1.1v2.1c0,0.9,0.7,1.1,1,1.1c0.1,0,0.2,0,0.2,0V66
		c0,0-0.1,0-0.3,0c-0.6,0-1.8-0.2-1.8-1.8V62.1z"/>
	<path class="st2" d="M100.3,65.4c0.8,0,1.3-0.8,1.3-1.5v-0.1h-0.2c-0.7,0-1.9,0-1.9,0.9C99.5,65,99.8,65.4,100.3,65.4 M101.4,63.1
		h0.2V63c0-0.8-0.4-1-1-1c-0.7,0-1.3,0.5-1.3,0.5l-0.4-0.7c0,0,0.7-0.6,1.8-0.6c1.2,0,1.9,0.7,1.9,1.9v3h-0.8v-0.4
		c0-0.2,0-0.4,0-0.4h0c0,0-0.4,0.9-1.5,0.9c-0.8,0-1.6-0.5-1.6-1.4C98.5,63.1,100.6,63.1,101.4,63.1"/>
</g>
<path class="st2" d="M103.9,66h0.9v-4.7h-0.9V66z M103.9,60.3h0.9v-0.9h-0.9V60.3z"/>
<g>
	<path class="st2" d="M106.2,61.3h0.9v0.6c0,0.2,0,0.3,0,0.3h0c0.2-0.4,0.8-1.1,1.8-1.1c1.1,0,1.6,0.6,1.6,1.8v3h-0.9v-2.8
		c0-0.7-0.1-1.2-0.9-1.2c-0.7,0-1.3,0.5-1.5,1.2c-0.1,0.2-0.1,0.4-0.1,0.6V66h-0.9V61.3z"/>
</g>
</svg>
