<?xml version="1.0" encoding="utf-8"?>
<!-- Generator: Adobe Illustrator 25.0.1, SVG Export Plug-In . SVG Version: 6.00 Build 0)  -->
<svg version="1.1" id="Livello_1" xmlns="http://www.w3.org/2000/svg" xmlns:xlink="http://www.w3.org/1999/xlink" x="0px" y="0px"
	 viewBox="0 0 191.2 67.2" style="enable-background:new 0 0 191.2 67.2;" xml:space="preserve">
<style type="text/css">
	.st0{fill:#FFFFFF;}
</style>
<path class="st0" d="M34.4,65.5c0.7,0,1.1-0.4,1.1-1.1c0-0.6-0.4-1.1-1.1-1.1h-1.4v2.1H34.4z M34.4,62.7c0.6,0,0.9-0.4,0.9-0.9
	c0-0.5-0.3-0.9-0.9-0.9h-1.3v1.9H34.4z M32.2,60.1h2.2c1,0,1.8,0.6,1.8,1.6c0,0.6-0.3,1.1-0.8,1.3v0c0.6,0.2,1,0.8,1,1.5
	c0,1.2-0.9,1.8-2,1.8h-2.2V60.1z"/>
<path class="st0" d="M39.6,65.6c0.8,0,1.5-0.7,1.5-1.6c0-0.9-0.7-1.6-1.5-1.6c-0.8,0-1.5,0.7-1.5,1.6C38.1,65,38.8,65.6,39.6,65.6
	 M39.6,61.7c1.3,0,2.4,1,2.4,2.3c0,1.3-1.1,2.3-2.4,2.3c-1.3,0-2.4-1-2.4-2.3C37.2,62.7,38.3,61.7,39.6,61.7"/>
<path class="st0" d="M43,61.8h0.8v0.8c0,0.2,0,0.3,0,0.3h0c0.2-0.6,0.7-1.2,1.4-1.2c0.1,0,0.2,0,0.2,0v0.8c0,0-0.1,0-0.2,0
	c-0.5,0-1,0.4-1.2,1c-0.1,0.3-0.1,0.5-0.1,0.8v1.8H43V61.8z"/>
<path class="st0" d="M46.3,61.8h0.8v0.6c0,0.2,0,0.3,0,0.3h0c0.2-0.5,0.8-1,1.5-1c0.7,0,1.2,0.3,1.3,1h0c0.2-0.5,0.9-1,1.6-1
	c1,0,1.5,0.6,1.5,1.7v2.8h-0.9v-2.7c0-0.6-0.1-1.1-0.8-1.1c-0.6,0-1.1,0.5-1.2,1.1c0,0.2-0.1,0.4-0.1,0.6v2h-0.9v-2.7
	c0-0.6-0.1-1.1-0.8-1.1c-0.6,0-1.1,0.5-1.3,1.2c0,0.2-0.1,0.4-0.1,0.6v2h-0.8V61.8z"/>
<path class="st0" d="M54.3,66.3h0.9v-4.4h-0.9V66.3z M54.3,60.9h0.9v-0.9h-0.9V60.9z"/>
<path class="st0" d="M58.6,65.6c0.8,0,1.5-0.7,1.5-1.6c0-0.9-0.7-1.6-1.5-1.6c-0.8,0-1.5,0.7-1.5,1.6C57,65,57.7,65.6,58.6,65.6
	 M58.6,61.7c1.3,0,2.4,1,2.4,2.3c0,1.3-1.1,2.3-2.4,2.3c-1.3,0-2.4-1-2.4-2.3C56.2,62.7,57.2,61.7,58.6,61.7"/>
<polygon class="st0" points="62.1,65.3 63,65.3 62.2,67.2 61.5,67.2 "/>
<path class="st0" d="M66.6,62.6h-0.6v-0.7h0.6v-1.3h0.8v1.3h1.1v0.7h-1.1v2c0,0.9,0.6,1,0.9,1c0.1,0,0.2,0,0.2,0v0.8
	c0,0-0.1,0-0.3,0c-0.6,0-1.7-0.2-1.7-1.7V62.6z"/>
<path class="st0" d="M69.6,60.1h0.8v2.3c0,0.2,0,0.4,0,0.4h0c0.2-0.4,0.8-1,1.6-1c1,0,1.5,0.6,1.5,1.7v2.8h-0.9v-2.6
	c0-0.6-0.1-1.1-0.8-1.1c-0.7,0-1.2,0.5-1.4,1.1c-0.1,0.2-0.1,0.4-0.1,0.6v2.1h-0.8V60.1z"/>
<path class="st0" d="M77.8,63.5c0-0.8-0.5-1.1-1.1-1.1c-0.6,0-1.2,0.4-1.3,1.1H77.8z M76.8,61.7c1.3,0,1.9,0.9,1.9,2.1
	c0,0.1,0,0.4,0,0.4h-3.2c0,1,0.7,1.5,1.5,1.5c0.8,0,1.3-0.5,1.3-0.5l0.4,0.6c0,0-0.7,0.6-1.7,0.6c-1.4,0-2.3-1-2.3-2.3
	C74.6,62.6,75.5,61.7,76.8,61.7"/>
<path class="st0" d="M81.5,61.8h0.9l0.9,3.1c0.1,0.2,0.1,0.5,0.1,0.5h0c0,0,0-0.2,0.1-0.5l1-3.1h0.8l1,3.1c0.1,0.2,0.1,0.5,0.1,0.5
	h0c0,0,0-0.2,0.1-0.5l0.9-3.1h0.9l-1.4,4.4h-0.9L85,63.4c-0.1-0.2-0.1-0.5-0.1-0.5h0c0,0-0.1,0.3-0.1,0.5l-0.9,2.8h-0.9L81.5,61.8z"
	/>
<path class="st0" d="M92.1,63.5c0-0.8-0.5-1.1-1.1-1.1c-0.6,0-1.2,0.4-1.3,1.1H92.1z M91,61.7c1.3,0,1.9,0.9,1.9,2.1
	c0,0.1,0,0.4,0,0.4h-3.2c0,1,0.7,1.5,1.5,1.5c0.8,0,1.3-0.5,1.3-0.5l0.4,0.6c0,0-0.7,0.6-1.7,0.6c-1.4,0-2.3-1-2.3-2.3
	C88.8,62.6,89.8,61.7,91,61.7"/>
<path class="st0" d="M93.9,60.1h0.8v4.8c0,0.5,0.2,0.6,0.5,0.6c0.1,0,0.1,0,0.1,0v0.8c0,0-0.1,0-0.3,0c-0.5,0-1.2-0.1-1.2-1.2V60.1z
	"/>
<path class="st0" d="M96.2,60.1h0.8v4.8c0,0.5,0.2,0.6,0.5,0.6c0.1,0,0.1,0,0.1,0v0.8c0,0-0.1,0-0.3,0c-0.5,0-1.2-0.1-1.2-1.2V60.1z
	"/>
<path class="st0" d="M98.6,61.8h0.8v0.6c0,0.2,0,0.3,0,0.3h0c0.2-0.4,0.7-1,1.7-1c1,0,1.5,0.6,1.5,1.7v2.8h-0.9v-2.6
	c0-0.6-0.1-1.1-0.8-1.1c-0.7,0-1.2,0.4-1.4,1.1c-0.1,0.2-0.1,0.4-0.1,0.6v2.1h-0.8V61.8z"/>
<path class="st0" d="M106.9,63.5c0-0.8-0.5-1.1-1.1-1.1c-0.6,0-1.2,0.4-1.3,1.1H106.9z M105.8,61.7c1.3,0,1.9,0.9,1.9,2.1
	c0,0.1,0,0.4,0,0.4h-3.2c0,1,0.7,1.5,1.5,1.5c0.8,0,1.3-0.5,1.3-0.5l0.4,0.6c0,0-0.7,0.6-1.7,0.6c-1.4,0-2.3-1-2.3-2.3
	C103.6,62.6,104.6,61.7,105.8,61.7"/>
<path class="st0" d="M108.8,65.1c0,0,0.5,0.5,1.3,0.5c0.4,0,0.7-0.2,0.7-0.6c0-0.8-2.3-0.6-2.3-2.1c0-0.8,0.7-1.3,1.6-1.3
	c1,0,1.4,0.5,1.4,0.5l-0.3,0.6c0,0-0.4-0.4-1.1-0.4c-0.4,0-0.7,0.2-0.7,0.5c0,0.8,2.3,0.6,2.3,2.1c0,0.7-0.6,1.3-1.6,1.3
	c-1.1,0-1.7-0.6-1.7-0.6L108.8,65.1z"/>
<path class="st0" d="M112.7,65.1c0,0,0.5,0.5,1.3,0.5c0.4,0,0.7-0.2,0.7-0.6c0-0.8-2.3-0.6-2.3-2.1c0-0.8,0.7-1.3,1.6-1.3
	c1,0,1.4,0.5,1.4,0.5l-0.3,0.6c0,0-0.4-0.4-1.1-0.4c-0.4,0-0.7,0.2-0.7,0.5c0,0.8,2.3,0.6,2.3,2.1c0,0.7-0.6,1.3-1.6,1.3
	c-1.1,0-1.7-0.6-1.7-0.6L112.7,65.1z"/>
<path class="st0" d="M118.9,61.8h0.8v0.6c0,0.2,0,0.3,0,0.3h0c0.2-0.5,0.8-1,1.5-1c0.7,0,1.2,0.3,1.3,1h0c0.2-0.5,0.9-1,1.6-1
	c1,0,1.5,0.6,1.5,1.7v2.8h-0.9v-2.7c0-0.6-0.1-1.1-0.8-1.1c-0.6,0-1.1,0.5-1.2,1.1c0,0.2-0.1,0.4-0.1,0.6v2h-0.9v-2.7
	c0-0.6-0.1-1.1-0.8-1.1c-0.6,0-1.1,0.5-1.3,1.2c0,0.2-0.1,0.4-0.1,0.6v2h-0.8V61.8z"/>
<path class="st0" d="M128.9,65.6c0.8,0,1.5-0.7,1.5-1.6c0-0.9-0.7-1.6-1.5-1.6c-0.8,0-1.5,0.7-1.5,1.6
	C127.4,65,128.1,65.6,128.9,65.6 M128.9,61.7c1.3,0,2.4,1,2.4,2.3c0,1.3-1.1,2.3-2.4,2.3c-1.3,0-2.4-1-2.4-2.3
	C126.5,62.7,127.6,61.7,128.9,61.7"/>
<path class="st0" d="M132.3,61.8h0.9v2.6c0,0.6,0.1,1.1,0.8,1.1c0.9,0,1.4-0.8,1.4-1.7v-2.1h0.8v4.4h-0.8v-0.6c0-0.2,0-0.3,0-0.3h0
	c-0.2,0.4-0.8,1-1.6,1c-1,0-1.5-0.5-1.5-1.7V61.8z"/>
<path class="st0" d="M137.6,61.8h0.8v0.6c0,0.2,0,0.3,0,0.3h0c0.2-0.4,0.7-1,1.7-1c1,0,1.5,0.6,1.5,1.7v2.8h-0.9v-2.6
	c0-0.6-0.1-1.1-0.8-1.1c-0.7,0-1.2,0.4-1.4,1.1c-0.1,0.2-0.1,0.4-0.1,0.6v2.1h-0.8V61.8z"/>
<path class="st0" d="M143,62.6h-0.6v-0.7h0.6v-1.3h0.8v1.3h1.1v0.7h-1.1v2c0,0.9,0.6,1,0.9,1c0.1,0,0.2,0,0.2,0v0.8c0,0-0.1,0-0.3,0
	c-0.6,0-1.7-0.2-1.7-1.7V62.6z"/>
<path class="st0" d="M147.3,65.7c0.7,0,1.2-0.8,1.2-1.4v-0.1h-0.2c-0.6,0-1.8,0-1.8,0.8C146.5,65.3,146.8,65.7,147.3,65.7
	 M148.3,63.5h0.2v-0.1c0-0.7-0.4-1-1-1c-0.7,0-1.2,0.4-1.2,0.4l-0.4-0.6c0,0,0.6-0.5,1.7-0.5c1.1,0,1.8,0.6,1.8,1.7v2.8h-0.8v-0.4
	c0-0.2,0-0.4,0-0.4h0c0,0-0.4,0.9-1.4,0.9c-0.8,0-1.5-0.5-1.5-1.3C145.6,63.6,147.6,63.5,148.3,63.5"/>
<path class="st0" d="M150.6,66.3h0.8v-4.4h-0.8V66.3z M150.6,60.9h0.9v-0.9h-0.9V60.9z"/>
<path class="st0" d="M152.8,61.8h0.8v0.6c0,0.2,0,0.3,0,0.3h0c0.2-0.4,0.7-1,1.7-1c1,0,1.5,0.6,1.5,1.7v2.8H156v-2.6
	c0-0.6-0.1-1.1-0.8-1.1c-0.7,0-1.2,0.4-1.4,1.1c-0.1,0.2-0.1,0.4-0.1,0.6v2.1h-0.8V61.8z"/>
<path class="st0" d="M93,8.2C93,8.2,93,8.2,93,8.2C93.1,8.2,93.1,8.2,93,8.2 M145.6,27.5c0,0-2.4-3.3-10.9-11c-2.2-2-4.3-4-7.2-6.3
	c-1.5-1.1-3.1-1.1-4.8-0.7c-2.2,0.9-1.9,1.1-3,1.6c-1.5,0.9-3.1,1.9-4.7,2.9l-1.2,0.8l-0.3,0.2c-1.5-1.2-2.9-2.4-4.5-3.6
	c-3.2-2.6-6.6-5.2-10.1-7.8l-1.3-1c-0.5-0.3-0.6-0.6-2.1-1.3c-2.1-1.1-5-0.5-6.6,0.5c-1.8,1.1-3.6,2.2-5.3,3.4
	c-3.5,2.2-6.8,4.4-9.9,6.5c-2.9,1.9-6.7,4.5-8.3,5.7c-0.2,0.1-0.7,0.2-0.8,0.1c-0.4-0.1-1.4-0.6-2-0.8c-0.9-0.5-4.1-1.9-6-0.6
	c-9.4,8.1-10.8,10.8-11,10.8c-0.2,0.2,3.6-1.7,12.5-7.3c0.8-0.1,0.7,0,2.4,1.1c0.8,0.4,0.8,0.5,1.9,1.1c2.6,1.2,5,0,7.4-1.1
	c2.3-1.1,4.7-2.5,7-3.7c3.3-1.8,6.7-3.5,10.3-5.5c1.7-1,3.8-1.9,5.5-3c0.1,0.1,0.3,0.2,0.4,0.3l1.3,1c3.5,2.6,6.9,5.1,10.3,7.5
	c1.7,1.2,3.3,2.4,4.9,3.5c2.1,1.4,4.1,1.4,6.2,0.6c2.1-1.1,1.9-1.3,2.9-2c2.2-1.7,5.4-4.2,6-4.7c2.5,1.6,5.3,3.5,7.7,5
	C142.1,25.8,145.6,27.5,145.6,27.5"/>
<path class="st0" d="M160.4,39.9c0-0.4-0.3-0.7-0.7-0.7h-1.2v-4.6h4.9c1.5,0,2.3,0.6,2.3,2.1v0.9c0,0.5-0.1,0.8-0.1,0.8h0.1
	c0.7-2.2,2.8-4.1,5.2-4.1c0.3,0,0.6,0.1,0.6,0.1v5.4c0,0-0.4-0.1-1.1-0.1c-1.3,0-3.4,0.4-4.2,2.9c-0.2,0.6-0.3,1.3-0.3,2.2v6.2h-5.5
	V39.9z"/>
<path class="st0" d="M78.6,28c0,1.9-1.6,3.5-3.5,3.5c-1.9,0-3.5-1.6-3.5-3.5c0-1.9,1.6-3.5,3.5-3.5C77,24.5,78.6,26.1,78.6,28"/>
<path class="st0" d="M73.1,39.9c0-0.4-0.3-0.7-0.7-0.7h-1.2v-4.6h5.1c1.6,0,2.3,0.7,2.3,2.3v8.7c0,0.4,0.3,0.7,0.7,0.7h1.2V51h-5.1
	c-1.6,0-2.3-0.7-2.3-2.3V39.9z"/>
<path class="st0" d="M0,34.5h8.8v4H7.3l1.9,5.9c0.4,1,0.4,2.2,0.4,2.2h0.1c0,0,0.1-1.2,0.4-2.2l1.9-5.9h-1.5v-4h8.8v4h-1.9L12.9,51
	H6.4L1.9,38.5H0V34.5z"/>
<path class="st0" d="M27.4,47.4c1.4,0,2.8-1.7,2.8-3.1v-0.4h-0.5c-1.8,0-3.8,0.6-3.8,2C25.9,46.8,26.5,47.4,27.4,47.4 M29.2,40.8h1
	v-0.5c0-1.3-1.1-1.8-2.3-1.8c-2.2,0-4.5,1.6-4.5,1.6l-1.9-3.7c0,0,2.8-2.1,7-2.1c4.8,0,7.4,2.4,7.4,6.7v5.4c0,0.4,0.3,0.7,0.7,0.7
	h1.2v4h-4.8c-1.6,0-2.2-0.9-2.2-1.7v-0.1c0-0.3,0.1-0.5,0.1-0.5h-0.1c0,0-1.3,2.7-4.9,2.7c-2.9,0-5.4-1.8-5.4-5.1
	C20.4,41.5,26.6,40.8,29.2,40.8"/>
<path class="st0" d="M40.2,32.1h-2.2v-4h4.7c1.7,0,3.1,1.4,3.1,3.1v13.4c0,1.6,0.3,2.1,1.5,2.1c0.4,0,0.7,0,0.7,0V51
	c0,0-0.8,0.1-1.7,0.1c-2.9,0-6.1-0.7-6.1-6.2V32.1z"/>
<path class="st0" d="M58.5,46.8c1.7,0,3.3-1.2,3.3-3.9c0-2.2-1.1-4.1-3.2-4.1c-1.8,0-3.3,1.4-3.3,4C55.3,45.2,56.6,46.8,58.5,46.8
	 M57.3,34.1c3.2,0,4.2,1.6,4.2,1.6h0.1c0,0,0-0.4,0-1.1v-2.6h-2.2v-4h5.1c1.5,0,2.7,1.2,2.7,2.7v15.5c0,0.4,0.3,0.7,0.7,0.7H69v4
	h-4.8c-1.6,0-2.2-0.9-2.2-1.7v-0.1c0-0.3,0.1-0.5,0.1-0.5H62c0,0-1.2,2.7-5.1,2.7c-4.4,0-7.3-3.5-7.3-8.6
	C49.7,37.5,52.8,34.1,57.3,34.1"/>
<path class="st0" d="M91.6,46.8c1.7,0,3.3-1.2,3.3-3.9c0-2.2-1.1-4.1-3.2-4.1c-1.8,0-3.3,1.4-3.3,4C88.4,45.2,89.7,46.8,91.6,46.8
	 M90.4,34.1c3.2,0,4.2,1.6,4.2,1.6h0.1c0,0,0-0.4,0-1.1v-2.6h-2.2v-4h5c1.5,0,2.8,1.2,2.8,2.8v15.4c0,0.4,0.3,0.7,0.7,0.7h1.2v4
	h-4.8c-1.6,0-2.2-0.9-2.2-1.7v-0.1c0-0.3,0.1-0.5,0.1-0.5h-0.1c0,0-1.2,2.7-5.1,2.7c-4.4,0-7.3-3.5-7.3-8.6
	C82.8,37.5,85.9,34.1,90.4,34.1"/>
<path class="st0" d="M114.4,40.7c0-1.3-0.9-2.4-2.1-2.4c-1.6,0-2.4,1.2-2.7,2.4H114.4z M112.5,34.1c4.9,0,7.7,3.4,7.7,8
	c0,0.5-0.1,1.7-0.1,1.7h-10.4c0.4,2.1,2.1,3,3.8,3c2.4,0,4.6-1.6,4.6-1.6l2,3.8c0,0-2.7,2.3-7.1,2.3c-5.9,0-9-4.3-9-8.6
	C103.9,37.9,107.2,34.1,112.5,34.1"/>
<path class="st0" d="M124.5,47L124.5,47v-7.8c0-0.4-0.3-0.7-0.7-0.7h-1.5v-4h5.2c1.5,0,2.3,0.7,2.3,1.9v0.5c0,0.2,0,0.4,0,0.4h0.1
	c0,0,1.4-3.2,5.6-3.2c3.1,0,5.6,1.5,5.6,6.2V47h2.1v4h-5.7c-1.1,0-1.9-0.9-1.9-1.9v-7.7c0-1.5-0.6-2.2-1.9-2.2
	c-2.5,0-3.5,2.6-3.5,4.9v3v4h-5.5V47z"/>
<path class="st0" d="M146.3,38.5h-2.2v-4h2.4v-4.4h5.4v4.4h3.4v4h-3.4v5.8c0,2,1.9,2.3,2.9,2.3c0.4,0,0.7,0,0.7,0V51
	c0,0-0.6,0.1-1.5,0.1c-2.6,0-7.7-0.7-7.7-6.2V38.5z"/>
<path class="st0" d="M181.8,46.8c2,0,3.7-1.5,3.7-4c0-2.5-1.7-4.1-3.7-4.1s-3.7,1.6-3.7,4.1C178.1,45.3,179.8,46.8,181.8,46.8
	 M181.8,34.1c5.2,0,9.4,3.5,9.4,8.7c0,5.1-4.2,8.6-9.3,8.6s-9.3-3.4-9.3-8.6C172.5,37.6,176.7,34.1,181.8,34.1"/>
</svg>
